<svg version="1.1" xmlns="http://www.w3.org/2000/svg" xmlns:xlink="http://www.w3.org/1999/xlink" width="435" height="892"><defs/><g><g transform="translate(-9,-9) scale(1,1)"><rect fill="#C0C0C0" stroke="none" x="246.12255859375" y="227" width="84.841796875" height="39" opacity="0.2"/></g><g transform="translate(-9,-9) scale(1,1)"><rect fill="#ffffff" stroke="none" x="239.12255859375" y="220" width="84.841796875" height="39"/></g><g transform="translate(-9,-9) scale(1,1)"><path fill="none" stroke="#000000" d="M 239.12255859375 220 L 323.96435546875 220 L 323.96435546875 259 L 239.12255859375 259 L 239.12255859375 220 Z Z" stroke-miterlimit="10"/></g><g transform="translate(-9,-9) scale(1,1)"><g><path fill="none" stroke="none"/><text fill="#000000" stroke="none" font-family="Arial" font-size="13px" font-style="normal" font-weight="bold" text-decoration="none" x="245.41259765625" y="239.5">PoteDeOuro</text></g></g><g transform="translate(-9,-9) scale(1,1)"><g><path fill="none" stroke="none"/><text fill="#000000" stroke="none" font-family="Arial" font-size="13px" font-style="normal" font-weight="normal" text-decoration="none" x="244.704833984375" y="254.5">(from Model)</text></g></g><g transform="translate(-9,-9) scale(1,1)"><rect fill="#C0C0C0" stroke="none" x="247.204833984375" y="127" width="82.67724609375" height="39" opacity="0.2"/></g><g transform="translate(-9,-9) scale(1,1)"><rect fill="#ffffff" stroke="none" x="240.204833984375" y="120" width="82.67724609375" height="39"/></g><g transform="translate(-9,-9) scale(1,1)"><path fill="none" stroke="#000000" d="M 240.204833984375 120 L 322.882080078125 120 L 322.882080078125 159 L 240.204833984375 159 L 240.204833984375 120 Z Z" stroke-miterlimit="10"/></g><g transform="translate(-9,-9) scale(1,1)"><g><path fill="none" stroke="none"/><text fill="#000000" stroke="none" font-family="Arial" font-size="13px" font-style="normal" font-weight="bold" text-decoration="none" x="253.724853515625" y="139.5">Diamante</text></g></g><g transform="translate(-9,-9) scale(1,1)"><g><path fill="none" stroke="none"/><text fill="#000000" stroke="none" font-family="Arial" font-size="13px" font-style="normal" font-weight="normal" text-decoration="none" x="244.704833984375" y="154.5">(from Model)</text></g></g><g transform="translate(-9,-9) scale(1,1)"><rect fill="#C0C0C0" stroke="none" x="247.204833984375" y="277" width="82.67724609375" height="39" opacity="0.2"/></g><g transform="translate(-9,-9) scale(1,1)"><rect fill="#ffffff" stroke="none" x="240.204833984375" y="270" width="82.67724609375" height="39"/></g><g transform="translate(-9,-9) scale(1,1)"><path fill="none" stroke="#000000" d="M 240.204833984375 270 L 322.882080078125 270 L 322.882080078125 309 L 240.204833984375 309 L 240.204833984375 270 Z Z" stroke-miterlimit="10"/></g><g transform="translate(-9,-9) scale(1,1)"><g><path fill="none" stroke="none"/><text fill="#000000" stroke="none" font-family="Arial" font-size="13px" font-style="normal" font-weight="bold" text-decoration="none" x="267.8134765625" y="289.5">Jaca</text></g></g><g transform="translate(-9,-9) scale(1,1)"><g><path fill="none" stroke="none"/><text fill="#000000" stroke="none" font-family="Arial" font-size="13px" font-style="normal" font-weight="normal" text-decoration="none" x="244.704833984375" y="304.5">(from Model)</text></g></g><g transform="translate(-9,-9) scale(1,1)"><rect fill="#C0C0C0" stroke="none" x="247.204833984375" y="177" width="82.67724609375" height="39" opacity="0.2"/></g><g transform="translate(-9,-9) scale(1,1)"><rect fill="#ffffff" stroke="none" x="240.204833984375" y="170" width="82.67724609375" height="39"/></g><g transform="translate(-9,-9) scale(1,1)"><path fill="none" stroke="#000000" d="M 240.204833984375 170 L 322.882080078125 170 L 322.882080078125 209 L 240.204833984375 209 L 240.204833984375 170 Z Z" stroke-miterlimit="10"/></g><g transform="translate(-9,-9) scale(1,1)"><g><path fill="none" stroke="none"/><text fill="#000000" stroke="none" font-family="Arial" font-size="13px" font-style="normal" font-weight="bold" text-decoration="none" x="268.89892578125" y="189.5">Acai</text></g></g><g transform="translate(-9,-9) scale(1,1)"><g><path fill="none" stroke="none"/><text fill="#000000" stroke="none" font-family="Arial" font-size="13px" font-style="normal" font-weight="normal" text-decoration="none" x="244.704833984375" y="204.5">(from Model)</text></g></g><g transform="translate(-9,-9) scale(1,1)"><rect fill="#C0C0C0" stroke="none" x="437.75341796875" y="602" width="89.91357421875" height="39" opacity="0.2"/></g><g transform="translate(-9,-9) scale(1,1)"><rect fill="#ffffff" stroke="none" x="430.75341796875" y="595" width="89.91357421875" height="39"/></g><g transform="translate(-9,-9) scale(1,1)"><path fill="none" stroke="#000000" d="M 430.75341796875 595 L 520.6669921875 595 L 520.6669921875 634 L 430.75341796875 634 L 430.75341796875 595 Z Z" stroke-miterlimit="10"/></g><g transform="translate(-9,-9) scale(1,1)"><g><path fill="none" stroke="none"/><text fill="#000000" stroke="none" font-family="Arial" font-size="13px" font-style="normal" font-weight="bold" text-decoration="none" x="438.138427734375" y="614.5">AguiaMarcial</text></g></g><g transform="translate(-9,-9) scale(1,1)"><g><path fill="none" stroke="none"/><text fill="#000000" stroke="none" font-family="Arial" font-size="13px" font-style="normal" font-weight="normal" text-decoration="none" x="438.87158203125" y="629.5">(from Model)</text></g></g><g transform="translate(-9,-9) scale(1,1)"><rect fill="#C0C0C0" stroke="none" x="441.37158203125" y="752" width="82.67724609375" height="39" opacity="0.2"/></g><g transform="translate(-9,-9) scale(1,1)"><rect fill="#ffffff" stroke="none" x="434.37158203125" y="745" width="82.67724609375" height="39"/></g><g transform="translate(-9,-9) scale(1,1)"><path fill="none" stroke="#000000" d="M 434.37158203125 745 L 517.048828125 745 L 517.048828125 784 L 434.37158203125 784 L 434.37158203125 745 Z Z" stroke-miterlimit="10"/></g><g transform="translate(-9,-9) scale(1,1)"><g><path fill="none" stroke="none"/><text fill="#000000" stroke="none" font-family="Arial" font-size="13px" font-style="normal" font-weight="bold" text-decoration="none" x="460.894775390625" y="764.5">Piton</text></g></g><g transform="translate(-9,-9) scale(1,1)"><g><path fill="none" stroke="none"/><text fill="#000000" stroke="none" font-family="Arial" font-size="13px" font-style="normal" font-weight="normal" text-decoration="none" x="438.87158203125" y="779.5">(from Model)</text></g></g><g transform="translate(-9,-9) scale(1,1)"><rect fill="#C0C0C0" stroke="none" x="441.37158203125" y="552" width="82.67724609375" height="39" opacity="0.2"/></g><g transform="translate(-9,-9) scale(1,1)"><rect fill="#ffffff" stroke="none" x="434.37158203125" y="545" width="82.67724609375" height="39"/></g><g transform="translate(-9,-9) scale(1,1)"><path fill="none" stroke="#000000" d="M 434.37158203125 545 L 517.048828125 545 L 517.048828125 584 L 434.37158203125 584 L 434.37158203125 545 Z Z" stroke-miterlimit="10"/></g><g transform="translate(-9,-9) scale(1,1)"><g><path fill="none" stroke="none"/><text fill="#000000" stroke="none" font-family="Arial" font-size="13px" font-style="normal" font-weight="bold" text-decoration="none" x="460.901123046875" y="564.5">Tigre</text></g></g><g transform="translate(-9,-9) scale(1,1)"><g><path fill="none" stroke="none"/><text fill="#000000" stroke="none" font-family="Arial" font-size="13px" font-style="normal" font-weight="normal" text-decoration="none" x="438.87158203125" y="579.5">(from Model)</text></g></g><g transform="translate(-9,-9) scale(1,1)"><rect fill="#C0C0C0" stroke="none" x="441.37158203125" y="652" width="82.67724609375" height="39" opacity="0.2"/></g><g transform="translate(-9,-9) scale(1,1)"><rect fill="#ffffff" stroke="none" x="434.37158203125" y="645" width="82.67724609375" height="39"/></g><g transform="translate(-9,-9) scale(1,1)"><path fill="none" stroke="#000000" d="M 434.37158203125 645 L 517.048828125 645 L 517.048828125 684 L 434.37158203125 684 L 434.37158203125 645 Z Z" stroke-miterlimit="10"/></g><g transform="translate(-9,-9) scale(1,1)"><g><path fill="none" stroke="none"/><text fill="#000000" stroke="none" font-family="Arial" font-size="13px" font-style="normal" font-weight="bold" text-decoration="none" x="452.592041015625" y="664.5">Carcara</text></g></g><g transform="translate(-9,-9) scale(1,1)"><g><path fill="none" stroke="none"/><text fill="#000000" stroke="none" font-family="Arial" font-size="13px" font-style="normal" font-weight="normal" text-decoration="none" x="438.87158203125" y="679.5">(from Model)</text></g></g><g transform="translate(-9,-9) scale(1,1)"><rect fill="#C0C0C0" stroke="none" x="441.37158203125" y="702" width="82.67724609375" height="39" opacity="0.2"/></g><g transform="translate(-9,-9) scale(1,1)"><rect fill="#ffffff" stroke="none" x="434.37158203125" y="695" width="82.67724609375" height="39"/></g><g transform="translate(-9,-9) scale(1,1)"><path fill="none" stroke="#000000" d="M 434.37158203125 695 L 517.048828125 695 L 517.048828125 734 L 434.37158203125 734 L 434.37158203125 695 Z Z" stroke-miterlimit="10"/></g><g transform="translate(-9,-9) scale(1,1)"><g><path fill="none" stroke="none"/><text fill="#000000" stroke="none" font-family="Arial" font-size="13px" font-style="normal" font-weight="bold" text-decoration="none" x="457.2861328125" y="714.5">Sucuri</text></g></g><g transform="translate(-9,-9) scale(1,1)"><g><path fill="none" stroke="none"/><text fill="#000000" stroke="none" font-family="Arial" font-size="13px" font-style="normal" font-weight="normal" text-decoration="none" x="438.87158203125" y="729.5">(from Model)</text></g></g><g transform="translate(-9,-9) scale(1,1)"><rect fill="#C0C0C0" stroke="none" x="441.37158203125" y="502" width="82.67724609375" height="39" opacity="0.2"/></g><g transform="translate(-9,-9) scale(1,1)"><rect fill="#ffffff" stroke="none" x="434.37158203125" y="495" width="82.67724609375" height="39"/></g><g transform="translate(-9,-9) scale(1,1)"><path fill="none" stroke="#000000" d="M 434.37158203125 495 L 517.048828125 495 L 517.048828125 534 L 434.37158203125 534 L 434.37158203125 495 Z Z" stroke-miterlimit="10"/></g><g transform="translate(-9,-9) scale(1,1)"><g><path fill="none" stroke="none"/><text fill="#000000" stroke="none" font-family="Arial" font-size="13px" font-style="normal" font-weight="bold" text-decoration="none" x="448.60888671875" y="514.5">OPintada</text></g></g><g transform="translate(-9,-9) scale(1,1)"><g><path fill="none" stroke="none"/><text fill="#000000" stroke="none" font-family="Arial" font-size="13px" font-style="normal" font-weight="normal" text-decoration="none" x="438.87158203125" y="529.5">(from Model)</text></g></g><g transform="translate(-9,-9) scale(1,1)"><rect fill="#C0C0C0" stroke="none" x="247.204833984375" y="827" width="82.67724609375" height="39" opacity="0.2"/></g><g transform="translate(-9,-9) scale(1,1)"><rect fill="#ffffff" stroke="none" x="240.204833984375" y="820" width="82.67724609375" height="39"/></g><g transform="translate(-9,-9) scale(1,1)"><path fill="none" stroke="#000000" d="M 240.204833984375 820 L 322.882080078125 820 L 322.882080078125 859 L 240.204833984375 859 L 240.204833984375 820 Z Z" stroke-miterlimit="10"/></g><g transform="translate(-9,-9) scale(1,1)"><g><path fill="none" stroke="none"/><text fill="#000000" stroke="none" font-family="Arial" font-size="13px" font-style="normal" font-weight="bold" text-decoration="none" x="259.863037109375" y="839.5">Plantas</text></g></g><g transform="translate(-9,-9) scale(1,1)"><g><path fill="none" stroke="none"/><text fill="#000000" stroke="none" font-family="Arial" font-size="13px" font-style="normal" font-weight="normal" text-decoration="none" x="244.704833984375" y="854.5">(from Model)</text></g></g><g transform="translate(-9,-9) scale(1,1)"><rect fill="#C0C0C0" stroke="none" x="247.204833984375" y="777" width="82.67724609375" height="39" opacity="0.2"/></g><g transform="translate(-9,-9) scale(1,1)"><rect fill="#ffffff" stroke="none" x="240.204833984375" y="770" width="82.67724609375" height="39"/></g><g transform="translate(-9,-9) scale(1,1)"><path fill="none" stroke="#000000" d="M 240.204833984375 770 L 322.882080078125 770 L 322.882080078125 809 L 240.204833984375 809 L 240.204833984375 770 Z Z" stroke-miterlimit="10"/></g><g transform="translate(-9,-9) scale(1,1)"><g><path fill="none" stroke="none"/><text fill="#000000" stroke="none" font-family="Arial" font-size="13px" font-style="normal" font-weight="bold" text-decoration="none" x="261.310302734375" y="789.5">Relevo</text></g></g><g transform="translate(-9,-9) scale(1,1)"><g><path fill="none" stroke="none"/><text fill="#000000" stroke="none" font-family="Arial" font-size="13px" font-style="normal" font-weight="normal" text-decoration="none" x="244.704833984375" y="804.5">(from Model)</text></g></g><g transform="translate(-9,-9) scale(1,1)"><rect fill="#C0C0C0" stroke="none" x="247.204833984375" y="877" width="82.67724609375" height="39" opacity="0.2"/></g><g transform="translate(-9,-9) scale(1,1)"><rect fill="#ffffff" stroke="none" x="240.204833984375" y="870" width="82.67724609375" height="39"/></g><g transform="translate(-9,-9) scale(1,1)"><path fill="none" stroke="#000000" d="M 240.204833984375 870 L 322.882080078125 870 L 322.882080078125 909 L 240.204833984375 909 L 240.204833984375 870 Z Z" stroke-miterlimit="10"/></g><g transform="translate(-9,-9) scale(1,1)"><g><path fill="none" stroke="none"/><text fill="#000000" stroke="none" font-family="Arial" font-size="13px" font-style="normal" font-weight="bold" text-decoration="none" x="266.363037109375" y="889.5">Agua</text></g></g><g transform="translate(-9,-9) scale(1,1)"><g><path fill="none" stroke="none"/><text fill="#000000" stroke="none" font-family="Arial" font-size="13px" font-style="normal" font-weight="normal" text-decoration="none" x="244.704833984375" y="904.5">(from Model)</text></g></g><g transform="translate(-9,-9) scale(1,1)"><rect fill="#C0C0C0" stroke="none" x="41.828125" y="52" width="82.67724609375" height="39" opacity="0.2"/></g><g transform="translate(-9,-9) scale(1,1)"><rect fill="#ffffff" stroke="none" x="34.828125" y="45" width="82.67724609375" height="39"/></g><g transform="translate(-9,-9) scale(1,1)"><path fill="none" stroke="#000000" d="M 34.828125 45 L 117.50537109375 45 L 117.50537109375 84 L 34.828125 84 L 34.828125 45 Z Z" stroke-miterlimit="10"/></g><g transform="translate(-9,-9) scale(1,1)"><g><path fill="none" stroke="none"/><text fill="#000000" stroke="none" font-family="Arial" font-size="13px" font-style="normal" font-weight="bold" text-decoration="none" x="60.627685546875" y="64.5">Level</text></g></g><g transform="translate(-9,-9) scale(1,1)"><g><path fill="none" stroke="none"/><text fill="#000000" stroke="none" font-family="Arial" font-size="13px" font-style="normal" font-weight="normal" text-decoration="none" x="39.328125" y="79.5">(from Model)</text></g></g><g transform="translate(-9,-9) scale(1,1)"><rect fill="#C0C0C0" stroke="none" x="41.828125" y="202" width="82.67724609375" height="39" opacity="0.2"/></g><g transform="translate(-9,-9) scale(1,1)"><rect fill="#ffffff" stroke="none" x="34.828125" y="195" width="82.67724609375" height="39"/></g><g transform="translate(-9,-9) scale(1,1)"><path fill="none" stroke="#000000" d="M 34.828125 195 L 117.50537109375 195 L 117.50537109375 234 L 34.828125 234 L 34.828125 195 Z Z" stroke-miterlimit="10"/></g><g transform="translate(-9,-9) scale(1,1)"><g><path fill="none" stroke="none"/><text fill="#000000" stroke="none" font-family="Arial" font-size="13px" font-style="italic" font-weight="bold" text-decoration="none" x="57.666748046875" y="214.5">Colect</text></g></g><g transform="translate(-9,-9) scale(1,1)"><g><path fill="none" stroke="none"/><text fill="#000000" stroke="none" font-family="Arial" font-size="13px" font-style="normal" font-weight="normal" text-decoration="none" x="39.328125" y="229.5">(from Model)</text></g></g><g transform="translate(-9,-9) scale(1,1)"><path fill="none" stroke="#000000" d="M 239 139 Q 183 140 105 194" stroke-miterlimit="10"/></g><g transform="translate(-9,-9) scale(1,1)"><path fill="#FFFFFF" stroke="none" d="M 116.91914480273093 175.50854285970053 L 105 194 L 126.50354285388158 189.35267337802927"/></g><g transform="translate(-9,-9) scale(1,1)"><path fill="none" stroke="#000000" d="M 116.91914480273093 175.50854285970053 L 105 194 L 126.50354285388158 189.35267337802927 L 116.91914480273093 175.50854285970053" stroke-miterlimit="10"/></g><g transform="translate(-9,-9) scale(1,1)"><path fill="none" stroke="#000000" d="M 239 189 Q 183 190 119 204" stroke-miterlimit="10"/></g><g transform="translate(-9,-9) scale(1,1)"><path fill="#FFFFFF" stroke="none" d="M 137.05671287893784 191.43198026705878 L 119 204 L 140.6549561018845 207.88109214338633"/></g><g transform="translate(-9,-9) scale(1,1)"><path fill="none" stroke="#000000" d="M 137.05671287893784 191.43198026705878 L 119 204 L 140.6549561018845 207.88109214338633 L 137.05671287893784 191.43198026705878" stroke-miterlimit="10"/></g><g transform="translate(-9,-9) scale(1,1)"><path fill="none" stroke="#000000" d="M 238 239 Q 183 240 119 224" stroke-miterlimit="10"/></g><g transform="translate(-9,-9) scale(1,1)"><path fill="#FFFFFF" stroke="none" d="M 140.76040162919296 220.76195723681477 L 119 224 L 136.67656954896546 237.09728555772483"/></g><g transform="translate(-9,-9) scale(1,1)"><path fill="none" stroke="#000000" d="M 140.76040162919296 220.76195723681477 L 119 224 L 136.67656954896546 237.09728555772483 L 140.76040162919296 220.76195723681477" stroke-miterlimit="10"/></g><g transform="translate(-9,-9) scale(1,1)"><path fill="none" stroke="#000000" d="M 239 289 Q 183 290 106 235" stroke-miterlimit="10"/></g><g transform="translate(-9,-9) scale(1,1)"><path fill="#FFFFFF" stroke="none" d="M 127.43288237115021 239.96301856378133 L 106 235 L 117.64595238340944 253.6647205466184"/></g><g transform="translate(-9,-9) scale(1,1)"><path fill="none" stroke="#000000" d="M 127.43288237115021 239.96301856378133 L 106 235 L 117.64595238340944 253.6647205466184 L 127.43288237115021 239.96301856378133" stroke-miterlimit="10"/></g><g transform="translate(-9,-9) scale(1,1)"><rect fill="#C0C0C0" stroke="none" x="27" y="352" width="112.33349609375" height="39" opacity="0.2"/></g><g transform="translate(-9,-9) scale(1,1)"><rect fill="#ffffff" stroke="none" x="20" y="345" width="112.33349609375" height="39"/></g><g transform="translate(-9,-9) scale(1,1)"><path fill="none" stroke="#000000" d="M 20 345 L 132.33349609375 345 L 132.33349609375 384 L 20 384 L 20 345 Z Z" stroke-miterlimit="10"/></g><g transform="translate(-9,-9) scale(1,1)"><g><path fill="none" stroke="none"/><text fill="#000000" stroke="none" font-family="Arial" font-size="13px" font-style="italic" font-weight="bold" text-decoration="none" x="27.666748046875" y="364.5">FabricaDeLevels</text></g></g><g transform="translate(-9,-9) scale(1,1)"><g><path fill="none" stroke="none"/><text fill="#000000" stroke="none" font-family="Arial" font-size="13px" font-style="normal" font-weight="normal" text-decoration="none" x="39.328125" y="379.5">(from Model)</text></g></g><g transform="translate(-9,-9) scale(1,1)"><rect fill="#C0C0C0" stroke="none" x="247.204833984375" y="27" width="82.67724609375" height="39" opacity="0.2"/></g><g transform="translate(-9,-9) scale(1,1)"><rect fill="#ffffff" stroke="none" x="240.204833984375" y="20" width="82.67724609375" height="39"/></g><g transform="translate(-9,-9) scale(1,1)"><path fill="none" stroke="#000000" d="M 240.204833984375 20 L 322.882080078125 20 L 322.882080078125 59 L 240.204833984375 59 L 240.204833984375 20 Z Z" stroke-miterlimit="10"/></g><g transform="translate(-9,-9) scale(1,1)"><g><path fill="none" stroke="none"/><text fill="#000000" stroke="none" font-family="Arial" font-size="13px" font-style="normal" font-weight="bold" text-decoration="none" x="263.119384765625" y="39.5">LvlBra</text></g></g><g transform="translate(-9,-9) scale(1,1)"><g><path fill="none" stroke="none"/><text fill="#000000" stroke="none" font-family="Arial" font-size="13px" font-style="normal" font-weight="normal" text-decoration="none" x="244.704833984375" y="54.5">(from Model)</text></g></g><g transform="translate(-9,-9) scale(1,1)"><path fill="none" stroke="#000000" d="M 239 39 Q 183 40 119 54" stroke-miterlimit="10"/></g><g transform="translate(-9,-9) scale(1,1)"><path fill="#FFFFFF" stroke="none" d="M 137.05671287893784 41.431980267058776 L 119 54 L 140.6549561018845 57.88109214338634"/></g><g transform="translate(-9,-9) scale(1,1)"><path fill="none" stroke="#000000" d="M 137.05671287893784 41.431980267058776 L 119 54 L 140.6549561018845 57.88109214338634 L 137.05671287893784 41.431980267058776" stroke-miterlimit="10"/></g><g transform="translate(-9,-9) scale(1,1)"><rect fill="#C0C0C0" stroke="none" x="247.204833984375" y="77" width="82.67724609375" height="39" opacity="0.2"/></g><g transform="translate(-9,-9) scale(1,1)"><rect fill="#ffffff" stroke="none" x="240.204833984375" y="70" width="82.67724609375" height="39"/></g><g transform="translate(-9,-9) scale(1,1)"><path fill="none" stroke="#000000" d="M 240.204833984375 70 L 322.882080078125 70 L 322.882080078125 109 L 240.204833984375 109 L 240.204833984375 70 Z Z" stroke-miterlimit="10"/></g><g transform="translate(-9,-9) scale(1,1)"><g><path fill="none" stroke="none"/><text fill="#000000" stroke="none" font-family="Arial" font-size="13px" font-style="normal" font-weight="bold" text-decoration="none" x="264.928466796875" y="89.5">LvlAfr</text></g></g><g transform="translate(-9,-9) scale(1,1)"><g><path fill="none" stroke="none"/><text fill="#000000" stroke="none" font-family="Arial" font-size="13px" font-style="normal" font-weight="normal" text-decoration="none" x="244.704833984375" y="104.5">(from Model)</text></g></g><g transform="translate(-9,-9) scale(1,1)"><path fill="none" stroke="#000000" d="M 239 89 Q 183 90 119 74" stroke-miterlimit="10"/></g><g transform="translate(-9,-9) scale(1,1)"><path fill="#FFFFFF" stroke="none" d="M 140.76040162919296 70.76195723681477 L 119 74 L 136.67656954896546 87.09728555772483"/></g><g transform="translate(-9,-9) scale(1,1)"><path fill="none" stroke="#000000" d="M 140.76040162919296 70.76195723681477 L 119 74 L 136.67656954896546 87.09728555772483 L 140.76040162919296 70.76195723681477" stroke-miterlimit="10"/></g><g transform="translate(-9,-9) scale(1,1)"><rect fill="#C0C0C0" stroke="none" x="240.692138671875" y="327" width="95.70263671875" height="39" opacity="0.2"/></g><g transform="translate(-9,-9) scale(1,1)"><rect fill="#ffffff" stroke="none" x="233.692138671875" y="320" width="95.70263671875" height="39"/></g><g transform="translate(-9,-9) scale(1,1)"><path fill="none" stroke="#000000" d="M 233.692138671875 320 L 329.394775390625 320 L 329.394775390625 359 L 233.692138671875 359 L 233.692138671875 320 Z Z" stroke-miterlimit="10"/></g><g transform="translate(-9,-9) scale(1,1)"><g><path fill="none" stroke="none"/><text fill="#000000" stroke="none" font-family="Arial" font-size="13px" font-style="normal" font-weight="bold" text-decoration="none" x="241.4453125" y="339.5">BraLvlFabrica</text></g></g><g transform="translate(-9,-9) scale(1,1)"><g><path fill="none" stroke="none"/><text fill="#000000" stroke="none" font-family="Arial" font-size="13px" font-style="normal" font-weight="normal" text-decoration="none" x="244.704833984375" y="354.5">(from Model)</text></g></g><g transform="translate(-9,-9) scale(1,1)"><path fill="none" stroke="#000000" d="M 233 339 Q 183 340 133 351" stroke-miterlimit="10"/></g><g transform="translate(-9,-9) scale(1,1)"><path fill="#FFFFFF" stroke="none" d="M 151.0417113547228 338.4104546788668 L 133 351 L 154.65956931176348 354.8552635745062"/></g><g transform="translate(-9,-9) scale(1,1)"><path fill="none" stroke="#000000" d="M 151.0417113547228 338.4104546788668 L 133 351 L 154.65956931176348 354.8552635745062 L 151.0417113547228 338.4104546788668" stroke-miterlimit="10"/></g><g transform="translate(-9,-9) scale(1,1)"><rect fill="#C0C0C0" stroke="none" x="242.142578125" y="377" width="92.8017578125" height="39" opacity="0.2"/></g><g transform="translate(-9,-9) scale(1,1)"><rect fill="#ffffff" stroke="none" x="235.142578125" y="370" width="92.8017578125" height="39"/></g><g transform="translate(-9,-9) scale(1,1)"><path fill="none" stroke="#000000" d="M 235.142578125 370 L 327.9443359375 370 L 327.9443359375 409 L 235.142578125 409 L 235.142578125 370 Z Z" stroke-miterlimit="10"/></g><g transform="translate(-9,-9) scale(1,1)"><g><path fill="none" stroke="none"/><text fill="#000000" stroke="none" font-family="Arial" font-size="13px" font-style="normal" font-weight="bold" text-decoration="none" x="243.25439453125" y="389.5">AfrLvlFabrica</text></g></g><g transform="translate(-9,-9) scale(1,1)"><g><path fill="none" stroke="none"/><text fill="#000000" stroke="none" font-family="Arial" font-size="13px" font-style="normal" font-weight="normal" text-decoration="none" x="244.704833984375" y="404.5">(from Model)</text></g></g><g transform="translate(-9,-9) scale(1,1)"><path fill="none" stroke="#000000" d="M 234 389 Q 183 390 133 378" stroke-miterlimit="10"/></g><g transform="translate(-9,-9) scale(1,1)"><path fill="#FFFFFF" stroke="none" d="M 154.7288871458583 374.55682364631804 L 133 378 L 150.79933679698328 390.92995009996395"/></g><g transform="translate(-9,-9) scale(1,1)"><path fill="none" stroke="#000000" d="M 154.7288871458583 374.55682364631804 L 133 378 L 150.79933679698328 390.92995009996395 L 154.7288871458583 374.55682364631804" stroke-miterlimit="10"/></g><g transform="translate(-9,-9) scale(1,1)"><rect fill="#C0C0C0" stroke="none" x="41.828125" y="452" width="82.67724609375" height="39" opacity="0.2"/></g><g transform="translate(-9,-9) scale(1,1)"><rect fill="#ffffff" stroke="none" x="34.828125" y="445" width="82.67724609375" height="39"/></g><g transform="translate(-9,-9) scale(1,1)"><path fill="none" stroke="#000000" d="M 34.828125 445 L 117.50537109375 445 L 117.50537109375 484 L 34.828125 484 L 34.828125 445 Z Z" stroke-miterlimit="10"/></g><g transform="translate(-9,-9) scale(1,1)"><g><path fill="none" stroke="none"/><text fill="#000000" stroke="none" font-family="Arial" font-size="13px" font-style="italic" font-weight="bold" text-decoration="none" x="45.166748046875" y="464.5">AnimalFac</text></g></g><g transform="translate(-9,-9) scale(1,1)"><g><path fill="none" stroke="none"/><text fill="#000000" stroke="none" font-family="Arial" font-size="13px" font-style="normal" font-weight="normal" text-decoration="none" x="39.328125" y="479.5">(from Model)</text></g></g><g transform="translate(-9,-9) scale(1,1)"><rect fill="#C0C0C0" stroke="none" x="240.33349609375" y="427" width="96.419921875" height="39" opacity="0.2"/></g><g transform="translate(-9,-9) scale(1,1)"><rect fill="#ffffff" stroke="none" x="233.33349609375" y="420" width="96.419921875" height="39"/></g><g transform="translate(-9,-9) scale(1,1)"><path fill="none" stroke="#000000" d="M 233.33349609375 420 L 329.75341796875 420 L 329.75341796875 459 L 233.33349609375 459 L 233.33349609375 420 Z Z" stroke-miterlimit="10"/></g><g transform="translate(-9,-9) scale(1,1)"><g><path fill="none" stroke="none"/><text fill="#000000" stroke="none" font-family="Arial" font-size="13px" font-style="normal" font-weight="bold" text-decoration="none" x="240.724853515625" y="439.5">BraAnimalFac</text></g></g><g transform="translate(-9,-9) scale(1,1)"><g><path fill="none" stroke="none"/><text fill="#000000" stroke="none" font-family="Arial" font-size="13px" font-style="normal" font-weight="normal" text-decoration="none" x="244.704833984375" y="454.5">(from Model)</text></g></g><g transform="translate(-9,-9) scale(1,1)"><path fill="none" stroke="#000000" d="M 232 439 Q 183 440 119 454" stroke-miterlimit="10"/></g><g transform="translate(-9,-9) scale(1,1)"><path fill="#FFFFFF" stroke="none" d="M 137.05671287893784 441.43198026705875 L 119 454 L 140.6549561018845 457.88109214338635"/></g><g transform="translate(-9,-9) scale(1,1)"><path fill="none" stroke="#000000" d="M 137.05671287893784 441.43198026705875 L 119 454 L 140.6549561018845 457.88109214338635 L 137.05671287893784 441.43198026705875" stroke-miterlimit="10"/></g><g transform="translate(-9,-9) scale(1,1)"><rect fill="#C0C0C0" stroke="none" x="241.783935546875" y="477" width="93.51904296875" height="39" opacity="0.2"/></g><g transform="translate(-9,-9) scale(1,1)"><rect fill="#ffffff" stroke="none" x="234.783935546875" y="470" width="93.51904296875" height="39"/></g><g transform="translate(-9,-9) scale(1,1)"><path fill="none" stroke="#000000" d="M 234.783935546875 470 L 328.302978515625 470 L 328.302978515625 509 L 234.783935546875 509 L 234.783935546875 470 Z Z" stroke-miterlimit="10"/></g><g transform="translate(-9,-9) scale(1,1)"><g><path fill="none" stroke="none"/><text fill="#000000" stroke="none" font-family="Arial" font-size="13px" font-style="normal" font-weight="bold" text-decoration="none" x="242.533935546875" y="489.5">AfrAnimalFac</text></g></g><g transform="translate(-9,-9) scale(1,1)"><g><path fill="none" stroke="none"/><text fill="#000000" stroke="none" font-family="Arial" font-size="13px" font-style="normal" font-weight="normal" text-decoration="none" x="244.704833984375" y="504.5">(from Model)</text></g></g><g transform="translate(-9,-9) scale(1,1)"><path fill="none" stroke="#000000" d="M 234 489 Q 183 490 119 474" stroke-miterlimit="10"/></g><g transform="translate(-9,-9) scale(1,1)"><path fill="#FFFFFF" stroke="none" d="M 140.76040162919296 470.7619572368148 L 119 474 L 136.67656954896546 487.09728555772483"/></g><g transform="translate(-9,-9) scale(1,1)"><path fill="none" stroke="#000000" d="M 140.76040162919296 470.7619572368148 L 119 474 L 136.67656954896546 487.09728555772483 L 140.76040162919296 470.7619572368148" stroke-miterlimit="10"/></g><g transform="translate(-9,-9) scale(1,1)"><rect fill="#C0C0C0" stroke="none" x="247.204833984375" y="527" width="82.67724609375" height="39" opacity="0.2"/></g><g transform="translate(-9,-9) scale(1,1)"><rect fill="#ffffff" stroke="none" x="240.204833984375" y="520" width="82.67724609375" height="39"/></g><g transform="translate(-9,-9) scale(1,1)"><path fill="none" stroke="#000000" d="M 240.204833984375 520 L 322.882080078125 520 L 322.882080078125 559 L 240.204833984375 559 L 240.204833984375 520 Z Z" stroke-miterlimit="10"/></g><g transform="translate(-9,-9) scale(1,1)"><g><path fill="none" stroke="none"/><text fill="#000000" stroke="none" font-family="Arial" font-size="13px" font-style="normal" font-weight="bold" text-decoration="none" x="263.83984375" y="539.5">Felino</text></g></g><g transform="translate(-9,-9) scale(1,1)"><g><path fill="none" stroke="none"/><text fill="#000000" stroke="none" font-family="Arial" font-size="13px" font-style="normal" font-weight="normal" text-decoration="none" x="244.704833984375" y="554.5">(from Model)</text></g></g><g transform="translate(-9,-9) scale(1,1)"><path fill="none" stroke="#000000" d="M 433 514 Q 381 515 324 529" stroke-miterlimit="10"/></g><g transform="translate(-9,-9) scale(1,1)"><path fill="#FFFFFF" stroke="none" d="M 341.7305391868525 515.975869313329 L 324 529 L 345.74683562072215 532.3279333655123"/></g><g transform="translate(-9,-9) scale(1,1)"><path fill="none" stroke="#000000" d="M 341.7305391868525 515.975869313329 L 324 529 L 345.74683562072215 532.3279333655123 L 341.7305391868525 515.975869313329" stroke-miterlimit="10"/></g><g transform="translate(-9,-9) scale(1,1)"><path fill="none" stroke="#000000" d="M 433 564 Q 381 565 324 550" stroke-miterlimit="10"/></g><g transform="translate(-9,-9) scale(1,1)"><path fill="#FFFFFF" stroke="none" d="M 345.7987162947847 547.03083043605 L 324 550 L 341.51354004636573 563.3145001800423"/></g><g transform="translate(-9,-9) scale(1,1)"><path fill="none" stroke="#000000" d="M 345.7987162947847 547.03083043605 L 324 550 L 341.51354004636573 563.3145001800423 L 345.7987162947847 547.03083043605" stroke-miterlimit="10"/></g><g transform="translate(-9,-9) scale(1,1)"><rect fill="#C0C0C0" stroke="none" x="247.204833984375" y="627" width="82.67724609375" height="39" opacity="0.2"/></g><g transform="translate(-9,-9) scale(1,1)"><rect fill="#ffffff" stroke="none" x="240.204833984375" y="620" width="82.67724609375" height="39"/></g><g transform="translate(-9,-9) scale(1,1)"><path fill="none" stroke="#000000" d="M 240.204833984375 620 L 322.882080078125 620 L 322.882080078125 659 L 240.204833984375 659 L 240.204833984375 620 Z Z" stroke-miterlimit="10"/></g><g transform="translate(-9,-9) scale(1,1)"><g><path fill="none" stroke="none"/><text fill="#000000" stroke="none" font-family="Arial" font-size="13px" font-style="normal" font-weight="bold" text-decoration="none" x="257.698486328125" y="639.5">Passaro</text></g></g><g transform="translate(-9,-9) scale(1,1)"><g><path fill="none" stroke="none"/><text fill="#000000" stroke="none" font-family="Arial" font-size="13px" font-style="normal" font-weight="normal" text-decoration="none" x="244.704833984375" y="654.5">(from Model)</text></g></g><g transform="translate(-9,-9) scale(1,1)"><path fill="none" stroke="#000000" d="M 430 614 Q 381 615 324 629" stroke-miterlimit="10"/></g><g transform="translate(-9,-9) scale(1,1)"><path fill="#FFFFFF" stroke="none" d="M 341.7305391868525 615.975869313329 L 324 629 L 345.74683562072215 632.3279333655123"/></g><g transform="translate(-9,-9) scale(1,1)"><path fill="none" stroke="#000000" d="M 341.7305391868525 615.975869313329 L 324 629 L 345.74683562072215 632.3279333655123 L 341.7305391868525 615.975869313329" stroke-miterlimit="10"/></g><g transform="translate(-9,-9) scale(1,1)"><path fill="none" stroke="#000000" d="M 433 664 Q 381 665 324 650" stroke-miterlimit="10"/></g><g transform="translate(-9,-9) scale(1,1)"><path fill="#FFFFFF" stroke="none" d="M 345.7987162947847 647.03083043605 L 324 650 L 341.51354004636573 663.3145001800423"/></g><g transform="translate(-9,-9) scale(1,1)"><path fill="none" stroke="#000000" d="M 345.7987162947847 647.03083043605 L 324 650 L 341.51354004636573 663.3145001800423 L 345.7987162947847 647.03083043605" stroke-miterlimit="10"/></g><g transform="translate(-9,-9) scale(1,1)"><rect fill="#C0C0C0" stroke="none" x="247.204833984375" y="727" width="82.67724609375" height="39" opacity="0.2"/></g><g transform="translate(-9,-9) scale(1,1)"><rect fill="#ffffff" stroke="none" x="240.204833984375" y="720" width="82.67724609375" height="39"/></g><g transform="translate(-9,-9) scale(1,1)"><path fill="none" stroke="#000000" d="M 240.204833984375 720 L 322.882080078125 720 L 322.882080078125 759 L 240.204833984375 759 L 240.204833984375 720 Z Z" stroke-miterlimit="10"/></g><g transform="translate(-9,-9) scale(1,1)"><g><path fill="none" stroke="none"/><text fill="#000000" stroke="none" font-family="Arial" font-size="13px" font-style="normal" font-weight="bold" text-decoration="none" x="263.83984375" y="739.5">Cobra</text></g></g><g transform="translate(-9,-9) scale(1,1)"><g><path fill="none" stroke="none"/><text fill="#000000" stroke="none" font-family="Arial" font-size="13px" font-style="normal" font-weight="normal" text-decoration="none" x="244.704833984375" y="754.5">(from Model)</text></g></g><g transform="translate(-9,-9) scale(1,1)"><path fill="none" stroke="#000000" d="M 433 714 Q 381 715 324 729" stroke-miterlimit="10"/></g><g transform="translate(-9,-9) scale(1,1)"><path fill="#FFFFFF" stroke="none" d="M 341.7305391868525 715.975869313329 L 324 729 L 345.74683562072215 732.3279333655123"/></g><g transform="translate(-9,-9) scale(1,1)"><path fill="none" stroke="#000000" d="M 341.7305391868525 715.975869313329 L 324 729 L 345.74683562072215 732.3279333655123 L 341.7305391868525 715.975869313329" stroke-miterlimit="10"/></g><g transform="translate(-9,-9) scale(1,1)"><path fill="none" stroke="#000000" d="M 433 764 Q 381 765 324 750" stroke-miterlimit="10"/></g><g transform="translate(-9,-9) scale(1,1)"><path fill="#FFFFFF" stroke="none" d="M 345.7987162947847 747.03083043605 L 324 750 L 341.51354004636573 763.3145001800423"/></g><g transform="translate(-9,-9) scale(1,1)"><path fill="none" stroke="#000000" d="M 345.7987162947847 747.03083043605 L 324 750 L 341.51354004636573 763.3145001800423 L 345.7987162947847 747.03083043605" stroke-miterlimit="10"/></g><g transform="translate(-9,-9) scale(1,1)"><rect fill="#C0C0C0" stroke="none" x="41.828125" y="627" width="82.67724609375" height="39" opacity="0.2"/></g><g transform="translate(-9,-9) scale(1,1)"><rect fill="#ffffff" stroke="none" x="34.828125" y="620" width="82.67724609375" height="39"/></g><g transform="translate(-9,-9) scale(1,1)"><path fill="none" stroke="#000000" d="M 34.828125 620 L 117.50537109375 620 L 117.50537109375 659 L 34.828125 659 L 34.828125 620 Z Z" stroke-miterlimit="10"/></g><g transform="translate(-9,-9) scale(1,1)"><g><path fill="none" stroke="none"/><text fill="#000000" stroke="none" font-family="Arial" font-size="13px" font-style="normal" font-weight="bold" text-decoration="none" x="62.8017578125" y="639.5">Fera</text></g></g><g transform="translate(-9,-9) scale(1,1)"><g><path fill="none" stroke="none"/><text fill="#000000" stroke="none" font-family="Arial" font-size="13px" font-style="normal" font-weight="normal" text-decoration="none" x="39.328125" y="654.5">(from Model)</text></g></g><g transform="translate(-9,-9) scale(1,1)"><path fill="none" stroke="#000000" d="M 239 539 Q 183 540 98 619" stroke-miterlimit="10"/></g><g transform="translate(-9,-9) scale(1,1)"><path fill="#FFFFFF" stroke="none" d="M 107.15651996604342 598.9960468379011 L 98 619 L 118.61956829151757 611.3297064286011"/></g><g transform="translate(-9,-9) scale(1,1)"><path fill="none" stroke="#000000" d="M 107.15651996604342 598.9960468379011 L 98 619 L 118.61956829151757 611.3297064286011 L 107.15651996604342 598.9960468379011" stroke-miterlimit="10"/></g><g transform="translate(-9,-9) scale(1,1)"><path fill="none" stroke="#000000" d="M 239 639 Q 183 640 119 639" stroke-miterlimit="10"/></g><g transform="translate(-9,-9) scale(1,1)"><path fill="#FFFFFF" stroke="none" d="M 139.4544004224508 630.899536842992 L 119 639 L 139.1913376728921 647.7355528147477"/></g><g transform="translate(-9,-9) scale(1,1)"><path fill="none" stroke="#000000" d="M 139.4544004224508 630.899536842992 L 119 639 L 139.1913376728921 647.7355528147477 L 139.4544004224508 630.899536842992" stroke-miterlimit="10"/></g><g transform="translate(-9,-9) scale(1,1)"><path fill="none" stroke="#000000" d="M 239 739 Q 183 740 98 660" stroke-miterlimit="10"/></g><g transform="translate(-9,-9) scale(1,1)"><path fill="#FFFFFF" stroke="none" d="M 118.5710292537386 667.7995355914202 L 98 660 L 107.03080977450635 680.0610187881044"/></g><g transform="translate(-9,-9) scale(1,1)"><path fill="none" stroke="#000000" d="M 118.5710292537386 667.7995355914202 L 98 660 L 107.03080977450635 680.0610187881044 L 118.5710292537386 667.7995355914202" stroke-miterlimit="10"/></g><g transform="translate(-9,-9) scale(1,1)"><rect fill="#C0C0C0" stroke="none" x="41.828125" y="827" width="82.67724609375" height="39" opacity="0.2"/></g><g transform="translate(-9,-9) scale(1,1)"><rect fill="#ffffff" stroke="none" x="34.828125" y="820" width="82.67724609375" height="39"/></g><g transform="translate(-9,-9) scale(1,1)"><path fill="none" stroke="#000000" d="M 34.828125 820 L 117.50537109375 820 L 117.50537109375 859 L 34.828125 859 L 34.828125 820 Z Z" stroke-miterlimit="10"/></g><g transform="translate(-9,-9) scale(1,1)"><g><path fill="none" stroke="none"/><text fill="#000000" stroke="none" font-family="Arial" font-size="13px" font-style="normal" font-weight="bold" text-decoration="none" x="53.404052734375" y="839.5">Cenario</text></g></g><g transform="translate(-9,-9) scale(1,1)"><g><path fill="none" stroke="none"/><text fill="#000000" stroke="none" font-family="Arial" font-size="13px" font-style="normal" font-weight="normal" text-decoration="none" x="39.328125" y="854.5">(from Model)</text></g></g><g transform="translate(-9,-9) scale(1,1)"><path fill="none" stroke="#000000" d="M 239 789 Q 183 790 119 820" stroke-miterlimit="10"/></g><g transform="translate(-9,-9) scale(1,1)"><path fill="#FFFFFF" stroke="none" d="M 133.8304456496648 803.7501420980878 L 119 820 L 140.97709340265644 818.9963239711366"/></g><g transform="translate(-9,-9) scale(1,1)"><path fill="none" stroke="#000000" d="M 133.8304456496648 803.7501420980878 L 119 820 L 140.97709340265644 818.9963239711366 L 133.8304456496648 803.7501420980878" stroke-miterlimit="10"/></g><g transform="translate(-9,-9) scale(1,1)"><path fill="none" stroke="#000000" d="M 239 839 Q 183 840 119 839" stroke-miterlimit="10"/></g><g transform="translate(-9,-9) scale(1,1)"><path fill="#FFFFFF" stroke="none" d="M 139.4544004224508 830.899536842992 L 119 839 L 139.1913376728921 847.7355528147477"/></g><g transform="translate(-9,-9) scale(1,1)"><path fill="none" stroke="#000000" d="M 139.4544004224508 830.899536842992 L 119 839 L 139.1913376728921 847.7355528147477 L 139.4544004224508 830.899536842992" stroke-miterlimit="10"/></g><g transform="translate(-9,-9) scale(1,1)"><path fill="none" stroke="#000000" d="M 239 889 Q 183 890 119 859" stroke-miterlimit="10"/></g><g transform="translate(-9,-9) scale(1,1)"><path fill="#FFFFFF" stroke="none" d="M 140.96253227653852 860.2834235473933 L 119 859 L 133.6223380112725 875.4373729982651"/></g><g transform="translate(-9,-9) scale(1,1)"><path fill="none" stroke="#000000" d="M 140.96253227653852 860.2834235473933 L 119 859 L 133.6223380112725 875.4373729982651 L 140.96253227653852 860.2834235473933" stroke-miterlimit="10"/></g></g></svg>