<svg version="1.1" xmlns="http://www.w3.org/2000/svg" xmlns:xlink="http://www.w3.org/1999/xlink" width="435" height="892"><defs/><g><g transform="translate(-9,-9) scale(1,1)"><rect fill="#C0C0C0" stroke="none" x="246.12255859375" y="227" width="84" height="39" opacity="0.2"/></g><g transform="translate(-9,-9) scale(1,1)"><rect fill="#ffffff" stroke="none" x="239.12255859375" y="220" width="84" height="39"/></g><g transform="translate(-9,-9) scale(1,1)"><path fill="none" stroke="#000000" d="M 239.12255859375 220 L 323.12255859375 220 L 323.12255859375 259 L 239.12255859375 259 L 239.12255859375 220 Z Z" stroke-miterlimit="10"/></g><g transform="translate(-9,-9) scale(1,1)"><g><path fill="none" stroke="none"/><text fill="#000000" stroke="none" font-family="Arial" font-size="13px" font-style="normal" font-weight="bold" text-decoration="none" x="245.62255859375" y="239.5">PoteDeOuro</text></g></g><g transform="translate(-9,-9) scale(1,1)"><g><path fill="none" stroke="none"/><text fill="#000000" stroke="none" font-family="Arial" font-size="13px" font-style="normal" font-weight="normal" text-decoration="none" x="244.62255859375" y="254.5">(from Model)</text></g></g><g transform="translate(-9,-9) scale(1,1)"><rect fill="#C0C0C0" stroke="none" x="247.204833984375" y="127" width="82" height="39" opacity="0.2"/></g><g transform="translate(-9,-9) scale(1,1)"><rect fill="#ffffff" stroke="none" x="240.204833984375" y="120" width="82" height="39"/></g><g transform="translate(-9,-9) scale(1,1)"><path fill="none" stroke="#000000" d="M 240.204833984375 120 L 322.204833984375 120 L 322.204833984375 159 L 240.204833984375 159 L 240.204833984375 120 Z Z" stroke-miterlimit="10"/></g><g transform="translate(-9,-9) scale(1,1)"><g><path fill="none" stroke="none"/><text fill="#000000" stroke="none" font-family="Arial" font-size="13px" font-style="normal" font-weight="bold" text-decoration="none" x="253.704833984375" y="139.5">Diamante</text></g></g><g transform="translate(-9,-9) scale(1,1)"><g><path fill="none" stroke="none"/><text fill="#000000" stroke="none" font-family="Arial" font-size="13px" font-style="normal" font-weight="normal" text-decoration="none" x="244.704833984375" y="154.5">(from Model)</text></g></g><g transform="translate(-9,-9) scale(1,1)"><rect fill="#C0C0C0" stroke="none" x="247.204833984375" y="277" width="82" height="39" opacity="0.2"/></g><g transform="translate(-9,-9) scale(1,1)"><rect fill="#ffffff" stroke="none" x="240.204833984375" y="270" width="82" height="39"/></g><g transform="translate(-9,-9) scale(1,1)"><path fill="none" stroke="#000000" d="M 240.204833984375 270 L 322.204833984375 270 L 322.204833984375 309 L 240.204833984375 309 L 240.204833984375 270 Z Z" stroke-miterlimit="10"/></g><g transform="translate(-9,-9) scale(1,1)"><g><path fill="none" stroke="none"/><text fill="#000000" stroke="none" font-family="Arial" font-size="13px" font-style="normal" font-weight="bold" text-decoration="none" x="267.204833984375" y="289.5">Jaca</text></g></g><g transform="translate(-9,-9) scale(1,1)"><g><path fill="none" stroke="none"/><text fill="#000000" stroke="none" font-family="Arial" font-size="13px" font-style="normal" font-weight="normal" text-decoration="none" x="244.704833984375" y="304.5">(from Model)</text></g></g><g transform="translate(-9,-9) scale(1,1)"><rect fill="#C0C0C0" stroke="none" x="247.204833984375" y="177" width="82" height="39" opacity="0.2"/></g><g transform="translate(-9,-9) scale(1,1)"><rect fill="#ffffff" stroke="none" x="240.204833984375" y="170" width="82" height="39"/></g><g transform="translate(-9,-9) scale(1,1)"><path fill="none" stroke="#000000" d="M 240.204833984375 170 L 322.204833984375 170 L 322.204833984375 209 L 240.204833984375 209 L 240.204833984375 170 Z Z" stroke-miterlimit="10"/></g><g transform="translate(-9,-9) scale(1,1)"><g><path fill="none" stroke="none"/><text fill="#000000" stroke="none" font-family="Arial" font-size="13px" font-style="normal" font-weight="bold" text-decoration="none" x="268.204833984375" y="189.5">Acai</text></g></g><g transform="translate(-9,-9) scale(1,1)"><g><path fill="none" stroke="none"/><text fill="#000000" stroke="none" font-family="Arial" font-size="13px" font-style="normal" font-weight="normal" text-decoration="none" x="244.704833984375" y="204.5">(from Model)</text></g></g><g transform="translate(-9,-9) scale(1,1)"><rect fill="#C0C0C0" stroke="none" x="437.75341796875" y="602" width="90" height="39" opacity="0.2"/></g><g transform="translate(-9,-9) scale(1,1)"><rect fill="#ffffff" stroke="none" x="430.75341796875" y="595" width="90" height="39"/></g><g transform="translate(-9,-9) scale(1,1)"><path fill="none" stroke="#000000" d="M 430.75341796875 595 L 520.75341796875 595 L 520.75341796875 634 L 430.75341796875 634 L 430.75341796875 595 Z Z" stroke-miterlimit="10"/></g><g transform="translate(-9,-9) scale(1,1)"><g><path fill="none" stroke="none"/><text fill="#000000" stroke="none" font-family="Arial" font-size="13px" font-style="normal" font-weight="bold" text-decoration="none" x="438.25341796875" y="614.5">AguiaMarcial</text></g></g><g transform="translate(-9,-9) scale(1,1)"><g><path fill="none" stroke="none"/><text fill="#000000" stroke="none" font-family="Arial" font-size="13px" font-style="normal" font-weight="normal" text-decoration="none" x="439.25341796875" y="629.5">(from Model)</text></g></g><g transform="translate(-9,-9) scale(1,1)"><rect fill="#C0C0C0" stroke="none" x="441.37158203125" y="752" width="82" height="39" opacity="0.2"/></g><g transform="translate(-9,-9) scale(1,1)"><rect fill="#ffffff" stroke="none" x="434.37158203125" y="745" width="82" height="39"/></g><g transform="translate(-9,-9) scale(1,1)"><path fill="none" stroke="#000000" d="M 434.37158203125 745 L 516.37158203125 745 L 516.37158203125 784 L 434.37158203125 784 L 434.37158203125 745 Z Z" stroke-miterlimit="10"/></g><g transform="translate(-9,-9) scale(1,1)"><g><path fill="none" stroke="none"/><text fill="#000000" stroke="none" font-family="Arial" font-size="13px" font-style="normal" font-weight="bold" text-decoration="none" x="460.37158203125" y="764.5">Piton</text></g></g><g transform="translate(-9,-9) scale(1,1)"><g><path fill="none" stroke="none"/><text fill="#000000" stroke="none" font-family="Arial" font-size="13px" font-style="normal" font-weight="normal" text-decoration="none" x="438.87158203125" y="779.5">(from Model)</text></g></g><g transform="translate(-9,-9) scale(1,1)"><rect fill="#C0C0C0" stroke="none" x="441.37158203125" y="552" width="82" height="39" opacity="0.2"/></g><g transform="translate(-9,-9) scale(1,1)"><rect fill="#ffffff" stroke="none" x="434.37158203125" y="545" width="82" height="39"/></g><g transform="translate(-9,-9) scale(1,1)"><path fill="none" stroke="#000000" d="M 434.37158203125 545 L 516.37158203125 545 L 516.37158203125 584 L 434.37158203125 584 L 434.37158203125 545 Z Z" stroke-miterlimit="10"/></g><g transform="translate(-9,-9) scale(1,1)"><g><path fill="none" stroke="none"/><text fill="#000000" stroke="none" font-family="Arial" font-size="13px" font-style="normal" font-weight="bold" text-decoration="none" x="460.87158203125" y="564.5">Tigre</text></g></g><g transform="translate(-9,-9) scale(1,1)"><g><path fill="none" stroke="none"/><text fill="#000000" stroke="none" font-family="Arial" font-size="13px" font-style="normal" font-weight="normal" text-decoration="none" x="438.87158203125" y="579.5">(from Model)</text></g></g><g transform="translate(-9,-9) scale(1,1)"><rect fill="#C0C0C0" stroke="none" x="441.37158203125" y="652" width="82" height="39" opacity="0.2"/></g><g transform="translate(-9,-9) scale(1,1)"><rect fill="#ffffff" stroke="none" x="434.37158203125" y="645" width="82" height="39"/></g><g transform="translate(-9,-9) scale(1,1)"><path fill="none" stroke="#000000" d="M 434.37158203125 645 L 516.37158203125 645 L 516.37158203125 684 L 434.37158203125 684 L 434.37158203125 645 Z Z" stroke-miterlimit="10"/></g><g transform="translate(-9,-9) scale(1,1)"><g><path fill="none" stroke="none"/><text fill="#000000" stroke="none" font-family="Arial" font-size="13px" font-style="normal" font-weight="bold" text-decoration="none" x="452.87158203125" y="664.5">Carcara</text></g></g><g transform="translate(-9,-9) scale(1,1)"><g><path fill="none" stroke="none"/><text fill="#000000" stroke="none" font-family="Arial" font-size="13px" font-style="normal" font-weight="normal" text-decoration="none" x="438.87158203125" y="679.5">(from Model)</text></g></g><g transform="translate(-9,-9) scale(1,1)"><rect fill="#C0C0C0" stroke="none" x="441.37158203125" y="702" width="82" height="39" opacity="0.2"/></g><g transform="translate(-9,-9) scale(1,1)"><rect fill="#ffffff" stroke="none" x="434.37158203125" y="695" width="82" height="39"/></g><g transform="translate(-9,-9) scale(1,1)"><path fill="none" stroke="#000000" d="M 434.37158203125 695 L 516.37158203125 695 L 516.37158203125 734 L 434.37158203125 734 L 434.37158203125 695 Z Z" stroke-miterlimit="10"/></g><g transform="translate(-9,-9) scale(1,1)"><g><path fill="none" stroke="none"/><text fill="#000000" stroke="none" font-family="Arial" font-size="13px" font-style="normal" font-weight="bold" text-decoration="none" x="456.87158203125" y="714.5">Sucuri</text></g></g><g transform="translate(-9,-9) scale(1,1)"><g><path fill="none" stroke="none"/><text fill="#000000" stroke="none" font-family="Arial" font-size="13px" font-style="normal" font-weight="normal" text-decoration="none" x="438.87158203125" y="729.5">(from Model)</text></g></g><g transform="translate(-9,-9) scale(1,1)"><rect fill="#C0C0C0" stroke="none" x="441.37158203125" y="502" width="82" height="39" opacity="0.2"/></g><g transform="translate(-9,-9) scale(1,1)"><rect fill="#ffffff" stroke="none" x="434.37158203125" y="495" width="82" height="39"/></g><g transform="translate(-9,-9) scale(1,1)"><path fill="none" stroke="#000000" d="M 434.37158203125 495 L 516.37158203125 495 L 516.37158203125 534 L 434.37158203125 534 L 434.37158203125 495 Z Z" stroke-miterlimit="10"/></g><g transform="translate(-9,-9) scale(1,1)"><g><path fill="none" stroke="none"/><text fill="#000000" stroke="none" font-family="Arial" font-size="13px" font-style="normal" font-weight="bold" text-decoration="none" x="448.37158203125" y="514.5">OPintada</text></g></g><g transform="translate(-9,-9) scale(1,1)"><g><path fill="none" stroke="none"/><text fill="#000000" stroke="none" font-family="Arial" font-size="13px" font-style="normal" font-weight="normal" text-decoration="none" x="438.87158203125" y="529.5">(from Model)</text></g></g><g transform="translate(-9,-9) scale(1,1)"><rect fill="#C0C0C0" stroke="none" x="247.204833984375" y="827" width="82" height="39" opacity="0.2"/></g><g transform="translate(-9,-9) scale(1,1)"><rect fill="#ffffff" stroke="none" x="240.204833984375" y="820" width="82" height="39"/></g><g transform="translate(-9,-9) scale(1,1)"><path fill="none" stroke="#000000" d="M 240.204833984375 820 L 322.204833984375 820 L 322.204833984375 859 L 240.204833984375 859 L 240.204833984375 820 Z Z" stroke-miterlimit="10"/></g><g transform="translate(-9,-9) scale(1,1)"><g><path fill="none" stroke="none"/><text fill="#000000" stroke="none" font-family="Arial" font-size="13px" font-style="normal" font-weight="bold" text-decoration="none" x="259.204833984375" y="839.5">Plantas</text></g></g><g transform="translate(-9,-9) scale(1,1)"><g><path fill="none" stroke="none"/><text fill="#000000" stroke="none" font-family="Arial" font-size="13px" font-style="normal" font-weight="normal" text-decoration="none" x="244.704833984375" y="854.5">(from Model)</text></g></g><g transform="translate(-9,-9) scale(1,1)"><rect fill="#C0C0C0" stroke="none" x="247.204833984375" y="777" width="82" height="39" opacity="0.2"/></g><g transform="translate(-9,-9) scale(1,1)"><rect fill="#ffffff" stroke="none" x="240.204833984375" y="770" width="82" height="39"/></g><g transform="translate(-9,-9) scale(1,1)"><path fill="none" stroke="#000000" d="M 240.204833984375 770 L 322.204833984375 770 L 322.204833984375 809 L 240.204833984375 809 L 240.204833984375 770 Z Z" stroke-miterlimit="10"/></g><g transform="translate(-9,-9) scale(1,1)"><g><path fill="none" stroke="none"/><text fill="#000000" stroke="none" font-family="Arial" font-size="13px" font-style="normal" font-weight="bold" text-decoration="none" x="261.204833984375" y="789.5">Relevo</text></g></g><g transform="translate(-9,-9) scale(1,1)"><g><path fill="none" stroke="none"/><text fill="#000000" stroke="none" font-family="Arial" font-size="13px" font-style="normal" font-weight="normal" text-decoration="none" x="244.704833984375" y="804.5">(from Model)</text></g></g><g transform="translate(-9,-9) scale(1,1)"><rect fill="#C0C0C0" stroke="none" x="247.204833984375" y="877" width="82" height="39" opacity="0.2"/></g><g transform="translate(-9,-9) scale(1,1)"><rect fill="#ffffff" stroke="none" x="240.204833984375" y="870" width="82" height="39"/></g><g transform="translate(-9,-9) scale(1,1)"><path fill="none" stroke="#000000" d="M 240.204833984375 870 L 322.204833984375 870 L 322.204833984375 909 L 240.204833984375 909 L 240.204833984375 870 Z Z" stroke-miterlimit="10"/></g><g transform="translate(-9,-9) scale(1,1)"><g><path fill="none" stroke="none"/><text fill="#000000" stroke="none" font-family="Arial" font-size="13px" font-style="normal" font-weight="bold" text-decoration="none" x="266.204833984375" y="889.5">Agua</text></g></g><g transform="translate(-9,-9) scale(1,1)"><g><path fill="none" stroke="none"/><text fill="#000000" stroke="none" font-family="Arial" font-size="13px" font-style="normal" font-weight="normal" text-decoration="none" x="244.704833984375" y="904.5">(from Model)</text></g></g><g transform="translate(-9,-9) scale(1,1)"><rect fill="#C0C0C0" stroke="none" x="41.828125" y="52" width="82" height="39" opacity="0.2"/></g><g transform="translate(-9,-9) scale(1,1)"><rect fill="#ffffff" stroke="none" x="34.828125" y="45" width="82" height="39"/></g><g transform="translate(-9,-9) scale(1,1)"><path fill="none" stroke="#000000" d="M 34.828125 45 L 116.828125 45 L 116.828125 84 L 34.828125 84 L 34.828125 45 Z Z" stroke-miterlimit="10"/></g><g transform="translate(-9,-9) scale(1,1)"><g><path fill="none" stroke="none"/><text fill="#000000" stroke="none" font-family="Arial" font-size="13px" font-style="normal" font-weight="bold" text-decoration="none" x="60.328125" y="64.5">Level</text></g></g><g transform="translate(-9,-9) scale(1,1)"><g><path fill="none" stroke="none"/><text fill="#000000" stroke="none" font-family="Arial" font-size="13px" font-style="normal" font-weight="normal" text-decoration="none" x="39.328125" y="79.5">(from Model)</text></g></g><g transform="translate(-9,-9) scale(1,1)"><rect fill="#C0C0C0" stroke="none" x="41.828125" y="202" width="82" height="39" opacity="0.2"/></g><g transform="translate(-9,-9) scale(1,1)"><rect fill="#ffffff" stroke="none" x="34.828125" y="195" width="82" height="39"/></g><g transform="translate(-9,-9) scale(1,1)"><path fill="none" stroke="#000000" d="M 34.828125 195 L 116.828125 195 L 116.828125 234 L 34.828125 234 L 34.828125 195 Z Z" stroke-miterlimit="10"/></g><g transform="translate(-9,-9) scale(1,1)"><g><path fill="none" stroke="none"/><text fill="#000000" stroke="none" font-family="Arial" font-size="13px" font-style="italic" font-weight="bold" text-decoration="none" x="56.077392578125" y="214.5">Colect</text></g></g><g transform="translate(-9,-9) scale(1,1)"><g><path fill="none" stroke="none"/><text fill="#000000" stroke="none" font-family="Arial" font-size="13px" font-style="normal" font-weight="normal" text-decoration="none" x="39.328125" y="229.5">(from Model)</text></g></g><g transform="translate(-9,-9) scale(1,1)"><path fill="none" stroke="#000000" d="M 239 139 Q 183 140 104 194" stroke-miterlimit="10"/></g><g transform="translate(-9,-9) scale(1,1)"><path fill="#FFFFFF" stroke="none" d="M 116.02892743766425 175.5797691464138 L 104 194 L 125.53080630916577 189.48066601398085"/></g><g transform="translate(-9,-9) scale(1,1)"><path fill="none" stroke="#000000" d="M 116.02892743766425 175.5797691464138 L 104 194 L 125.53080630916577 189.48066601398085 L 116.02892743766425 175.5797691464138" stroke-miterlimit="10"/></g><g transform="translate(-9,-9) scale(1,1)"><path fill="none" stroke="#000000" d="M 239 189 Q 183 190 118 204" stroke-miterlimit="10"/></g><g transform="translate(-9,-9) scale(1,1)"><path fill="#FFFFFF" stroke="none" d="M 136.09701249695354 191.4900783901294 L 118 204 L 139.64237065826518 207.95066985336194"/></g><g transform="translate(-9,-9) scale(1,1)"><path fill="none" stroke="#000000" d="M 136.09701249695354 191.4900783901294 L 118 204 L 139.64237065826518 207.95066985336194 L 136.09701249695354 191.4900783901294" stroke-miterlimit="10"/></g><g transform="translate(-9,-9) scale(1,1)"><path fill="none" stroke="#000000" d="M 238 239 Q 183 240 118 224" stroke-miterlimit="10"/></g><g transform="translate(-9,-9) scale(1,1)"><path fill="#FFFFFF" stroke="none" d="M 139.74852683883418 220.68313697290506 L 118 224 L 135.72390714728306 237.0331544698315"/></g><g transform="translate(-9,-9) scale(1,1)"><path fill="none" stroke="#000000" d="M 139.74852683883418 220.68313697290506 L 118 224 L 135.72390714728306 237.0331544698315 L 139.74852683883418 220.68313697290506" stroke-miterlimit="10"/></g><g transform="translate(-9,-9) scale(1,1)"><path fill="none" stroke="#000000" d="M 239 289 Q 183 290 105 235" stroke-miterlimit="10"/></g><g transform="translate(-9,-9) scale(1,1)"><path fill="#FFFFFF" stroke="none" d="M 126.4627097997776 239.8323998231242 L 105 235 L 116.7594049577259 253.5934503263975"/></g><g transform="translate(-9,-9) scale(1,1)"><path fill="none" stroke="#000000" d="M 126.4627097997776 239.8323998231242 L 105 235 L 116.7594049577259 253.5934503263975 L 126.4627097997776 239.8323998231242" stroke-miterlimit="10"/></g><g transform="translate(-9,-9) scale(1,1)"><rect fill="#C0C0C0" stroke="none" x="27" y="352" width="111" height="39" opacity="0.2"/></g><g transform="translate(-9,-9) scale(1,1)"><rect fill="#ffffff" stroke="none" x="20" y="345" width="111" height="39"/></g><g transform="translate(-9,-9) scale(1,1)"><path fill="none" stroke="#000000" d="M 20 345 L 131 345 L 131 384 L 20 384 L 20 345 Z Z" stroke-miterlimit="10"/></g><g transform="translate(-9,-9) scale(1,1)"><g><path fill="none" stroke="none"/><text fill="#000000" stroke="none" font-family="Arial" font-size="13px" font-style="italic" font-weight="bold" text-decoration="none" x="25.121826171875" y="364.5">FabricaDeLevels</text></g></g><g transform="translate(-9,-9) scale(1,1)"><g><path fill="none" stroke="none"/><text fill="#000000" stroke="none" font-family="Arial" font-size="13px" font-style="normal" font-weight="normal" text-decoration="none" x="39" y="379.5">(from Model)</text></g></g><g transform="translate(-9,-9) scale(1,1)"><rect fill="#C0C0C0" stroke="none" x="247.204833984375" y="27" width="82" height="39" opacity="0.2"/></g><g transform="translate(-9,-9) scale(1,1)"><rect fill="#ffffff" stroke="none" x="240.204833984375" y="20" width="82" height="39"/></g><g transform="translate(-9,-9) scale(1,1)"><path fill="none" stroke="#000000" d="M 240.204833984375 20 L 322.204833984375 20 L 322.204833984375 59 L 240.204833984375 59 L 240.204833984375 20 Z Z" stroke-miterlimit="10"/></g><g transform="translate(-9,-9) scale(1,1)"><g><path fill="none" stroke="none"/><text fill="#000000" stroke="none" font-family="Arial" font-size="13px" font-style="normal" font-weight="bold" text-decoration="none" x="262.704833984375" y="39.5">LvlBra</text></g></g><g transform="translate(-9,-9) scale(1,1)"><g><path fill="none" stroke="none"/><text fill="#000000" stroke="none" font-family="Arial" font-size="13px" font-style="normal" font-weight="normal" text-decoration="none" x="244.704833984375" y="54.5">(from Model)</text></g></g><g transform="translate(-9,-9) scale(1,1)"><path fill="none" stroke="#000000" d="M 239 39 Q 183 40 118 54" stroke-miterlimit="10"/></g><g transform="translate(-9,-9) scale(1,1)"><path fill="#FFFFFF" stroke="none" d="M 136.09701249695354 41.49007839012942 L 118 54 L 139.64237065826518 57.95066985336193"/></g><g transform="translate(-9,-9) scale(1,1)"><path fill="none" stroke="#000000" d="M 136.09701249695354 41.49007839012942 L 118 54 L 139.64237065826518 57.95066985336193 L 136.09701249695354 41.49007839012942" stroke-miterlimit="10"/></g><g transform="translate(-9,-9) scale(1,1)"><rect fill="#C0C0C0" stroke="none" x="247.204833984375" y="77" width="82" height="39" opacity="0.2"/></g><g transform="translate(-9,-9) scale(1,1)"><rect fill="#ffffff" stroke="none" x="240.204833984375" y="70" width="82" height="39"/></g><g transform="translate(-9,-9) scale(1,1)"><path fill="none" stroke="#000000" d="M 240.204833984375 70 L 322.204833984375 70 L 322.204833984375 109 L 240.204833984375 109 L 240.204833984375 70 Z Z" stroke-miterlimit="10"/></g><g transform="translate(-9,-9) scale(1,1)"><g><path fill="none" stroke="none"/><text fill="#000000" stroke="none" font-family="Arial" font-size="13px" font-style="normal" font-weight="bold" text-decoration="none" x="264.204833984375" y="89.5">LvlAfr</text></g></g><g transform="translate(-9,-9) scale(1,1)"><g><path fill="none" stroke="none"/><text fill="#000000" stroke="none" font-family="Arial" font-size="13px" font-style="normal" font-weight="normal" text-decoration="none" x="244.704833984375" y="104.5">(from Model)</text></g></g><g transform="translate(-9,-9) scale(1,1)"><path fill="none" stroke="#000000" d="M 239 89 Q 183 90 118 74" stroke-miterlimit="10"/></g><g transform="translate(-9,-9) scale(1,1)"><path fill="#FFFFFF" stroke="none" d="M 139.74852683883418 70.68313697290505 L 118 74 L 135.72390714728306 87.0331544698315"/></g><g transform="translate(-9,-9) scale(1,1)"><path fill="none" stroke="#000000" d="M 139.74852683883418 70.68313697290505 L 118 74 L 135.72390714728306 87.0331544698315 L 139.74852683883418 70.68313697290505" stroke-miterlimit="10"/></g><g transform="translate(-9,-9) scale(1,1)"><rect fill="#C0C0C0" stroke="none" x="240.692138671875" y="327" width="95" height="39" opacity="0.2"/></g><g transform="translate(-9,-9) scale(1,1)"><rect fill="#ffffff" stroke="none" x="233.692138671875" y="320" width="95" height="39"/></g><g transform="translate(-9,-9) scale(1,1)"><path fill="none" stroke="#000000" d="M 233.692138671875 320 L 328.692138671875 320 L 328.692138671875 359 L 233.692138671875 359 L 233.692138671875 320 Z Z" stroke-miterlimit="10"/></g><g transform="translate(-9,-9) scale(1,1)"><g><path fill="none" stroke="none"/><text fill="#000000" stroke="none" font-family="Arial" font-size="13px" font-style="normal" font-weight="bold" text-decoration="none" x="241.192138671875" y="339.5">BraLvlFabrica</text></g></g><g transform="translate(-9,-9) scale(1,1)"><g><path fill="none" stroke="none"/><text fill="#000000" stroke="none" font-family="Arial" font-size="13px" font-style="normal" font-weight="normal" text-decoration="none" x="244.692138671875" y="354.5">(from Model)</text></g></g><g transform="translate(-9,-9) scale(1,1)"><path fill="none" stroke="#000000" d="M 233 339 Q 183 340 132 351" stroke-miterlimit="10"/></g><g transform="translate(-9,-9) scale(1,1)"><path fill="#FFFFFF" stroke="none" d="M 150.09340554120828 338.4848621293502 L 132 351 L 153.6435086087677 354.9444308971256"/></g><g transform="translate(-9,-9) scale(1,1)"><path fill="none" stroke="#000000" d="M 150.09340554120828 338.4848621293502 L 132 351 L 153.6435086087677 354.9444308971256 L 150.09340554120828 338.4848621293502" stroke-miterlimit="10"/></g><g transform="translate(-9,-9) scale(1,1)"><rect fill="#C0C0C0" stroke="none" x="242.142578125" y="377" width="92" height="39" opacity="0.2"/></g><g transform="translate(-9,-9) scale(1,1)"><rect fill="#ffffff" stroke="none" x="235.142578125" y="370" width="92" height="39"/></g><g transform="translate(-9,-9) scale(1,1)"><path fill="none" stroke="#000000" d="M 235.142578125 370 L 327.142578125 370 L 327.142578125 409 L 235.142578125 409 L 235.142578125 370 Z Z" stroke-miterlimit="10"/></g><g transform="translate(-9,-9) scale(1,1)"><g><path fill="none" stroke="none"/><text fill="#000000" stroke="none" font-family="Arial" font-size="13px" font-style="normal" font-weight="bold" text-decoration="none" x="242.642578125" y="389.5">AfrLvlFabrica</text></g></g><g transform="translate(-9,-9) scale(1,1)"><g><path fill="none" stroke="none"/><text fill="#000000" stroke="none" font-family="Arial" font-size="13px" font-style="normal" font-weight="normal" text-decoration="none" x="244.642578125" y="404.5">(from Model)</text></g></g><g transform="translate(-9,-9) scale(1,1)"><path fill="none" stroke="#000000" d="M 234 389 Q 183 390 132 378" stroke-miterlimit="10"/></g><g transform="translate(-9,-9) scale(1,1)"><path fill="#FFFFFF" stroke="none" d="M 153.7133346494942 374.4600708482972 L 132 378 L 149.85675408091913 390.8505382647412"/></g><g transform="translate(-9,-9) scale(1,1)"><path fill="none" stroke="#000000" d="M 153.7133346494942 374.4600708482972 L 132 378 L 149.85675408091913 390.8505382647412 L 153.7133346494942 374.4600708482972" stroke-miterlimit="10"/></g><g transform="translate(-9,-9) scale(1,1)"><rect fill="#C0C0C0" stroke="none" x="41.828125" y="452" width="82" height="39" opacity="0.2"/></g><g transform="translate(-9,-9) scale(1,1)"><rect fill="#ffffff" stroke="none" x="34.828125" y="445" width="82" height="39"/></g><g transform="translate(-9,-9) scale(1,1)"><path fill="none" stroke="#000000" d="M 34.828125 445 L 116.828125 445 L 116.828125 484 L 34.828125 484 L 34.828125 445 Z Z" stroke-miterlimit="10"/></g><g transform="translate(-9,-9) scale(1,1)"><g><path fill="none" stroke="none"/><text fill="#000000" stroke="none" font-family="Arial" font-size="13px" font-style="italic" font-weight="bold" text-decoration="none" x="43.489990234375" y="464.5">AnimalFac</text></g></g><g transform="translate(-9,-9) scale(1,1)"><g><path fill="none" stroke="none"/><text fill="#000000" stroke="none" font-family="Arial" font-size="13px" font-style="normal" font-weight="normal" text-decoration="none" x="39.328125" y="479.5">(from Model)</text></g></g><g transform="translate(-9,-9) scale(1,1)"><rect fill="#C0C0C0" stroke="none" x="240.33349609375" y="427" width="96" height="39" opacity="0.2"/></g><g transform="translate(-9,-9) scale(1,1)"><rect fill="#ffffff" stroke="none" x="233.33349609375" y="420" width="96" height="39"/></g><g transform="translate(-9,-9) scale(1,1)"><path fill="none" stroke="#000000" d="M 233.33349609375 420 L 329.33349609375 420 L 329.33349609375 459 L 233.33349609375 459 L 233.33349609375 420 Z Z" stroke-miterlimit="10"/></g><g transform="translate(-9,-9) scale(1,1)"><g><path fill="none" stroke="none"/><text fill="#000000" stroke="none" font-family="Arial" font-size="13px" font-style="normal" font-weight="bold" text-decoration="none" x="240.33349609375" y="439.5">BraAnimalFac</text></g></g><g transform="translate(-9,-9) scale(1,1)"><g><path fill="none" stroke="none"/><text fill="#000000" stroke="none" font-family="Arial" font-size="13px" font-style="normal" font-weight="normal" text-decoration="none" x="244.83349609375" y="454.5">(from Model)</text></g></g><g transform="translate(-9,-9) scale(1,1)"><path fill="none" stroke="#000000" d="M 232 439 Q 183 440 118 454" stroke-miterlimit="10"/></g><g transform="translate(-9,-9) scale(1,1)"><path fill="#FFFFFF" stroke="none" d="M 136.09701249695354 441.49007839012944 L 118 454 L 139.64237065826518 457.95066985336194"/></g><g transform="translate(-9,-9) scale(1,1)"><path fill="none" stroke="#000000" d="M 136.09701249695354 441.49007839012944 L 118 454 L 139.64237065826518 457.95066985336194 L 136.09701249695354 441.49007839012944" stroke-miterlimit="10"/></g><g transform="translate(-9,-9) scale(1,1)"><rect fill="#C0C0C0" stroke="none" x="241.783935546875" y="477" width="93" height="39" opacity="0.2"/></g><g transform="translate(-9,-9) scale(1,1)"><rect fill="#ffffff" stroke="none" x="234.783935546875" y="470" width="93" height="39"/></g><g transform="translate(-9,-9) scale(1,1)"><path fill="none" stroke="#000000" d="M 234.783935546875 470 L 327.783935546875 470 L 327.783935546875 509 L 234.783935546875 509 L 234.783935546875 470 Z Z" stroke-miterlimit="10"/></g><g transform="translate(-9,-9) scale(1,1)"><g><path fill="none" stroke="none"/><text fill="#000000" stroke="none" font-family="Arial" font-size="13px" font-style="normal" font-weight="bold" text-decoration="none" x="241.783935546875" y="489.5">AfrAnimalFac</text></g></g><g transform="translate(-9,-9) scale(1,1)"><g><path fill="none" stroke="none"/><text fill="#000000" stroke="none" font-family="Arial" font-size="13px" font-style="normal" font-weight="normal" text-decoration="none" x="244.783935546875" y="504.5">(from Model)</text></g></g><g transform="translate(-9,-9) scale(1,1)"><path fill="none" stroke="#000000" d="M 234 489 Q 183 490 118 474" stroke-miterlimit="10"/></g><g transform="translate(-9,-9) scale(1,1)"><path fill="#FFFFFF" stroke="none" d="M 139.74852683883418 470.68313697290506 L 118 474 L 135.72390714728306 487.0331544698315"/></g><g transform="translate(-9,-9) scale(1,1)"><path fill="none" stroke="#000000" d="M 139.74852683883418 470.68313697290506 L 118 474 L 135.72390714728306 487.0331544698315 L 139.74852683883418 470.68313697290506" stroke-miterlimit="10"/></g><g transform="translate(-9,-9) scale(1,1)"><rect fill="#C0C0C0" stroke="none" x="247.204833984375" y="527" width="82" height="39" opacity="0.2"/></g><g transform="translate(-9,-9) scale(1,1)"><rect fill="#ffffff" stroke="none" x="240.204833984375" y="520" width="82" height="39"/></g><g transform="translate(-9,-9) scale(1,1)"><path fill="none" stroke="#000000" d="M 240.204833984375 520 L 322.204833984375 520 L 322.204833984375 559 L 240.204833984375 559 L 240.204833984375 520 Z Z" stroke-miterlimit="10"/></g><g transform="translate(-9,-9) scale(1,1)"><g><path fill="none" stroke="none"/><text fill="#000000" stroke="none" font-family="Arial" font-size="13px" font-style="normal" font-weight="bold" text-decoration="none" x="263.704833984375" y="539.5">Felino</text></g></g><g transform="translate(-9,-9) scale(1,1)"><g><path fill="none" stroke="none"/><text fill="#000000" stroke="none" font-family="Arial" font-size="13px" font-style="normal" font-weight="normal" text-decoration="none" x="244.704833984375" y="554.5">(from Model)</text></g></g><g transform="translate(-9,-9) scale(1,1)"><path fill="none" stroke="#000000" d="M 433 514 Q 381 515 323 529" stroke-miterlimit="10"/></g><g transform="translate(-9,-9) scale(1,1)"><path fill="#FFFFFF" stroke="none" d="M 340.7824638604592 516.046854472698 L 323 529 L 344.73335782198683 532.4148437418839"/></g><g transform="translate(-9,-9) scale(1,1)"><path fill="none" stroke="#000000" d="M 340.7824638604592 516.046854472698 L 323 529 L 344.73335782198683 532.4148437418839 L 340.7824638604592 516.046854472698" stroke-miterlimit="10"/></g><g transform="translate(-9,-9) scale(1,1)"><path fill="none" stroke="#000000" d="M 433 564 Q 381 565 323 550" stroke-miterlimit="10"/></g><g transform="translate(-9,-9) scale(1,1)"><path fill="#FFFFFF" stroke="none" d="M 344.7859064239991 546.9382551894787 L 323 550 L 340.56994268448767 563.239981648923"/></g><g transform="translate(-9,-9) scale(1,1)"><path fill="none" stroke="#000000" d="M 344.7859064239991 546.9382551894787 L 323 550 L 340.56994268448767 563.239981648923 L 344.7859064239991 546.9382551894787" stroke-miterlimit="10"/></g><g transform="translate(-9,-9) scale(1,1)"><rect fill="#C0C0C0" stroke="none" x="247.204833984375" y="627" width="82" height="39" opacity="0.2"/></g><g transform="translate(-9,-9) scale(1,1)"><rect fill="#ffffff" stroke="none" x="240.204833984375" y="620" width="82" height="39"/></g><g transform="translate(-9,-9) scale(1,1)"><path fill="none" stroke="#000000" d="M 240.204833984375 620 L 322.204833984375 620 L 322.204833984375 659 L 240.204833984375 659 L 240.204833984375 620 Z Z" stroke-miterlimit="10"/></g><g transform="translate(-9,-9) scale(1,1)"><g><path fill="none" stroke="none"/><text fill="#000000" stroke="none" font-family="Arial" font-size="13px" font-style="normal" font-weight="bold" text-decoration="none" x="257.204833984375" y="639.5">Passaro</text></g></g><g transform="translate(-9,-9) scale(1,1)"><g><path fill="none" stroke="none"/><text fill="#000000" stroke="none" font-family="Arial" font-size="13px" font-style="normal" font-weight="normal" text-decoration="none" x="244.704833984375" y="654.5">(from Model)</text></g></g><g transform="translate(-9,-9) scale(1,1)"><path fill="none" stroke="#000000" d="M 430 614 Q 381 615 323 629" stroke-miterlimit="10"/></g><g transform="translate(-9,-9) scale(1,1)"><path fill="#FFFFFF" stroke="none" d="M 340.7824638604592 616.046854472698 L 323 629 L 344.73335782198683 632.4148437418839"/></g><g transform="translate(-9,-9) scale(1,1)"><path fill="none" stroke="#000000" d="M 340.7824638604592 616.046854472698 L 323 629 L 344.73335782198683 632.4148437418839 L 340.7824638604592 616.046854472698" stroke-miterlimit="10"/></g><g transform="translate(-9,-9) scale(1,1)"><path fill="none" stroke="#000000" d="M 433 664 Q 381 665 323 650" stroke-miterlimit="10"/></g><g transform="translate(-9,-9) scale(1,1)"><path fill="#FFFFFF" stroke="none" d="M 344.7859064239991 646.9382551894787 L 323 650 L 340.56994268448767 663.239981648923"/></g><g transform="translate(-9,-9) scale(1,1)"><path fill="none" stroke="#000000" d="M 344.7859064239991 646.9382551894787 L 323 650 L 340.56994268448767 663.239981648923 L 344.7859064239991 646.9382551894787" stroke-miterlimit="10"/></g><g transform="translate(-9,-9) scale(1,1)"><rect fill="#C0C0C0" stroke="none" x="247.204833984375" y="727" width="82" height="39" opacity="0.2"/></g><g transform="translate(-9,-9) scale(1,1)"><rect fill="#ffffff" stroke="none" x="240.204833984375" y="720" width="82" height="39"/></g><g transform="translate(-9,-9) scale(1,1)"><path fill="none" stroke="#000000" d="M 240.204833984375 720 L 322.204833984375 720 L 322.204833984375 759 L 240.204833984375 759 L 240.204833984375 720 Z Z" stroke-miterlimit="10"/></g><g transform="translate(-9,-9) scale(1,1)"><g><path fill="none" stroke="none"/><text fill="#000000" stroke="none" font-family="Arial" font-size="13px" font-style="normal" font-weight="bold" text-decoration="none" x="264.204833984375" y="739.5">Cobra</text></g></g><g transform="translate(-9,-9) scale(1,1)"><g><path fill="none" stroke="none"/><text fill="#000000" stroke="none" font-family="Arial" font-size="13px" font-style="normal" font-weight="normal" text-decoration="none" x="244.704833984375" y="754.5">(from Model)</text></g></g><g transform="translate(-9,-9) scale(1,1)"><path fill="none" stroke="#000000" d="M 433 714 Q 381 715 323 729" stroke-miterlimit="10"/></g><g transform="translate(-9,-9) scale(1,1)"><path fill="#FFFFFF" stroke="none" d="M 340.7824638604592 716.046854472698 L 323 729 L 344.73335782198683 732.4148437418839"/></g><g transform="translate(-9,-9) scale(1,1)"><path fill="none" stroke="#000000" d="M 340.7824638604592 716.046854472698 L 323 729 L 344.73335782198683 732.4148437418839 L 340.7824638604592 716.046854472698" stroke-miterlimit="10"/></g><g transform="translate(-9,-9) scale(1,1)"><path fill="none" stroke="#000000" d="M 433 764 Q 381 765 323 750" stroke-miterlimit="10"/></g><g transform="translate(-9,-9) scale(1,1)"><path fill="#FFFFFF" stroke="none" d="M 344.7859064239991 746.9382551894787 L 323 750 L 340.56994268448767 763.239981648923"/></g><g transform="translate(-9,-9) scale(1,1)"><path fill="none" stroke="#000000" d="M 344.7859064239991 746.9382551894787 L 323 750 L 340.56994268448767 763.239981648923 L 344.7859064239991 746.9382551894787" stroke-miterlimit="10"/></g><g transform="translate(-9,-9) scale(1,1)"><rect fill="#C0C0C0" stroke="none" x="41.828125" y="627" width="82" height="39" opacity="0.2"/></g><g transform="translate(-9,-9) scale(1,1)"><rect fill="#ffffff" stroke="none" x="34.828125" y="620" width="82" height="39"/></g><g transform="translate(-9,-9) scale(1,1)"><path fill="none" stroke="#000000" d="M 34.828125 620 L 116.828125 620 L 116.828125 659 L 34.828125 659 L 34.828125 620 Z Z" stroke-miterlimit="10"/></g><g transform="translate(-9,-9) scale(1,1)"><g><path fill="none" stroke="none"/><text fill="#000000" stroke="none" font-family="Arial" font-size="13px" font-style="normal" font-weight="bold" text-decoration="none" x="62.828125" y="639.5">Fera</text></g></g><g transform="translate(-9,-9) scale(1,1)"><g><path fill="none" stroke="none"/><text fill="#000000" stroke="none" font-family="Arial" font-size="13px" font-style="normal" font-weight="normal" text-decoration="none" x="39.328125" y="654.5">(from Model)</text></g></g><g transform="translate(-9,-9) scale(1,1)"><path fill="none" stroke="#000000" d="M 239 539 Q 183 540 97 619" stroke-miterlimit="10"/></g><g transform="translate(-9,-9) scale(1,1)"><path fill="#FFFFFF" stroke="none" d="M 106.27298199484353 599.0497667952651 L 97 619 L 117.66393363569571 611.4500432650535"/></g><g transform="translate(-9,-9) scale(1,1)"><path fill="none" stroke="#000000" d="M 106.27298199484353 599.0497667952651 L 97 619 L 117.66393363569571 611.4500432650535 L 106.27298199484353 599.0497667952651" stroke-miterlimit="10"/></g><g transform="translate(-9,-9) scale(1,1)"><path fill="none" stroke="#000000" d="M 239 639 Q 183 640 118 639" stroke-miterlimit="10"/></g><g transform="translate(-9,-9) scale(1,1)"><path fill="#FFFFFF" stroke="none" d="M 138.45245307306513 630.8946213355532 L 118 639 L 138.19343647757904 647.730700042149"/></g><g transform="translate(-9,-9) scale(1,1)"><path fill="none" stroke="#000000" d="M 138.45245307306513 630.8946213355532 L 118 639 L 138.19343647757904 647.730700042149 L 138.45245307306513 630.8946213355532" stroke-miterlimit="10"/></g><g transform="translate(-9,-9) scale(1,1)"><path fill="none" stroke="#000000" d="M 239 739 Q 183 740 97 660" stroke-miterlimit="10"/></g><g transform="translate(-9,-9) scale(1,1)"><path fill="#FFFFFF" stroke="none" d="M 117.61618978913289 667.6793696732514 L 97 660 L 106.14771323093036 680.0079819733191"/></g><g transform="translate(-9,-9) scale(1,1)"><path fill="none" stroke="#000000" d="M 117.61618978913289 667.6793696732514 L 97 660 L 106.14771323093036 680.0079819733191 L 117.61618978913289 667.6793696732514" stroke-miterlimit="10"/></g><g transform="translate(-9,-9) scale(1,1)"><rect fill="#C0C0C0" stroke="none" x="41.828125" y="827" width="82" height="39" opacity="0.2"/></g><g transform="translate(-9,-9) scale(1,1)"><rect fill="#ffffff" stroke="none" x="34.828125" y="820" width="82" height="39"/></g><g transform="translate(-9,-9) scale(1,1)"><path fill="none" stroke="#000000" d="M 34.828125 820 L 116.828125 820 L 116.828125 859 L 34.828125 859 L 34.828125 820 Z Z" stroke-miterlimit="10"/></g><g transform="translate(-9,-9) scale(1,1)"><g><path fill="none" stroke="none"/><text fill="#000000" stroke="none" font-family="Arial" font-size="13px" font-style="normal" font-weight="bold" text-decoration="none" x="53.828125" y="839.5">Cenario</text></g></g><g transform="translate(-9,-9) scale(1,1)"><g><path fill="none" stroke="none"/><text fill="#000000" stroke="none" font-family="Arial" font-size="13px" font-style="normal" font-weight="normal" text-decoration="none" x="39.328125" y="854.5">(from Model)</text></g></g><g transform="translate(-9,-9) scale(1,1)"><path fill="none" stroke="#000000" d="M 239 789 Q 183 790 118 820" stroke-miterlimit="10"/></g><g transform="translate(-9,-9) scale(1,1)"><path fill="#FFFFFF" stroke="none" d="M 132.92652633955544 803.8383536904635 L 118 820 L 139.98265769487114 819.1266382936474"/></g><g transform="translate(-9,-9) scale(1,1)"><path fill="none" stroke="#000000" d="M 132.92652633955544 803.8383536904635 L 118 820 L 139.98265769487114 819.1266382936474 L 132.92652633955544 803.8383536904635" stroke-miterlimit="10"/></g><g transform="translate(-9,-9) scale(1,1)"><path fill="none" stroke="#000000" d="M 239 839 Q 183 840 118 839" stroke-miterlimit="10"/></g><g transform="translate(-9,-9) scale(1,1)"><path fill="#FFFFFF" stroke="none" d="M 138.45245307306513 830.8946213355532 L 118 839 L 138.19343647757904 847.730700042149"/></g><g transform="translate(-9,-9) scale(1,1)"><path fill="none" stroke="#000000" d="M 138.45245307306513 830.8946213355532 L 118 839 L 138.19343647757904 847.730700042149 L 138.45245307306513 830.8946213355532" stroke-miterlimit="10"/></g><g transform="translate(-9,-9) scale(1,1)"><path fill="none" stroke="#000000" d="M 239 889 Q 183 890 118 859" stroke-miterlimit="10"/></g><g transform="translate(-9,-9) scale(1,1)"><path fill="#FFFFFF" stroke="none" d="M 139.96989894866329 860.1504521656827 L 118 859 L 132.721572000798 875.348557056368"/></g><g transform="translate(-9,-9) scale(1,1)"><path fill="none" stroke="#000000" d="M 139.96989894866329 860.1504521656827 L 118 859 L 132.721572000798 875.348557056368 L 139.96989894866329 860.1504521656827" stroke-miterlimit="10"/></g></g></svg>