<svg version="1.1" xmlns="http://www.w3.org/2000/svg" xmlns:xlink="http://www.w3.org/1999/xlink" width="1269.919921875" height="1531"><defs/><g><g transform="translate(-926,-286) scale(1,1)"><path fill="none" stroke="#000000" d="M 1928 1432 L 1775 1719" stroke-miterlimit="10"/></g><g transform="translate(-926,-286) scale(1,1)"><path fill="#FFFFFF" stroke="none" d="M 1777.1323494580076 1697.1035828093056 L 1775 1719 L 1791.9909038408462 1705.024693682387"/></g><g transform="translate(-926,-286) scale(1,1)"><path fill="none" stroke="#000000" d="M 1777.1323494580076 1697.1035828093056 L 1775 1719 L 1791.9909038408462 1705.024693682387 L 1777.1323494580076 1697.1035828093056" stroke-miterlimit="10"/></g><g transform="translate(-926,-286) scale(1,1)"><path fill="none" stroke="#000000" d="M 1618 1432 L 1733 1719" stroke-miterlimit="10"/></g><g transform="translate(-926,-286) scale(1,1)"><path fill="#FFFFFF" stroke="none" d="M 1717.6250227888377 1703.264369229159 L 1733 1719 L 1733.2550205777077 1697.001478129089"/></g><g transform="translate(-926,-286) scale(1,1)"><path fill="none" stroke="#000000" d="M 1717.6250227888377 1703.264369229159 L 1733 1719 L 1733.2550205777077 1697.001478129089 L 1717.6250227888377 1703.264369229159" stroke-miterlimit="10"/></g><g transform="translate(-926,-286) scale(1,1)"><rect fill="#C0C0C0" stroke="none" x="2087" y="775" width="66.79541015625" height="44" opacity="0.2"/></g><g transform="translate(-926,-286) scale(1,1)"><rect fill="#ffffff" stroke="none" x="2080" y="768" width="66.79541015625" height="44"/></g><g transform="translate(-926,-286) scale(1,1)"><path fill="none" stroke="#000000" d="M 2080 768 L 2146.79541015625 768 L 2146.79541015625 812 L 2080 812 L 2080 768 Z Z" stroke-miterlimit="10"/></g><g transform="translate(-926,-286) scale(1,1)"><path fill="none" stroke="#000000" d="M 2080 793 L 2146.79541015625 793" stroke-miterlimit="10"/></g><g transform="translate(-926,-286) scale(1,1)"><path fill="none" stroke="#000000" d="M 2080 803 L 2146.79541015625 803" stroke-miterlimit="10"/></g><g transform="translate(-926,-286) scale(1,1)"><g><path fill="none" stroke="none"/><text fill="#000000" stroke="none" font-family="Arial" font-size="13px" font-style="normal" font-weight="bold" text-decoration="none" x="2085.92822265625" y="787.5">Vajandao</text></g></g><g transform="translate(-926,-286) scale(1,1)"><rect fill="#C0C0C0" stroke="none" x="1752" y="303" width="89.57080078125" height="57" opacity="0.2"/></g><g transform="translate(-926,-286) scale(1,1)"><rect fill="#ffffff" stroke="none" x="1745" y="296" width="89.57080078125" height="57"/></g><g transform="translate(-926,-286) scale(1,1)"><path fill="none" stroke="#000000" d="M 1745 296 L 1834.57080078125 296 L 1834.57080078125 353 L 1745 353 L 1745 296 Z Z" stroke-miterlimit="10"/></g><g transform="translate(-926,-286) scale(1,1)"><path fill="none" stroke="#000000" d="M 1745 321 L 1834.57080078125 321" stroke-miterlimit="10"/></g><g transform="translate(-926,-286) scale(1,1)"><path fill="none" stroke="#000000" d="M 1745 331 L 1834.57080078125 331" stroke-miterlimit="10"/></g><g transform="translate(-926,-286) scale(1,1)"><g><path fill="none" stroke="none"/><text fill="#000000" stroke="none" font-family="Arial" font-size="13px" font-style="normal" font-weight="bold" text-decoration="none" x="1753.654541015625" y="315.5">PoteDeOuro</text></g></g><g transform="translate(-926,-286) scale(1,1)"><g><path fill="none" stroke="none"/><text fill="#000000" stroke="none" font-family="Arial" font-size="13px" font-style="normal" font-weight="normal" text-decoration="none" x="1750" y="348.5">+clone()</text></g></g><g transform="translate(-926,-286) scale(1,1)"><rect fill="#C0C0C0" stroke="none" x="1519" y="303" width="89.57080078125" height="57" opacity="0.2"/></g><g transform="translate(-926,-286) scale(1,1)"><rect fill="#ffffff" stroke="none" x="1512" y="296" width="89.57080078125" height="57"/></g><g transform="translate(-926,-286) scale(1,1)"><path fill="none" stroke="#000000" d="M 1512 296 L 1601.57080078125 296 L 1601.57080078125 353 L 1512 353 L 1512 296 Z Z" stroke-miterlimit="10"/></g><g transform="translate(-926,-286) scale(1,1)"><path fill="none" stroke="#000000" d="M 1512 321 L 1601.57080078125 321" stroke-miterlimit="10"/></g><g transform="translate(-926,-286) scale(1,1)"><path fill="none" stroke="#000000" d="M 1512 331 L 1601.57080078125 331" stroke-miterlimit="10"/></g><g transform="translate(-926,-286) scale(1,1)"><g><path fill="none" stroke="none"/><text fill="#000000" stroke="none" font-family="Arial" font-size="13px" font-style="normal" font-weight="bold" text-decoration="none" x="1528.966796875" y="315.5">Diamante</text></g></g><g transform="translate(-926,-286) scale(1,1)"><g><path fill="none" stroke="none"/><text fill="#000000" stroke="none" font-family="Arial" font-size="13px" font-style="normal" font-weight="normal" text-decoration="none" x="1517" y="348.5">+clone()</text></g></g><g transform="translate(-926,-286) scale(1,1)"><rect fill="#C0C0C0" stroke="none" x="1894" y="303" width="89.57080078125" height="57" opacity="0.2"/></g><g transform="translate(-926,-286) scale(1,1)"><rect fill="#ffffff" stroke="none" x="1887" y="296" width="89.57080078125" height="57"/></g><g transform="translate(-926,-286) scale(1,1)"><path fill="none" stroke="#000000" d="M 1887 296 L 1976.57080078125 296 L 1976.57080078125 353 L 1887 353 L 1887 296 Z Z" stroke-miterlimit="10"/></g><g transform="translate(-926,-286) scale(1,1)"><path fill="none" stroke="#000000" d="M 1887 321 L 1976.57080078125 321" stroke-miterlimit="10"/></g><g transform="translate(-926,-286) scale(1,1)"><path fill="none" stroke="#000000" d="M 1887 331 L 1976.57080078125 331" stroke-miterlimit="10"/></g><g transform="translate(-926,-286) scale(1,1)"><g><path fill="none" stroke="none"/><text fill="#000000" stroke="none" font-family="Arial" font-size="13px" font-style="normal" font-weight="bold" text-decoration="none" x="1918.055419921875" y="315.5">Jaca</text></g></g><g transform="translate(-926,-286) scale(1,1)"><g><path fill="none" stroke="none"/><text fill="#000000" stroke="none" font-family="Arial" font-size="13px" font-style="normal" font-weight="normal" text-decoration="none" x="1892" y="348.5">+clone()</text></g></g><g transform="translate(-926,-286) scale(1,1)"><rect fill="#C0C0C0" stroke="none" x="1644" y="303" width="89.57080078125" height="57" opacity="0.2"/></g><g transform="translate(-926,-286) scale(1,1)"><rect fill="#ffffff" stroke="none" x="1637" y="296" width="89.57080078125" height="57"/></g><g transform="translate(-926,-286) scale(1,1)"><path fill="none" stroke="#000000" d="M 1637 296 L 1726.57080078125 296 L 1726.57080078125 353 L 1637 353 L 1637 296 Z Z" stroke-miterlimit="10"/></g><g transform="translate(-926,-286) scale(1,1)"><path fill="none" stroke="#000000" d="M 1637 321 L 1726.57080078125 321" stroke-miterlimit="10"/></g><g transform="translate(-926,-286) scale(1,1)"><path fill="none" stroke="#000000" d="M 1637 331 L 1726.57080078125 331" stroke-miterlimit="10"/></g><g transform="translate(-926,-286) scale(1,1)"><g><path fill="none" stroke="none"/><text fill="#000000" stroke="none" font-family="Arial" font-size="13px" font-style="normal" font-weight="bold" text-decoration="none" x="1669.140869140625" y="315.5">Acai</text></g></g><g transform="translate(-926,-286) scale(1,1)"><g><path fill="none" stroke="none"/><text fill="#000000" stroke="none" font-family="Arial" font-size="13px" font-style="normal" font-weight="normal" text-decoration="none" x="1642" y="348.5">+clone()</text></g></g><g transform="translate(-926,-286) scale(1,1)"><rect fill="#C0C0C0" stroke="none" x="1668" y="1511" width="89.91357421875" height="44" opacity="0.2"/></g><g transform="translate(-926,-286) scale(1,1)"><rect fill="#ffffff" stroke="none" x="1661" y="1504" width="89.91357421875" height="44"/></g><g transform="translate(-926,-286) scale(1,1)"><path fill="none" stroke="#000000" d="M 1661 1504 L 1750.91357421875 1504 L 1750.91357421875 1548 L 1661 1548 L 1661 1504 Z Z" stroke-miterlimit="10"/></g><g transform="translate(-926,-286) scale(1,1)"><path fill="none" stroke="#000000" d="M 1661 1529 L 1750.91357421875 1529" stroke-miterlimit="10"/></g><g transform="translate(-926,-286) scale(1,1)"><path fill="none" stroke="#000000" d="M 1661 1539 L 1750.91357421875 1539" stroke-miterlimit="10"/></g><g transform="translate(-926,-286) scale(1,1)"><g><path fill="none" stroke="none"/><text fill="#000000" stroke="none" font-family="Arial" font-size="13px" font-style="normal" font-weight="bold" text-decoration="none" x="1668.385009765625" y="1523.5">AguiaMarcial</text></g></g><g transform="translate(-926,-286) scale(1,1)"><rect fill="#C0C0C0" stroke="none" x="2118" y="1511" width="50.919921875" height="44" opacity="0.2"/></g><g transform="translate(-926,-286) scale(1,1)"><rect fill="#ffffff" stroke="none" x="2111" y="1504" width="50.919921875" height="44"/></g><g transform="translate(-926,-286) scale(1,1)"><path fill="none" stroke="#000000" d="M 2111 1504 L 2161.919921875 1504 L 2161.919921875 1548 L 2111 1548 L 2111 1504 Z Z" stroke-miterlimit="10"/></g><g transform="translate(-926,-286) scale(1,1)"><path fill="none" stroke="#000000" d="M 2111 1529 L 2161.919921875 1529" stroke-miterlimit="10"/></g><g transform="translate(-926,-286) scale(1,1)"><path fill="none" stroke="#000000" d="M 2111 1539 L 2161.919921875 1539" stroke-miterlimit="10"/></g><g transform="translate(-926,-286) scale(1,1)"><g><path fill="none" stroke="none"/><text fill="#000000" stroke="none" font-family="Arial" font-size="13px" font-style="normal" font-weight="bold" text-decoration="none" x="2121.64453125" y="1523.5">Piton</text></g></g><g transform="translate(-926,-286) scale(1,1)"><rect fill="#C0C0C0" stroke="none" x="1533" y="1511" width="50.919921875" height="44" opacity="0.2"/></g><g transform="translate(-926,-286) scale(1,1)"><rect fill="#ffffff" stroke="none" x="1526" y="1504" width="50.919921875" height="44"/></g><g transform="translate(-926,-286) scale(1,1)"><path fill="none" stroke="#000000" d="M 1526 1504 L 1576.919921875 1504 L 1576.919921875 1548 L 1526 1548 L 1526 1504 Z Z" stroke-miterlimit="10"/></g><g transform="translate(-926,-286) scale(1,1)"><path fill="none" stroke="#000000" d="M 1526 1529 L 1576.919921875 1529" stroke-miterlimit="10"/></g><g transform="translate(-926,-286) scale(1,1)"><path fill="none" stroke="#000000" d="M 1526 1539 L 1576.919921875 1539" stroke-miterlimit="10"/></g><g transform="translate(-926,-286) scale(1,1)"><g><path fill="none" stroke="none"/><text fill="#000000" stroke="none" font-family="Arial" font-size="13px" font-style="normal" font-weight="bold" text-decoration="none" x="1536.65087890625" y="1523.5">Tigre</text></g></g><g transform="translate(-926,-286) scale(1,1)"><rect fill="#C0C0C0" stroke="none" x="1842" y="1511" width="57.42626953125" height="44" opacity="0.2"/></g><g transform="translate(-926,-286) scale(1,1)"><rect fill="#ffffff" stroke="none" x="1835" y="1504" width="57.42626953125" height="44"/></g><g transform="translate(-926,-286) scale(1,1)"><path fill="none" stroke="#000000" d="M 1835 1504 L 1892.42626953125 1504 L 1892.42626953125 1548 L 1835 1548 L 1835 1504 Z Z" stroke-miterlimit="10"/></g><g transform="translate(-926,-286) scale(1,1)"><path fill="none" stroke="#000000" d="M 1835 1529 L 1892.42626953125 1529" stroke-miterlimit="10"/></g><g transform="translate(-926,-286) scale(1,1)"><path fill="none" stroke="#000000" d="M 1835 1539 L 1892.42626953125 1539" stroke-miterlimit="10"/></g><g transform="translate(-926,-286) scale(1,1)"><g><path fill="none" stroke="none"/><text fill="#000000" stroke="none" font-family="Arial" font-size="13px" font-style="normal" font-weight="bold" text-decoration="none" x="1840.594970703125" y="1523.5">Carcara</text></g></g><g transform="translate(-926,-286) scale(1,1)"><rect fill="#C0C0C0" stroke="none" x="1983" y="1511" width="50.919921875" height="44" opacity="0.2"/></g><g transform="translate(-926,-286) scale(1,1)"><rect fill="#ffffff" stroke="none" x="1976" y="1504" width="50.919921875" height="44"/></g><g transform="translate(-926,-286) scale(1,1)"><path fill="none" stroke="#000000" d="M 1976 1504 L 2026.919921875 1504 L 2026.919921875 1548 L 1976 1548 L 1976 1504 Z Z" stroke-miterlimit="10"/></g><g transform="translate(-926,-286) scale(1,1)"><path fill="none" stroke="#000000" d="M 1976 1529 L 2026.919921875 1529" stroke-miterlimit="10"/></g><g transform="translate(-926,-286) scale(1,1)"><path fill="none" stroke="#000000" d="M 1976 1539 L 2026.919921875 1539" stroke-miterlimit="10"/></g><g transform="translate(-926,-286) scale(1,1)"><g><path fill="none" stroke="none"/><text fill="#000000" stroke="none" font-family="Arial" font-size="13px" font-style="normal" font-weight="bold" text-decoration="none" x="1983.035888671875" y="1523.5">Sucuri</text></g></g><g transform="translate(-926,-286) scale(1,1)"><rect fill="#C0C0C0" stroke="none" x="1383" y="1511" width="66.0654296875" height="44" opacity="0.2"/></g><g transform="translate(-926,-286) scale(1,1)"><rect fill="#ffffff" stroke="none" x="1376" y="1504" width="66.0654296875" height="44"/></g><g transform="translate(-926,-286) scale(1,1)"><path fill="none" stroke="#000000" d="M 1376 1504 L 1442.0654296875 1504 L 1442.0654296875 1548 L 1376 1548 L 1376 1504 Z Z" stroke-miterlimit="10"/></g><g transform="translate(-926,-286) scale(1,1)"><path fill="none" stroke="#000000" d="M 1376 1529 L 1442.0654296875 1529" stroke-miterlimit="10"/></g><g transform="translate(-926,-286) scale(1,1)"><path fill="none" stroke="#000000" d="M 1376 1539 L 1442.0654296875 1539" stroke-miterlimit="10"/></g><g transform="translate(-926,-286) scale(1,1)"><g><path fill="none" stroke="none"/><text fill="#000000" stroke="none" font-family="Arial" font-size="13px" font-style="normal" font-weight="bold" text-decoration="none" x="1381.931396484375" y="1523.5">OPintada</text></g></g><g transform="translate(-926,-286) scale(1,1)"><rect fill="#C0C0C0" stroke="none" x="1015" y="1335" width="55.24267578125" height="44" opacity="0.2"/></g><g transform="translate(-926,-286) scale(1,1)"><rect fill="#ffffff" stroke="none" x="1008" y="1328" width="55.24267578125" height="44"/></g><g transform="translate(-926,-286) scale(1,1)"><path fill="none" stroke="#000000" d="M 1008 1328 L 1063.24267578125 1328 L 1063.24267578125 1372 L 1008 1372 L 1008 1328 Z Z" stroke-miterlimit="10"/></g><g transform="translate(-926,-286) scale(1,1)"><path fill="none" stroke="#000000" d="M 1008 1353 L 1063.24267578125 1353" stroke-miterlimit="10"/></g><g transform="translate(-926,-286) scale(1,1)"><path fill="none" stroke="#000000" d="M 1008 1363 L 1063.24267578125 1363" stroke-miterlimit="10"/></g><g transform="translate(-926,-286) scale(1,1)"><g><path fill="none" stroke="none"/><text fill="#000000" stroke="none" font-family="Arial" font-size="13px" font-style="normal" font-weight="bold" text-decoration="none" x="1013.94091796875" y="1347.5">Plantas</text></g></g><g transform="translate(-926,-286) scale(1,1)"><rect fill="#C0C0C0" stroke="none" x="943" y="1207" width="51.630859375" height="44" opacity="0.2"/></g><g transform="translate(-926,-286) scale(1,1)"><rect fill="#ffffff" stroke="none" x="936" y="1200" width="51.630859375" height="44"/></g><g transform="translate(-926,-286) scale(1,1)"><path fill="none" stroke="#000000" d="M 936 1200 L 987.630859375 1200 L 987.630859375 1244 L 936 1244 L 936 1200 Z Z" stroke-miterlimit="10"/></g><g transform="translate(-926,-286) scale(1,1)"><path fill="none" stroke="#000000" d="M 936 1225 L 987.630859375 1225" stroke-miterlimit="10"/></g><g transform="translate(-926,-286) scale(1,1)"><path fill="none" stroke="#000000" d="M 936 1235 L 987.630859375 1235" stroke-miterlimit="10"/></g><g transform="translate(-926,-286) scale(1,1)"><g><path fill="none" stroke="none"/><text fill="#000000" stroke="none" font-family="Arial" font-size="13px" font-style="normal" font-weight="bold" text-decoration="none" x="941.582275390625" y="1219.5">Relevo</text></g></g><g transform="translate(-926,-286) scale(1,1)"><rect fill="#C0C0C0" stroke="none" x="1167" y="1335" width="50.919921875" height="44" opacity="0.2"/></g><g transform="translate(-926,-286) scale(1,1)"><rect fill="#ffffff" stroke="none" x="1160" y="1328" width="50.919921875" height="44"/></g><g transform="translate(-926,-286) scale(1,1)"><path fill="none" stroke="#000000" d="M 1160 1328 L 1210.919921875 1328 L 1210.919921875 1372 L 1160 1372 L 1160 1328 Z Z" stroke-miterlimit="10"/></g><g transform="translate(-926,-286) scale(1,1)"><path fill="none" stroke="#000000" d="M 1160 1353 L 1210.919921875 1353" stroke-miterlimit="10"/></g><g transform="translate(-926,-286) scale(1,1)"><path fill="none" stroke="#000000" d="M 1160 1363 L 1210.919921875 1363" stroke-miterlimit="10"/></g><g transform="translate(-926,-286) scale(1,1)"><g><path fill="none" stroke="none"/><text fill="#000000" stroke="none" font-family="Arial" font-size="13px" font-style="normal" font-weight="bold" text-decoration="none" x="1170.279541015625" y="1347.5">Agua</text></g></g><g transform="translate(-926,-286) scale(1,1)"><rect fill="#C0C0C0" stroke="none" x="1733" y="783" width="50.919921875" height="44" opacity="0.2"/></g><g transform="translate(-926,-286) scale(1,1)"><rect fill="#ffffff" stroke="none" x="1726" y="776" width="50.919921875" height="44"/></g><g transform="translate(-926,-286) scale(1,1)"><path fill="none" stroke="#000000" d="M 1726 776 L 1776.919921875 776 L 1776.919921875 820 L 1726 820 L 1726 776 Z Z" stroke-miterlimit="10"/></g><g transform="translate(-926,-286) scale(1,1)"><path fill="none" stroke="#000000" d="M 1726 801 L 1776.919921875 801" stroke-miterlimit="10"/></g><g transform="translate(-926,-286) scale(1,1)"><path fill="none" stroke="#000000" d="M 1726 811 L 1776.919921875 811" stroke-miterlimit="10"/></g><g transform="translate(-926,-286) scale(1,1)"><g><path fill="none" stroke="none"/><text fill="#000000" stroke="none" font-family="Arial" font-size="13px" font-style="normal" font-weight="bold" text-decoration="none" x="1735.9208984375" y="795.5">Level</text></g></g><g transform="translate(-926,-286) scale(1,1)"><rect fill="#C0C0C0" stroke="none" x="1714" y="495" width="89.57080078125" height="57" opacity="0.2"/></g><g transform="translate(-926,-286) scale(1,1)"><rect fill="#ffffff" stroke="none" x="1707" y="488" width="89.57080078125" height="57"/></g><g transform="translate(-926,-286) scale(1,1)"><path fill="none" stroke="#000000" d="M 1707 488 L 1796.57080078125 488 L 1796.57080078125 545 L 1707 545 L 1707 488 Z Z" stroke-miterlimit="10"/></g><g transform="translate(-926,-286) scale(1,1)"><path fill="none" stroke="#000000" d="M 1707 513 L 1796.57080078125 513" stroke-miterlimit="10"/></g><g transform="translate(-926,-286) scale(1,1)"><path fill="none" stroke="#000000" d="M 1707 523 L 1796.57080078125 523" stroke-miterlimit="10"/></g><g transform="translate(-926,-286) scale(1,1)"><g><path fill="none" stroke="none"/><text fill="#000000" stroke="none" font-family="Arial" font-size="13px" font-style="italic" font-weight="bold" text-decoration="none" x="1733.285400390625" y="507.5">Colect</text></g></g><g transform="translate(-926,-286) scale(1,1)"><g><path fill="none" stroke="none"/><text fill="#000000" stroke="none" font-family="Arial" font-size="13px" font-style="normal" font-weight="normal" text-decoration="none" x="1712" y="540.5">+clone()</text></g></g><g transform="translate(-926,-286) scale(1,1)"><path fill="none" stroke="#000000" d="M 1586 354 L 1722 487" stroke-miterlimit="10"/></g><g transform="translate(-926,-286) scale(1,1)"><path fill="#FFFFFF" stroke="none" d="M 1701.5820274127855 478.80815067107807 L 1722 487 L 1713.3548253364388 466.76980091456045"/></g><g transform="translate(-926,-286) scale(1,1)"><path fill="none" stroke="#000000" d="M 1701.5820274127855 478.80815067107807 L 1722 487 L 1713.3548253364388 466.76980091456045 L 1701.5820274127855 478.80815067107807" stroke-miterlimit="10"/></g><g transform="translate(-926,-286) scale(1,1)"><path fill="none" stroke="#000000" d="M 1692 354 L 1740 487" stroke-miterlimit="10"/></g><g transform="translate(-926,-286) scale(1,1)"><path fill="#FFFFFF" stroke="none" d="M 1725.1810550579942 470.7396534229494 L 1740 487 L 1741.0192248705534 465.0236222124017"/></g><g transform="translate(-926,-286) scale(1,1)"><path fill="none" stroke="#000000" d="M 1725.1810550579942 470.7396534229494 L 1740 487 L 1741.0192248705534 465.0236222124017 L 1725.1810550579942 470.7396534229494" stroke-miterlimit="10"/></g><g transform="translate(-926,-286) scale(1,1)"><path fill="none" stroke="#000000" d="M 1783 354 L 1757 487" stroke-miterlimit="10"/></g><g transform="translate(-926,-286) scale(1,1)"><path fill="#FFFFFF" stroke="none" d="M 1752.6369287014581 465.43698516339055 L 1757 487 L 1769.1621967117933 468.66748868420797"/></g><g transform="translate(-926,-286) scale(1,1)"><path fill="none" stroke="#000000" d="M 1752.6369287014581 465.43698516339055 L 1757 487 L 1769.1621967117933 468.66748868420797 L 1752.6369287014581 465.43698516339055" stroke-miterlimit="10"/></g><g transform="translate(-926,-286) scale(1,1)"><path fill="none" stroke="#000000" d="M 1903 354 L 1778 487" stroke-miterlimit="10"/></g><g transform="translate(-926,-286) scale(1,1)"><path fill="#FFFFFF" stroke="none" d="M 1785.7850504213955 466.42348450450544 L 1778 487 L 1798.0546555849023 477.9550683047937"/></g><g transform="translate(-926,-286) scale(1,1)"><path fill="none" stroke="#000000" d="M 1785.7850504213955 466.42348450450544 L 1778 487 L 1798.0546555849023 477.9550683047937 L 1785.7850504213955 466.42348450450544" stroke-miterlimit="10"/></g><g transform="translate(-926,-286) scale(1,1)"><rect fill="#C0C0C0" stroke="none" x="943" y="735" width="112.33349609375" height="72" opacity="0.2"/></g><g transform="translate(-926,-286) scale(1,1)"><rect fill="#ffffff" stroke="none" x="936" y="728" width="112.33349609375" height="72"/></g><g transform="translate(-926,-286) scale(1,1)"><path fill="none" stroke="#000000" d="M 936 728 L 1048.33349609375 728 L 1048.33349609375 800 L 936 800 L 936 728 Z Z" stroke-miterlimit="10"/></g><g transform="translate(-926,-286) scale(1,1)"><path fill="none" stroke="#000000" d="M 936 753 L 1048.33349609375 753" stroke-miterlimit="10"/></g><g transform="translate(-926,-286) scale(1,1)"><path fill="none" stroke="#000000" d="M 936 763 L 1048.33349609375 763" stroke-miterlimit="10"/></g><g transform="translate(-926,-286) scale(1,1)"><g><path fill="none" stroke="none"/><text fill="#000000" stroke="none" font-family="Arial" font-size="13px" font-style="italic" font-weight="bold" text-decoration="none" x="943.666748046875" y="747.5">FabricaDeLevels</text></g></g><g transform="translate(-926,-286) scale(1,1)"><g><path fill="none" stroke="none"/><text fill="#000000" stroke="none" font-family="Arial" font-size="13px" font-style="normal" font-weight="normal" text-decoration="none" x="941" y="780.5">+createLvl()</text></g></g><g transform="translate(-926,-286) scale(1,1)"><rect fill="#C0C0C0" stroke="none" x="1414" y="907" width="50.919921875" height="44" opacity="0.2"/></g><g transform="translate(-926,-286) scale(1,1)"><rect fill="#ffffff" stroke="none" x="1407" y="900" width="50.919921875" height="44"/></g><g transform="translate(-926,-286) scale(1,1)"><path fill="none" stroke="#000000" d="M 1407 900 L 1457.919921875 900 L 1457.919921875 944 L 1407 944 L 1407 900 Z Z" stroke-miterlimit="10"/></g><g transform="translate(-926,-286) scale(1,1)"><path fill="none" stroke="#000000" d="M 1407 925 L 1457.919921875 925" stroke-miterlimit="10"/></g><g transform="translate(-926,-286) scale(1,1)"><path fill="none" stroke="#000000" d="M 1407 935 L 1457.919921875 935" stroke-miterlimit="10"/></g><g transform="translate(-926,-286) scale(1,1)"><g><path fill="none" stroke="none"/><text fill="#000000" stroke="none" font-family="Arial" font-size="13px" font-style="normal" font-weight="bold" text-decoration="none" x="1414.035888671875" y="919.5">LvlBra</text></g></g><g transform="translate(-926,-286) scale(1,1)"><rect fill="#C0C0C0" stroke="none" x="1414" y="599" width="50.919921875" height="44" opacity="0.2"/></g><g transform="translate(-926,-286) scale(1,1)"><rect fill="#ffffff" stroke="none" x="1407" y="592" width="50.919921875" height="44"/></g><g transform="translate(-926,-286) scale(1,1)"><path fill="none" stroke="#000000" d="M 1407 592 L 1457.919921875 592 L 1457.919921875 636 L 1407 636 L 1407 592 Z Z" stroke-miterlimit="10"/></g><g transform="translate(-926,-286) scale(1,1)"><path fill="none" stroke="#000000" d="M 1407 617 L 1457.919921875 617" stroke-miterlimit="10"/></g><g transform="translate(-926,-286) scale(1,1)"><path fill="none" stroke="#000000" d="M 1407 627 L 1457.919921875 627" stroke-miterlimit="10"/></g><g transform="translate(-926,-286) scale(1,1)"><g><path fill="none" stroke="none"/><text fill="#000000" stroke="none" font-family="Arial" font-size="13px" font-style="normal" font-weight="bold" text-decoration="none" x="1415.844970703125" y="611.5">LvlAfr</text></g></g><g transform="translate(-926,-286) scale(1,1)"><rect fill="#C0C0C0" stroke="none" x="1195" y="879" width="103.77685546875" height="72" opacity="0.2"/></g><g transform="translate(-926,-286) scale(1,1)"><rect fill="#ffffff" stroke="none" x="1188" y="872" width="103.77685546875" height="72"/></g><g transform="translate(-926,-286) scale(1,1)"><path fill="none" stroke="#000000" d="M 1188 872 L 1291.77685546875 872 L 1291.77685546875 944 L 1188 944 L 1188 872 Z Z" stroke-miterlimit="10"/></g><g transform="translate(-926,-286) scale(1,1)"><path fill="none" stroke="#000000" d="M 1188 897 L 1291.77685546875 897" stroke-miterlimit="10"/></g><g transform="translate(-926,-286) scale(1,1)"><path fill="none" stroke="#000000" d="M 1188 907 L 1291.77685546875 907" stroke-miterlimit="10"/></g><g transform="translate(-926,-286) scale(1,1)"><g><path fill="none" stroke="none"/><text fill="#000000" stroke="none" font-family="Arial" font-size="13px" font-style="normal" font-weight="bold" text-decoration="none" x="1199.790283203125" y="891.5">BraLvlFabrica</text></g></g><g transform="translate(-926,-286) scale(1,1)"><g><path fill="none" stroke="none"/><text fill="#000000" stroke="none" font-family="Arial" font-size="13px" font-style="normal" font-weight="normal" text-decoration="none" x="1193" y="924.5">+createLvl()</text></g></g><g transform="translate(-926,-286) scale(1,1)"><rect fill="#C0C0C0" stroke="none" x="1195" y="599" width="103.77685546875" height="72" opacity="0.2"/></g><g transform="translate(-926,-286) scale(1,1)"><rect fill="#ffffff" stroke="none" x="1188" y="592" width="103.77685546875" height="72"/></g><g transform="translate(-926,-286) scale(1,1)"><path fill="none" stroke="#000000" d="M 1188 592 L 1291.77685546875 592 L 1291.77685546875 664 L 1188 664 L 1188 592 Z Z" stroke-miterlimit="10"/></g><g transform="translate(-926,-286) scale(1,1)"><path fill="none" stroke="#000000" d="M 1188 617 L 1291.77685546875 617" stroke-miterlimit="10"/></g><g transform="translate(-926,-286) scale(1,1)"><path fill="none" stroke="#000000" d="M 1188 627 L 1291.77685546875 627" stroke-miterlimit="10"/></g><g transform="translate(-926,-286) scale(1,1)"><g><path fill="none" stroke="none"/><text fill="#000000" stroke="none" font-family="Arial" font-size="13px" font-style="normal" font-weight="bold" text-decoration="none" x="1201.599365234375" y="611.5">AfrLvlFabrica</text></g></g><g transform="translate(-926,-286) scale(1,1)"><g><path fill="none" stroke="none"/><text fill="#000000" stroke="none" font-family="Arial" font-size="13px" font-style="normal" font-weight="normal" text-decoration="none" x="1193" y="644.5">+createLvl()</text></g></g><g transform="translate(-926,-286) scale(1,1)"><path fill="none" stroke="#000000" d="M 1187 878 L 1049 797" stroke-miterlimit="10"/></g><g transform="translate(-926,-286) scale(1,1)"><path fill="#FFFFFF" stroke="none" d="M 1070.790622970739 800.0279944760686 L 1049 797 L 1062.2671818414653 814.5494126963124"/></g><g transform="translate(-926,-286) scale(1,1)"><path fill="none" stroke="#000000" d="M 1070.790622970739 800.0279944760686 L 1049 797 L 1062.2671818414653 814.5494126963124 L 1070.790622970739 800.0279944760686" stroke-miterlimit="10"/></g><g transform="translate(-926,-286) scale(1,1)"><path fill="none" stroke="#000000" d="M 1187 657 L 1049 732" stroke-miterlimit="10"/></g><g transform="translate(-926,-286) scale(1,1)"><path fill="#FFFFFF" stroke="none" d="M 1062.8381488233674 714.8972038209439 L 1049 732 L 1070.8785520275337 729.6915457166099"/></g><g transform="translate(-926,-286) scale(1,1)"><path fill="none" stroke="#000000" d="M 1062.8381488233674 714.8972038209439 L 1049 732 L 1070.8785520275337 729.6915457166099 L 1062.8381488233674 714.8972038209439" stroke-miterlimit="10"/></g><g transform="translate(-926,-286) scale(1,1)"><path fill="none" stroke="#000000" d="M 1459 908 L 1632 816 L 1725 802" stroke-miterlimit="10"/></g><g transform="translate(-926,-286) scale(1,1)"><path fill="#FFFFFF" stroke="none" d="M 1706.1543715784499 813.3508717461199 L 1725 802 L 1703.64784996334 796.7004067314601"/></g><g transform="translate(-926,-286) scale(1,1)"><path fill="none" stroke="#000000" d="M 1706.1543715784499 813.3508717461199 L 1725 802 L 1703.64784996334 796.7004067314601 L 1706.1543715784499 813.3508717461199" stroke-miterlimit="10"/></g><g transform="translate(-926,-286) scale(1,1)"><path fill="none" stroke="#000000" d="M 1293 624 L 1406 616" stroke-miterlimit="10" stroke-dasharray="3"/></g><g transform="translate(-926,-286) scale(1,1)"><path fill="none" stroke="#000000" d="M 1396.1599730664395 620.91669298887 L 1406 616 L 1395.5654232747788 612.5186771816633" stroke-miterlimit="10"/></g><g transform="translate(-926,-286) scale(1,1)"><g><path fill="none" stroke="none"/><text fill="#000000" stroke="none" font-family="Arial" font-size="13px" font-style="normal" font-weight="normal" text-decoration="none" x="1332" y="612">+Cria</text></g></g><g transform="translate(-926,-286) scale(1,1)"><path fill="none" stroke="#000000" d="M 1293 912 L 1406 920" stroke-miterlimit="10" stroke-dasharray="3"/></g><g transform="translate(-926,-286) scale(1,1)"><path fill="none" stroke="#000000" d="M 1395.5654232747788 923.4813228183367 L 1406 920 L 1396.1599730664395 915.08330701113" stroke-miterlimit="10"/></g><g transform="translate(-926,-286) scale(1,1)"><g><path fill="none" stroke="none"/><text fill="#000000" stroke="none" font-family="Arial" font-size="13px" font-style="normal" font-weight="normal" text-decoration="none" x="1335" y="908">+Cria</text></g></g><g transform="translate(-926,-286) scale(1,1)"><rect fill="#C0C0C0" stroke="none" x="1710" y="1727" width="96.775390625" height="87" opacity="0.2"/></g><g transform="translate(-926,-286) scale(1,1)"><rect fill="#ffffff" stroke="none" x="1703" y="1720" width="96.775390625" height="87"/></g><g transform="translate(-926,-286) scale(1,1)"><path fill="none" stroke="#000000" d="M 1703 1720 L 1799.775390625 1720 L 1799.775390625 1807 L 1703 1807 L 1703 1720 Z Z" stroke-miterlimit="10"/></g><g transform="translate(-926,-286) scale(1,1)"><path fill="none" stroke="#000000" d="M 1703 1745 L 1799.775390625 1745" stroke-miterlimit="10"/></g><g transform="translate(-926,-286) scale(1,1)"><path fill="none" stroke="#000000" d="M 1703 1755 L 1799.775390625 1755" stroke-miterlimit="10"/></g><g transform="translate(-926,-286) scale(1,1)"><g><path fill="none" stroke="none"/><text fill="#000000" stroke="none" font-family="Arial" font-size="13px" font-style="italic" font-weight="bold" text-decoration="none" x="1720.3876953125" y="1739.5">AnimalFac</text></g></g><g transform="translate(-926,-286) scale(1,1)"><g><path fill="none" stroke="none"/><text fill="#000000" stroke="none" font-family="Arial" font-size="13px" font-style="normal" font-weight="normal" text-decoration="none" x="1708" y="1772.5">+CriaFelino()</text></g></g><g transform="translate(-926,-286) scale(1,1)"><g><path fill="none" stroke="none"/><text fill="#000000" stroke="none" font-family="Arial" font-size="13px" font-style="normal" font-weight="normal" text-decoration="none" x="1708" y="1787.5">+CriaPassaro()</text></g></g><g transform="translate(-926,-286) scale(1,1)"><g><path fill="none" stroke="none"/><text fill="#000000" stroke="none" font-family="Arial" font-size="13px" font-style="normal" font-weight="normal" text-decoration="none" x="1708" y="1802.5">+CriaCobra()</text></g></g><g transform="translate(-926,-286) scale(1,1)"><rect fill="#C0C0C0" stroke="none" x="1559" y="1351" width="96.775390625" height="87" opacity="0.2"/></g><g transform="translate(-926,-286) scale(1,1)"><rect fill="#ffffff" stroke="none" x="1552" y="1344" width="96.775390625" height="87"/></g><g transform="translate(-926,-286) scale(1,1)"><path fill="none" stroke="#000000" d="M 1552 1344 L 1648.775390625 1344 L 1648.775390625 1431 L 1552 1431 L 1552 1344 Z Z" stroke-miterlimit="10"/></g><g transform="translate(-926,-286) scale(1,1)"><path fill="none" stroke="#000000" d="M 1552 1369 L 1648.775390625 1369" stroke-miterlimit="10"/></g><g transform="translate(-926,-286) scale(1,1)"><path fill="none" stroke="#000000" d="M 1552 1379 L 1648.775390625 1379" stroke-miterlimit="10"/></g><g transform="translate(-926,-286) scale(1,1)"><g><path fill="none" stroke="none"/><text fill="#000000" stroke="none" font-family="Arial" font-size="13px" font-style="normal" font-weight="bold" text-decoration="none" x="1559.569091796875" y="1363.5">BraAnimalFac</text></g></g><g transform="translate(-926,-286) scale(1,1)"><g><path fill="none" stroke="none"/><text fill="#000000" stroke="none" font-family="Arial" font-size="13px" font-style="normal" font-weight="normal" text-decoration="none" x="1557" y="1396.5">+CriaFelino()</text></g></g><g transform="translate(-926,-286) scale(1,1)"><g><path fill="none" stroke="none"/><text fill="#000000" stroke="none" font-family="Arial" font-size="13px" font-style="normal" font-weight="normal" text-decoration="none" x="1557" y="1411.5">+CriaPassaro()</text></g></g><g transform="translate(-926,-286) scale(1,1)"><g><path fill="none" stroke="none"/><text fill="#000000" stroke="none" font-family="Arial" font-size="13px" font-style="normal" font-weight="normal" text-decoration="none" x="1557" y="1426.5">+CriaCobra()</text></g></g><g transform="translate(-926,-286) scale(1,1)"><rect fill="#C0C0C0" stroke="none" x="1911" y="1351" width="96.775390625" height="87" opacity="0.2"/></g><g transform="translate(-926,-286) scale(1,1)"><rect fill="#ffffff" stroke="none" x="1904" y="1344" width="96.775390625" height="87"/></g><g transform="translate(-926,-286) scale(1,1)"><path fill="none" stroke="#000000" d="M 1904 1344 L 2000.775390625 1344 L 2000.775390625 1431 L 1904 1431 L 1904 1344 Z Z" stroke-miterlimit="10"/></g><g transform="translate(-926,-286) scale(1,1)"><path fill="none" stroke="#000000" d="M 1904 1369 L 2000.775390625 1369" stroke-miterlimit="10"/></g><g transform="translate(-926,-286) scale(1,1)"><path fill="none" stroke="#000000" d="M 1904 1379 L 2000.775390625 1379" stroke-miterlimit="10"/></g><g transform="translate(-926,-286) scale(1,1)"><g><path fill="none" stroke="none"/><text fill="#000000" stroke="none" font-family="Arial" font-size="13px" font-style="normal" font-weight="bold" text-decoration="none" x="1913.378173828125" y="1363.5">AfrAnimalFac</text></g></g><g transform="translate(-926,-286) scale(1,1)"><g><path fill="none" stroke="none"/><text fill="#000000" stroke="none" font-family="Arial" font-size="13px" font-style="normal" font-weight="normal" text-decoration="none" x="1909" y="1396.5">+CriaFelino()</text></g></g><g transform="translate(-926,-286) scale(1,1)"><g><path fill="none" stroke="none"/><text fill="#000000" stroke="none" font-family="Arial" font-size="13px" font-style="normal" font-weight="normal" text-decoration="none" x="1909" y="1411.5">+CriaPassaro()</text></g></g><g transform="translate(-926,-286) scale(1,1)"><g><path fill="none" stroke="none"/><text fill="#000000" stroke="none" font-family="Arial" font-size="13px" font-style="normal" font-weight="normal" text-decoration="none" x="1909" y="1426.5">+CriaCobra()</text></g></g><g transform="translate(-926,-286) scale(1,1)"><rect fill="#C0C0C0" stroke="none" x="1391" y="1239" width="50.919921875" height="44" opacity="0.2"/></g><g transform="translate(-926,-286) scale(1,1)"><rect fill="#ffffff" stroke="none" x="1384" y="1232" width="50.919921875" height="44"/></g><g transform="translate(-926,-286) scale(1,1)"><path fill="none" stroke="#000000" d="M 1384 1232 L 1434.919921875 1232 L 1434.919921875 1276 L 1384 1276 L 1384 1232 Z Z" stroke-miterlimit="10"/></g><g transform="translate(-926,-286) scale(1,1)"><path fill="none" stroke="#000000" d="M 1384 1257 L 1434.919921875 1257" stroke-miterlimit="10"/></g><g transform="translate(-926,-286) scale(1,1)"><path fill="none" stroke="#000000" d="M 1384 1267 L 1434.919921875 1267" stroke-miterlimit="10"/></g><g transform="translate(-926,-286) scale(1,1)"><g><path fill="none" stroke="none"/><text fill="#000000" stroke="none" font-family="Arial" font-size="13px" font-style="normal" font-weight="bold" text-decoration="none" x="1391.75634765625" y="1251.5">Felino</text></g></g><g transform="translate(-926,-286) scale(1,1)"><rect fill="#C0C0C0" stroke="none" x="1729" y="1239" width="59.5908203125" height="44" opacity="0.2"/></g><g transform="translate(-926,-286) scale(1,1)"><rect fill="#ffffff" stroke="none" x="1722" y="1232" width="59.5908203125" height="44"/></g><g transform="translate(-926,-286) scale(1,1)"><path fill="none" stroke="#000000" d="M 1722 1232 L 1781.5908203125 1232 L 1781.5908203125 1276 L 1722 1276 L 1722 1232 Z Z" stroke-miterlimit="10"/></g><g transform="translate(-926,-286) scale(1,1)"><path fill="none" stroke="#000000" d="M 1722 1257 L 1781.5908203125 1257" stroke-miterlimit="10"/></g><g transform="translate(-926,-286) scale(1,1)"><path fill="none" stroke="#000000" d="M 1722 1267 L 1781.5908203125 1267" stroke-miterlimit="10"/></g><g transform="translate(-926,-286) scale(1,1)"><g><path fill="none" stroke="none"/><text fill="#000000" stroke="none" font-family="Arial" font-size="13px" font-style="normal" font-weight="bold" text-decoration="none" x="1727.950439453125" y="1251.5">Passaro</text></g></g><g transform="translate(-926,-286) scale(1,1)"><rect fill="#C0C0C0" stroke="none" x="2142" y="1239" width="50.919921875" height="44" opacity="0.2"/></g><g transform="translate(-926,-286) scale(1,1)"><rect fill="#ffffff" stroke="none" x="2135" y="1232" width="50.919921875" height="44"/></g><g transform="translate(-926,-286) scale(1,1)"><path fill="none" stroke="#000000" d="M 2135 1232 L 2185.919921875 1232 L 2185.919921875 1276 L 2135 1276 L 2135 1232 Z Z" stroke-miterlimit="10"/></g><g transform="translate(-926,-286) scale(1,1)"><path fill="none" stroke="#000000" d="M 2135 1257 L 2185.919921875 1257" stroke-miterlimit="10"/></g><g transform="translate(-926,-286) scale(1,1)"><path fill="none" stroke="#000000" d="M 2135 1267 L 2185.919921875 1267" stroke-miterlimit="10"/></g><g transform="translate(-926,-286) scale(1,1)"><g><path fill="none" stroke="none"/><text fill="#000000" stroke="none" font-family="Arial" font-size="13px" font-style="normal" font-weight="bold" text-decoration="none" x="2142.75634765625" y="1251.5">Cobra</text></g></g><g transform="translate(-926,-286) scale(1,1)"><path fill="none" stroke="#000000" d="M 1409 1503 L 1409 1277" stroke-miterlimit="10"/></g><g transform="translate(-926,-286) scale(1,1)"><path fill="#FFFFFF" stroke="none" d="M 1417.419035512032 1297.3253497152482 L 1409 1277 L 1400.580964487968 1297.3253497152482"/></g><g transform="translate(-926,-286) scale(1,1)"><path fill="none" stroke="#000000" d="M 1417.419035512032 1297.3253497152482 L 1409 1277 L 1400.580964487968 1297.3253497152482 L 1417.419035512032 1297.3253497152482" stroke-miterlimit="10"/></g><g transform="translate(-926,-286) scale(1,1)"><path fill="none" stroke="#000000" d="M 1539 1503 L 1421 1277" stroke-miterlimit="10"/></g><g transform="translate(-926,-286) scale(1,1)"><path fill="#FFFFFF" stroke="none" d="M 1437.870275866381 1291.1206866756613 L 1421 1277 L 1422.944253162235 1298.9139197689765"/></g><g transform="translate(-926,-286) scale(1,1)"><path fill="none" stroke="#000000" d="M 1437.870275866381 1291.1206866756613 L 1421 1277 L 1422.944253162235 1298.9139197689765 L 1437.870275866381 1291.1206866756613" stroke-miterlimit="10"/></g><g transform="translate(-926,-286) scale(1,1)"><path fill="none" stroke="#000000" d="M 1709 1503 L 1747 1277" stroke-miterlimit="10"/></g><g transform="translate(-926,-286) scale(1,1)"><path fill="#FFFFFF" stroke="none" d="M 1751.9322632975284 1298.439980848029 L 1747 1277 L 1735.3272809781288 1295.647992670431"/></g><g transform="translate(-926,-286) scale(1,1)"><path fill="none" stroke="#000000" d="M 1751.9322632975284 1298.439980848029 L 1747 1277 L 1735.3272809781288 1295.647992670431 L 1751.9322632975284 1298.439980848029" stroke-miterlimit="10"/></g><g transform="translate(-926,-286) scale(1,1)"><path fill="none" stroke="#000000" d="M 1854 1503 L 1760 1277" stroke-miterlimit="10"/></g><g transform="translate(-926,-286) scale(1,1)"><path fill="#FFFFFF" stroke="none" d="M 1775.579099275414 1292.5335657775927 L 1760 1277 L 1760.0321970450807 1298.9999764397667"/></g><g transform="translate(-926,-286) scale(1,1)"><path fill="none" stroke="#000000" d="M 1775.579099275414 1292.5335657775927 L 1760 1277 L 1760.0321970450807 1298.9999764397667 L 1775.579099275414 1292.5335657775927" stroke-miterlimit="10"/></g><g transform="translate(-926,-286) scale(1,1)"><path fill="none" stroke="#000000" d="M 2014 1503 L 2147 1277" stroke-miterlimit="10"/></g><g transform="translate(-926,-286) scale(1,1)"><path fill="#FFFFFF" stroke="none" d="M 2143.947080806037 1298.787144934459 L 2147 1277 L 2129.4354222096836 1290.2470980613841"/></g><g transform="translate(-926,-286) scale(1,1)"><path fill="none" stroke="#000000" d="M 2143.947080806037 1298.787144934459 L 2147 1277 L 2129.4354222096836 1290.2470980613841 L 2143.947080806037 1298.787144934459" stroke-miterlimit="10"/></g><g transform="translate(-926,-286) scale(1,1)"><path fill="none" stroke="#000000" d="M 2138 1503 L 2158 1277" stroke-miterlimit="10"/></g><g transform="translate(-926,-286) scale(1,1)"><path fill="#FFFFFF" stroke="none" d="M 2164.594559819238 1297.9883725140967 L 2158 1277 L 2147.8220374363364 1296.5040784979108"/></g><g transform="translate(-926,-286) scale(1,1)"><path fill="none" stroke="#000000" d="M 2164.594559819238 1297.9883725140967 L 2158 1277 L 2147.8220374363364 1296.5040784979108 L 2164.594559819238 1297.9883725140967" stroke-miterlimit="10"/></g><g transform="translate(-926,-286) scale(1,1)"><path fill="none" stroke="#000000" d="M 1551 1423 L 1441 1503" stroke-miterlimit="10" stroke-dasharray="3"/></g><g transform="translate(-926,-286) scale(1,1)"><path fill="none" stroke="#000000" d="M 1446.7430026654522 1493.6182133692666 L 1441 1503 L 1451.6948410753505 1500.426991182877" stroke-miterlimit="10"/></g><g transform="translate(-926,-286) scale(1,1)"><g><path fill="none" stroke="none"/><text fill="#000000" stroke="none" font-family="Arial" font-size="13px" font-style="normal" font-weight="normal" text-decoration="none" x="1489" y="1482">+Cria</text></g></g><g transform="translate(-926,-286) scale(1,1)"><path fill="none" stroke="#000000" d="M 1650 1413 L 1834 1511" stroke-miterlimit="10" stroke-dasharray="3"/></g><g transform="translate(-926,-286) scale(1,1)"><path fill="none" stroke="#000000" d="M 1823.0513833641382 1509.9380236533086 L 1834 1511 L 1827.0090896083755 1502.5072282559652" stroke-miterlimit="10"/></g><g transform="translate(-926,-286) scale(1,1)"><g><path fill="none" stroke="none"/><text fill="#000000" stroke="none" font-family="Arial" font-size="13px" font-style="normal" font-weight="normal" text-decoration="none" x="1734" y="1455">+Cria</text></g></g><g transform="translate(-926,-286) scale(1,1)"><path fill="none" stroke="#000000" d="M 1650 1404 L 1975 1517" stroke-miterlimit="10" stroke-dasharray="3"/></g><g transform="translate(-926,-286) scale(1,1)"><path fill="none" stroke="#000000" d="M 1964.0185488758787 1517.6385383375616 L 1975 1517 L 1966.783426654328 1509.6864562314026" stroke-miterlimit="10"/></g><g transform="translate(-926,-286) scale(1,1)"><g><path fill="none" stroke="none"/><text fill="#000000" stroke="none" font-family="Arial" font-size="13px" font-style="normal" font-weight="normal" text-decoration="none" x="1801" y="1452">+Cria</text></g></g><g transform="translate(-926,-286) scale(1,1)"><path fill="none" stroke="#000000" d="M 1903 1404 L 1578 1517" stroke-miterlimit="10" stroke-dasharray="3"/></g><g transform="translate(-926,-286) scale(1,1)"><path fill="none" stroke="#000000" d="M 1586.216573345672 1509.6864562314026 L 1578 1517 L 1588.9814511241213 1517.6385383375616" stroke-miterlimit="10"/></g><g transform="translate(-926,-286) scale(1,1)"><g><path fill="none" stroke="none"/><text fill="#000000" stroke="none" font-family="Arial" font-size="13px" font-style="normal" font-weight="normal" text-decoration="none" x="1729" y="1481">+Cria</text></g></g><g transform="translate(-926,-286) scale(1,1)"><path fill="none" stroke="#000000" d="M 1903 1415 L 1746 1503" stroke-miterlimit="10" stroke-dasharray="3"/></g><g transform="translate(-926,-286) scale(1,1)"><path fill="none" stroke="#000000" d="M 1752.8068597381846 1494.3590127586783 L 1746 1503 L 1756.9232773539409 1501.703076004971" stroke-miterlimit="10"/></g><g transform="translate(-926,-286) scale(1,1)"><g><path fill="none" stroke="none"/><text fill="#000000" stroke="none" font-family="Arial" font-size="13px" font-style="normal" font-weight="normal" text-decoration="none" x="1816" y="1479">+Cria</text></g></g><g transform="translate(-926,-286) scale(1,1)"><path fill="none" stroke="#000000" d="M 2002 1425 L 2110 1506" stroke-miterlimit="10" stroke-dasharray="3"/></g><g transform="translate(-926,-286) scale(1,1)"><path fill="none" stroke="#000000" d="M 2099.344149460291 1503.2700092902382 L 2110 1506 L 2104.3955707675104 1496.5347808806127" stroke-miterlimit="10"/></g><g transform="translate(-926,-286) scale(1,1)"><g><path fill="none" stroke="none"/><text fill="#000000" stroke="none" font-family="Arial" font-size="13px" font-style="normal" font-weight="normal" text-decoration="none" x="2050" y="1460">+Cria</text></g></g><g transform="translate(-926,-286) scale(1,1)"><path fill="none" stroke="#000000" d="M 1751 546 L 1751 775" stroke-miterlimit="10"/></g><g transform="translate(-926,-286) scale(1,1)"><path fill="#FFFFFF" stroke="none" d="M 1746.7904822439841 764.8373251423759 L 1751 775 L 1755.2095177560159 764.8373251423759 L 1751 753"/></g><g transform="translate(-926,-286) scale(1,1)"><path fill="none" stroke="#000000" d="M 1746.7904822439841 764.8373251423759 L 1751 775 L 1755.2095177560159 764.8373251423759 L 1751 753 L 1746.7904822439841 764.8373251423759" stroke-miterlimit="10"/></g><g transform="translate(-926,-286) scale(1,1)"><path fill="none" stroke="#000000" d="M 2079 791 L 1778 797" stroke-miterlimit="10"/></g><g transform="translate(-926,-286) scale(1,1)"><path fill="#000000" stroke="none" d="M 1788.0767624198293 792.5887803121682 L 1778 797 L 1788.2445503940367 801.0061436848977 L 1799.9956304894304 796.5615488938984"/></g><g transform="translate(-926,-286) scale(1,1)"><path fill="none" stroke="#000000" d="M 1788.0767624198293 792.5887803121682 L 1778 797 L 1788.2445503940367 801.0061436848977 L 1799.9956304894304 796.5615488938984 L 1788.0767624198293 792.5887803121682" stroke-miterlimit="10"/></g><g transform="translate(-926,-286) scale(1,1)"><path fill="none" stroke="#000000" d="M 1778 797 L 2079 791" stroke-miterlimit="10"/></g><g transform="translate(-926,-286) scale(1,1)"><path fill="none" stroke="#000000" d="M 2068.9232375801707 795.4112196878318 L 2079 791 L 2068.7554496059633 786.9938563151023" stroke-miterlimit="10"/></g><g transform="translate(-926,-286) scale(1,1)"><path fill="none" stroke="#000000" d="M 2083 767 L 1791 546" stroke-miterlimit="10"/></g><g transform="translate(-926,-286) scale(1,1)"><path fill="none" stroke="#000000" d="M 1801.6438210778838 548.7765217200654 L 1791 546 L 1796.563020725538 555.4896153982779" stroke-miterlimit="10"/></g><g transform="translate(-926,-286) scale(1,1)"><g><path fill="none" stroke="none"/><text fill="#000000" stroke="none" font-family="Arial" font-size="13px" font-style="normal" font-weight="normal" text-decoration="none" x="1905" y="674">+Coleta</text></g></g><g transform="translate(-926,-286) scale(1,1)"><rect fill="#C0C0C0" stroke="none" x="1733" y="1031" width="50.919921875" height="44" opacity="0.2"/></g><g transform="translate(-926,-286) scale(1,1)"><rect fill="#ffffff" stroke="none" x="1726" y="1024" width="50.919921875" height="44"/></g><g transform="translate(-926,-286) scale(1,1)"><path fill="none" stroke="#000000" d="M 1726 1024 L 1776.919921875 1024 L 1776.919921875 1068 L 1726 1068 L 1726 1024 Z Z" stroke-miterlimit="10"/></g><g transform="translate(-926,-286) scale(1,1)"><path fill="none" stroke="#000000" d="M 1726 1049 L 1776.919921875 1049" stroke-miterlimit="10"/></g><g transform="translate(-926,-286) scale(1,1)"><path fill="none" stroke="#000000" d="M 1726 1059 L 1776.919921875 1059" stroke-miterlimit="10"/></g><g transform="translate(-926,-286) scale(1,1)"><g><path fill="none" stroke="none"/><text fill="#000000" stroke="none" font-family="Arial" font-size="13px" font-style="normal" font-weight="bold" text-decoration="none" x="1738.094970703125" y="1043.5">Fera</text></g></g><g transform="translate(-926,-286) scale(1,1)"><path fill="none" stroke="#000000" d="M 1436 1238 L 1725 1062" stroke-miterlimit="10"/></g><g transform="translate(-926,-286) scale(1,1)"><path fill="#FFFFFF" stroke="none" d="M 1712.019466257148 1079.7624813511704 L 1725 1062 L 1703.2614055528963 1065.3813475811207"/></g><g transform="translate(-926,-286) scale(1,1)"><path fill="none" stroke="#000000" d="M 1712.019466257148 1079.7624813511704 L 1725 1062 L 1703.2614055528963 1065.3813475811207 L 1712.019466257148 1079.7624813511704" stroke-miterlimit="10"/></g><g transform="translate(-926,-286) scale(1,1)"><path fill="none" stroke="#000000" d="M 1751 1231 L 1751 1069" stroke-miterlimit="10"/></g><g transform="translate(-926,-286) scale(1,1)"><path fill="#FFFFFF" stroke="none" d="M 1759.419035512032 1089.3253497152482 L 1751 1069 L 1742.580964487968 1089.3253497152482"/></g><g transform="translate(-926,-286) scale(1,1)"><path fill="none" stroke="#000000" d="M 1759.419035512032 1089.3253497152482 L 1751 1069 L 1742.580964487968 1089.3253497152482 L 1759.419035512032 1089.3253497152482" stroke-miterlimit="10"/></g><g transform="translate(-926,-286) scale(1,1)"><path fill="none" stroke="#000000" d="M 2134 1241 L 1778 1060" stroke-miterlimit="10"/></g><g transform="translate(-926,-286) scale(1,1)"><path fill="#FFFFFF" stroke="none" d="M 1799.9336789568208 1061.7069643871848 L 1778 1060 L 1792.3024470333144 1076.716459220159"/></g><g transform="translate(-926,-286) scale(1,1)"><path fill="none" stroke="#000000" d="M 1799.9336789568208 1061.7069643871848 L 1778 1060 L 1792.3024470333144 1076.716459220159 L 1799.9336789568208 1061.7069643871848" stroke-miterlimit="10"/></g><g transform="translate(-926,-286) scale(1,1)"><path fill="none" stroke="#000000" d="M 1751 1023 L 1751 821" stroke-miterlimit="10"/></g><g transform="translate(-926,-286) scale(1,1)"><path fill="#FFFFFF" stroke="none" d="M 1755.2095177560159 831.1626748576241 L 1751 821 L 1746.7904822439841 831.1626748576241 L 1751 843"/></g><g transform="translate(-926,-286) scale(1,1)"><path fill="none" stroke="#000000" d="M 1755.2095177560159 831.1626748576241 L 1751 821 L 1746.7904822439841 831.1626748576241 L 1751 843 L 1755.2095177560159 831.1626748576241" stroke-miterlimit="10"/></g><g transform="translate(-926,-286) scale(1,1)"><rect fill="#C0C0C0" stroke="none" x="1087" y="1223" width="57.40087890625" height="44" opacity="0.2"/></g><g transform="translate(-926,-286) scale(1,1)"><rect fill="#ffffff" stroke="none" x="1080" y="1216" width="57.40087890625" height="44"/></g><g transform="translate(-926,-286) scale(1,1)"><path fill="none" stroke="#000000" d="M 1080 1216 L 1137.40087890625 1216 L 1137.40087890625 1260 L 1080 1260 L 1080 1216 Z Z" stroke-miterlimit="10"/></g><g transform="translate(-926,-286) scale(1,1)"><path fill="none" stroke="#000000" d="M 1080 1241 L 1137.40087890625 1241" stroke-miterlimit="10"/></g><g transform="translate(-926,-286) scale(1,1)"><path fill="none" stroke="#000000" d="M 1080 1251 L 1137.40087890625 1251" stroke-miterlimit="10"/></g><g transform="translate(-926,-286) scale(1,1)"><g><path fill="none" stroke="none"/><text fill="#000000" stroke="none" font-family="Arial" font-size="13px" font-style="normal" font-weight="bold" text-decoration="none" x="1085.937744140625" y="1235.5">Cenario</text></g></g><g transform="translate(-926,-286) scale(1,1)"><path fill="none" stroke="#000000" d="M 989 1225 L 1079 1235" stroke-miterlimit="10"/></g><g transform="translate(-926,-286) scale(1,1)"><path fill="#FFFFFF" stroke="none" d="M 1057.8692385767897 1241.1229830699883 L 1079 1235 L 1059.7286924561336 1224.3878981558921"/></g><g transform="translate(-926,-286) scale(1,1)"><path fill="none" stroke="#000000" d="M 1057.8692385767897 1241.1229830699883 L 1079 1235 L 1059.7286924561336 1224.3878981558921 L 1057.8692385767897 1241.1229830699883" stroke-miterlimit="10"/></g><g transform="translate(-926,-286) scale(1,1)"><path fill="none" stroke="#000000" d="M 1050 1327 L 1093 1261" stroke-miterlimit="10"/></g><g transform="translate(-926,-286) scale(1,1)"><path fill="#FFFFFF" stroke="none" d="M 1088.9587872367194 1282.6256467973076 L 1093 1261 L 1074.8507895529453 1273.434072548788"/></g><g transform="translate(-926,-286) scale(1,1)"><path fill="none" stroke="#000000" d="M 1088.9587872367194 1282.6256467973076 L 1093 1261 L 1074.8507895529453 1273.434072548788 L 1088.9587872367194 1282.6256467973076" stroke-miterlimit="10"/></g><g transform="translate(-926,-286) scale(1,1)"><path fill="none" stroke="#000000" d="M 1169 1327 L 1124 1261" stroke-miterlimit="10"/></g><g transform="translate(-926,-286) scale(1,1)"><path fill="#FFFFFF" stroke="none" d="M 1142.4060553084248 1273.0506069549715 L 1124 1261 L 1128.4939806282077 1282.536112418756"/></g><g transform="translate(-926,-286) scale(1,1)"><path fill="none" stroke="#000000" d="M 1142.4060553084248 1273.0506069549715 L 1124 1261 L 1128.4939806282077 1282.536112418756 L 1142.4060553084248 1273.0506069549715" stroke-miterlimit="10"/></g><g transform="translate(-926,-286) scale(1,1)"><path fill="none" stroke="#000000" d="M 1138 1217 L 1725 816" stroke-miterlimit="10"/></g><g transform="translate(-926,-286) scale(1,1)"><path fill="#000000" stroke="none" d="M 1718.982964122646 825.2084352226987 L 1725 816 L 1714.233966138393 818.2566601185675 L 1706.8341362175856 828.4097297729952"/></g><g transform="translate(-926,-286) scale(1,1)"><path fill="none" stroke="#000000" d="M 1718.982964122646 825.2084352226987 L 1725 816 L 1714.233966138393 818.2566601185675 L 1706.8341362175856 828.4097297729952 L 1718.982964122646 825.2084352226987" stroke-miterlimit="10"/></g><g transform="translate(-926,-286) scale(1,1)"><path fill="none" stroke="#000000" d="M 2080 813 L 1778 1027" stroke-miterlimit="10"/></g><g transform="translate(-926,-286) scale(1,1)"><path fill="none" stroke="#000000" d="M 1783.8581067991163 1017.6896517395885 L 1778 1027 L 1788.7257174327156 1024.5588966524247" stroke-miterlimit="10"/></g><g transform="translate(-926,-286) scale(1,1)"><g><path fill="none" stroke="none"/><text fill="#000000" stroke="none" font-family="Arial" font-size="13px" font-style="normal" font-weight="normal" text-decoration="none" x="1940" y="926">+Defende</text></g></g><g transform="translate(-926,-286) scale(1,1)"><path fill="none" stroke="#000000" d="M 1778 1027 L 2080 813" stroke-miterlimit="10"/></g><g transform="translate(-926,-286) scale(1,1)"><path fill="none" stroke="#000000" d="M 2074.1418932008837 822.3103482604115 L 2080 813 L 2069.2742825672844 815.4411033475752" stroke-miterlimit="10"/></g><g transform="translate(-926,-286) scale(1,1)"><g><path fill="none" stroke="none"/><text fill="#000000" stroke="none" font-family="Arial" font-size="13px" font-style="normal" font-weight="normal" text-decoration="none" x="1868" y="919">+Ataca</text></g></g><g transform="translate(-926,-286) scale(1,1)"><path fill="none" stroke="#000000" d="M 1001 801 L 1102 1215" stroke-miterlimit="10"/></g><g transform="translate(-926,-286) scale(1,1)"><path fill="none" stroke="#000000" d="M 1459 634 L 1632 760 L 1725 790" stroke-miterlimit="10"/></g><g transform="translate(-926,-286) scale(1,1)"><path fill="#FFFFFF" stroke="none" d="M 1703.071522210539 791.7725297845494 L 1725 790 L 1708.2408568234634 775.7475924844836"/></g><g transform="translate(-926,-286) scale(1,1)"><path fill="none" stroke="#000000" d="M 1703.071522210539 791.7725297845494 L 1725 790 L 1708.2408568234634 775.7475924844836 L 1703.071522210539 791.7725297845494" stroke-miterlimit="10"/></g><g transform="translate(-926,-286) scale(1,1)"><path fill="none" stroke="#000000" d="M 1049 767 L 1725 797" stroke-miterlimit="10" stroke-dasharray="3"/></g><g transform="translate(-926,-286) scale(1,1)"><path fill="none" stroke="#000000" d="M 1714.6606886919226 800.7548157977006 L 1725 797 L 1715.0339471485993 792.3440585739202" stroke-miterlimit="10"/></g><g transform="translate(-926,-286) scale(1,1)"><g><path fill="none" stroke="none"/><text fill="#000000" stroke="none" font-family="Arial" font-size="13px" font-style="normal" font-weight="normal" text-decoration="none" x="1372" y="774">+Cria</text></g></g><g transform="translate(-926,-286) scale(1,1)"><path fill="#ffffff" stroke="none" d="M 1088 376 L 1269 376 L 1279 386 L 1279 439 L 1088 439 L 1088 376"/></g><g transform="translate(-926,-286) scale(1,1)"><path fill="none" stroke="#000000" d="M 1088 376 L 1269 376 L 1279 386 L 1279 439 L 1088 439 L 1088 376 L 1088 376" stroke-miterlimit="10"/></g><g transform="translate(-926,-286) scale(1,1)"><path fill="none" stroke="#000000" d="M 1269 376 L 1269 386 L 1279 386 L 1269 376" stroke-miterlimit="10"/></g><g transform="translate(-926,-286) scale(1,1)"><g><path fill="none" stroke="none"/><text fill="#000000" stroke="none" font-family="Arial" font-size="13px" font-style="normal" font-weight="normal" text-decoration="none" x="1093" y="394">Suelen Maia - 31386271</text></g></g><g transform="translate(-926,-286) scale(1,1)"><g><path fill="none" stroke="none"/></g></g><g transform="translate(-926,-286) scale(1,1)"><g><path fill="none" stroke="none"/><text fill="#000000" stroke="none" font-family="Arial" font-size="13px" font-style="normal" font-weight="normal" text-decoration="none" x="1093" y="411">Gabriel Correia - 31371477</text></g></g><g transform="translate(-926,-286) scale(1,1)"><g><path fill="none" stroke="none"/></g></g><g transform="translate(-926,-286) scale(1,1)"><g><path fill="none" stroke="none"/><text fill="#000000" stroke="none" font-family="Arial" font-size="13px" font-style="normal" font-weight="normal" text-decoration="none" x="1093" y="428">Victor Kawai Sala - 31410669</text></g></g></g></svg>