<svg version="1.1" xmlns="http://www.w3.org/2000/svg" xmlns:xlink="http://www.w3.org/1999/xlink" width="773.6796875" height="1785"><defs/><g><g transform="translate(-10,-10) scale(1,1)"><rect fill="#C0C0C0" stroke="none" x="41.828125" y="27" width="82.67724609375" height="52" opacity="0.2"/></g><g transform="translate(-10,-10) scale(1,1)"><rect fill="#ffffff" stroke="none" x="34.828125" y="20" width="82.67724609375" height="52"/></g><g transform="translate(-10,-10) scale(1,1)"><path fill="none" stroke="#000000" d="M 34.828125 20 L 117.50537109375 20 L 117.50537109375 72 L 34.828125 72 L 34.828125 20 Z Z" stroke-miterlimit="10"/></g><g transform="translate(-10,-10) scale(1,1)"><g><path fill="none" stroke="none"/><text fill="#000000" stroke="none" font-family="Arial" font-size="13px" font-style="normal" font-weight="normal" text-decoration="none" x="41.832275390625" y="37.5">«Singleton»</text></g></g><g transform="translate(-10,-10) scale(1,1)"><g><path fill="none" stroke="none"/><text fill="#000000" stroke="none" font-family="Arial" font-size="13px" font-style="normal" font-weight="bold" text-decoration="none" x="60.634033203125" y="52.5">Heroi</text></g></g><g transform="translate(-10,-10) scale(1,1)"><g><path fill="none" stroke="none"/><text fill="#000000" stroke="none" font-family="Arial" font-size="13px" font-style="normal" font-weight="normal" text-decoration="none" x="39.328125" y="67.5">(from Model)</text></g></g><g transform="translate(-10,-10) scale(1,1)"><rect fill="#C0C0C0" stroke="none" x="261.290283203125" y="233.5" width="84.841796875" height="39" opacity="0.2"/></g><g transform="translate(-10,-10) scale(1,1)"><rect fill="#ffffff" stroke="none" x="254.290283203125" y="226.5" width="84.841796875" height="39"/></g><g transform="translate(-10,-10) scale(1,1)"><path fill="none" stroke="#000000" d="M 254.290283203125 226.5 L 339.132080078125 226.5 L 339.132080078125 265.5 L 254.290283203125 265.5 L 254.290283203125 226.5 Z Z" stroke-miterlimit="10"/></g><g transform="translate(-10,-10) scale(1,1)"><g><path fill="none" stroke="none"/><text fill="#000000" stroke="none" font-family="Arial" font-size="13px" font-style="normal" font-weight="bold" text-decoration="none" x="260.580322265625" y="246">PoteDeOuro</text></g></g><g transform="translate(-10,-10) scale(1,1)"><g><path fill="none" stroke="none"/><text fill="#000000" stroke="none" font-family="Arial" font-size="13px" font-style="normal" font-weight="normal" text-decoration="none" x="259.87255859375" y="261">(from Model)</text></g></g><g transform="translate(-10,-10) scale(1,1)"><rect fill="#C0C0C0" stroke="none" x="262.37255859375" y="283.5" width="82.67724609375" height="39" opacity="0.2"/></g><g transform="translate(-10,-10) scale(1,1)"><rect fill="#ffffff" stroke="none" x="255.37255859375" y="276.5" width="82.67724609375" height="39"/></g><g transform="translate(-10,-10) scale(1,1)"><path fill="none" stroke="#000000" d="M 255.37255859375 276.5 L 338.0498046875 276.5 L 338.0498046875 315.5 L 255.37255859375 315.5 L 255.37255859375 276.5 Z Z" stroke-miterlimit="10"/></g><g transform="translate(-10,-10) scale(1,1)"><g><path fill="none" stroke="none"/><text fill="#000000" stroke="none" font-family="Arial" font-size="13px" font-style="normal" font-weight="bold" text-decoration="none" x="268.892578125" y="296">Diamante</text></g></g><g transform="translate(-10,-10) scale(1,1)"><g><path fill="none" stroke="none"/><text fill="#000000" stroke="none" font-family="Arial" font-size="13px" font-style="normal" font-weight="normal" text-decoration="none" x="259.87255859375" y="311">(from Model)</text></g></g><g transform="translate(-10,-10) scale(1,1)"><rect fill="#C0C0C0" stroke="none" x="262.37255859375" y="333.5" width="82.67724609375" height="39" opacity="0.2"/></g><g transform="translate(-10,-10) scale(1,1)"><rect fill="#ffffff" stroke="none" x="255.37255859375" y="326.5" width="82.67724609375" height="39"/></g><g transform="translate(-10,-10) scale(1,1)"><path fill="none" stroke="#000000" d="M 255.37255859375 326.5 L 338.0498046875 326.5 L 338.0498046875 365.5 L 255.37255859375 365.5 L 255.37255859375 326.5 Z Z" stroke-miterlimit="10"/></g><g transform="translate(-10,-10) scale(1,1)"><g><path fill="none" stroke="none"/><text fill="#000000" stroke="none" font-family="Arial" font-size="13px" font-style="normal" font-weight="bold" text-decoration="none" x="282.981201171875" y="346">Jaca</text></g></g><g transform="translate(-10,-10) scale(1,1)"><g><path fill="none" stroke="none"/><text fill="#000000" stroke="none" font-family="Arial" font-size="13px" font-style="normal" font-weight="normal" text-decoration="none" x="259.87255859375" y="361">(from Model)</text></g></g><g transform="translate(-10,-10) scale(1,1)"><rect fill="#C0C0C0" stroke="none" x="262.37255859375" y="383.5" width="82.67724609375" height="39" opacity="0.2"/></g><g transform="translate(-10,-10) scale(1,1)"><rect fill="#ffffff" stroke="none" x="255.37255859375" y="376.5" width="82.67724609375" height="39"/></g><g transform="translate(-10,-10) scale(1,1)"><path fill="none" stroke="#000000" d="M 255.37255859375 376.5 L 338.0498046875 376.5 L 338.0498046875 415.5 L 255.37255859375 415.5 L 255.37255859375 376.5 Z Z" stroke-miterlimit="10"/></g><g transform="translate(-10,-10) scale(1,1)"><g><path fill="none" stroke="none"/><text fill="#000000" stroke="none" font-family="Arial" font-size="13px" font-style="normal" font-weight="bold" text-decoration="none" x="284.066650390625" y="396">Acai</text></g></g><g transform="translate(-10,-10) scale(1,1)"><g><path fill="none" stroke="none"/><text fill="#000000" stroke="none" font-family="Arial" font-size="13px" font-style="normal" font-weight="normal" text-decoration="none" x="259.87255859375" y="411">(from Model)</text></g></g><g transform="translate(-10,-10) scale(1,1)"><rect fill="#C0C0C0" stroke="none" x="474.947509765625" y="708.5" width="89.91357421875" height="39" opacity="0.2"/></g><g transform="translate(-10,-10) scale(1,1)"><rect fill="#ffffff" stroke="none" x="467.947509765625" y="701.5" width="89.91357421875" height="39"/></g><g transform="translate(-10,-10) scale(1,1)"><path fill="none" stroke="#000000" d="M 467.947509765625 701.5 L 557.861083984375 701.5 L 557.861083984375 740.5 L 467.947509765625 740.5 L 467.947509765625 701.5 Z Z" stroke-miterlimit="10"/></g><g transform="translate(-10,-10) scale(1,1)"><g><path fill="none" stroke="none"/><text fill="#000000" stroke="none" font-family="Arial" font-size="13px" font-style="normal" font-weight="bold" text-decoration="none" x="475.33251953125" y="721">AguiaMarcial</text></g></g><g transform="translate(-10,-10) scale(1,1)"><g><path fill="none" stroke="none"/><text fill="#000000" stroke="none" font-family="Arial" font-size="13px" font-style="normal" font-weight="normal" text-decoration="none" x="476.065673828125" y="736">(from Model)</text></g></g><g transform="translate(-10,-10) scale(1,1)"><rect fill="#C0C0C0" stroke="none" x="478.565673828125" y="808.5" width="82.67724609375" height="39" opacity="0.2"/></g><g transform="translate(-10,-10) scale(1,1)"><rect fill="#ffffff" stroke="none" x="471.565673828125" y="801.5" width="82.67724609375" height="39"/></g><g transform="translate(-10,-10) scale(1,1)"><path fill="none" stroke="#000000" d="M 471.565673828125 801.5 L 554.242919921875 801.5 L 554.242919921875 840.5 L 471.565673828125 840.5 L 471.565673828125 801.5 Z Z" stroke-miterlimit="10"/></g><g transform="translate(-10,-10) scale(1,1)"><g><path fill="none" stroke="none"/><text fill="#000000" stroke="none" font-family="Arial" font-size="13px" font-style="normal" font-weight="bold" text-decoration="none" x="498.0888671875" y="821">Piton</text></g></g><g transform="translate(-10,-10) scale(1,1)"><g><path fill="none" stroke="none"/><text fill="#000000" stroke="none" font-family="Arial" font-size="13px" font-style="normal" font-weight="normal" text-decoration="none" x="476.065673828125" y="836">(from Model)</text></g></g><g transform="translate(-10,-10) scale(1,1)"><rect fill="#C0C0C0" stroke="none" x="478.565673828125" y="608.5" width="82.67724609375" height="39" opacity="0.2"/></g><g transform="translate(-10,-10) scale(1,1)"><rect fill="#ffffff" stroke="none" x="471.565673828125" y="601.5" width="82.67724609375" height="39"/></g><g transform="translate(-10,-10) scale(1,1)"><path fill="none" stroke="#000000" d="M 471.565673828125 601.5 L 554.242919921875 601.5 L 554.242919921875 640.5 L 471.565673828125 640.5 L 471.565673828125 601.5 Z Z" stroke-miterlimit="10"/></g><g transform="translate(-10,-10) scale(1,1)"><g><path fill="none" stroke="none"/><text fill="#000000" stroke="none" font-family="Arial" font-size="13px" font-style="normal" font-weight="bold" text-decoration="none" x="498.09521484375" y="621">Tigre</text></g></g><g transform="translate(-10,-10) scale(1,1)"><g><path fill="none" stroke="none"/><text fill="#000000" stroke="none" font-family="Arial" font-size="13px" font-style="normal" font-weight="normal" text-decoration="none" x="476.065673828125" y="636">(from Model)</text></g></g><g transform="translate(-10,-10) scale(1,1)"><rect fill="#C0C0C0" stroke="none" x="478.565673828125" y="758.5" width="82.67724609375" height="39" opacity="0.2"/></g><g transform="translate(-10,-10) scale(1,1)"><rect fill="#ffffff" stroke="none" x="471.565673828125" y="751.5" width="82.67724609375" height="39"/></g><g transform="translate(-10,-10) scale(1,1)"><path fill="none" stroke="#000000" d="M 471.565673828125 751.5 L 554.242919921875 751.5 L 554.242919921875 790.5 L 471.565673828125 790.5 L 471.565673828125 751.5 Z Z" stroke-miterlimit="10"/></g><g transform="translate(-10,-10) scale(1,1)"><g><path fill="none" stroke="none"/><text fill="#000000" stroke="none" font-family="Arial" font-size="13px" font-style="normal" font-weight="bold" text-decoration="none" x="489.7861328125" y="771">Carcara</text></g></g><g transform="translate(-10,-10) scale(1,1)"><g><path fill="none" stroke="none"/><text fill="#000000" stroke="none" font-family="Arial" font-size="13px" font-style="normal" font-weight="normal" text-decoration="none" x="476.065673828125" y="786">(from Model)</text></g></g><g transform="translate(-10,-10) scale(1,1)"><rect fill="#C0C0C0" stroke="none" x="478.565673828125" y="858.5" width="82.67724609375" height="39" opacity="0.2"/></g><g transform="translate(-10,-10) scale(1,1)"><rect fill="#ffffff" stroke="none" x="471.565673828125" y="851.5" width="82.67724609375" height="39"/></g><g transform="translate(-10,-10) scale(1,1)"><path fill="none" stroke="#000000" d="M 471.565673828125 851.5 L 554.242919921875 851.5 L 554.242919921875 890.5 L 471.565673828125 890.5 L 471.565673828125 851.5 Z Z" stroke-miterlimit="10"/></g><g transform="translate(-10,-10) scale(1,1)"><g><path fill="none" stroke="none"/><text fill="#000000" stroke="none" font-family="Arial" font-size="13px" font-style="normal" font-weight="bold" text-decoration="none" x="494.480224609375" y="871">Sucuri</text></g></g><g transform="translate(-10,-10) scale(1,1)"><g><path fill="none" stroke="none"/><text fill="#000000" stroke="none" font-family="Arial" font-size="13px" font-style="normal" font-weight="normal" text-decoration="none" x="476.065673828125" y="886">(from Model)</text></g></g><g transform="translate(-10,-10) scale(1,1)"><rect fill="#C0C0C0" stroke="none" x="478.565673828125" y="658.5" width="82.67724609375" height="39" opacity="0.2"/></g><g transform="translate(-10,-10) scale(1,1)"><rect fill="#ffffff" stroke="none" x="471.565673828125" y="651.5" width="82.67724609375" height="39"/></g><g transform="translate(-10,-10) scale(1,1)"><path fill="none" stroke="#000000" d="M 471.565673828125 651.5 L 554.242919921875 651.5 L 554.242919921875 690.5 L 471.565673828125 690.5 L 471.565673828125 651.5 Z Z" stroke-miterlimit="10"/></g><g transform="translate(-10,-10) scale(1,1)"><g><path fill="none" stroke="none"/><text fill="#000000" stroke="none" font-family="Arial" font-size="13px" font-style="normal" font-weight="bold" text-decoration="none" x="485.802978515625" y="671">OPintada</text></g></g><g transform="translate(-10,-10) scale(1,1)"><g><path fill="none" stroke="none"/><text fill="#000000" stroke="none" font-family="Arial" font-size="13px" font-style="normal" font-weight="normal" text-decoration="none" x="476.065673828125" y="686">(from Model)</text></g></g><g transform="translate(-10,-10) scale(1,1)"><rect fill="#C0C0C0" stroke="none" x="262.37255859375" y="911.75" width="82.67724609375" height="39" opacity="0.2"/></g><g transform="translate(-10,-10) scale(1,1)"><rect fill="#ffffff" stroke="none" x="255.37255859375" y="904.75" width="82.67724609375" height="39"/></g><g transform="translate(-10,-10) scale(1,1)"><path fill="none" stroke="#000000" d="M 255.37255859375 904.75 L 338.0498046875 904.75 L 338.0498046875 943.75 L 255.37255859375 943.75 L 255.37255859375 904.75 Z Z" stroke-miterlimit="10"/></g><g transform="translate(-10,-10) scale(1,1)"><g><path fill="none" stroke="none"/><text fill="#000000" stroke="none" font-family="Arial" font-size="13px" font-style="normal" font-weight="bold" text-decoration="none" x="275.03076171875" y="924.25">Plantas</text></g></g><g transform="translate(-10,-10) scale(1,1)"><g><path fill="none" stroke="none"/><text fill="#000000" stroke="none" font-family="Arial" font-size="13px" font-style="normal" font-weight="normal" text-decoration="none" x="259.87255859375" y="939.25">(from Model)</text></g></g><g transform="translate(-10,-10) scale(1,1)"><rect fill="#C0C0C0" stroke="none" x="262.37255859375" y="961.75" width="82.67724609375" height="39" opacity="0.2"/></g><g transform="translate(-10,-10) scale(1,1)"><rect fill="#ffffff" stroke="none" x="255.37255859375" y="954.75" width="82.67724609375" height="39"/></g><g transform="translate(-10,-10) scale(1,1)"><path fill="none" stroke="#000000" d="M 255.37255859375 954.75 L 338.0498046875 954.75 L 338.0498046875 993.75 L 255.37255859375 993.75 L 255.37255859375 954.75 Z Z" stroke-miterlimit="10"/></g><g transform="translate(-10,-10) scale(1,1)"><g><path fill="none" stroke="none"/><text fill="#000000" stroke="none" font-family="Arial" font-size="13px" font-style="normal" font-weight="bold" text-decoration="none" x="276.47802734375" y="974.25">Relevo</text></g></g><g transform="translate(-10,-10) scale(1,1)"><g><path fill="none" stroke="none"/><text fill="#000000" stroke="none" font-family="Arial" font-size="13px" font-style="normal" font-weight="normal" text-decoration="none" x="259.87255859375" y="989.25">(from Model)</text></g></g><g transform="translate(-10,-10) scale(1,1)"><rect fill="#C0C0C0" stroke="none" x="262.37255859375" y="1011.75" width="82.67724609375" height="39" opacity="0.2"/></g><g transform="translate(-10,-10) scale(1,1)"><rect fill="#ffffff" stroke="none" x="255.37255859375" y="1004.75" width="82.67724609375" height="39"/></g><g transform="translate(-10,-10) scale(1,1)"><path fill="none" stroke="#000000" d="M 255.37255859375 1004.75 L 338.0498046875 1004.75 L 338.0498046875 1043.75 L 255.37255859375 1043.75 L 255.37255859375 1004.75 Z Z" stroke-miterlimit="10"/></g><g transform="translate(-10,-10) scale(1,1)"><g><path fill="none" stroke="none"/><text fill="#000000" stroke="none" font-family="Arial" font-size="13px" font-style="normal" font-weight="bold" text-decoration="none" x="281.53076171875" y="1024.25">Agua</text></g></g><g transform="translate(-10,-10) scale(1,1)"><g><path fill="none" stroke="none"/><text fill="#000000" stroke="none" font-family="Arial" font-size="13px" font-style="normal" font-weight="normal" text-decoration="none" x="259.87255859375" y="1039.25">(from Model)</text></g></g><g transform="translate(-10,-10) scale(1,1)"><rect fill="#C0C0C0" stroke="none" x="41.828125" y="133.5" width="82.67724609375" height="39" opacity="0.2"/></g><g transform="translate(-10,-10) scale(1,1)"><rect fill="#ffffff" stroke="none" x="34.828125" y="126.5" width="82.67724609375" height="39"/></g><g transform="translate(-10,-10) scale(1,1)"><path fill="none" stroke="#000000" d="M 34.828125 126.5 L 117.50537109375 126.5 L 117.50537109375 165.5 L 34.828125 165.5 L 34.828125 126.5 Z Z" stroke-miterlimit="10"/></g><g transform="translate(-10,-10) scale(1,1)"><g><path fill="none" stroke="none"/><text fill="#000000" stroke="none" font-family="Arial" font-size="13px" font-style="normal" font-weight="bold" text-decoration="none" x="60.627685546875" y="146">Level</text></g></g><g transform="translate(-10,-10) scale(1,1)"><g><path fill="none" stroke="none"/><text fill="#000000" stroke="none" font-family="Arial" font-size="13px" font-style="normal" font-weight="normal" text-decoration="none" x="39.328125" y="161">(from Model)</text></g></g><g transform="translate(-10,-10) scale(1,1)"><rect fill="#C0C0C0" stroke="none" x="41.828125" y="308.5" width="82.67724609375" height="39" opacity="0.2"/></g><g transform="translate(-10,-10) scale(1,1)"><rect fill="#ffffff" stroke="none" x="34.828125" y="301.5" width="82.67724609375" height="39"/></g><g transform="translate(-10,-10) scale(1,1)"><path fill="none" stroke="#000000" d="M 34.828125 301.5 L 117.50537109375 301.5 L 117.50537109375 340.5 L 34.828125 340.5 L 34.828125 301.5 Z Z" stroke-miterlimit="10"/></g><g transform="translate(-10,-10) scale(1,1)"><g><path fill="none" stroke="none"/><text fill="#000000" stroke="none" font-family="Arial" font-size="13px" font-style="italic" font-weight="bold" text-decoration="none" x="57.666748046875" y="321">Colect</text></g></g><g transform="translate(-10,-10) scale(1,1)"><g><path fill="none" stroke="none"/><text fill="#000000" stroke="none" font-family="Arial" font-size="13px" font-style="normal" font-weight="normal" text-decoration="none" x="39.328125" y="336">(from Model)</text></g></g><g transform="translate(-10,-10) scale(1,1)"><path fill="none" stroke="#000000" d="M 253 246 Q 183 247 106 301" stroke-miterlimit="10"/></g><g transform="translate(-10,-10) scale(1,1)"><path fill="#FFFFFF" stroke="none" d="M 117.80700984134712 282.43674278025725 L 106 301 L 127.4750217853431 296.2226116633626"/></g><g transform="translate(-10,-10) scale(1,1)"><path fill="none" stroke="#000000" d="M 117.80700984134712 282.43674278025725 L 106 301 L 127.4750217853431 296.2226116633626 L 117.80700984134712 282.43674278025725" stroke-miterlimit="10"/></g><g transform="translate(-10,-10) scale(1,1)"><path fill="none" stroke="#000000" d="M 254 296 Q 183 297 119 311" stroke-miterlimit="10"/></g><g transform="translate(-10,-10) scale(1,1)"><path fill="#FFFFFF" stroke="none" d="M 137.05671287893784 298.43198026705875 L 119 311 L 140.6549561018845 314.88109214338635"/></g><g transform="translate(-10,-10) scale(1,1)"><path fill="none" stroke="#000000" d="M 137.05671287893784 298.43198026705875 L 119 311 L 140.6549561018845 314.88109214338635 L 137.05671287893784 298.43198026705875" stroke-miterlimit="10"/></g><g transform="translate(-10,-10) scale(1,1)"><path fill="none" stroke="#000000" d="M 254 346 Q 183 347 119 331" stroke-miterlimit="10"/></g><g transform="translate(-10,-10) scale(1,1)"><path fill="#FFFFFF" stroke="none" d="M 140.76040162919296 327.7619572368148 L 119 331 L 136.67656954896546 344.09728555772483"/></g><g transform="translate(-10,-10) scale(1,1)"><path fill="none" stroke="#000000" d="M 140.76040162919296 327.7619572368148 L 119 331 L 136.67656954896546 344.09728555772483 L 140.76040162919296 327.7619572368148" stroke-miterlimit="10"/></g><g transform="translate(-10,-10) scale(1,1)"><path fill="none" stroke="#000000" d="M 254 396 Q 183 397 105 342" stroke-miterlimit="10"/></g><g transform="translate(-10,-10) scale(1,1)"><path fill="#FFFFFF" stroke="none" d="M 126.4627097997776 346.8323998231242 L 105 342 L 116.7594049577259 360.5934503263975"/></g><g transform="translate(-10,-10) scale(1,1)"><path fill="none" stroke="#000000" d="M 126.4627097997776 346.8323998231242 L 105 342 L 116.7594049577259 360.5934503263975 L 126.4627097997776 346.8323998231242" stroke-miterlimit="10"/></g><g transform="translate(-10,-10) scale(1,1)"><rect fill="#C0C0C0" stroke="none" x="27" y="433.5" width="112.33349609375" height="39" opacity="0.2"/></g><g transform="translate(-10,-10) scale(1,1)"><rect fill="#ffffff" stroke="none" x="20" y="426.5" width="112.33349609375" height="39"/></g><g transform="translate(-10,-10) scale(1,1)"><path fill="none" stroke="#000000" d="M 20 426.5 L 132.33349609375 426.5 L 132.33349609375 465.5 L 20 465.5 L 20 426.5 Z Z" stroke-miterlimit="10"/></g><g transform="translate(-10,-10) scale(1,1)"><g><path fill="none" stroke="none"/><text fill="#000000" stroke="none" font-family="Arial" font-size="13px" font-style="italic" font-weight="bold" text-decoration="none" x="27.666748046875" y="446">FabricaDeLevels</text></g></g><g transform="translate(-10,-10) scale(1,1)"><g><path fill="none" stroke="none"/><text fill="#000000" stroke="none" font-family="Arial" font-size="13px" font-style="normal" font-weight="normal" text-decoration="none" x="39.328125" y="461">(from Model)</text></g></g><g transform="translate(-10,-10) scale(1,1)"><rect fill="#C0C0C0" stroke="none" x="262.37255859375" y="133.5" width="82.67724609375" height="39" opacity="0.2"/></g><g transform="translate(-10,-10) scale(1,1)"><rect fill="#ffffff" stroke="none" x="255.37255859375" y="126.5" width="82.67724609375" height="39"/></g><g transform="translate(-10,-10) scale(1,1)"><path fill="none" stroke="#000000" d="M 255.37255859375 126.5 L 338.0498046875 126.5 L 338.0498046875 165.5 L 255.37255859375 165.5 L 255.37255859375 126.5 Z Z" stroke-miterlimit="10"/></g><g transform="translate(-10,-10) scale(1,1)"><g><path fill="none" stroke="none"/><text fill="#000000" stroke="none" font-family="Arial" font-size="13px" font-style="normal" font-weight="bold" text-decoration="none" x="278.287109375" y="146">LvlBra</text></g></g><g transform="translate(-10,-10) scale(1,1)"><g><path fill="none" stroke="none"/><text fill="#000000" stroke="none" font-family="Arial" font-size="13px" font-style="normal" font-weight="normal" text-decoration="none" x="259.87255859375" y="161">(from Model)</text></g></g><g transform="translate(-10,-10) scale(1,1)"><path fill="none" stroke="#000000" d="M 254 146 Q 183 147 119 146" stroke-miterlimit="10"/></g><g transform="translate(-10,-10) scale(1,1)"><path fill="#FFFFFF" stroke="none" d="M 139.4544004224508 137.89953684299195 L 119 146 L 139.1913376728921 154.73555281474776"/></g><g transform="translate(-10,-10) scale(1,1)"><path fill="none" stroke="#000000" d="M 139.4544004224508 137.89953684299195 L 119 146 L 139.1913376728921 154.73555281474776 L 139.4544004224508 137.89953684299195" stroke-miterlimit="10"/></g><g transform="translate(-10,-10) scale(1,1)"><rect fill="#C0C0C0" stroke="none" x="262.37255859375" y="183.5" width="82.67724609375" height="39" opacity="0.2"/></g><g transform="translate(-10,-10) scale(1,1)"><rect fill="#ffffff" stroke="none" x="255.37255859375" y="176.5" width="82.67724609375" height="39"/></g><g transform="translate(-10,-10) scale(1,1)"><path fill="none" stroke="#000000" d="M 255.37255859375 176.5 L 338.0498046875 176.5 L 338.0498046875 215.5 L 255.37255859375 215.5 L 255.37255859375 176.5 Z Z" stroke-miterlimit="10"/></g><g transform="translate(-10,-10) scale(1,1)"><g><path fill="none" stroke="none"/><text fill="#000000" stroke="none" font-family="Arial" font-size="13px" font-style="normal" font-weight="bold" text-decoration="none" x="280.09619140625" y="196">LvlAfr</text></g></g><g transform="translate(-10,-10) scale(1,1)"><g><path fill="none" stroke="none"/><text fill="#000000" stroke="none" font-family="Arial" font-size="13px" font-style="normal" font-weight="normal" text-decoration="none" x="259.87255859375" y="211">(from Model)</text></g></g><g transform="translate(-10,-10) scale(1,1)"><path fill="none" stroke="#000000" d="M 254 196 Q 183 197 119 166" stroke-miterlimit="10"/></g><g transform="translate(-10,-10) scale(1,1)"><path fill="#FFFFFF" stroke="none" d="M 140.96253227653852 167.28342354739334 L 119 166 L 133.6223380112725 182.43737299826512"/></g><g transform="translate(-10,-10) scale(1,1)"><path fill="none" stroke="#000000" d="M 140.96253227653852 167.28342354739334 L 119 166 L 133.6223380112725 182.43737299826512 L 140.96253227653852 167.28342354739334" stroke-miterlimit="10"/></g><g transform="translate(-10,-10) scale(1,1)"><rect fill="#C0C0C0" stroke="none" x="255.85986328125" y="433.5" width="95.70263671875" height="39" opacity="0.2"/></g><g transform="translate(-10,-10) scale(1,1)"><rect fill="#ffffff" stroke="none" x="248.85986328125" y="426.5" width="95.70263671875" height="39"/></g><g transform="translate(-10,-10) scale(1,1)"><path fill="none" stroke="#000000" d="M 248.85986328125 426.5 L 344.5625 426.5 L 344.5625 465.5 L 248.85986328125 465.5 L 248.85986328125 426.5 Z Z" stroke-miterlimit="10"/></g><g transform="translate(-10,-10) scale(1,1)"><g><path fill="none" stroke="none"/><text fill="#000000" stroke="none" font-family="Arial" font-size="13px" font-style="normal" font-weight="bold" text-decoration="none" x="256.613037109375" y="446">BraLvlFabrica</text></g></g><g transform="translate(-10,-10) scale(1,1)"><g><path fill="none" stroke="none"/><text fill="#000000" stroke="none" font-family="Arial" font-size="13px" font-style="normal" font-weight="normal" text-decoration="none" x="259.87255859375" y="461">(from Model)</text></g></g><g transform="translate(-10,-10) scale(1,1)"><path fill="none" stroke="#000000" d="M 248 446 Q 183 447 133 447" stroke-miterlimit="10"/></g><g transform="translate(-10,-10) scale(1,1)"><path fill="#FFFFFF" stroke="none" d="M 153.3253497152483 438.580964487968 L 133 447 L 153.3253497152483 455.419035512032"/></g><g transform="translate(-10,-10) scale(1,1)"><path fill="none" stroke="#000000" d="M 153.3253497152483 438.580964487968 L 133 447 L 153.3253497152483 455.419035512032 L 153.3253497152483 438.580964487968" stroke-miterlimit="10"/></g><g transform="translate(-10,-10) scale(1,1)"><rect fill="#C0C0C0" stroke="none" x="257.310302734375" y="483.5" width="92.8017578125" height="39" opacity="0.2"/></g><g transform="translate(-10,-10) scale(1,1)"><rect fill="#ffffff" stroke="none" x="250.310302734375" y="476.5" width="92.8017578125" height="39"/></g><g transform="translate(-10,-10) scale(1,1)"><path fill="none" stroke="#000000" d="M 250.310302734375 476.5 L 343.112060546875 476.5 L 343.112060546875 515.5 L 250.310302734375 515.5 L 250.310302734375 476.5 Z Z" stroke-miterlimit="10"/></g><g transform="translate(-10,-10) scale(1,1)"><g><path fill="none" stroke="none"/><text fill="#000000" stroke="none" font-family="Arial" font-size="13px" font-style="normal" font-weight="bold" text-decoration="none" x="258.422119140625" y="496">AfrLvlFabrica</text></g></g><g transform="translate(-10,-10) scale(1,1)"><g><path fill="none" stroke="none"/><text fill="#000000" stroke="none" font-family="Arial" font-size="13px" font-style="normal" font-weight="normal" text-decoration="none" x="259.87255859375" y="511">(from Model)</text></g></g><g transform="translate(-10,-10) scale(1,1)"><path fill="none" stroke="#000000" d="M 249 496 Q 183 497 119 467" stroke-miterlimit="10"/></g><g transform="translate(-10,-10) scale(1,1)"><path fill="#FFFFFF" stroke="none" d="M 140.97709340265644 468.00367602886337 L 119 467 L 133.8304456496648 483.2498579019122"/></g><g transform="translate(-10,-10) scale(1,1)"><path fill="none" stroke="#000000" d="M 140.97709340265644 468.00367602886337 L 119 467 L 133.8304456496648 483.2498579019122 L 140.97709340265644 468.00367602886337" stroke-miterlimit="10"/></g><g transform="translate(-10,-10) scale(1,1)"><rect fill="#C0C0C0" stroke="none" x="41.828125" y="533.5" width="82.67724609375" height="39" opacity="0.2"/></g><g transform="translate(-10,-10) scale(1,1)"><rect fill="#ffffff" stroke="none" x="34.828125" y="526.5" width="82.67724609375" height="39"/></g><g transform="translate(-10,-10) scale(1,1)"><path fill="none" stroke="#000000" d="M 34.828125 526.5 L 117.50537109375 526.5 L 117.50537109375 565.5 L 34.828125 565.5 L 34.828125 526.5 Z Z" stroke-miterlimit="10"/></g><g transform="translate(-10,-10) scale(1,1)"><g><path fill="none" stroke="none"/><text fill="#000000" stroke="none" font-family="Arial" font-size="13px" font-style="italic" font-weight="bold" text-decoration="none" x="45.166748046875" y="546">AnimalFac</text></g></g><g transform="translate(-10,-10) scale(1,1)"><g><path fill="none" stroke="none"/><text fill="#000000" stroke="none" font-family="Arial" font-size="13px" font-style="normal" font-weight="normal" text-decoration="none" x="39.328125" y="561">(from Model)</text></g></g><g transform="translate(-10,-10) scale(1,1)"><rect fill="#C0C0C0" stroke="none" x="255.501220703125" y="533.5" width="96.419921875" height="39" opacity="0.2"/></g><g transform="translate(-10,-10) scale(1,1)"><rect fill="#ffffff" stroke="none" x="248.501220703125" y="526.5" width="96.419921875" height="39"/></g><g transform="translate(-10,-10) scale(1,1)"><path fill="none" stroke="#000000" d="M 248.501220703125 526.5 L 344.921142578125 526.5 L 344.921142578125 565.5 L 248.501220703125 565.5 L 248.501220703125 526.5 Z Z" stroke-miterlimit="10"/></g><g transform="translate(-10,-10) scale(1,1)"><g><path fill="none" stroke="none"/><text fill="#000000" stroke="none" font-family="Arial" font-size="13px" font-style="normal" font-weight="bold" text-decoration="none" x="255.892578125" y="546">BraAnimalFac</text></g></g><g transform="translate(-10,-10) scale(1,1)"><g><path fill="none" stroke="none"/><text fill="#000000" stroke="none" font-family="Arial" font-size="13px" font-style="normal" font-weight="normal" text-decoration="none" x="259.87255859375" y="561">(from Model)</text></g></g><g transform="translate(-10,-10) scale(1,1)"><path fill="none" stroke="#000000" d="M 248 546 Q 183 547 119 546" stroke-miterlimit="10"/></g><g transform="translate(-10,-10) scale(1,1)"><path fill="#FFFFFF" stroke="none" d="M 139.4544004224508 537.899536842992 L 119 546 L 139.1913376728921 554.7355528147477"/></g><g transform="translate(-10,-10) scale(1,1)"><path fill="none" stroke="#000000" d="M 139.4544004224508 537.899536842992 L 119 546 L 139.1913376728921 554.7355528147477 L 139.4544004224508 537.899536842992" stroke-miterlimit="10"/></g><g transform="translate(-10,-10) scale(1,1)"><rect fill="#C0C0C0" stroke="none" x="256.95166015625" y="583.5" width="93.51904296875" height="39" opacity="0.2"/></g><g transform="translate(-10,-10) scale(1,1)"><rect fill="#ffffff" stroke="none" x="249.95166015625" y="576.5" width="93.51904296875" height="39"/></g><g transform="translate(-10,-10) scale(1,1)"><path fill="none" stroke="#000000" d="M 249.95166015625 576.5 L 343.470703125 576.5 L 343.470703125 615.5 L 249.95166015625 615.5 L 249.95166015625 576.5 Z Z" stroke-miterlimit="10"/></g><g transform="translate(-10,-10) scale(1,1)"><g><path fill="none" stroke="none"/><text fill="#000000" stroke="none" font-family="Arial" font-size="13px" font-style="normal" font-weight="bold" text-decoration="none" x="257.70166015625" y="596">AfrAnimalFac</text></g></g><g transform="translate(-10,-10) scale(1,1)"><g><path fill="none" stroke="none"/><text fill="#000000" stroke="none" font-family="Arial" font-size="13px" font-style="normal" font-weight="normal" text-decoration="none" x="259.87255859375" y="611">(from Model)</text></g></g><g transform="translate(-10,-10) scale(1,1)"><path fill="none" stroke="#000000" d="M 249 596 Q 183 597 119 566" stroke-miterlimit="10"/></g><g transform="translate(-10,-10) scale(1,1)"><path fill="#FFFFFF" stroke="none" d="M 140.96253227653852 567.2834235473933 L 119 566 L 133.6223380112725 582.4373729982651"/></g><g transform="translate(-10,-10) scale(1,1)"><path fill="none" stroke="#000000" d="M 140.96253227653852 567.2834235473933 L 119 566 L 133.6223380112725 582.4373729982651 L 140.96253227653852 567.2834235473933" stroke-miterlimit="10"/></g><g transform="translate(-10,-10) scale(1,1)"><rect fill="#C0C0C0" stroke="none" x="262.37255859375" y="633.5" width="82.67724609375" height="39" opacity="0.2"/></g><g transform="translate(-10,-10) scale(1,1)"><rect fill="#ffffff" stroke="none" x="255.37255859375" y="626.5" width="82.67724609375" height="39"/></g><g transform="translate(-10,-10) scale(1,1)"><path fill="none" stroke="#000000" d="M 255.37255859375 626.5 L 338.0498046875 626.5 L 338.0498046875 665.5 L 255.37255859375 665.5 L 255.37255859375 626.5 Z Z" stroke-miterlimit="10"/></g><g transform="translate(-10,-10) scale(1,1)"><g><path fill="none" stroke="none"/><text fill="#000000" stroke="none" font-family="Arial" font-size="13px" font-style="normal" font-weight="bold" text-decoration="none" x="279.007568359375" y="646">Felino</text></g></g><g transform="translate(-10,-10) scale(1,1)"><g><path fill="none" stroke="none"/><text fill="#000000" stroke="none" font-family="Arial" font-size="13px" font-style="normal" font-weight="normal" text-decoration="none" x="259.87255859375" y="661">(from Model)</text></g></g><g transform="translate(-10,-10) scale(1,1)"><path fill="none" stroke="#000000" d="M 471 621 Q 411 622 339 637" stroke-miterlimit="10"/></g><g transform="translate(-10,-10) scale(1,1)"><path fill="#FFFFFF" stroke="none" d="M 357.18102128734847 624.612487539906 L 339 637 L 360.61521750374635 641.0966293786158"/></g><g transform="translate(-10,-10) scale(1,1)"><path fill="none" stroke="#000000" d="M 357.18102128734847 624.612487539906 L 339 637 L 360.61521750374635 641.0966293786158 L 357.18102128734847 624.612487539906" stroke-miterlimit="10"/></g><g transform="translate(-10,-10) scale(1,1)"><path fill="none" stroke="#000000" d="M 471 671 Q 411 672 339 656" stroke-miterlimit="10"/></g><g transform="translate(-10,-10) scale(1,1)"><path fill="#FFFFFF" stroke="none" d="M 360.6676886137556 652.1906338929783 L 339 656 L 357.01499815772235 668.6277409451279"/></g><g transform="translate(-10,-10) scale(1,1)"><path fill="none" stroke="#000000" d="M 360.6676886137556 652.1906338929783 L 339 656 L 357.01499815772235 668.6277409451279 L 360.6676886137556 652.1906338929783" stroke-miterlimit="10"/></g><g transform="translate(-10,-10) scale(1,1)"><rect fill="#C0C0C0" stroke="none" x="262.37255859375" y="733.5" width="82.67724609375" height="39" opacity="0.2"/></g><g transform="translate(-10,-10) scale(1,1)"><rect fill="#ffffff" stroke="none" x="255.37255859375" y="726.5" width="82.67724609375" height="39"/></g><g transform="translate(-10,-10) scale(1,1)"><path fill="none" stroke="#000000" d="M 255.37255859375 726.5 L 338.0498046875 726.5 L 338.0498046875 765.5 L 255.37255859375 765.5 L 255.37255859375 726.5 Z Z" stroke-miterlimit="10"/></g><g transform="translate(-10,-10) scale(1,1)"><g><path fill="none" stroke="none"/><text fill="#000000" stroke="none" font-family="Arial" font-size="13px" font-style="normal" font-weight="bold" text-decoration="none" x="272.8662109375" y="746">Passaro</text></g></g><g transform="translate(-10,-10) scale(1,1)"><g><path fill="none" stroke="none"/><text fill="#000000" stroke="none" font-family="Arial" font-size="13px" font-style="normal" font-weight="normal" text-decoration="none" x="259.87255859375" y="761">(from Model)</text></g></g><g transform="translate(-10,-10) scale(1,1)"><path fill="none" stroke="#000000" d="M 467 721 Q 411 722 339 737" stroke-miterlimit="10"/></g><g transform="translate(-10,-10) scale(1,1)"><path fill="#FFFFFF" stroke="none" d="M 357.18102128734847 724.612487539906 L 339 737 L 360.61521750374635 741.0966293786158"/></g><g transform="translate(-10,-10) scale(1,1)"><path fill="none" stroke="#000000" d="M 357.18102128734847 724.612487539906 L 339 737 L 360.61521750374635 741.0966293786158 L 357.18102128734847 724.612487539906" stroke-miterlimit="10"/></g><g transform="translate(-10,-10) scale(1,1)"><path fill="none" stroke="#000000" d="M 471 771 Q 411 772 339 756" stroke-miterlimit="10"/></g><g transform="translate(-10,-10) scale(1,1)"><path fill="#FFFFFF" stroke="none" d="M 360.6676886137556 752.1906338929783 L 339 756 L 357.01499815772235 768.6277409451279"/></g><g transform="translate(-10,-10) scale(1,1)"><path fill="none" stroke="#000000" d="M 360.6676886137556 752.1906338929783 L 339 756 L 357.01499815772235 768.6277409451279 L 360.6676886137556 752.1906338929783" stroke-miterlimit="10"/></g><g transform="translate(-10,-10) scale(1,1)"><rect fill="#C0C0C0" stroke="none" x="262.37255859375" y="833.5" width="82.67724609375" height="39" opacity="0.2"/></g><g transform="translate(-10,-10) scale(1,1)"><rect fill="#ffffff" stroke="none" x="255.37255859375" y="826.5" width="82.67724609375" height="39"/></g><g transform="translate(-10,-10) scale(1,1)"><path fill="none" stroke="#000000" d="M 255.37255859375 826.5 L 338.0498046875 826.5 L 338.0498046875 865.5 L 255.37255859375 865.5 L 255.37255859375 826.5 Z Z" stroke-miterlimit="10"/></g><g transform="translate(-10,-10) scale(1,1)"><g><path fill="none" stroke="none"/><text fill="#000000" stroke="none" font-family="Arial" font-size="13px" font-style="normal" font-weight="bold" text-decoration="none" x="279.007568359375" y="846">Cobra</text></g></g><g transform="translate(-10,-10) scale(1,1)"><g><path fill="none" stroke="none"/><text fill="#000000" stroke="none" font-family="Arial" font-size="13px" font-style="normal" font-weight="normal" text-decoration="none" x="259.87255859375" y="861">(from Model)</text></g></g><g transform="translate(-10,-10) scale(1,1)"><path fill="none" stroke="#000000" d="M 471 821 Q 411 822 339 837" stroke-miterlimit="10"/></g><g transform="translate(-10,-10) scale(1,1)"><path fill="#FFFFFF" stroke="none" d="M 357.18102128734847 824.612487539906 L 339 837 L 360.61521750374635 841.0966293786158"/></g><g transform="translate(-10,-10) scale(1,1)"><path fill="none" stroke="#000000" d="M 357.18102128734847 824.612487539906 L 339 837 L 360.61521750374635 841.0966293786158 L 357.18102128734847 824.612487539906" stroke-miterlimit="10"/></g><g transform="translate(-10,-10) scale(1,1)"><path fill="none" stroke="#000000" d="M 471 871 Q 411 872 339 856" stroke-miterlimit="10"/></g><g transform="translate(-10,-10) scale(1,1)"><path fill="#FFFFFF" stroke="none" d="M 360.6676886137556 852.1906338929783 L 339 856 L 357.01499815772235 868.6277409451279"/></g><g transform="translate(-10,-10) scale(1,1)"><path fill="none" stroke="#000000" d="M 360.6676886137556 852.1906338929783 L 339 856 L 357.01499815772235 868.6277409451279 L 360.6676886137556 852.1906338929783" stroke-miterlimit="10"/></g><g transform="translate(-10,-10) scale(1,1)"><rect fill="#C0C0C0" stroke="none" x="41.828125" y="727" width="82.67724609375" height="52" opacity="0.2"/></g><g transform="translate(-10,-10) scale(1,1)"><rect fill="#ffffff" stroke="none" x="34.828125" y="720" width="82.67724609375" height="52"/></g><g transform="translate(-10,-10) scale(1,1)"><path fill="none" stroke="#000000" d="M 34.828125 720 L 117.50537109375 720 L 117.50537109375 772 L 34.828125 772 L 34.828125 720 Z Z" stroke-miterlimit="10"/></g><g transform="translate(-10,-10) scale(1,1)"><g><path fill="none" stroke="none"/><text fill="#000000" stroke="none" font-family="Arial" font-size="13px" font-style="normal" font-weight="normal" text-decoration="none" x="45.8154296875" y="737.5">«abstract»</text></g></g><g transform="translate(-10,-10) scale(1,1)"><g><path fill="none" stroke="none"/><text fill="#000000" stroke="none" font-family="Arial" font-size="13px" font-style="italic" font-weight="bold" text-decoration="none" x="63.166748046875" y="752.5">Fera</text></g></g><g transform="translate(-10,-10) scale(1,1)"><g><path fill="none" stroke="none"/><text fill="#000000" stroke="none" font-family="Arial" font-size="13px" font-style="normal" font-weight="normal" text-decoration="none" x="39.328125" y="767.5">(from Model)</text></g></g><g transform="translate(-10,-10) scale(1,1)"><path fill="none" stroke="#000000" d="M 254 646 Q 183 647 105 719" stroke-miterlimit="10"/></g><g transform="translate(-10,-10) scale(1,1)"><path fill="#FFFFFF" stroke="none" d="M 114.22467271200841 699.0273834123736 L 105 719 L 125.64560125603717 711.4000560017381"/></g><g transform="translate(-10,-10) scale(1,1)"><path fill="none" stroke="#000000" d="M 114.22467271200841 699.0273834123736 L 105 719 L 125.64560125603717 711.4000560017381 L 114.22467271200841 699.0273834123736" stroke-miterlimit="10"/></g><g transform="translate(-10,-10) scale(1,1)"><path fill="none" stroke="#000000" d="M 254 746 Q 183 747 119 746" stroke-miterlimit="10"/></g><g transform="translate(-10,-10) scale(1,1)"><path fill="#FFFFFF" stroke="none" d="M 139.4544004224508 737.899536842992 L 119 746 L 139.1913376728921 754.7355528147477"/></g><g transform="translate(-10,-10) scale(1,1)"><path fill="none" stroke="#000000" d="M 139.4544004224508 737.899536842992 L 119 746 L 139.1913376728921 754.7355528147477 L 139.4544004224508 737.899536842992" stroke-miterlimit="10"/></g><g transform="translate(-10,-10) scale(1,1)"><path fill="none" stroke="#000000" d="M 254 846 Q 183 847 105 773" stroke-miterlimit="10"/></g><g transform="translate(-10,-10) scale(1,1)"><path fill="#FFFFFF" stroke="none" d="M 125.53979239576981 780.8814293334824 L 105 773 L 113.95081436006475 793.0968386143606"/></g><g transform="translate(-10,-10) scale(1,1)"><path fill="none" stroke="#000000" d="M 125.53979239576981 780.8814293334824 L 105 773 L 113.95081436006475 793.0968386143606 L 125.53979239576981 780.8814293334824" stroke-miterlimit="10"/></g><g transform="translate(-10,-10) scale(1,1)"><rect fill="#C0C0C0" stroke="none" x="41.828125" y="961.75" width="82.67724609375" height="39" opacity="0.2"/></g><g transform="translate(-10,-10) scale(1,1)"><rect fill="#ffffff" stroke="none" x="34.828125" y="954.75" width="82.67724609375" height="39"/></g><g transform="translate(-10,-10) scale(1,1)"><path fill="none" stroke="#000000" d="M 34.828125 954.75 L 117.50537109375 954.75 L 117.50537109375 993.75 L 34.828125 993.75 L 34.828125 954.75 Z Z" stroke-miterlimit="10"/></g><g transform="translate(-10,-10) scale(1,1)"><g><path fill="none" stroke="none"/><text fill="#000000" stroke="none" font-family="Arial" font-size="13px" font-style="normal" font-weight="bold" text-decoration="none" x="53.404052734375" y="974.25">Cenario</text></g></g><g transform="translate(-10,-10) scale(1,1)"><g><path fill="none" stroke="none"/><text fill="#000000" stroke="none" font-family="Arial" font-size="13px" font-style="normal" font-weight="normal" text-decoration="none" x="39.328125" y="989.25">(from Model)</text></g></g><g transform="translate(-10,-10) scale(1,1)"><path fill="none" stroke="#000000" d="M 254 924 Q 183 925 119 955" stroke-miterlimit="10"/></g><g transform="translate(-10,-10) scale(1,1)"><path fill="#FFFFFF" stroke="none" d="M 133.8304456496648 938.7501420980878 L 119 955 L 140.97709340265644 953.9963239711366"/></g><g transform="translate(-10,-10) scale(1,1)"><path fill="none" stroke="#000000" d="M 133.8304456496648 938.7501420980878 L 119 955 L 140.97709340265644 953.9963239711366 L 133.8304456496648 938.7501420980878" stroke-miterlimit="10"/></g><g transform="translate(-10,-10) scale(1,1)"><path fill="none" stroke="#000000" d="M 254 974 Q 183 975 119 974" stroke-miterlimit="10"/></g><g transform="translate(-10,-10) scale(1,1)"><path fill="#FFFFFF" stroke="none" d="M 139.4544004224508 965.899536842992 L 119 974 L 139.1913376728921 982.7355528147477"/></g><g transform="translate(-10,-10) scale(1,1)"><path fill="none" stroke="#000000" d="M 139.4544004224508 965.899536842992 L 119 974 L 139.1913376728921 982.7355528147477 L 139.4544004224508 965.899536842992" stroke-miterlimit="10"/></g><g transform="translate(-10,-10) scale(1,1)"><path fill="none" stroke="#000000" d="M 254 1024 Q 183 1025 119 994" stroke-miterlimit="10"/></g><g transform="translate(-10,-10) scale(1,1)"><path fill="#FFFFFF" stroke="none" d="M 140.96253227653852 995.2834235473933 L 119 994 L 133.6223380112725 1010.4373729982651"/></g><g transform="translate(-10,-10) scale(1,1)"><path fill="none" stroke="#000000" d="M 140.96253227653852 995.2834235473933 L 119 994 L 133.6223380112725 1010.4373729982651 L 140.96253227653852 995.2834235473933" stroke-miterlimit="10"/></g><g transform="translate(-10,-10) scale(1,1)"><rect fill="#C0C0C0" stroke="none" x="262.37255859375" y="33.5" width="82.67724609375" height="39" opacity="0.2"/></g><g transform="translate(-10,-10) scale(1,1)"><rect fill="#ffffff" stroke="none" x="255.37255859375" y="26.5" width="82.67724609375" height="39"/></g><g transform="translate(-10,-10) scale(1,1)"><path fill="none" stroke="#000000" d="M 255.37255859375 26.5 L 338.0498046875 26.5 L 338.0498046875 65.5 L 255.37255859375 65.5 L 255.37255859375 26.5 Z Z" stroke-miterlimit="10"/></g><g transform="translate(-10,-10) scale(1,1)"><g><path fill="none" stroke="none"/><text fill="#000000" stroke="none" font-family="Arial" font-size="13px" font-style="normal" font-weight="bold" text-decoration="none" x="269.24169921875" y="46">Vajandao</text></g></g><g transform="translate(-10,-10) scale(1,1)"><g><path fill="none" stroke="none"/><text fill="#000000" stroke="none" font-family="Arial" font-size="13px" font-style="normal" font-weight="normal" text-decoration="none" x="259.87255859375" y="61">(from Model)</text></g></g><g transform="translate(-10,-10) scale(1,1)"><path fill="none" stroke="#000000" d="M 254 46 Q 183 47 119 46" stroke-miterlimit="10"/></g><g transform="translate(-10,-10) scale(1,1)"><path fill="#FFFFFF" stroke="none" d="M 139.4544004224508 37.899536842991964 L 119 46 L 139.1913376728921 54.73555281474777"/></g><g transform="translate(-10,-10) scale(1,1)"><path fill="none" stroke="#000000" d="M 139.4544004224508 37.899536842991964 L 119 46 L 139.1913376728921 54.73555281474777 L 139.4544004224508 37.899536842991964" stroke-miterlimit="10"/></g><g transform="translate(-10,-10) scale(1,1)"><rect fill="#C0C0C0" stroke="none" x="262.37255859375" y="83.5" width="82.67724609375" height="39" opacity="0.2"/></g><g transform="translate(-10,-10) scale(1,1)"><rect fill="#ffffff" stroke="none" x="255.37255859375" y="76.5" width="82.67724609375" height="39"/></g><g transform="translate(-10,-10) scale(1,1)"><path fill="none" stroke="#000000" d="M 255.37255859375 76.5 L 338.0498046875 76.5 L 338.0498046875 115.5 L 255.37255859375 115.5 L 255.37255859375 76.5 Z Z" stroke-miterlimit="10"/></g><g transform="translate(-10,-10) scale(1,1)"><g><path fill="none" stroke="none"/><text fill="#000000" stroke="none" font-family="Arial" font-size="13px" font-style="normal" font-weight="bold" text-decoration="none" x="265.626708984375" y="96">Vajandona</text></g></g><g transform="translate(-10,-10) scale(1,1)"><g><path fill="none" stroke="none"/><text fill="#000000" stroke="none" font-family="Arial" font-size="13px" font-style="normal" font-weight="normal" text-decoration="none" x="259.87255859375" y="111">(from Model)</text></g></g><g transform="translate(-10,-10) scale(1,1)"><path fill="none" stroke="#000000" d="M 254 96 Q 183 97 119 66" stroke-miterlimit="10"/></g><g transform="translate(-10,-10) scale(1,1)"><path fill="#FFFFFF" stroke="none" d="M 140.96253227653852 67.28342354739333 L 119 66 L 133.6223380112725 82.43737299826513"/></g><g transform="translate(-10,-10) scale(1,1)"><path fill="none" stroke="#000000" d="M 140.96253227653852 67.28342354739333 L 119 66 L 133.6223380112725 82.43737299826513 L 140.96253227653852 67.28342354739333" stroke-miterlimit="10"/></g><g transform="translate(-10,-10) scale(1,1)"><rect fill="#C0C0C0" stroke="none" x="262.37255859375" y="1086.75" width="82.67724609375" height="39" opacity="0.2"/></g><g transform="translate(-10,-10) scale(1,1)"><rect fill="#ffffff" stroke="none" x="255.37255859375" y="1079.75" width="82.67724609375" height="39"/></g><g transform="translate(-10,-10) scale(1,1)"><path fill="none" stroke="#000000" d="M 255.37255859375 1079.75 L 338.0498046875 1079.75 L 338.0498046875 1118.75 L 255.37255859375 1118.75 L 255.37255859375 1079.75 Z Z" stroke-miterlimit="10"/></g><g transform="translate(-10,-10) scale(1,1)"><g><path fill="none" stroke="none"/><text fill="#000000" stroke="none" font-family="Arial" font-size="13px" font-style="italic" font-weight="bold" text-decoration="none" x="267.711181640625" y="1099.25">Acessorio</text></g></g><g transform="translate(-10,-10) scale(1,1)"><g><path fill="none" stroke="none"/><text fill="#000000" stroke="none" font-family="Arial" font-size="13px" font-style="normal" font-weight="normal" text-decoration="none" x="259.87255859375" y="1114.25">(from Model)</text></g></g><g transform="translate(-10,-10) scale(1,1)"><rect fill="#C0C0C0" stroke="none" x="476.407470703125" y="908.5" width="86.99365234375" height="39" opacity="0.2"/></g><g transform="translate(-10,-10) scale(1,1)"><rect fill="#ffffff" stroke="none" x="469.407470703125" y="901.5" width="86.99365234375" height="39"/></g><g transform="translate(-10,-10) scale(1,1)"><path fill="none" stroke="#000000" d="M 469.407470703125 901.5 L 556.401123046875 901.5 L 556.401123046875 940.5 L 469.407470703125 940.5 L 469.407470703125 901.5 Z Z" stroke-miterlimit="10"/></g><g transform="translate(-10,-10) scale(1,1)"><g><path fill="none" stroke="none"/><text fill="#000000" stroke="none" font-family="Arial" font-size="13px" font-style="normal" font-weight="bold" text-decoration="none" x="476.776611328125" y="921">CintoMagico</text></g></g><g transform="translate(-10,-10) scale(1,1)"><g><path fill="none" stroke="none"/><text fill="#000000" stroke="none" font-family="Arial" font-size="13px" font-style="normal" font-weight="normal" text-decoration="none" x="476.065673828125" y="936">(from Model)</text></g></g><g transform="translate(-10,-10) scale(1,1)"><path fill="none" stroke="#000000" d="M 468 921 Q 411 922 309 1079" stroke-miterlimit="10"/></g><g transform="translate(-10,-10) scale(1,1)"><path fill="#FFFFFF" stroke="none" d="M 313.01334888965044 1057.3691648175586 L 309 1079 L 327.13317645537217 1066.5425559749065"/></g><g transform="translate(-10,-10) scale(1,1)"><path fill="none" stroke="#000000" d="M 313.01334888965044 1057.3691648175586 L 309 1079 L 327.13317645537217 1066.5425559749065 L 313.01334888965044 1057.3691648175586" stroke-miterlimit="10"/></g><g transform="translate(-10,-10) scale(1,1)"><rect fill="#C0C0C0" stroke="none" x="478.565673828125" y="958.5" width="82.67724609375" height="39" opacity="0.2"/></g><g transform="translate(-10,-10) scale(1,1)"><rect fill="#ffffff" stroke="none" x="471.565673828125" y="951.5" width="82.67724609375" height="39"/></g><g transform="translate(-10,-10) scale(1,1)"><path fill="none" stroke="#000000" d="M 471.565673828125 951.5 L 554.242919921875 951.5 L 554.242919921875 990.5 L 471.565673828125 990.5 L 471.565673828125 951.5 Z Z" stroke-miterlimit="10"/></g><g transform="translate(-10,-10) scale(1,1)"><g><path fill="none" stroke="none"/><text fill="#000000" stroke="none" font-family="Arial" font-size="13px" font-style="normal" font-weight="bold" text-decoration="none" x="487.980224609375" y="971">Mascara</text></g></g><g transform="translate(-10,-10) scale(1,1)"><g><path fill="none" stroke="none"/><text fill="#000000" stroke="none" font-family="Arial" font-size="13px" font-style="normal" font-weight="normal" text-decoration="none" x="476.065673828125" y="986">(from Model)</text></g></g><g transform="translate(-10,-10) scale(1,1)"><path fill="none" stroke="#000000" d="M 471 971 Q 411 972 314 1079" stroke-miterlimit="10"/></g><g transform="translate(-10,-10) scale(1,1)"><path fill="#FFFFFF" stroke="none" d="M 321.41379280149374 1058.2868236067832 L 314 1079 L 333.88877065180503 1069.5959156766914"/></g><g transform="translate(-10,-10) scale(1,1)"><path fill="none" stroke="#000000" d="M 321.41379280149374 1058.2868236067832 L 314 1079 L 333.88877065180503 1069.5959156766914 L 321.41379280149374 1058.2868236067832" stroke-miterlimit="10"/></g><g transform="translate(-10,-10) scale(1,1)"><rect fill="#C0C0C0" stroke="none" x="478.565673828125" y="1008.5" width="82.67724609375" height="39" opacity="0.2"/></g><g transform="translate(-10,-10) scale(1,1)"><rect fill="#ffffff" stroke="none" x="471.565673828125" y="1001.5" width="82.67724609375" height="39"/></g><g transform="translate(-10,-10) scale(1,1)"><path fill="none" stroke="#000000" d="M 471.565673828125 1001.5 L 554.242919921875 1001.5 L 554.242919921875 1040.5 L 471.565673828125 1040.5 L 471.565673828125 1001.5 Z Z" stroke-miterlimit="10"/></g><g transform="translate(-10,-10) scale(1,1)"><g><path fill="none" stroke="none"/><text fill="#000000" stroke="none" font-family="Arial" font-size="13px" font-style="normal" font-weight="bold" text-decoration="none" x="492.67431640625" y="1021">Oculos</text></g></g><g transform="translate(-10,-10) scale(1,1)"><g><path fill="none" stroke="none"/><text fill="#000000" stroke="none" font-family="Arial" font-size="13px" font-style="normal" font-weight="normal" text-decoration="none" x="476.065673828125" y="1036">(from Model)</text></g></g><g transform="translate(-10,-10) scale(1,1)"><path fill="none" stroke="#000000" d="M 471 1021 Q 411 1022 326 1079" stroke-miterlimit="10"/></g><g transform="translate(-10,-10) scale(1,1)"><path fill="#FFFFFF" stroke="none" d="M 338.1920897526011 1060.6873555305488 L 326 1079 L 347.57010442670645 1074.672114255092"/></g><g transform="translate(-10,-10) scale(1,1)"><path fill="none" stroke="#000000" d="M 338.1920897526011 1060.6873555305488 L 326 1079 L 347.57010442670645 1074.672114255092 L 338.1920897526011 1060.6873555305488" stroke-miterlimit="10"/></g><g transform="translate(-10,-10) scale(1,1)"><rect fill="#C0C0C0" stroke="none" x="478.565673828125" y="1271.5" width="82.67724609375" height="39" opacity="0.2"/></g><g transform="translate(-10,-10) scale(1,1)"><rect fill="#ffffff" stroke="none" x="471.565673828125" y="1264.5" width="82.67724609375" height="39"/></g><g transform="translate(-10,-10) scale(1,1)"><path fill="none" stroke="#000000" d="M 471.565673828125 1264.5 L 554.242919921875 1264.5 L 554.242919921875 1303.5 L 471.565673828125 1303.5 L 471.565673828125 1264.5 Z Z" stroke-miterlimit="10"/></g><g transform="translate(-10,-10) scale(1,1)"><g><path fill="none" stroke="none"/><text fill="#000000" stroke="none" font-family="Arial" font-size="13px" font-style="normal" font-weight="bold" text-decoration="none" x="498.809326171875" y="1284">Luva</text></g></g><g transform="translate(-10,-10) scale(1,1)"><g><path fill="none" stroke="none"/><text fill="#000000" stroke="none" font-family="Arial" font-size="13px" font-style="normal" font-weight="normal" text-decoration="none" x="476.065673828125" y="1299">(from Model)</text></g></g><g transform="translate(-10,-10) scale(1,1)"><path fill="none" stroke="#000000" d="M 471 1282 Q 411 1280 309 1120" stroke-miterlimit="10"/></g><g transform="translate(-10,-10) scale(1,1)"><path fill="#FFFFFF" stroke="none" d="M 327.02520062748243 1132.6131733651373 L 309 1120 L 312.8268811771708 1141.664602014711"/></g><g transform="translate(-10,-10) scale(1,1)"><path fill="none" stroke="#000000" d="M 327.02520062748243 1132.6131733651373 L 309 1120 L 312.8268811771708 1141.664602014711 L 327.02520062748243 1132.6131733651373" stroke-miterlimit="10"/></g><g transform="translate(-10,-10) scale(1,1)"><rect fill="#C0C0C0" stroke="none" x="478.565673828125" y="1058.5" width="82.67724609375" height="39" opacity="0.2"/></g><g transform="translate(-10,-10) scale(1,1)"><rect fill="#ffffff" stroke="none" x="471.565673828125" y="1051.5" width="82.67724609375" height="39"/></g><g transform="translate(-10,-10) scale(1,1)"><path fill="none" stroke="#000000" d="M 471.565673828125 1051.5 L 554.242919921875 1051.5 L 554.242919921875 1090.5 L 471.565673828125 1090.5 L 471.565673828125 1051.5 Z Z" stroke-miterlimit="10"/></g><g transform="translate(-10,-10) scale(1,1)"><g><path fill="none" stroke="none"/><text fill="#000000" stroke="none" font-family="Arial" font-size="13px" font-style="normal" font-weight="bold" text-decoration="none" x="497.365234375" y="1071">Capa</text></g></g><g transform="translate(-10,-10) scale(1,1)"><g><path fill="none" stroke="none"/><text fill="#000000" stroke="none" font-family="Arial" font-size="13px" font-style="normal" font-weight="normal" text-decoration="none" x="476.065673828125" y="1086">(from Model)</text></g></g><g transform="translate(-10,-10) scale(1,1)"><path fill="none" stroke="#000000" d="M 471 1071 Q 411 1072 339 1089" stroke-miterlimit="10"/></g><g transform="translate(-10,-10) scale(1,1)"><path fill="#FFFFFF" stroke="none" d="M 356.8468024981629 1076.1356445714694 L 339 1089 L 360.716068028056 1092.52312210984"/></g><g transform="translate(-10,-10) scale(1,1)"><path fill="none" stroke="#000000" d="M 356.8468024981629 1076.1356445714694 L 339 1089 L 360.716068028056 1092.52312210984 L 356.8468024981629 1076.1356445714694" stroke-miterlimit="10"/></g><g transform="translate(-10,-10) scale(1,1)"><rect fill="#C0C0C0" stroke="none" x="41.828125" y="1403" width="82.67724609375" height="39" opacity="0.2"/></g><g transform="translate(-10,-10) scale(1,1)"><rect fill="#ffffff" stroke="none" x="34.828125" y="1396" width="82.67724609375" height="39"/></g><g transform="translate(-10,-10) scale(1,1)"><path fill="none" stroke="#000000" d="M 34.828125 1396 L 117.50537109375 1396 L 117.50537109375 1435 L 34.828125 1435 L 34.828125 1396 Z Z" stroke-miterlimit="10"/></g><g transform="translate(-10,-10) scale(1,1)"><g><path fill="none" stroke="none"/><text fill="#000000" stroke="none" font-family="Arial" font-size="13px" font-style="italic" font-weight="bold" text-decoration="none" x="62.666748046875" y="1415.5">Objs</text></g></g><g transform="translate(-10,-10) scale(1,1)"><g><path fill="none" stroke="none"/><text fill="#000000" stroke="none" font-family="Arial" font-size="13px" font-style="normal" font-weight="normal" text-decoration="none" x="39.328125" y="1430.5">(from Model)</text></g></g><g transform="translate(-10,-10) scale(1,1)"><rect fill="#C0C0C0" stroke="none" x="262.37255859375" y="1329.75" width="82.67724609375" height="39" opacity="0.2"/></g><g transform="translate(-10,-10) scale(1,1)"><rect fill="#ffffff" stroke="none" x="255.37255859375" y="1322.75" width="82.67724609375" height="39"/></g><g transform="translate(-10,-10) scale(1,1)"><path fill="none" stroke="#000000" d="M 255.37255859375 1322.75 L 338.0498046875 1322.75 L 338.0498046875 1361.75 L 255.37255859375 1361.75 L 255.37255859375 1322.75 Z Z" stroke-miterlimit="10"/></g><g transform="translate(-10,-10) scale(1,1)"><g><path fill="none" stroke="none"/><text fill="#000000" stroke="none" font-family="Arial" font-size="13px" font-style="normal" font-weight="bold" text-decoration="none" x="272.507568359375" y="1342.25">Magicos</text></g></g><g transform="translate(-10,-10) scale(1,1)"><g><path fill="none" stroke="none"/><text fill="#000000" stroke="none" font-family="Arial" font-size="13px" font-style="normal" font-weight="normal" text-decoration="none" x="259.87255859375" y="1357.25">(from Model)</text></g></g><g transform="translate(-10,-10) scale(1,1)"><path fill="none" stroke="#000000" d="M 471 1286 Q 411 1290 339 1323" stroke-miterlimit="10"/></g><g transform="translate(-10,-10) scale(1,1)"><path fill="#FFFFFF" stroke="none" d="M 353.96922963525884 1306.877898272034 L 339 1323 L 360.98489124305434 1322.1847963254058"/></g><g transform="translate(-10,-10) scale(1,1)"><path fill="none" stroke="#000000" d="M 353.96922963525884 1306.877898272034 L 339 1323 L 360.98489124305434 1322.1847963254058 L 353.96922963525884 1306.877898272034" stroke-miterlimit="10"/></g><g transform="translate(-10,-10) scale(1,1)"><path fill="none" stroke="#000000" d="M 254 1342 Q 183 1343 106 1395" stroke-miterlimit="10"/></g><g transform="translate(-10,-10) scale(1,1)"><path fill="#FFFFFF" stroke="none" d="M 118.13232478926655 1376.647705996041 L 106 1395 L 127.55588067057664 1390.6018175895194"/></g><g transform="translate(-10,-10) scale(1,1)"><path fill="none" stroke="#000000" d="M 118.13232478926655 1376.647705996041 L 106 1395 L 127.55588067057664 1390.6018175895194 L 118.13232478926655 1376.647705996041" stroke-miterlimit="10"/></g><g transform="translate(-10,-10) scale(1,1)"><rect fill="#C0C0C0" stroke="none" x="262.37255859375" y="1453" width="82.67724609375" height="39" opacity="0.2"/></g><g transform="translate(-10,-10) scale(1,1)"><rect fill="#ffffff" stroke="none" x="255.37255859375" y="1446" width="82.67724609375" height="39"/></g><g transform="translate(-10,-10) scale(1,1)"><path fill="none" stroke="#000000" d="M 255.37255859375 1446 L 338.0498046875 1446 L 338.0498046875 1485 L 255.37255859375 1485 L 255.37255859375 1446 Z Z" stroke-miterlimit="10"/></g><g transform="translate(-10,-10) scale(1,1)"><g><path fill="none" stroke="none"/><text fill="#000000" stroke="none" font-family="Arial" font-size="13px" font-style="normal" font-weight="bold" text-decoration="none" x="272.513916015625" y="1465.5">Normais</text></g></g><g transform="translate(-10,-10) scale(1,1)"><g><path fill="none" stroke="none"/><text fill="#000000" stroke="none" font-family="Arial" font-size="13px" font-style="normal" font-weight="normal" text-decoration="none" x="259.87255859375" y="1480.5">(from Model)</text></g></g><g transform="translate(-10,-10) scale(1,1)"><path fill="none" stroke="#000000" d="M 254 1465 Q 183 1466 119 1435" stroke-miterlimit="10"/></g><g transform="translate(-10,-10) scale(1,1)"><path fill="#FFFFFF" stroke="none" d="M 140.96253227653852 1436.2834235473933 L 119 1435 L 133.6223380112725 1451.4373729982651"/></g><g transform="translate(-10,-10) scale(1,1)"><path fill="none" stroke="#000000" d="M 140.96253227653852 1436.2834235473933 L 119 1435 L 133.6223380112725 1451.4373729982651 L 140.96253227653852 1436.2834235473933" stroke-miterlimit="10"/></g><g transform="translate(-10,-10) scale(1,1)"><rect fill="#C0C0C0" stroke="none" x="41.828125" y="1528" width="82.67724609375" height="39" opacity="0.2"/></g><g transform="translate(-10,-10) scale(1,1)"><rect fill="#ffffff" stroke="none" x="34.828125" y="1521" width="82.67724609375" height="39"/></g><g transform="translate(-10,-10) scale(1,1)"><path fill="none" stroke="#000000" d="M 34.828125 1521 L 117.50537109375 1521 L 117.50537109375 1560 L 34.828125 1560 L 34.828125 1521 Z Z" stroke-miterlimit="10"/></g><g transform="translate(-10,-10) scale(1,1)"><g><path fill="none" stroke="none"/><text fill="#000000" stroke="none" font-family="Arial" font-size="13px" font-style="normal" font-weight="bold" text-decoration="none" x="47.634033203125" y="1540.5">Emissario</text></g></g><g transform="translate(-10,-10) scale(1,1)"><g><path fill="none" stroke="none"/><text fill="#000000" stroke="none" font-family="Arial" font-size="13px" font-style="normal" font-weight="normal" text-decoration="none" x="39.328125" y="1555.5">(from Model)</text></g></g><g transform="translate(-10,-10) scale(1,1)"><rect fill="#C0C0C0" stroke="none" x="240.33349609375" y="1503" width="126.75537109375" height="39" opacity="0.2"/></g><g transform="translate(-10,-10) scale(1,1)"><rect fill="#ffffff" stroke="none" x="233.33349609375" y="1496" width="126.75537109375" height="39"/></g><g transform="translate(-10,-10) scale(1,1)"><path fill="none" stroke="#000000" d="M 233.33349609375 1496 L 360.0888671875 1496 L 360.0888671875 1535 L 233.33349609375 1535 L 233.33349609375 1496 Z Z" stroke-miterlimit="10"/></g><g transform="translate(-10,-10) scale(1,1)"><g><path fill="none" stroke="none"/><text fill="#000000" stroke="none" font-family="Arial" font-size="13px" font-style="normal" font-weight="bold" text-decoration="none" x="242.883056640625" y="1515.5">EmissarioAquatico</text></g></g><g transform="translate(-10,-10) scale(1,1)"><g><path fill="none" stroke="none"/><text fill="#000000" stroke="none" font-family="Arial" font-size="13px" font-style="normal" font-weight="normal" text-decoration="none" x="259.87255859375" y="1530.5">(from Model)</text></g></g><g transform="translate(-10,-10) scale(1,1)"><path fill="none" stroke="#000000" d="M 232 1516 Q 183 1516 119 1530" stroke-miterlimit="10"/></g><g transform="translate(-10,-10) scale(1,1)"><path fill="#FFFFFF" stroke="none" d="M 137.05671287893784 1517.4319802670589 L 119 1530 L 140.6549561018845 1533.8810921433862"/></g><g transform="translate(-10,-10) scale(1,1)"><path fill="none" stroke="#000000" d="M 137.05671287893784 1517.4319802670589 L 119 1530 L 140.6549561018845 1533.8810921433862 L 137.05671287893784 1517.4319802670589" stroke-miterlimit="10"/></g><g transform="translate(-10,-10) scale(1,1)"><rect fill="#C0C0C0" stroke="none" x="243.57080078125" y="1553" width="120.28076171875" height="39" opacity="0.2"/></g><g transform="translate(-10,-10) scale(1,1)"><rect fill="#ffffff" stroke="none" x="236.57080078125" y="1546" width="120.28076171875" height="39"/></g><g transform="translate(-10,-10) scale(1,1)"><path fill="none" stroke="#000000" d="M 236.57080078125 1546 L 356.8515625 1546 L 356.8515625 1585 L 236.57080078125 1585 L 236.57080078125 1546 Z Z" stroke-miterlimit="10"/></g><g transform="translate(-10,-10) scale(1,1)"><g><path fill="none" stroke="none"/><text fill="#000000" stroke="none" font-family="Arial" font-size="13px" font-style="normal" font-weight="bold" text-decoration="none" x="245.0634765625" y="1565.5">EmisarioTerrestre</text></g></g><g transform="translate(-10,-10) scale(1,1)"><g><path fill="none" stroke="none"/><text fill="#000000" stroke="none" font-family="Arial" font-size="13px" font-style="normal" font-weight="normal" text-decoration="none" x="259.87255859375" y="1580.5">(from Model)</text></g></g><g transform="translate(-10,-10) scale(1,1)"><path fill="none" stroke="#000000" d="M 236 1566 Q 183 1566 119 1550" stroke-miterlimit="10"/></g><g transform="translate(-10,-10) scale(1,1)"><path fill="#FFFFFF" stroke="none" d="M 140.76040162919296 1546.7619572368149 L 119 1550 L 136.67656954896546 1563.097285557725"/></g><g transform="translate(-10,-10) scale(1,1)"><path fill="none" stroke="#000000" d="M 140.76040162919296 1546.7619572368149 L 119 1550 L 136.67656954896546 1563.097285557725 L 140.76040162919296 1546.7619572368149" stroke-miterlimit="10"/></g><g transform="translate(-10,-10) scale(1,1)"><rect fill="#C0C0C0" stroke="none" x="468.0888671875" y="1108.5" width="103.630859375" height="52" opacity="0.2"/></g><g transform="translate(-10,-10) scale(1,1)"><rect fill="#ffffff" stroke="none" x="461.0888671875" y="1101.5" width="103.630859375" height="52"/></g><g transform="translate(-10,-10) scale(1,1)"><path fill="none" stroke="#000000" d="M 461.0888671875 1101.5 L 564.7197265625 1101.5 L 564.7197265625 1153.5 L 461.0888671875 1153.5 L 461.0888671875 1101.5 Z Z" stroke-miterlimit="10"/></g><g transform="translate(-10,-10) scale(1,1)"><g><path fill="none" stroke="none"/><text fill="#000000" stroke="none" font-family="Arial" font-size="13px" font-style="normal" font-weight="normal" text-decoration="none" x="482.552978515625" y="1119">«abstract»</text></g></g><g transform="translate(-10,-10) scale(1,1)"><g><path fill="none" stroke="none"/><text fill="#000000" stroke="none" font-family="Arial" font-size="13px" font-style="italic" font-weight="bold" text-decoration="none" x="468.404296875" y="1134">EspadaButanta</text></g></g><g transform="translate(-10,-10) scale(1,1)"><g><path fill="none" stroke="none"/><text fill="#000000" stroke="none" font-family="Arial" font-size="13px" font-style="normal" font-weight="normal" text-decoration="none" x="476.065673828125" y="1149">(from Model)</text></g></g><g transform="translate(-10,-10) scale(1,1)"><path fill="none" stroke="#000000" d="M 460 1128 Q 411 1128 339 1110" stroke-miterlimit="10"/></g><g transform="translate(-10,-10) scale(1,1)"><path fill="#FFFFFF" stroke="none" d="M 360.760401629193 1106.7619572368149 L 339 1110 L 356.67656954896546 1123.097285557725"/></g><g transform="translate(-10,-10) scale(1,1)"><path fill="none" stroke="#000000" d="M 360.760401629193 1106.7619572368149 L 339 1110 L 356.67656954896546 1123.097285557725 L 360.760401629193 1106.7619572368149" stroke-miterlimit="10"/></g><g transform="translate(-10,-10) scale(1,1)"><rect fill="#C0C0C0" stroke="none" x="478.565673828125" y="1208.5" width="82.67724609375" height="52" opacity="0.2"/></g><g transform="translate(-10,-10) scale(1,1)"><rect fill="#ffffff" stroke="none" x="471.565673828125" y="1201.5" width="82.67724609375" height="52"/></g><g transform="translate(-10,-10) scale(1,1)"><path fill="none" stroke="#000000" d="M 471.565673828125 1201.5 L 554.242919921875 1201.5 L 554.242919921875 1253.5 L 471.565673828125 1253.5 L 471.565673828125 1201.5 Z Z" stroke-miterlimit="10"/></g><g transform="translate(-10,-10) scale(1,1)"><g><path fill="none" stroke="none"/><text fill="#000000" stroke="none" font-family="Arial" font-size="13px" font-style="normal" font-weight="normal" text-decoration="none" x="482.552978515625" y="1219">«abstract»</text></g></g><g transform="translate(-10,-10) scale(1,1)"><g><path fill="none" stroke="none"/><text fill="#000000" stroke="none" font-family="Arial" font-size="13px" font-style="italic" font-weight="bold" text-decoration="none" x="480.904296875" y="1234">GaiolaGiga</text></g></g><g transform="translate(-10,-10) scale(1,1)"><g><path fill="none" stroke="none"/><text fill="#000000" stroke="none" font-family="Arial" font-size="13px" font-style="normal" font-weight="normal" text-decoration="none" x="476.065673828125" y="1249">(from Model)</text></g></g><g transform="translate(-10,-10) scale(1,1)"><path fill="none" stroke="#000000" d="M 471 1227 Q 411 1228 314 1120" stroke-miterlimit="10"/></g><g transform="translate(-10,-10) scale(1,1)"><path fill="#FFFFFF" stroke="none" d="M 333.84504781179953 1129.4960032301694 L 314 1120 L 321.3178796024725 1140.747256158917"/></g><g transform="translate(-10,-10) scale(1,1)"><path fill="none" stroke="#000000" d="M 333.84504781179953 1129.4960032301694 L 314 1120 L 321.3178796024725 1140.747256158917 L 333.84504781179953 1129.4960032301694" stroke-miterlimit="10"/></g><g transform="translate(-10,-10) scale(1,1)"><rect fill="#C0C0C0" stroke="none" x="478.565673828125" y="1321.5" width="82.67724609375" height="52" opacity="0.2"/></g><g transform="translate(-10,-10) scale(1,1)"><rect fill="#ffffff" stroke="none" x="471.565673828125" y="1314.5" width="82.67724609375" height="52"/></g><g transform="translate(-10,-10) scale(1,1)"><path fill="none" stroke="#000000" d="M 471.565673828125 1314.5 L 554.242919921875 1314.5 L 554.242919921875 1366.5 L 471.565673828125 1366.5 L 471.565673828125 1314.5 Z Z" stroke-miterlimit="10"/></g><g transform="translate(-10,-10) scale(1,1)"><g><path fill="none" stroke="none"/><text fill="#000000" stroke="none" font-family="Arial" font-size="13px" font-style="normal" font-weight="normal" text-decoration="none" x="482.552978515625" y="1332">«abstract»</text></g></g><g transform="translate(-10,-10) scale(1,1)"><g><path fill="none" stroke="none"/><text fill="#000000" stroke="none" font-family="Arial" font-size="13px" font-style="italic" font-weight="bold" text-decoration="none" x="482.904296875" y="1347">Mangueira</text></g></g><g transform="translate(-10,-10) scale(1,1)"><g><path fill="none" stroke="none"/><text fill="#000000" stroke="none" font-family="Arial" font-size="13px" font-style="normal" font-weight="normal" text-decoration="none" x="476.065673828125" y="1362">(from Model)</text></g></g><g transform="translate(-10,-10) scale(1,1)"><path fill="none" stroke="#000000" d="M 471 1340 Q 411 1341 306 1120" stroke-miterlimit="10"/></g><g transform="translate(-10,-10) scale(1,1)"><path fill="#FFFFFF" stroke="none" d="M 322.32681619002113 1134.745679811296 L 306 1120 L 307.1180322553772 1141.9715726309232"/></g><g transform="translate(-10,-10) scale(1,1)"><path fill="none" stroke="#000000" d="M 322.32681619002113 1134.745679811296 L 306 1120 L 307.1180322553772 1141.9715726309232 L 322.32681619002113 1134.745679811296" stroke-miterlimit="10"/></g><g transform="translate(-10,-10) scale(1,1)"><rect fill="#C0C0C0" stroke="none" x="674.887451171875" y="1303" width="103.62451171875" height="39" opacity="0.2"/></g><g transform="translate(-10,-10) scale(1,1)"><rect fill="#ffffff" stroke="none" x="667.887451171875" y="1296" width="103.62451171875" height="39"/></g><g transform="translate(-10,-10) scale(1,1)"><path fill="none" stroke="#000000" d="M 667.887451171875 1296 L 771.511962890625 1296 L 771.511962890625 1335 L 667.887451171875 1335 L 667.887451171875 1296 Z Z" stroke-miterlimit="10"/></g><g transform="translate(-10,-10) scale(1,1)"><g><path fill="none" stroke="none"/><text fill="#000000" stroke="none" font-family="Arial" font-size="13px" font-style="normal" font-weight="bold" text-decoration="none" x="674.89794921875" y="1315.5">MangueiraMagi</text></g></g><g transform="translate(-10,-10) scale(1,1)"><g><path fill="none" stroke="none"/><text fill="#000000" stroke="none" font-family="Arial" font-size="13px" font-style="normal" font-weight="normal" text-decoration="none" x="682.861083984375" y="1330.5">(from Model)</text></g></g><g transform="translate(-10,-10) scale(1,1)"><path fill="none" stroke="#000000" d="M 667 1316 Q 616 1316 555 1330" stroke-miterlimit="10"/></g><g transform="translate(-10,-10) scale(1,1)"><path fill="#FFFFFF" stroke="none" d="M 572.9270267266 1317.2476781430296 L 555 1330 L 576.6935754258286 1333.659068903954"/></g><g transform="translate(-10,-10) scale(1,1)"><path fill="none" stroke="#000000" d="M 572.9270267266 1317.2476781430296 L 555 1330 L 576.6935754258286 1333.659068903954 L 572.9270267266 1317.2476781430296" stroke-miterlimit="10"/></g><g transform="translate(-10,-10) scale(1,1)"><rect fill="#C0C0C0" stroke="none" x="684.2724609375" y="1090" width="84.8544921875" height="39" opacity="0.2"/></g><g transform="translate(-10,-10) scale(1,1)"><rect fill="#ffffff" stroke="none" x="677.2724609375" y="1083" width="84.8544921875" height="39"/></g><g transform="translate(-10,-10) scale(1,1)"><path fill="none" stroke="#000000" d="M 677.2724609375 1083 L 762.126953125 1083 L 762.126953125 1122 L 677.2724609375 1122 L 677.2724609375 1083 Z Z" stroke-miterlimit="10"/></g><g transform="translate(-10,-10) scale(1,1)"><g><path fill="none" stroke="none"/><text fill="#000000" stroke="none" font-family="Arial" font-size="13px" font-style="normal" font-weight="bold" text-decoration="none" x="683.565673828125" y="1102.5">EspadaMagi</text></g></g><g transform="translate(-10,-10) scale(1,1)"><g><path fill="none" stroke="none"/><text fill="#000000" stroke="none" font-family="Arial" font-size="13px" font-style="normal" font-weight="normal" text-decoration="none" x="682.861083984375" y="1117.5">(from Model)</text></g></g><g transform="translate(-10,-10) scale(1,1)"><path fill="none" stroke="#000000" d="M 676 1102 Q 616 1103 566 1115" stroke-miterlimit="10"/></g><g transform="translate(-10,-10) scale(1,1)"><path fill="#FFFFFF" stroke="none" d="M 583.7993367969833 1102.070049900036 L 566 1115 L 587.7288871458583 1118.443176353682"/></g><g transform="translate(-10,-10) scale(1,1)"><path fill="none" stroke="#000000" d="M 583.7993367969833 1102.070049900036 L 566 1115 L 587.7288871458583 1118.443176353682 L 583.7993367969833 1102.070049900036" stroke-miterlimit="10"/></g><g transform="translate(-10,-10) scale(1,1)"><rect fill="#C0C0C0" stroke="none" x="682.104736328125" y="1140" width="89.18994140625" height="39" opacity="0.2"/></g><g transform="translate(-10,-10) scale(1,1)"><rect fill="#ffffff" stroke="none" x="675.104736328125" y="1133" width="89.18994140625" height="39"/></g><g transform="translate(-10,-10) scale(1,1)"><path fill="none" stroke="#000000" d="M 675.104736328125 1133 L 764.294677734375 1133 L 764.294677734375 1172 L 675.104736328125 1172 L 675.104736328125 1133 Z Z" stroke-miterlimit="10"/></g><g transform="translate(-10,-10) scale(1,1)"><g><path fill="none" stroke="none"/><text fill="#000000" stroke="none" font-family="Arial" font-size="13px" font-style="normal" font-weight="bold" text-decoration="none" x="681.76611328125" y="1152.5">EspadaNorm</text></g></g><g transform="translate(-10,-10) scale(1,1)"><g><path fill="none" stroke="none"/><text fill="#000000" stroke="none" font-family="Arial" font-size="13px" font-style="normal" font-weight="normal" text-decoration="none" x="682.861083984375" y="1167.5">(from Model)</text></g></g><g transform="translate(-10,-10) scale(1,1)"><path fill="none" stroke="#000000" d="M 674 1152 Q 616 1153 566 1140" stroke-miterlimit="10"/></g><g transform="translate(-10,-10) scale(1,1)"><path fill="#FFFFFF" stroke="none" d="M 587.7898452467984 1136.9664139833233 L 566 1140 L 583.5528165787214 1153.262678091312"/></g><g transform="translate(-10,-10) scale(1,1)"><path fill="none" stroke="#000000" d="M 587.7898452467984 1136.9664139833233 L 566 1140 L 583.5528165787214 1153.262678091312 L 587.7898452467984 1136.9664139833233" stroke-miterlimit="10"/></g><g transform="translate(-10,-10) scale(1,1)"><rect fill="#C0C0C0" stroke="none" x="685.361083984375" y="1190" width="82.67724609375" height="39" opacity="0.2"/></g><g transform="translate(-10,-10) scale(1,1)"><rect fill="#ffffff" stroke="none" x="678.361083984375" y="1183" width="82.67724609375" height="39"/></g><g transform="translate(-10,-10) scale(1,1)"><path fill="none" stroke="#000000" d="M 678.361083984375 1183 L 761.038330078125 1183 L 761.038330078125 1222 L 678.361083984375 1222 L 678.361083984375 1183 Z Z" stroke-miterlimit="10"/></g><g transform="translate(-10,-10) scale(1,1)"><g><path fill="none" stroke="none"/><text fill="#000000" stroke="none" font-family="Arial" font-size="13px" font-style="normal" font-weight="bold" text-decoration="none" x="686.822021484375" y="1202.5">GaiolaMagi</text></g></g><g transform="translate(-10,-10) scale(1,1)"><g><path fill="none" stroke="none"/><text fill="#000000" stroke="none" font-family="Arial" font-size="13px" font-style="normal" font-weight="normal" text-decoration="none" x="682.861083984375" y="1217.5">(from Model)</text></g></g><g transform="translate(-10,-10) scale(1,1)"><path fill="none" stroke="#000000" d="M 677 1202 Q 616 1203 555 1217" stroke-miterlimit="10"/></g><g transform="translate(-10,-10) scale(1,1)"><path fill="#FFFFFF" stroke="none" d="M 572.9270267266 1204.2476781430296 L 555 1217 L 576.6935754258286 1220.659068903954"/></g><g transform="translate(-10,-10) scale(1,1)"><path fill="none" stroke="#000000" d="M 572.9270267266 1204.2476781430296 L 555 1217 L 576.6935754258286 1220.659068903954 L 572.9270267266 1204.2476781430296" stroke-miterlimit="10"/></g><g transform="translate(-10,-10) scale(1,1)"><rect fill="#C0C0C0" stroke="none" x="672.7197265625" y="1353" width="107.9599609375" height="39" opacity="0.2"/></g><g transform="translate(-10,-10) scale(1,1)"><rect fill="#ffffff" stroke="none" x="665.7197265625" y="1346" width="107.9599609375" height="39"/></g><g transform="translate(-10,-10) scale(1,1)"><path fill="none" stroke="#000000" d="M 665.7197265625 1346 L 773.6796875 1346 L 773.6796875 1385 L 665.7197265625 1385 L 665.7197265625 1346 Z Z" stroke-miterlimit="10"/></g><g transform="translate(-10,-10) scale(1,1)"><g><path fill="none" stroke="none"/><text fill="#000000" stroke="none" font-family="Arial" font-size="13px" font-style="normal" font-weight="bold" text-decoration="none" x="673.098388671875" y="1365.5">MangueiraNorm</text></g></g><g transform="translate(-10,-10) scale(1,1)"><g><path fill="none" stroke="none"/><text fill="#000000" stroke="none" font-family="Arial" font-size="13px" font-style="normal" font-weight="normal" text-decoration="none" x="682.861083984375" y="1380.5">(from Model)</text></g></g><g transform="translate(-10,-10) scale(1,1)"><path fill="none" stroke="#000000" d="M 665 1366 Q 616 1366 555 1351" stroke-miterlimit="10"/></g><g transform="translate(-10,-10) scale(1,1)"><path fill="#FFFFFF" stroke="none" d="M 576.7477374336106 1347.6779650033857 L 555 1351 L 572.7270060882156 1364.0289391413257"/></g><g transform="translate(-10,-10) scale(1,1)"><path fill="none" stroke="#000000" d="M 576.7477374336106 1347.6779650033857 L 555 1351 L 572.7270060882156 1364.0289391413257 L 576.7477374336106 1347.6779650033857" stroke-miterlimit="10"/></g><g transform="translate(-10,-10) scale(1,1)"><rect fill="#C0C0C0" stroke="none" x="685.35791015625" y="1240" width="82.68359375" height="39" opacity="0.2"/></g><g transform="translate(-10,-10) scale(1,1)"><rect fill="#ffffff" stroke="none" x="678.35791015625" y="1233" width="82.68359375" height="39"/></g><g transform="translate(-10,-10) scale(1,1)"><path fill="none" stroke="#000000" d="M 678.35791015625 1233 L 761.04150390625 1233 L 761.04150390625 1272 L 678.35791015625 1272 L 678.35791015625 1233 Z Z" stroke-miterlimit="10"/></g><g transform="translate(-10,-10) scale(1,1)"><g><path fill="none" stroke="none"/><text fill="#000000" stroke="none" font-family="Arial" font-size="13px" font-style="normal" font-weight="bold" text-decoration="none" x="685.0224609375" y="1252.5">GaiolaNorm</text></g></g><g transform="translate(-10,-10) scale(1,1)"><g><path fill="none" stroke="none"/><text fill="#000000" stroke="none" font-family="Arial" font-size="13px" font-style="normal" font-weight="normal" text-decoration="none" x="682.861083984375" y="1267.5">(from Model)</text></g></g><g transform="translate(-10,-10) scale(1,1)"><path fill="none" stroke="#000000" d="M 677 1252 Q 616 1253 555 1238" stroke-miterlimit="10"/></g><g transform="translate(-10,-10) scale(1,1)"><path fill="#FFFFFF" stroke="none" d="M 576.7477374336106 1234.6779650033857 L 555 1238 L 572.7270060882156 1251.0289391413257"/></g><g transform="translate(-10,-10) scale(1,1)"><path fill="none" stroke="#000000" d="M 576.7477374336106 1234.6779650033857 L 555 1238 L 572.7270060882156 1251.0289391413257 L 576.7477374336106 1234.6779650033857" stroke-miterlimit="10"/></g><g transform="translate(-10,-10) scale(1,1)"><rect fill="#C0C0C0" stroke="none" x="478.565673828125" y="1446.5" width="82.67724609375" height="52" opacity="0.2"/></g><g transform="translate(-10,-10) scale(1,1)"><rect fill="#ffffff" stroke="none" x="471.565673828125" y="1439.5" width="82.67724609375" height="52"/></g><g transform="translate(-10,-10) scale(1,1)"><path fill="none" stroke="#000000" d="M 471.565673828125 1439.5 L 554.242919921875 1439.5 L 554.242919921875 1491.5 L 471.565673828125 1491.5 L 471.565673828125 1439.5 Z Z" stroke-miterlimit="10"/></g><g transform="translate(-10,-10) scale(1,1)"><g><path fill="none" stroke="none"/><text fill="#000000" stroke="none" font-family="Arial" font-size="13px" font-style="normal" font-weight="normal" text-decoration="none" x="482.552978515625" y="1457">«abstract»</text></g></g><g transform="translate(-10,-10) scale(1,1)"><g><path fill="none" stroke="none"/><text fill="#000000" stroke="none" font-family="Arial" font-size="13px" font-style="italic" font-weight="bold" text-decoration="none" x="486.404296875" y="1472">Observer</text></g></g><g transform="translate(-10,-10) scale(1,1)"><g><path fill="none" stroke="none"/><text fill="#000000" stroke="none" font-family="Arial" font-size="13px" font-style="normal" font-weight="normal" text-decoration="none" x="476.065673828125" y="1487">(from Model)</text></g></g><g transform="translate(-10,-10) scale(1,1)"><path fill="none" stroke="#000000" d="M 471 1465 Q 411 1466 339 1465" stroke-miterlimit="10"/></g><g transform="translate(-10,-10) scale(1,1)"><path fill="#FFFFFF" stroke="none" d="M 359.44030937863556 1456.8640456917665 L 339 1465 L 359.20646983396 1473.7004929084085"/></g><g transform="translate(-10,-10) scale(1,1)"><path fill="none" stroke="#000000" d="M 359.44030937863556 1456.8640456917665 L 339 1465 L 359.20646983396 1473.7004929084085 L 359.44030937863556 1456.8640456917665" stroke-miterlimit="10"/></g><g transform="translate(-10,-10) scale(1,1)"><rect fill="#C0C0C0" stroke="none" x="685.361083984375" y="1403" width="82.67724609375" height="39" opacity="0.2"/></g><g transform="translate(-10,-10) scale(1,1)"><rect fill="#ffffff" stroke="none" x="678.361083984375" y="1396" width="82.67724609375" height="39"/></g><g transform="translate(-10,-10) scale(1,1)"><path fill="none" stroke="#000000" d="M 678.361083984375 1396 L 761.038330078125 1396 L 761.038330078125 1435 L 678.361083984375 1435 L 678.361083984375 1396 Z Z" stroke-miterlimit="10"/></g><g transform="translate(-10,-10) scale(1,1)"><g><path fill="none" stroke="none"/><text fill="#000000" stroke="none" font-family="Arial" font-size="13px" font-style="normal" font-weight="bold" text-decoration="none" x="705.9697265625" y="1415.5">Olho</text></g></g><g transform="translate(-10,-10) scale(1,1)"><g><path fill="none" stroke="none"/><text fill="#000000" stroke="none" font-family="Arial" font-size="13px" font-style="normal" font-weight="normal" text-decoration="none" x="682.861083984375" y="1430.5">(from Model)</text></g></g><g transform="translate(-10,-10) scale(1,1)"><path fill="none" stroke="#000000" d="M 677 1415 Q 616 1416 555 1445" stroke-miterlimit="10"/></g><g transform="translate(-10,-10) scale(1,1)"><path fill="#FFFFFF" stroke="none" d="M 569.7417275904913 1428.669615202092 L 555 1445 L 576.9713013756277 1443.8766497156548"/></g><g transform="translate(-10,-10) scale(1,1)"><path fill="none" stroke="#000000" d="M 569.7417275904913 1428.669615202092 L 555 1445 L 576.9713013756277 1443.8766497156548 L 569.7417275904913 1428.669615202092" stroke-miterlimit="10"/></g><g transform="translate(-10,-10) scale(1,1)"><rect fill="#C0C0C0" stroke="none" x="685.361083984375" y="1453" width="82.67724609375" height="39" opacity="0.2"/></g><g transform="translate(-10,-10) scale(1,1)"><rect fill="#ffffff" stroke="none" x="678.361083984375" y="1446" width="82.67724609375" height="39"/></g><g transform="translate(-10,-10) scale(1,1)"><path fill="none" stroke="#000000" d="M 678.361083984375 1446 L 761.038330078125 1446 L 761.038330078125 1485 L 678.361083984375 1485 L 678.361083984375 1446 Z Z" stroke-miterlimit="10"/></g><g transform="translate(-10,-10) scale(1,1)"><g><path fill="none" stroke="none"/><text fill="#000000" stroke="none" font-family="Arial" font-size="13px" font-style="normal" font-weight="bold" text-decoration="none" x="704.531982421875" y="1465.5">Nariz</text></g></g><g transform="translate(-10,-10) scale(1,1)"><g><path fill="none" stroke="none"/><text fill="#000000" stroke="none" font-family="Arial" font-size="13px" font-style="normal" font-weight="normal" text-decoration="none" x="682.861083984375" y="1480.5">(from Model)</text></g></g><g transform="translate(-10,-10) scale(1,1)"><path fill="none" stroke="#000000" d="M 677 1465 Q 616 1466 555 1465" stroke-miterlimit="10"/></g><g transform="translate(-10,-10) scale(1,1)"><path fill="#FFFFFF" stroke="none" d="M 575.460617531618 1456.9152532368141 L 555 1465 L 575.1846206642962 1473.7510621434467"/></g><g transform="translate(-10,-10) scale(1,1)"><path fill="none" stroke="#000000" d="M 575.460617531618 1456.9152532368141 L 555 1465 L 575.1846206642962 1473.7510621434467 L 575.460617531618 1456.9152532368141" stroke-miterlimit="10"/></g><g transform="translate(-10,-10) scale(1,1)"><rect fill="#C0C0C0" stroke="none" x="685.361083984375" y="1503" width="82.67724609375" height="39" opacity="0.2"/></g><g transform="translate(-10,-10) scale(1,1)"><rect fill="#ffffff" stroke="none" x="678.361083984375" y="1496" width="82.67724609375" height="39"/></g><g transform="translate(-10,-10) scale(1,1)"><path fill="none" stroke="#000000" d="M 678.361083984375 1496 L 761.038330078125 1496 L 761.038330078125 1535 L 678.361083984375 1535 L 678.361083984375 1496 Z Z" stroke-miterlimit="10"/></g><g transform="translate(-10,-10) scale(1,1)"><g><path fill="none" stroke="none"/><text fill="#000000" stroke="none" font-family="Arial" font-size="13px" font-style="normal" font-weight="bold" text-decoration="none" x="700.190185546875" y="1515.5">Orelha</text></g></g><g transform="translate(-10,-10) scale(1,1)"><g><path fill="none" stroke="none"/><text fill="#000000" stroke="none" font-family="Arial" font-size="13px" font-style="normal" font-weight="normal" text-decoration="none" x="682.861083984375" y="1530.5">(from Model)</text></g></g><g transform="translate(-10,-10) scale(1,1)"><path fill="none" stroke="#000000" d="M 677 1515 Q 616 1516 555 1486" stroke-miterlimit="10"/></g><g transform="translate(-10,-10) scale(1,1)"><path fill="#FFFFFF" stroke="none" d="M 576.9544377299194 1487.4151551021332 L 555 1486 L 569.5234660268146 1502.524797565113"/></g><g transform="translate(-10,-10) scale(1,1)"><path fill="none" stroke="#000000" d="M 576.9544377299194 1487.4151551021332 L 555 1486 L 569.5234660268146 1502.524797565113 L 576.9544377299194 1487.4151551021332" stroke-miterlimit="10"/></g><g transform="translate(-10,-10) scale(1,1)"><rect fill="#C0C0C0" stroke="none" x="41.828125" y="1621.5" width="82.67724609375" height="52" opacity="0.2"/></g><g transform="translate(-10,-10) scale(1,1)"><rect fill="#ffffff" stroke="none" x="34.828125" y="1614.5" width="82.67724609375" height="52"/></g><g transform="translate(-10,-10) scale(1,1)"><path fill="none" stroke="#000000" d="M 34.828125 1614.5 L 117.50537109375 1614.5 L 117.50537109375 1666.5 L 34.828125 1666.5 L 34.828125 1614.5 Z Z" stroke-miterlimit="10"/></g><g transform="translate(-10,-10) scale(1,1)"><g><path fill="none" stroke="none"/><text fill="#000000" stroke="none" font-family="Arial" font-size="13px" font-style="normal" font-weight="normal" text-decoration="none" x="45.8154296875" y="1632">«abstract»</text></g></g><g transform="translate(-10,-10) scale(1,1)"><g><path fill="none" stroke="none"/><text fill="#000000" stroke="none" font-family="Arial" font-size="13px" font-style="italic" font-weight="bold" text-decoration="none" x="60.666748046875" y="1647">State</text></g></g><g transform="translate(-10,-10) scale(1,1)"><g><path fill="none" stroke="none"/><text fill="#000000" stroke="none" font-family="Arial" font-size="13px" font-style="normal" font-weight="normal" text-decoration="none" x="39.328125" y="1662">(from Model)</text></g></g><g transform="translate(-10,-10) scale(1,1)"><rect fill="#C0C0C0" stroke="none" x="262.37255859375" y="1603" width="82.67724609375" height="39" opacity="0.2"/></g><g transform="translate(-10,-10) scale(1,1)"><rect fill="#ffffff" stroke="none" x="255.37255859375" y="1596" width="82.67724609375" height="39"/></g><g transform="translate(-10,-10) scale(1,1)"><path fill="none" stroke="#000000" d="M 255.37255859375 1596 L 338.0498046875 1596 L 338.0498046875 1635 L 255.37255859375 1635 L 255.37255859375 1596 Z Z" stroke-miterlimit="10"/></g><g transform="translate(-10,-10) scale(1,1)"><g><path fill="none" stroke="none"/><text fill="#000000" stroke="none" font-family="Arial" font-size="13px" font-style="normal" font-weight="bold" text-decoration="none" x="268.533935546875" y="1615.5">Dormindo</text></g></g><g transform="translate(-10,-10) scale(1,1)"><g><path fill="none" stroke="none"/><text fill="#000000" stroke="none" font-family="Arial" font-size="13px" font-style="normal" font-weight="normal" text-decoration="none" x="259.87255859375" y="1630.5">(from Model)</text></g></g><g transform="translate(-10,-10) scale(1,1)"><path fill="none" stroke="#000000" d="M 254 1615 Q 183 1616 119 1630" stroke-miterlimit="10"/></g><g transform="translate(-10,-10) scale(1,1)"><path fill="#FFFFFF" stroke="none" d="M 137.05671287893784 1617.4319802670589 L 119 1630 L 140.6549561018845 1633.8810921433862"/></g><g transform="translate(-10,-10) scale(1,1)"><path fill="none" stroke="#000000" d="M 137.05671287893784 1617.4319802670589 L 119 1630 L 140.6549561018845 1633.8810921433862 L 137.05671287893784 1617.4319802670589" stroke-miterlimit="10"/></g><g transform="translate(-10,-10) scale(1,1)"><rect fill="#C0C0C0" stroke="none" x="262.37255859375" y="1653" width="82.67724609375" height="39" opacity="0.2"/></g><g transform="translate(-10,-10) scale(1,1)"><rect fill="#ffffff" stroke="none" x="255.37255859375" y="1646" width="82.67724609375" height="39"/></g><g transform="translate(-10,-10) scale(1,1)"><path fill="none" stroke="#000000" d="M 255.37255859375 1646 L 338.0498046875 1646 L 338.0498046875 1685 L 255.37255859375 1685 L 255.37255859375 1646 Z Z" stroke-miterlimit="10"/></g><g transform="translate(-10,-10) scale(1,1)"><g><path fill="none" stroke="none"/><text fill="#000000" stroke="none" font-family="Arial" font-size="13px" font-style="normal" font-weight="bold" text-decoration="none" x="268.88623046875" y="1665.5">Acordado</text></g></g><g transform="translate(-10,-10) scale(1,1)"><g><path fill="none" stroke="none"/><text fill="#000000" stroke="none" font-family="Arial" font-size="13px" font-style="normal" font-weight="normal" text-decoration="none" x="259.87255859375" y="1680.5">(from Model)</text></g></g><g transform="translate(-10,-10) scale(1,1)"><path fill="none" stroke="#000000" d="M 254 1665 Q 183 1666 119 1650" stroke-miterlimit="10"/></g><g transform="translate(-10,-10) scale(1,1)"><path fill="#FFFFFF" stroke="none" d="M 140.76040162919296 1646.7619572368149 L 119 1650 L 136.67656954896546 1663.097285557725"/></g><g transform="translate(-10,-10) scale(1,1)"><path fill="none" stroke="#000000" d="M 140.76040162919296 1646.7619572368149 L 119 1650 L 136.67656954896546 1663.097285557725 L 140.76040162919296 1646.7619572368149" stroke-miterlimit="10"/></g><g transform="translate(-10,-10) scale(1,1)"><rect fill="#C0C0C0" stroke="none" x="41.828125" y="1721.5" width="82.67724609375" height="52" opacity="0.2"/></g><g transform="translate(-10,-10) scale(1,1)"><rect fill="#ffffff" stroke="none" x="34.828125" y="1714.5" width="82.67724609375" height="52"/></g><g transform="translate(-10,-10) scale(1,1)"><path fill="none" stroke="#000000" d="M 34.828125 1714.5 L 117.50537109375 1714.5 L 117.50537109375 1766.5 L 34.828125 1766.5 L 34.828125 1714.5 Z Z" stroke-miterlimit="10"/></g><g transform="translate(-10,-10) scale(1,1)"><g><path fill="none" stroke="none"/><text fill="#000000" stroke="none" font-family="Arial" font-size="13px" font-style="normal" font-weight="normal" text-decoration="none" x="45.8154296875" y="1732">«abstract»</text></g></g><g transform="translate(-10,-10) scale(1,1)"><g><path fill="none" stroke="none"/><text fill="#000000" stroke="none" font-family="Arial" font-size="13px" font-style="italic" font-weight="bold" text-decoration="none" x="51.666748046875" y="1747">Strategy</text></g></g><g transform="translate(-10,-10) scale(1,1)"><g><path fill="none" stroke="none"/><text fill="#000000" stroke="none" font-family="Arial" font-size="13px" font-style="normal" font-weight="normal" text-decoration="none" x="39.328125" y="1762">(from Model)</text></g></g><g transform="translate(-10,-10) scale(1,1)"><rect fill="#C0C0C0" stroke="none" x="262.37255859375" y="1703" width="82.67724609375" height="39" opacity="0.2"/></g><g transform="translate(-10,-10) scale(1,1)"><rect fill="#ffffff" stroke="none" x="255.37255859375" y="1696" width="82.67724609375" height="39"/></g><g transform="translate(-10,-10) scale(1,1)"><path fill="none" stroke="#000000" d="M 255.37255859375 1696 L 338.0498046875 1696 L 338.0498046875 1735 L 255.37255859375 1735 L 255.37255859375 1696 Z Z" stroke-miterlimit="10"/></g><g transform="translate(-10,-10) scale(1,1)"><g><path fill="none" stroke="none"/><text fill="#000000" stroke="none" font-family="Arial" font-size="13px" font-style="normal" font-weight="bold" text-decoration="none" x="273.95166015625" y="1715.5">Passivo</text></g></g><g transform="translate(-10,-10) scale(1,1)"><g><path fill="none" stroke="none"/><text fill="#000000" stroke="none" font-family="Arial" font-size="13px" font-style="normal" font-weight="normal" text-decoration="none" x="259.87255859375" y="1730.5">(from Model)</text></g></g><g transform="translate(-10,-10) scale(1,1)"><path fill="none" stroke="#000000" d="M 254 1715 Q 183 1716 119 1730" stroke-miterlimit="10"/></g><g transform="translate(-10,-10) scale(1,1)"><path fill="#FFFFFF" stroke="none" d="M 137.05671287893784 1717.4319802670589 L 119 1730 L 140.6549561018845 1733.8810921433862"/></g><g transform="translate(-10,-10) scale(1,1)"><path fill="none" stroke="#000000" d="M 137.05671287893784 1717.4319802670589 L 119 1730 L 140.6549561018845 1733.8810921433862 L 137.05671287893784 1717.4319802670589" stroke-miterlimit="10"/></g><g transform="translate(-10,-10) scale(1,1)"><rect fill="#C0C0C0" stroke="none" x="262.37255859375" y="1753" width="82.67724609375" height="39" opacity="0.2"/></g><g transform="translate(-10,-10) scale(1,1)"><rect fill="#ffffff" stroke="none" x="255.37255859375" y="1746" width="82.67724609375" height="39"/></g><g transform="translate(-10,-10) scale(1,1)"><path fill="none" stroke="#000000" d="M 255.37255859375 1746 L 338.0498046875 1746 L 338.0498046875 1785 L 255.37255859375 1785 L 255.37255859375 1746 Z Z" stroke-miterlimit="10"/></g><g transform="translate(-10,-10) scale(1,1)"><g><path fill="none" stroke="none"/><text fill="#000000" stroke="none" font-family="Arial" font-size="13px" font-style="normal" font-weight="bold" text-decoration="none" x="268.172119140625" y="1765.5">Agressivo</text></g></g><g transform="translate(-10,-10) scale(1,1)"><g><path fill="none" stroke="none"/><text fill="#000000" stroke="none" font-family="Arial" font-size="13px" font-style="normal" font-weight="normal" text-decoration="none" x="259.87255859375" y="1780.5">(from Model)</text></g></g><g transform="translate(-10,-10) scale(1,1)"><path fill="none" stroke="#000000" d="M 254 1765 Q 183 1766 119 1750" stroke-miterlimit="10"/></g><g transform="translate(-10,-10) scale(1,1)"><path fill="#FFFFFF" stroke="none" d="M 140.76040162919296 1746.7619572368149 L 119 1750 L 136.67656954896546 1763.097285557725"/></g><g transform="translate(-10,-10) scale(1,1)"><path fill="none" stroke="#000000" d="M 140.76040162919296 1746.7619572368149 L 119 1750 L 136.67656954896546 1763.097285557725 L 140.76040162919296 1746.7619572368149" stroke-miterlimit="10"/></g></g></svg>