<svg version="1.1" xmlns="http://www.w3.org/2000/svg" xmlns:xlink="http://www.w3.org/1999/xlink" width="1705.01904296875" height="1531"><defs/><g><g transform="translate(-918,-286) scale(1,1)"><path fill="none" stroke="#000000" d="M 2463 1079 L 2316 1159" stroke-miterlimit="10"/></g><g transform="translate(-918,-286) scale(1,1)"><path fill="none" stroke="#000000" d="M 2322.9141934650575 1150.4446549615018 L 2316 1159 L 2326.9386155776906 1157.839530593465" stroke-miterlimit="10"/></g><g transform="translate(-918,-286) scale(1,1)"><path fill="none" stroke="#000000" d="M 2333 1037 L 2384 1072 L 2507 941" stroke-miterlimit="10"/></g><g transform="translate(-918,-286) scale(1,1)"><path fill="#FFFFFF" stroke="none" d="M 2503.1124942202323 951.2901554318811 L 2507 941 L 2496.9748796158774 945.527356986571 L 2491.9410819546215 957.0383598694683"/></g><g transform="translate(-918,-286) scale(1,1)"><path fill="none" stroke="#000000" d="M 2503.1124942202323 951.2901554318811 L 2507 941 L 2496.9748796158774 945.527356986571 L 2491.9410819546215 957.0383598694683 L 2503.1124942202323 951.2901554318811" stroke-miterlimit="10"/></g><g transform="translate(-918,-286) scale(1,1)"><path fill="none" stroke="#000000" d="M 1928 1432 L 1775 1719" stroke-miterlimit="10"/></g><g transform="translate(-918,-286) scale(1,1)"><path fill="#FFFFFF" stroke="none" d="M 1777.1323494580076 1697.1035828093056 L 1775 1719 L 1791.9909038408462 1705.024693682387"/></g><g transform="translate(-918,-286) scale(1,1)"><path fill="none" stroke="#000000" d="M 1777.1323494580076 1697.1035828093056 L 1775 1719 L 1791.9909038408462 1705.024693682387 L 1777.1323494580076 1697.1035828093056" stroke-miterlimit="10"/></g><g transform="translate(-918,-286) scale(1,1)"><path fill="none" stroke="#000000" d="M 1618 1432 L 1733 1719" stroke-miterlimit="10"/></g><g transform="translate(-918,-286) scale(1,1)"><path fill="#FFFFFF" stroke="none" d="M 1717.6250227888377 1703.264369229159 L 1733 1719 L 1733.2550205777077 1697.001478129089"/></g><g transform="translate(-918,-286) scale(1,1)"><path fill="none" stroke="#000000" d="M 1717.6250227888377 1703.264369229159 L 1733 1719 L 1733.2550205777077 1697.001478129089 L 1717.6250227888377 1703.264369229159" stroke-miterlimit="10"/></g><g transform="translate(-918,-286) scale(1,1)"><rect fill="#C0C0C0" stroke="none" x="2327" y="775" width="89.57080078125" height="57" opacity="0.2"/></g><g transform="translate(-918,-286) scale(1,1)"><rect fill="#ffffff" stroke="none" x="2320" y="768" width="89.57080078125" height="57"/></g><g transform="translate(-918,-286) scale(1,1)"><path fill="none" stroke="#000000" d="M 2320 768 L 2409.57080078125 768 L 2409.57080078125 825 L 2320 825 L 2320 768 Z Z" stroke-miterlimit="10"/></g><g transform="translate(-918,-286) scale(1,1)"><path fill="none" stroke="#000000" d="M 2320 806 L 2409.57080078125 806" stroke-miterlimit="10"/></g><g transform="translate(-918,-286) scale(1,1)"><path fill="none" stroke="#000000" d="M 2320 816 L 2409.57080078125 816" stroke-miterlimit="10"/></g><g transform="translate(-918,-286) scale(1,1)"><g><path fill="none" stroke="none"/><text fill="#000000" stroke="none" font-family="Arial" font-size="13px" font-style="normal" font-weight="normal" text-decoration="none" x="2330.450927734375" y="785.5">«Singleton»</text></g></g><g transform="translate(-918,-286) scale(1,1)"><g><path fill="none" stroke="none"/><text fill="#000000" stroke="none" font-family="Arial" font-size="13px" font-style="normal" font-weight="bold" text-decoration="none" x="2349.252685546875" y="800.5">Heroi</text></g></g><g transform="translate(-918,-286) scale(1,1)"><rect fill="#C0C0C0" stroke="none" x="1752" y="303" width="89.57080078125" height="57" opacity="0.2"/></g><g transform="translate(-918,-286) scale(1,1)"><rect fill="#ffffff" stroke="none" x="1745" y="296" width="89.57080078125" height="57"/></g><g transform="translate(-918,-286) scale(1,1)"><path fill="none" stroke="#000000" d="M 1745 296 L 1834.57080078125 296 L 1834.57080078125 353 L 1745 353 L 1745 296 Z Z" stroke-miterlimit="10"/></g><g transform="translate(-918,-286) scale(1,1)"><path fill="none" stroke="#000000" d="M 1745 321 L 1834.57080078125 321" stroke-miterlimit="10"/></g><g transform="translate(-918,-286) scale(1,1)"><path fill="none" stroke="#000000" d="M 1745 331 L 1834.57080078125 331" stroke-miterlimit="10"/></g><g transform="translate(-918,-286) scale(1,1)"><g><path fill="none" stroke="none"/><text fill="#000000" stroke="none" font-family="Arial" font-size="13px" font-style="normal" font-weight="bold" text-decoration="none" x="1753.654541015625" y="315.5">PoteDeOuro</text></g></g><g transform="translate(-918,-286) scale(1,1)"><g><path fill="none" stroke="none"/><text fill="#000000" stroke="none" font-family="Arial" font-size="13px" font-style="normal" font-weight="normal" text-decoration="none" x="1750" y="348.5">+clone()</text></g></g><g transform="translate(-918,-286) scale(1,1)"><rect fill="#C0C0C0" stroke="none" x="1519" y="303" width="89.57080078125" height="57" opacity="0.2"/></g><g transform="translate(-918,-286) scale(1,1)"><rect fill="#ffffff" stroke="none" x="1512" y="296" width="89.57080078125" height="57"/></g><g transform="translate(-918,-286) scale(1,1)"><path fill="none" stroke="#000000" d="M 1512 296 L 1601.57080078125 296 L 1601.57080078125 353 L 1512 353 L 1512 296 Z Z" stroke-miterlimit="10"/></g><g transform="translate(-918,-286) scale(1,1)"><path fill="none" stroke="#000000" d="M 1512 321 L 1601.57080078125 321" stroke-miterlimit="10"/></g><g transform="translate(-918,-286) scale(1,1)"><path fill="none" stroke="#000000" d="M 1512 331 L 1601.57080078125 331" stroke-miterlimit="10"/></g><g transform="translate(-918,-286) scale(1,1)"><g><path fill="none" stroke="none"/><text fill="#000000" stroke="none" font-family="Arial" font-size="13px" font-style="normal" font-weight="bold" text-decoration="none" x="1528.966796875" y="315.5">Diamante</text></g></g><g transform="translate(-918,-286) scale(1,1)"><g><path fill="none" stroke="none"/><text fill="#000000" stroke="none" font-family="Arial" font-size="13px" font-style="normal" font-weight="normal" text-decoration="none" x="1517" y="348.5">+clone()</text></g></g><g transform="translate(-918,-286) scale(1,1)"><rect fill="#C0C0C0" stroke="none" x="1894" y="303" width="89.57080078125" height="57" opacity="0.2"/></g><g transform="translate(-918,-286) scale(1,1)"><rect fill="#ffffff" stroke="none" x="1887" y="296" width="89.57080078125" height="57"/></g><g transform="translate(-918,-286) scale(1,1)"><path fill="none" stroke="#000000" d="M 1887 296 L 1976.57080078125 296 L 1976.57080078125 353 L 1887 353 L 1887 296 Z Z" stroke-miterlimit="10"/></g><g transform="translate(-918,-286) scale(1,1)"><path fill="none" stroke="#000000" d="M 1887 321 L 1976.57080078125 321" stroke-miterlimit="10"/></g><g transform="translate(-918,-286) scale(1,1)"><path fill="none" stroke="#000000" d="M 1887 331 L 1976.57080078125 331" stroke-miterlimit="10"/></g><g transform="translate(-918,-286) scale(1,1)"><g><path fill="none" stroke="none"/><text fill="#000000" stroke="none" font-family="Arial" font-size="13px" font-style="normal" font-weight="bold" text-decoration="none" x="1918.055419921875" y="315.5">Jaca</text></g></g><g transform="translate(-918,-286) scale(1,1)"><g><path fill="none" stroke="none"/><text fill="#000000" stroke="none" font-family="Arial" font-size="13px" font-style="normal" font-weight="normal" text-decoration="none" x="1892" y="348.5">+clone()</text></g></g><g transform="translate(-918,-286) scale(1,1)"><rect fill="#C0C0C0" stroke="none" x="1644" y="303" width="89.57080078125" height="57" opacity="0.2"/></g><g transform="translate(-918,-286) scale(1,1)"><rect fill="#ffffff" stroke="none" x="1637" y="296" width="89.57080078125" height="57"/></g><g transform="translate(-918,-286) scale(1,1)"><path fill="none" stroke="#000000" d="M 1637 296 L 1726.57080078125 296 L 1726.57080078125 353 L 1637 353 L 1637 296 Z Z" stroke-miterlimit="10"/></g><g transform="translate(-918,-286) scale(1,1)"><path fill="none" stroke="#000000" d="M 1637 321 L 1726.57080078125 321" stroke-miterlimit="10"/></g><g transform="translate(-918,-286) scale(1,1)"><path fill="none" stroke="#000000" d="M 1637 331 L 1726.57080078125 331" stroke-miterlimit="10"/></g><g transform="translate(-918,-286) scale(1,1)"><g><path fill="none" stroke="none"/><text fill="#000000" stroke="none" font-family="Arial" font-size="13px" font-style="normal" font-weight="bold" text-decoration="none" x="1669.140869140625" y="315.5">Acai</text></g></g><g transform="translate(-918,-286) scale(1,1)"><g><path fill="none" stroke="none"/><text fill="#000000" stroke="none" font-family="Arial" font-size="13px" font-style="normal" font-weight="normal" text-decoration="none" x="1642" y="348.5">+clone()</text></g></g><g transform="translate(-918,-286) scale(1,1)"><rect fill="#C0C0C0" stroke="none" x="1668" y="1511" width="89.91357421875" height="44" opacity="0.2"/></g><g transform="translate(-918,-286) scale(1,1)"><rect fill="#ffffff" stroke="none" x="1661" y="1504" width="89.91357421875" height="44"/></g><g transform="translate(-918,-286) scale(1,1)"><path fill="none" stroke="#000000" d="M 1661 1504 L 1750.91357421875 1504 L 1750.91357421875 1548 L 1661 1548 L 1661 1504 Z Z" stroke-miterlimit="10"/></g><g transform="translate(-918,-286) scale(1,1)"><path fill="none" stroke="#000000" d="M 1661 1529 L 1750.91357421875 1529" stroke-miterlimit="10"/></g><g transform="translate(-918,-286) scale(1,1)"><path fill="none" stroke="#000000" d="M 1661 1539 L 1750.91357421875 1539" stroke-miterlimit="10"/></g><g transform="translate(-918,-286) scale(1,1)"><g><path fill="none" stroke="none"/><text fill="#000000" stroke="none" font-family="Arial" font-size="13px" font-style="normal" font-weight="bold" text-decoration="none" x="1668.385009765625" y="1523.5">AguiaMarcial</text></g></g><g transform="translate(-918,-286) scale(1,1)"><rect fill="#C0C0C0" stroke="none" x="2118" y="1511" width="50.919921875" height="44" opacity="0.2"/></g><g transform="translate(-918,-286) scale(1,1)"><rect fill="#ffffff" stroke="none" x="2111" y="1504" width="50.919921875" height="44"/></g><g transform="translate(-918,-286) scale(1,1)"><path fill="none" stroke="#000000" d="M 2111 1504 L 2161.919921875 1504 L 2161.919921875 1548 L 2111 1548 L 2111 1504 Z Z" stroke-miterlimit="10"/></g><g transform="translate(-918,-286) scale(1,1)"><path fill="none" stroke="#000000" d="M 2111 1529 L 2161.919921875 1529" stroke-miterlimit="10"/></g><g transform="translate(-918,-286) scale(1,1)"><path fill="none" stroke="#000000" d="M 2111 1539 L 2161.919921875 1539" stroke-miterlimit="10"/></g><g transform="translate(-918,-286) scale(1,1)"><g><path fill="none" stroke="none"/><text fill="#000000" stroke="none" font-family="Arial" font-size="13px" font-style="normal" font-weight="bold" text-decoration="none" x="2121.64453125" y="1523.5">Piton</text></g></g><g transform="translate(-918,-286) scale(1,1)"><rect fill="#C0C0C0" stroke="none" x="1533" y="1511" width="50.919921875" height="44" opacity="0.2"/></g><g transform="translate(-918,-286) scale(1,1)"><rect fill="#ffffff" stroke="none" x="1526" y="1504" width="50.919921875" height="44"/></g><g transform="translate(-918,-286) scale(1,1)"><path fill="none" stroke="#000000" d="M 1526 1504 L 1576.919921875 1504 L 1576.919921875 1548 L 1526 1548 L 1526 1504 Z Z" stroke-miterlimit="10"/></g><g transform="translate(-918,-286) scale(1,1)"><path fill="none" stroke="#000000" d="M 1526 1529 L 1576.919921875 1529" stroke-miterlimit="10"/></g><g transform="translate(-918,-286) scale(1,1)"><path fill="none" stroke="#000000" d="M 1526 1539 L 1576.919921875 1539" stroke-miterlimit="10"/></g><g transform="translate(-918,-286) scale(1,1)"><g><path fill="none" stroke="none"/><text fill="#000000" stroke="none" font-family="Arial" font-size="13px" font-style="normal" font-weight="bold" text-decoration="none" x="1536.65087890625" y="1523.5">Tigre</text></g></g><g transform="translate(-918,-286) scale(1,1)"><rect fill="#C0C0C0" stroke="none" x="1842" y="1511" width="57.42626953125" height="44" opacity="0.2"/></g><g transform="translate(-918,-286) scale(1,1)"><rect fill="#ffffff" stroke="none" x="1835" y="1504" width="57.42626953125" height="44"/></g><g transform="translate(-918,-286) scale(1,1)"><path fill="none" stroke="#000000" d="M 1835 1504 L 1892.42626953125 1504 L 1892.42626953125 1548 L 1835 1548 L 1835 1504 Z Z" stroke-miterlimit="10"/></g><g transform="translate(-918,-286) scale(1,1)"><path fill="none" stroke="#000000" d="M 1835 1529 L 1892.42626953125 1529" stroke-miterlimit="10"/></g><g transform="translate(-918,-286) scale(1,1)"><path fill="none" stroke="#000000" d="M 1835 1539 L 1892.42626953125 1539" stroke-miterlimit="10"/></g><g transform="translate(-918,-286) scale(1,1)"><g><path fill="none" stroke="none"/><text fill="#000000" stroke="none" font-family="Arial" font-size="13px" font-style="normal" font-weight="bold" text-decoration="none" x="1840.594970703125" y="1523.5">Carcara</text></g></g><g transform="translate(-918,-286) scale(1,1)"><rect fill="#C0C0C0" stroke="none" x="1983" y="1511" width="50.919921875" height="44" opacity="0.2"/></g><g transform="translate(-918,-286) scale(1,1)"><rect fill="#ffffff" stroke="none" x="1976" y="1504" width="50.919921875" height="44"/></g><g transform="translate(-918,-286) scale(1,1)"><path fill="none" stroke="#000000" d="M 1976 1504 L 2026.919921875 1504 L 2026.919921875 1548 L 1976 1548 L 1976 1504 Z Z" stroke-miterlimit="10"/></g><g transform="translate(-918,-286) scale(1,1)"><path fill="none" stroke="#000000" d="M 1976 1529 L 2026.919921875 1529" stroke-miterlimit="10"/></g><g transform="translate(-918,-286) scale(1,1)"><path fill="none" stroke="#000000" d="M 1976 1539 L 2026.919921875 1539" stroke-miterlimit="10"/></g><g transform="translate(-918,-286) scale(1,1)"><g><path fill="none" stroke="none"/><text fill="#000000" stroke="none" font-family="Arial" font-size="13px" font-style="normal" font-weight="bold" text-decoration="none" x="1983.035888671875" y="1523.5">Sucuri</text></g></g><g transform="translate(-918,-286) scale(1,1)"><rect fill="#C0C0C0" stroke="none" x="1383" y="1511" width="66.0654296875" height="44" opacity="0.2"/></g><g transform="translate(-918,-286) scale(1,1)"><rect fill="#ffffff" stroke="none" x="1376" y="1504" width="66.0654296875" height="44"/></g><g transform="translate(-918,-286) scale(1,1)"><path fill="none" stroke="#000000" d="M 1376 1504 L 1442.0654296875 1504 L 1442.0654296875 1548 L 1376 1548 L 1376 1504 Z Z" stroke-miterlimit="10"/></g><g transform="translate(-918,-286) scale(1,1)"><path fill="none" stroke="#000000" d="M 1376 1529 L 1442.0654296875 1529" stroke-miterlimit="10"/></g><g transform="translate(-918,-286) scale(1,1)"><path fill="none" stroke="#000000" d="M 1376 1539 L 1442.0654296875 1539" stroke-miterlimit="10"/></g><g transform="translate(-918,-286) scale(1,1)"><g><path fill="none" stroke="none"/><text fill="#000000" stroke="none" font-family="Arial" font-size="13px" font-style="normal" font-weight="bold" text-decoration="none" x="1381.931396484375" y="1523.5">OPintada</text></g></g><g transform="translate(-918,-286) scale(1,1)"><rect fill="#C0C0C0" stroke="none" x="1007" y="1167" width="55.24267578125" height="44" opacity="0.2"/></g><g transform="translate(-918,-286) scale(1,1)"><rect fill="#ffffff" stroke="none" x="1000" y="1160" width="55.24267578125" height="44"/></g><g transform="translate(-918,-286) scale(1,1)"><path fill="none" stroke="#000000" d="M 1000 1160 L 1055.24267578125 1160 L 1055.24267578125 1204 L 1000 1204 L 1000 1160 Z Z" stroke-miterlimit="10"/></g><g transform="translate(-918,-286) scale(1,1)"><path fill="none" stroke="#000000" d="M 1000 1185 L 1055.24267578125 1185" stroke-miterlimit="10"/></g><g transform="translate(-918,-286) scale(1,1)"><path fill="none" stroke="#000000" d="M 1000 1195 L 1055.24267578125 1195" stroke-miterlimit="10"/></g><g transform="translate(-918,-286) scale(1,1)"><g><path fill="none" stroke="none"/><text fill="#000000" stroke="none" font-family="Arial" font-size="13px" font-style="normal" font-weight="bold" text-decoration="none" x="1005.94091796875" y="1179.5">Plantas</text></g></g><g transform="translate(-918,-286) scale(1,1)"><rect fill="#C0C0C0" stroke="none" x="935" y="1039" width="51.630859375" height="44" opacity="0.2"/></g><g transform="translate(-918,-286) scale(1,1)"><rect fill="#ffffff" stroke="none" x="928" y="1032" width="51.630859375" height="44"/></g><g transform="translate(-918,-286) scale(1,1)"><path fill="none" stroke="#000000" d="M 928 1032 L 979.630859375 1032 L 979.630859375 1076 L 928 1076 L 928 1032 Z Z" stroke-miterlimit="10"/></g><g transform="translate(-918,-286) scale(1,1)"><path fill="none" stroke="#000000" d="M 928 1057 L 979.630859375 1057" stroke-miterlimit="10"/></g><g transform="translate(-918,-286) scale(1,1)"><path fill="none" stroke="#000000" d="M 928 1067 L 979.630859375 1067" stroke-miterlimit="10"/></g><g transform="translate(-918,-286) scale(1,1)"><g><path fill="none" stroke="none"/><text fill="#000000" stroke="none" font-family="Arial" font-size="13px" font-style="normal" font-weight="bold" text-decoration="none" x="933.582275390625" y="1051.5">Relevo</text></g></g><g transform="translate(-918,-286) scale(1,1)"><rect fill="#C0C0C0" stroke="none" x="1159" y="1167" width="50.919921875" height="44" opacity="0.2"/></g><g transform="translate(-918,-286) scale(1,1)"><rect fill="#ffffff" stroke="none" x="1152" y="1160" width="50.919921875" height="44"/></g><g transform="translate(-918,-286) scale(1,1)"><path fill="none" stroke="#000000" d="M 1152 1160 L 1202.919921875 1160 L 1202.919921875 1204 L 1152 1204 L 1152 1160 Z Z" stroke-miterlimit="10"/></g><g transform="translate(-918,-286) scale(1,1)"><path fill="none" stroke="#000000" d="M 1152 1185 L 1202.919921875 1185" stroke-miterlimit="10"/></g><g transform="translate(-918,-286) scale(1,1)"><path fill="none" stroke="#000000" d="M 1152 1195 L 1202.919921875 1195" stroke-miterlimit="10"/></g><g transform="translate(-918,-286) scale(1,1)"><g><path fill="none" stroke="none"/><text fill="#000000" stroke="none" font-family="Arial" font-size="13px" font-style="normal" font-weight="bold" text-decoration="none" x="1162.279541015625" y="1179.5">Agua</text></g></g><g transform="translate(-918,-286) scale(1,1)"><rect fill="#C0C0C0" stroke="none" x="1733" y="783" width="50.919921875" height="44" opacity="0.2"/></g><g transform="translate(-918,-286) scale(1,1)"><rect fill="#ffffff" stroke="none" x="1726" y="776" width="50.919921875" height="44"/></g><g transform="translate(-918,-286) scale(1,1)"><path fill="none" stroke="#000000" d="M 1726 776 L 1776.919921875 776 L 1776.919921875 820 L 1726 820 L 1726 776 Z Z" stroke-miterlimit="10"/></g><g transform="translate(-918,-286) scale(1,1)"><path fill="none" stroke="#000000" d="M 1726 801 L 1776.919921875 801" stroke-miterlimit="10"/></g><g transform="translate(-918,-286) scale(1,1)"><path fill="none" stroke="#000000" d="M 1726 811 L 1776.919921875 811" stroke-miterlimit="10"/></g><g transform="translate(-918,-286) scale(1,1)"><g><path fill="none" stroke="none"/><text fill="#000000" stroke="none" font-family="Arial" font-size="13px" font-style="normal" font-weight="bold" text-decoration="none" x="1735.9208984375" y="795.5">Level</text></g></g><g transform="translate(-918,-286) scale(1,1)"><rect fill="#C0C0C0" stroke="none" x="1711" y="407" width="89.57080078125" height="57" opacity="0.2"/></g><g transform="translate(-918,-286) scale(1,1)"><rect fill="#ffffff" stroke="none" x="1704" y="400" width="89.57080078125" height="57"/></g><g transform="translate(-918,-286) scale(1,1)"><path fill="none" stroke="#000000" d="M 1704 400 L 1793.57080078125 400 L 1793.57080078125 457 L 1704 457 L 1704 400 Z Z" stroke-miterlimit="10"/></g><g transform="translate(-918,-286) scale(1,1)"><path fill="none" stroke="#000000" d="M 1704 425 L 1793.57080078125 425" stroke-miterlimit="10"/></g><g transform="translate(-918,-286) scale(1,1)"><path fill="none" stroke="#000000" d="M 1704 435 L 1793.57080078125 435" stroke-miterlimit="10"/></g><g transform="translate(-918,-286) scale(1,1)"><g><path fill="none" stroke="none"/><text fill="#000000" stroke="none" font-family="Arial" font-size="13px" font-style="italic" font-weight="bold" text-decoration="none" x="1730.361328125" y="419.5">Colect</text></g></g><g transform="translate(-918,-286) scale(1,1)"><g><path fill="none" stroke="none"/><text fill="#000000" stroke="none" font-family="Arial" font-size="13px" font-style="normal" font-weight="normal" text-decoration="none" x="1709" y="452.5">+clone()</text></g></g><g transform="translate(-918,-286) scale(1,1)"><path fill="none" stroke="#000000" d="M 1603 349 L 1703 404" stroke-miterlimit="10"/></g><g transform="translate(-918,-286) scale(1,1)"><path fill="#FFFFFF" stroke="none" d="M 1681.1333141618372 401.58172572790176 L 1703 404 L 1689.247896298329 386.8279400251896"/></g><g transform="translate(-918,-286) scale(1,1)"><path fill="none" stroke="#000000" d="M 1681.1333141618372 401.58172572790176 L 1703 404 L 1689.247896298329 386.8279400251896 L 1681.1333141618372 401.58172572790176" stroke-miterlimit="10"/></g><g transform="translate(-918,-286) scale(1,1)"><path fill="none" stroke="#000000" d="M 1700 354 L 1729 399" stroke-miterlimit="10"/></g><g transform="translate(-918,-286) scale(1,1)"><path fill="#FFFFFF" stroke="none" d="M 1710.9129335559433 386.47570251677644 L 1729 399 L 1725.066528345621 377.3544969856509"/></g><g transform="translate(-918,-286) scale(1,1)"><path fill="none" stroke="#000000" d="M 1710.9129335559433 386.47570251677644 L 1729 399 L 1725.066528345621 377.3544969856509 L 1710.9129335559433 386.47570251677644" stroke-miterlimit="10"/></g><g transform="translate(-918,-286) scale(1,1)"><path fill="none" stroke="#000000" d="M 1777 354 L 1759 399" stroke-miterlimit="10"/></g><g transform="translate(-918,-286) scale(1,1)"><path fill="#FFFFFF" stroke="none" d="M 1758.7317671452229 377.0016352622378 L 1759 399 L 1774.3655236105367 383.2551378483634"/></g><g transform="translate(-918,-286) scale(1,1)"><path fill="none" stroke="#000000" d="M 1758.7317671452229 377.0016352622378 L 1759 399 L 1774.3655236105367 383.2551378483634 L 1758.7317671452229 377.0016352622378" stroke-miterlimit="10"/></g><g transform="translate(-918,-286) scale(1,1)"><path fill="none" stroke="#000000" d="M 1886 350 L 1795 402" stroke-miterlimit="10"/></g><g transform="translate(-918,-286) scale(1,1)"><path fill="#FFFFFF" stroke="none" d="M 1808.4703341606175 384.60603272392126 L 1795 402 L 1816.8243568424737 399.22557241716936"/></g><g transform="translate(-918,-286) scale(1,1)"><path fill="none" stroke="#000000" d="M 1808.4703341606175 384.60603272392126 L 1795 402 L 1816.8243568424737 399.22557241716936 L 1808.4703341606175 384.60603272392126" stroke-miterlimit="10"/></g><g transform="translate(-918,-286) scale(1,1)"><rect fill="#C0C0C0" stroke="none" x="943" y="735" width="112.33349609375" height="72" opacity="0.2"/></g><g transform="translate(-918,-286) scale(1,1)"><rect fill="#ffffff" stroke="none" x="936" y="728" width="112.33349609375" height="72"/></g><g transform="translate(-918,-286) scale(1,1)"><path fill="none" stroke="#000000" d="M 936 728 L 1048.33349609375 728 L 1048.33349609375 800 L 936 800 L 936 728 Z Z" stroke-miterlimit="10"/></g><g transform="translate(-918,-286) scale(1,1)"><path fill="none" stroke="#000000" d="M 936 753 L 1048.33349609375 753" stroke-miterlimit="10"/></g><g transform="translate(-918,-286) scale(1,1)"><path fill="none" stroke="#000000" d="M 936 763 L 1048.33349609375 763" stroke-miterlimit="10"/></g><g transform="translate(-918,-286) scale(1,1)"><g><path fill="none" stroke="none"/><text fill="#000000" stroke="none" font-family="Arial" font-size="13px" font-style="italic" font-weight="bold" text-decoration="none" x="943.39453125" y="747.5">FabricaDeLevels</text></g></g><g transform="translate(-918,-286) scale(1,1)"><g><path fill="none" stroke="none"/><text fill="#000000" stroke="none" font-family="Arial" font-size="13px" font-style="normal" font-weight="normal" text-decoration="none" x="941" y="780.5">+createLvl()</text></g></g><g transform="translate(-918,-286) scale(1,1)"><rect fill="#C0C0C0" stroke="none" x="1310" y="883" width="50.919921875" height="44" opacity="0.2"/></g><g transform="translate(-918,-286) scale(1,1)"><rect fill="#ffffff" stroke="none" x="1303" y="876" width="50.919921875" height="44"/></g><g transform="translate(-918,-286) scale(1,1)"><path fill="none" stroke="#000000" d="M 1303 876 L 1353.919921875 876 L 1353.919921875 920 L 1303 920 L 1303 876 Z Z" stroke-miterlimit="10"/></g><g transform="translate(-918,-286) scale(1,1)"><path fill="none" stroke="#000000" d="M 1303 901 L 1353.919921875 901" stroke-miterlimit="10"/></g><g transform="translate(-918,-286) scale(1,1)"><path fill="none" stroke="#000000" d="M 1303 911 L 1353.919921875 911" stroke-miterlimit="10"/></g><g transform="translate(-918,-286) scale(1,1)"><g><path fill="none" stroke="none"/><text fill="#000000" stroke="none" font-family="Arial" font-size="13px" font-style="normal" font-weight="bold" text-decoration="none" x="1310.035888671875" y="895.5">LvlBra</text></g></g><g transform="translate(-918,-286) scale(1,1)"><rect fill="#C0C0C0" stroke="none" x="1206" y="567" width="50.919921875" height="44" opacity="0.2"/></g><g transform="translate(-918,-286) scale(1,1)"><rect fill="#ffffff" stroke="none" x="1199" y="560" width="50.919921875" height="44"/></g><g transform="translate(-918,-286) scale(1,1)"><path fill="none" stroke="#000000" d="M 1199 560 L 1249.919921875 560 L 1249.919921875 604 L 1199 604 L 1199 560 Z Z" stroke-miterlimit="10"/></g><g transform="translate(-918,-286) scale(1,1)"><path fill="none" stroke="#000000" d="M 1199 585 L 1249.919921875 585" stroke-miterlimit="10"/></g><g transform="translate(-918,-286) scale(1,1)"><path fill="none" stroke="#000000" d="M 1199 595 L 1249.919921875 595" stroke-miterlimit="10"/></g><g transform="translate(-918,-286) scale(1,1)"><g><path fill="none" stroke="none"/><text fill="#000000" stroke="none" font-family="Arial" font-size="13px" font-style="normal" font-weight="bold" text-decoration="none" x="1207.844970703125" y="579.5">LvlAfr</text></g></g><g transform="translate(-918,-286) scale(1,1)"><rect fill="#C0C0C0" stroke="none" x="1091" y="855" width="103.77685546875" height="72" opacity="0.2"/></g><g transform="translate(-918,-286) scale(1,1)"><rect fill="#ffffff" stroke="none" x="1084" y="848" width="103.77685546875" height="72"/></g><g transform="translate(-918,-286) scale(1,1)"><path fill="none" stroke="#000000" d="M 1084 848 L 1187.77685546875 848 L 1187.77685546875 920 L 1084 920 L 1084 848 Z Z" stroke-miterlimit="10"/></g><g transform="translate(-918,-286) scale(1,1)"><path fill="none" stroke="#000000" d="M 1084 873 L 1187.77685546875 873" stroke-miterlimit="10"/></g><g transform="translate(-918,-286) scale(1,1)"><path fill="none" stroke="#000000" d="M 1084 883 L 1187.77685546875 883" stroke-miterlimit="10"/></g><g transform="translate(-918,-286) scale(1,1)"><g><path fill="none" stroke="none"/><text fill="#000000" stroke="none" font-family="Arial" font-size="13px" font-style="normal" font-weight="bold" text-decoration="none" x="1095.790283203125" y="867.5">BraLvlFabrica</text></g></g><g transform="translate(-918,-286) scale(1,1)"><g><path fill="none" stroke="none"/><text fill="#000000" stroke="none" font-family="Arial" font-size="13px" font-style="normal" font-weight="normal" text-decoration="none" x="1089" y="900.5">+createLvl()</text></g></g><g transform="translate(-918,-286) scale(1,1)"><rect fill="#C0C0C0" stroke="none" x="987" y="567" width="103.77685546875" height="72" opacity="0.2"/></g><g transform="translate(-918,-286) scale(1,1)"><rect fill="#ffffff" stroke="none" x="980" y="560" width="103.77685546875" height="72"/></g><g transform="translate(-918,-286) scale(1,1)"><path fill="none" stroke="#000000" d="M 980 560 L 1083.77685546875 560 L 1083.77685546875 632 L 980 632 L 980 560 Z Z" stroke-miterlimit="10"/></g><g transform="translate(-918,-286) scale(1,1)"><path fill="none" stroke="#000000" d="M 980 585 L 1083.77685546875 585" stroke-miterlimit="10"/></g><g transform="translate(-918,-286) scale(1,1)"><path fill="none" stroke="#000000" d="M 980 595 L 1083.77685546875 595" stroke-miterlimit="10"/></g><g transform="translate(-918,-286) scale(1,1)"><g><path fill="none" stroke="none"/><text fill="#000000" stroke="none" font-family="Arial" font-size="13px" font-style="normal" font-weight="bold" text-decoration="none" x="993.599365234375" y="579.5">AfrLvlFabrica</text></g></g><g transform="translate(-918,-286) scale(1,1)"><g><path fill="none" stroke="none"/><text fill="#000000" stroke="none" font-family="Arial" font-size="13px" font-style="normal" font-weight="normal" text-decoration="none" x="985" y="612.5">+createLvl()</text></g></g><g transform="translate(-918,-286) scale(1,1)"><path fill="none" stroke="#000000" d="M 1091 847 L 1036 801" stroke-miterlimit="10"/></g><g transform="translate(-918,-286) scale(1,1)"><path fill="#FFFFFF" stroke="none" d="M 1056.9923816601893 807.5817864013464 L 1036 801 L 1046.1898296284623 820.4978812218894"/></g><g transform="translate(-918,-286) scale(1,1)"><path fill="none" stroke="#000000" d="M 1056.9923816601893 807.5817864013464 L 1036 801 L 1046.1898296284623 820.4978812218894 L 1056.9923816601893 807.5817864013464" stroke-miterlimit="10"/></g><g transform="translate(-918,-286) scale(1,1)"><path fill="none" stroke="#000000" d="M 1022 633 L 1001 727" stroke-miterlimit="10"/></g><g transform="translate(-918,-286) scale(1,1)"><path fill="#FFFFFF" stroke="none" d="M 997.2150368431878 705.3280353013029 L 1001 727 L 1013.648020085361 708.9992336851926"/></g><g transform="translate(-918,-286) scale(1,1)"><path fill="none" stroke="#000000" d="M 997.2150368431878 705.3280353013029 L 1001 727 L 1013.648020085361 708.9992336851926 L 997.2150368431878 705.3280353013029" stroke-miterlimit="10"/></g><g transform="translate(-918,-286) scale(1,1)"><path fill="none" stroke="#000000" d="M 1355 891 L 1632 816 L 1725 802" stroke-miterlimit="10"/></g><g transform="translate(-918,-286) scale(1,1)"><path fill="#FFFFFF" stroke="none" d="M 1706.1543715784499 813.3508717461199 L 1725 802 L 1703.64784996334 796.7004067314601"/></g><g transform="translate(-918,-286) scale(1,1)"><path fill="none" stroke="#000000" d="M 1706.1543715784499 813.3508717461199 L 1725 802 L 1703.64784996334 796.7004067314601 L 1706.1543715784499 813.3508717461199" stroke-miterlimit="10"/></g><g transform="translate(-918,-286) scale(1,1)"><path fill="none" stroke="#000000" d="M 1085 592 L 1198 584" stroke-miterlimit="10" stroke-dasharray="3"/></g><g transform="translate(-918,-286) scale(1,1)"><path fill="none" stroke="#000000" d="M 1188.1599730664395 588.91669298887 L 1198 584 L 1187.5654232747788 580.5186771816633" stroke-miterlimit="10"/></g><g transform="translate(-918,-286) scale(1,1)"><g><path fill="none" stroke="none"/><text fill="#000000" stroke="none" font-family="Arial" font-size="13px" font-style="normal" font-weight="normal" text-decoration="none" x="1124" y="580">+Cria</text></g></g><g transform="translate(-918,-286) scale(1,1)"><path fill="none" stroke="#000000" d="M 1189 888 L 1302 896" stroke-miterlimit="10" stroke-dasharray="3"/></g><g transform="translate(-918,-286) scale(1,1)"><path fill="none" stroke="#000000" d="M 1291.5654232747788 899.4813228183367 L 1302 896 L 1292.1599730664395 891.08330701113" stroke-miterlimit="10"/></g><g transform="translate(-918,-286) scale(1,1)"><g><path fill="none" stroke="none"/><text fill="#000000" stroke="none" font-family="Arial" font-size="13px" font-style="normal" font-weight="normal" text-decoration="none" x="1231" y="884">+Cria</text></g></g><g transform="translate(-918,-286) scale(1,1)"><rect fill="#C0C0C0" stroke="none" x="1710" y="1727" width="96.775390625" height="87" opacity="0.2"/></g><g transform="translate(-918,-286) scale(1,1)"><rect fill="#ffffff" stroke="none" x="1703" y="1720" width="96.775390625" height="87"/></g><g transform="translate(-918,-286) scale(1,1)"><path fill="none" stroke="#000000" d="M 1703 1720 L 1799.775390625 1720 L 1799.775390625 1807 L 1703 1807 L 1703 1720 Z Z" stroke-miterlimit="10"/></g><g transform="translate(-918,-286) scale(1,1)"><path fill="none" stroke="#000000" d="M 1703 1745 L 1799.775390625 1745" stroke-miterlimit="10"/></g><g transform="translate(-918,-286) scale(1,1)"><path fill="none" stroke="#000000" d="M 1703 1755 L 1799.775390625 1755" stroke-miterlimit="10"/></g><g transform="translate(-918,-286) scale(1,1)"><g><path fill="none" stroke="none"/><text fill="#000000" stroke="none" font-family="Arial" font-size="13px" font-style="italic" font-weight="bold" text-decoration="none" x="1720.68408203125" y="1739.5">AnimalFac</text></g></g><g transform="translate(-918,-286) scale(1,1)"><g><path fill="none" stroke="none"/><text fill="#000000" stroke="none" font-family="Arial" font-size="13px" font-style="normal" font-weight="normal" text-decoration="none" x="1708" y="1772.5">+CriaFelino()</text></g></g><g transform="translate(-918,-286) scale(1,1)"><g><path fill="none" stroke="none"/><text fill="#000000" stroke="none" font-family="Arial" font-size="13px" font-style="normal" font-weight="normal" text-decoration="none" x="1708" y="1787.5">+CriaPassaro()</text></g></g><g transform="translate(-918,-286) scale(1,1)"><g><path fill="none" stroke="none"/><text fill="#000000" stroke="none" font-family="Arial" font-size="13px" font-style="normal" font-weight="normal" text-decoration="none" x="1708" y="1802.5">+CriaCobra()</text></g></g><g transform="translate(-918,-286) scale(1,1)"><rect fill="#C0C0C0" stroke="none" x="1559" y="1351" width="96.775390625" height="87" opacity="0.2"/></g><g transform="translate(-918,-286) scale(1,1)"><rect fill="#ffffff" stroke="none" x="1552" y="1344" width="96.775390625" height="87"/></g><g transform="translate(-918,-286) scale(1,1)"><path fill="none" stroke="#000000" d="M 1552 1344 L 1648.775390625 1344 L 1648.775390625 1431 L 1552 1431 L 1552 1344 Z Z" stroke-miterlimit="10"/></g><g transform="translate(-918,-286) scale(1,1)"><path fill="none" stroke="#000000" d="M 1552 1369 L 1648.775390625 1369" stroke-miterlimit="10"/></g><g transform="translate(-918,-286) scale(1,1)"><path fill="none" stroke="#000000" d="M 1552 1379 L 1648.775390625 1379" stroke-miterlimit="10"/></g><g transform="translate(-918,-286) scale(1,1)"><g><path fill="none" stroke="none"/><text fill="#000000" stroke="none" font-family="Arial" font-size="13px" font-style="normal" font-weight="bold" text-decoration="none" x="1559.569091796875" y="1363.5">BraAnimalFac</text></g></g><g transform="translate(-918,-286) scale(1,1)"><g><path fill="none" stroke="none"/><text fill="#000000" stroke="none" font-family="Arial" font-size="13px" font-style="normal" font-weight="normal" text-decoration="none" x="1557" y="1396.5">+CriaFelino()</text></g></g><g transform="translate(-918,-286) scale(1,1)"><g><path fill="none" stroke="none"/><text fill="#000000" stroke="none" font-family="Arial" font-size="13px" font-style="normal" font-weight="normal" text-decoration="none" x="1557" y="1411.5">+CriaPassaro()</text></g></g><g transform="translate(-918,-286) scale(1,1)"><g><path fill="none" stroke="none"/><text fill="#000000" stroke="none" font-family="Arial" font-size="13px" font-style="normal" font-weight="normal" text-decoration="none" x="1557" y="1426.5">+CriaCobra()</text></g></g><g transform="translate(-918,-286) scale(1,1)"><rect fill="#C0C0C0" stroke="none" x="1911" y="1351" width="96.775390625" height="87" opacity="0.2"/></g><g transform="translate(-918,-286) scale(1,1)"><rect fill="#ffffff" stroke="none" x="1904" y="1344" width="96.775390625" height="87"/></g><g transform="translate(-918,-286) scale(1,1)"><path fill="none" stroke="#000000" d="M 1904 1344 L 2000.775390625 1344 L 2000.775390625 1431 L 1904 1431 L 1904 1344 Z Z" stroke-miterlimit="10"/></g><g transform="translate(-918,-286) scale(1,1)"><path fill="none" stroke="#000000" d="M 1904 1369 L 2000.775390625 1369" stroke-miterlimit="10"/></g><g transform="translate(-918,-286) scale(1,1)"><path fill="none" stroke="#000000" d="M 1904 1379 L 2000.775390625 1379" stroke-miterlimit="10"/></g><g transform="translate(-918,-286) scale(1,1)"><g><path fill="none" stroke="none"/><text fill="#000000" stroke="none" font-family="Arial" font-size="13px" font-style="normal" font-weight="bold" text-decoration="none" x="1913.378173828125" y="1363.5">AfrAnimalFac</text></g></g><g transform="translate(-918,-286) scale(1,1)"><g><path fill="none" stroke="none"/><text fill="#000000" stroke="none" font-family="Arial" font-size="13px" font-style="normal" font-weight="normal" text-decoration="none" x="1909" y="1396.5">+CriaFelino()</text></g></g><g transform="translate(-918,-286) scale(1,1)"><g><path fill="none" stroke="none"/><text fill="#000000" stroke="none" font-family="Arial" font-size="13px" font-style="normal" font-weight="normal" text-decoration="none" x="1909" y="1411.5">+CriaPassaro()</text></g></g><g transform="translate(-918,-286) scale(1,1)"><g><path fill="none" stroke="none"/><text fill="#000000" stroke="none" font-family="Arial" font-size="13px" font-style="normal" font-weight="normal" text-decoration="none" x="1909" y="1426.5">+CriaCobra()</text></g></g><g transform="translate(-918,-286) scale(1,1)"><rect fill="#C0C0C0" stroke="none" x="1391" y="1239" width="50.919921875" height="44" opacity="0.2"/></g><g transform="translate(-918,-286) scale(1,1)"><rect fill="#ffffff" stroke="none" x="1384" y="1232" width="50.919921875" height="44"/></g><g transform="translate(-918,-286) scale(1,1)"><path fill="none" stroke="#000000" d="M 1384 1232 L 1434.919921875 1232 L 1434.919921875 1276 L 1384 1276 L 1384 1232 Z Z" stroke-miterlimit="10"/></g><g transform="translate(-918,-286) scale(1,1)"><path fill="none" stroke="#000000" d="M 1384 1257 L 1434.919921875 1257" stroke-miterlimit="10"/></g><g transform="translate(-918,-286) scale(1,1)"><path fill="none" stroke="#000000" d="M 1384 1267 L 1434.919921875 1267" stroke-miterlimit="10"/></g><g transform="translate(-918,-286) scale(1,1)"><g><path fill="none" stroke="none"/><text fill="#000000" stroke="none" font-family="Arial" font-size="13px" font-style="normal" font-weight="bold" text-decoration="none" x="1391.75634765625" y="1251.5">Felino</text></g></g><g transform="translate(-918,-286) scale(1,1)"><rect fill="#C0C0C0" stroke="none" x="1729" y="1239" width="59.5908203125" height="44" opacity="0.2"/></g><g transform="translate(-918,-286) scale(1,1)"><rect fill="#ffffff" stroke="none" x="1722" y="1232" width="59.5908203125" height="44"/></g><g transform="translate(-918,-286) scale(1,1)"><path fill="none" stroke="#000000" d="M 1722 1232 L 1781.5908203125 1232 L 1781.5908203125 1276 L 1722 1276 L 1722 1232 Z Z" stroke-miterlimit="10"/></g><g transform="translate(-918,-286) scale(1,1)"><path fill="none" stroke="#000000" d="M 1722 1257 L 1781.5908203125 1257" stroke-miterlimit="10"/></g><g transform="translate(-918,-286) scale(1,1)"><path fill="none" stroke="#000000" d="M 1722 1267 L 1781.5908203125 1267" stroke-miterlimit="10"/></g><g transform="translate(-918,-286) scale(1,1)"><g><path fill="none" stroke="none"/><text fill="#000000" stroke="none" font-family="Arial" font-size="13px" font-style="normal" font-weight="bold" text-decoration="none" x="1727.950439453125" y="1251.5">Passaro</text></g></g><g transform="translate(-918,-286) scale(1,1)"><rect fill="#C0C0C0" stroke="none" x="2094" y="1223" width="50.919921875" height="44" opacity="0.2"/></g><g transform="translate(-918,-286) scale(1,1)"><rect fill="#ffffff" stroke="none" x="2087" y="1216" width="50.919921875" height="44"/></g><g transform="translate(-918,-286) scale(1,1)"><path fill="none" stroke="#000000" d="M 2087 1216 L 2137.919921875 1216 L 2137.919921875 1260 L 2087 1260 L 2087 1216 Z Z" stroke-miterlimit="10"/></g><g transform="translate(-918,-286) scale(1,1)"><path fill="none" stroke="#000000" d="M 2087 1241 L 2137.919921875 1241" stroke-miterlimit="10"/></g><g transform="translate(-918,-286) scale(1,1)"><path fill="none" stroke="#000000" d="M 2087 1251 L 2137.919921875 1251" stroke-miterlimit="10"/></g><g transform="translate(-918,-286) scale(1,1)"><g><path fill="none" stroke="none"/><text fill="#000000" stroke="none" font-family="Arial" font-size="13px" font-style="normal" font-weight="bold" text-decoration="none" x="2094.75634765625" y="1235.5">Cobra</text></g></g><g transform="translate(-918,-286) scale(1,1)"><path fill="none" stroke="#000000" d="M 1409 1503 L 1409 1277" stroke-miterlimit="10"/></g><g transform="translate(-918,-286) scale(1,1)"><path fill="#FFFFFF" stroke="none" d="M 1417.419035512032 1297.3253497152482 L 1409 1277 L 1400.580964487968 1297.3253497152482"/></g><g transform="translate(-918,-286) scale(1,1)"><path fill="none" stroke="#000000" d="M 1417.419035512032 1297.3253497152482 L 1409 1277 L 1400.580964487968 1297.3253497152482 L 1417.419035512032 1297.3253497152482" stroke-miterlimit="10"/></g><g transform="translate(-918,-286) scale(1,1)"><path fill="none" stroke="#000000" d="M 1539 1503 L 1421 1277" stroke-miterlimit="10"/></g><g transform="translate(-918,-286) scale(1,1)"><path fill="#FFFFFF" stroke="none" d="M 1437.870275866381 1291.1206866756613 L 1421 1277 L 1422.944253162235 1298.9139197689765"/></g><g transform="translate(-918,-286) scale(1,1)"><path fill="none" stroke="#000000" d="M 1437.870275866381 1291.1206866756613 L 1421 1277 L 1422.944253162235 1298.9139197689765 L 1437.870275866381 1291.1206866756613" stroke-miterlimit="10"/></g><g transform="translate(-918,-286) scale(1,1)"><path fill="none" stroke="#000000" d="M 1709 1503 L 1747 1277" stroke-miterlimit="10"/></g><g transform="translate(-918,-286) scale(1,1)"><path fill="#FFFFFF" stroke="none" d="M 1751.9322632975284 1298.439980848029 L 1747 1277 L 1735.3272809781288 1295.647992670431"/></g><g transform="translate(-918,-286) scale(1,1)"><path fill="none" stroke="#000000" d="M 1751.9322632975284 1298.439980848029 L 1747 1277 L 1735.3272809781288 1295.647992670431 L 1751.9322632975284 1298.439980848029" stroke-miterlimit="10"/></g><g transform="translate(-918,-286) scale(1,1)"><path fill="none" stroke="#000000" d="M 1854 1503 L 1760 1277" stroke-miterlimit="10"/></g><g transform="translate(-918,-286) scale(1,1)"><path fill="#FFFFFF" stroke="none" d="M 1775.579099275414 1292.5335657775927 L 1760 1277 L 1760.0321970450807 1298.9999764397667"/></g><g transform="translate(-918,-286) scale(1,1)"><path fill="none" stroke="#000000" d="M 1775.579099275414 1292.5335657775927 L 1760 1277 L 1760.0321970450807 1298.9999764397667 L 1775.579099275414 1292.5335657775927" stroke-miterlimit="10"/></g><g transform="translate(-918,-286) scale(1,1)"><path fill="none" stroke="#000000" d="M 2010 1503 L 2103 1261" stroke-miterlimit="10"/></g><g transform="translate(-918,-286) scale(1,1)"><path fill="#FFFFFF" stroke="none" d="M 2103.567584964962 1282.9926771291616 L 2103 1261 L 2087.8501720431477 1276.9525143121007"/></g><g transform="translate(-918,-286) scale(1,1)"><path fill="none" stroke="#000000" d="M 2103.567584964962 1282.9926771291616 L 2103 1261 L 2087.8501720431477 1276.9525143121007 L 2103.567584964962 1282.9926771291616" stroke-miterlimit="10"/></g><g transform="translate(-918,-286) scale(1,1)"><path fill="none" stroke="#000000" d="M 2134 1503 L 2114 1261" stroke-miterlimit="10"/></g><g transform="translate(-918,-286) scale(1,1)"><path fill="#FFFFFF" stroke="none" d="M 2124.064504011916 1280.5628668398608 L 2114 1261 L 2107.28364323419 1281.94971483802"/></g><g transform="translate(-918,-286) scale(1,1)"><path fill="none" stroke="#000000" d="M 2124.064504011916 1280.5628668398608 L 2114 1261 L 2107.28364323419 1281.94971483802 L 2124.064504011916 1280.5628668398608" stroke-miterlimit="10"/></g><g transform="translate(-918,-286) scale(1,1)"><path fill="none" stroke="#000000" d="M 1551 1423 L 1441 1503" stroke-miterlimit="10" stroke-dasharray="3"/></g><g transform="translate(-918,-286) scale(1,1)"><path fill="none" stroke="#000000" d="M 1446.7430026654522 1493.6182133692666 L 1441 1503 L 1451.6948410753505 1500.426991182877" stroke-miterlimit="10"/></g><g transform="translate(-918,-286) scale(1,1)"><g><path fill="none" stroke="none"/><text fill="#000000" stroke="none" font-family="Arial" font-size="13px" font-style="normal" font-weight="normal" text-decoration="none" x="1489" y="1482">+Cria</text></g></g><g transform="translate(-918,-286) scale(1,1)"><path fill="none" stroke="#000000" d="M 1650 1413 L 1834 1511" stroke-miterlimit="10" stroke-dasharray="3"/></g><g transform="translate(-918,-286) scale(1,1)"><path fill="none" stroke="#000000" d="M 1823.0513833641382 1509.9380236533086 L 1834 1511 L 1827.0090896083755 1502.5072282559652" stroke-miterlimit="10"/></g><g transform="translate(-918,-286) scale(1,1)"><g><path fill="none" stroke="none"/><text fill="#000000" stroke="none" font-family="Arial" font-size="13px" font-style="normal" font-weight="normal" text-decoration="none" x="1734" y="1455">+Cria</text></g></g><g transform="translate(-918,-286) scale(1,1)"><path fill="none" stroke="#000000" d="M 1650 1404 L 1975 1517" stroke-miterlimit="10" stroke-dasharray="3"/></g><g transform="translate(-918,-286) scale(1,1)"><path fill="none" stroke="#000000" d="M 1964.0185488758787 1517.6385383375616 L 1975 1517 L 1966.783426654328 1509.6864562314026" stroke-miterlimit="10"/></g><g transform="translate(-918,-286) scale(1,1)"><g><path fill="none" stroke="none"/><text fill="#000000" stroke="none" font-family="Arial" font-size="13px" font-style="normal" font-weight="normal" text-decoration="none" x="1801" y="1452">+Cria</text></g></g><g transform="translate(-918,-286) scale(1,1)"><path fill="none" stroke="#000000" d="M 1903 1404 L 1578 1517" stroke-miterlimit="10" stroke-dasharray="3"/></g><g transform="translate(-918,-286) scale(1,1)"><path fill="none" stroke="#000000" d="M 1586.216573345672 1509.6864562314026 L 1578 1517 L 1588.9814511241213 1517.6385383375616" stroke-miterlimit="10"/></g><g transform="translate(-918,-286) scale(1,1)"><g><path fill="none" stroke="none"/><text fill="#000000" stroke="none" font-family="Arial" font-size="13px" font-style="normal" font-weight="normal" text-decoration="none" x="1729" y="1481">+Cria</text></g></g><g transform="translate(-918,-286) scale(1,1)"><path fill="none" stroke="#000000" d="M 1903 1415 L 1746 1503" stroke-miterlimit="10" stroke-dasharray="3"/></g><g transform="translate(-918,-286) scale(1,1)"><path fill="none" stroke="#000000" d="M 1752.8068597381846 1494.3590127586783 L 1746 1503 L 1756.9232773539409 1501.703076004971" stroke-miterlimit="10"/></g><g transform="translate(-918,-286) scale(1,1)"><g><path fill="none" stroke="none"/><text fill="#000000" stroke="none" font-family="Arial" font-size="13px" font-style="normal" font-weight="normal" text-decoration="none" x="1816" y="1479">+Cria</text></g></g><g transform="translate(-918,-286) scale(1,1)"><path fill="none" stroke="#000000" d="M 2002 1425 L 2110 1506" stroke-miterlimit="10" stroke-dasharray="3"/></g><g transform="translate(-918,-286) scale(1,1)"><path fill="none" stroke="#000000" d="M 2099.344149460291 1503.2700092902382 L 2110 1506 L 2104.3955707675104 1496.5347808806127" stroke-miterlimit="10"/></g><g transform="translate(-918,-286) scale(1,1)"><g><path fill="none" stroke="none"/><text fill="#000000" stroke="none" font-family="Arial" font-size="13px" font-style="normal" font-weight="normal" text-decoration="none" x="2050" y="1460">+Cria</text></g></g><g transform="translate(-918,-286) scale(1,1)"><path fill="none" stroke="#000000" d="M 1748 458 L 1751 775" stroke-miterlimit="10"/></g><g transform="translate(-918,-286) scale(1,1)"><path fill="#FFFFFF" stroke="none" d="M 1746.6944983107596 764.8776161303798 L 1751 775 L 1755.1131568351097 764.7979442831462 L 1750.7918074301226 753.0009851162865"/></g><g transform="translate(-918,-286) scale(1,1)"><path fill="none" stroke="#000000" d="M 1746.6944983107596 764.8776161303798 L 1751 775 L 1755.1131568351097 764.7979442831462 L 1750.7918074301226 753.0009851162865 L 1746.6944983107596 764.8776161303798" stroke-miterlimit="10"/></g><g transform="translate(-918,-286) scale(1,1)"><path fill="none" stroke="#000000" d="M 2319 796 L 1778 798" stroke-miterlimit="10"/></g><g transform="translate(-918,-286) scale(1,1)"><path fill="#000000" stroke="none" d="M 1788.1470435312663 793.7529413031386 L 1778 798 L 1788.1781672946015 802.1719192853055 L 1799.9998496672179 797.9186696869973"/></g><g transform="translate(-918,-286) scale(1,1)"><path fill="none" stroke="#000000" d="M 1788.1470435312663 793.7529413031386 L 1778 798 L 1788.1781672946015 802.1719192853055 L 1799.9998496672179 797.9186696869973 L 1788.1470435312663 793.7529413031386" stroke-miterlimit="10"/></g><g transform="translate(-918,-286) scale(1,1)"><path fill="none" stroke="#000000" d="M 1778 798 L 2319 796" stroke-miterlimit="10"/></g><g transform="translate(-918,-286) scale(1,1)"><path fill="none" stroke="#000000" d="M 2308.8529564687337 800.2470586968614 L 2319 796 L 2308.8218327053983 791.8280807146945" stroke-miterlimit="10"/></g><g transform="translate(-918,-286) scale(1,1)"><path fill="none" stroke="#000000" d="M 2364 767 L 2360 432 L 1795 428" stroke-miterlimit="10"/></g><g transform="translate(-918,-286) scale(1,1)"><path fill="none" stroke="#000000" d="M 1805.1922213323037 423.8625340710368 L 1795 428 L 1805.1326190347245 432.281358604128" stroke-miterlimit="10"/></g><g transform="translate(-918,-286) scale(1,1)"><g><path fill="none" stroke="none"/><text fill="#000000" stroke="none" font-family="Arial" font-size="13px" font-style="normal" font-weight="normal" text-decoration="none" x="2368" y="437">+Coleta</text></g></g><g transform="translate(-918,-286) scale(1,1)"><rect fill="#C0C0C0" stroke="none" x="1733" y="1031" width="50.919921875" height="44" opacity="0.2"/></g><g transform="translate(-918,-286) scale(1,1)"><rect fill="#ffffff" stroke="none" x="1726" y="1024" width="50.919921875" height="44"/></g><g transform="translate(-918,-286) scale(1,1)"><path fill="none" stroke="#000000" d="M 1726 1024 L 1776.919921875 1024 L 1776.919921875 1068 L 1726 1068 L 1726 1024 Z Z" stroke-miterlimit="10"/></g><g transform="translate(-918,-286) scale(1,1)"><path fill="none" stroke="#000000" d="M 1726 1049 L 1776.919921875 1049" stroke-miterlimit="10"/></g><g transform="translate(-918,-286) scale(1,1)"><path fill="none" stroke="#000000" d="M 1726 1059 L 1776.919921875 1059" stroke-miterlimit="10"/></g><g transform="translate(-918,-286) scale(1,1)"><g><path fill="none" stroke="none"/><text fill="#000000" stroke="none" font-family="Arial" font-size="13px" font-style="normal" font-weight="bold" text-decoration="none" x="1738.094970703125" y="1043.5">Fera</text></g></g><g transform="translate(-918,-286) scale(1,1)"><path fill="none" stroke="#000000" d="M 1436 1238 L 1725 1062" stroke-miterlimit="10"/></g><g transform="translate(-918,-286) scale(1,1)"><path fill="#FFFFFF" stroke="none" d="M 1712.019466257148 1079.7624813511704 L 1725 1062 L 1703.2614055528963 1065.3813475811207"/></g><g transform="translate(-918,-286) scale(1,1)"><path fill="none" stroke="#000000" d="M 1712.019466257148 1079.7624813511704 L 1725 1062 L 1703.2614055528963 1065.3813475811207 L 1712.019466257148 1079.7624813511704" stroke-miterlimit="10"/></g><g transform="translate(-918,-286) scale(1,1)"><path fill="none" stroke="#000000" d="M 1751 1231 L 1751 1069" stroke-miterlimit="10"/></g><g transform="translate(-918,-286) scale(1,1)"><path fill="#FFFFFF" stroke="none" d="M 1759.419035512032 1089.3253497152482 L 1751 1069 L 1742.580964487968 1089.3253497152482"/></g><g transform="translate(-918,-286) scale(1,1)"><path fill="none" stroke="#000000" d="M 1759.419035512032 1089.3253497152482 L 1751 1069 L 1742.580964487968 1089.3253497152482 L 1759.419035512032 1089.3253497152482" stroke-miterlimit="10"/></g><g transform="translate(-918,-286) scale(1,1)"><path fill="none" stroke="#000000" d="M 2086 1224 L 1778 1060" stroke-miterlimit="10"/></g><g transform="translate(-918,-286) scale(1,1)"><path fill="#FFFFFF" stroke="none" d="M 1799.8974667203772 1062.121544538766 L 1778 1060 L 1791.9836886788348 1076.9840057387364"/></g><g transform="translate(-918,-286) scale(1,1)"><path fill="none" stroke="#000000" d="M 1799.8974667203772 1062.121544538766 L 1778 1060 L 1791.9836886788348 1076.9840057387364 L 1799.8974667203772 1062.121544538766" stroke-miterlimit="10"/></g><g transform="translate(-918,-286) scale(1,1)"><path fill="none" stroke="#000000" d="M 1751 1023 L 1751 821" stroke-miterlimit="10"/></g><g transform="translate(-918,-286) scale(1,1)"><path fill="#FFFFFF" stroke="none" d="M 1755.2095177560159 831.1626748576241 L 1751 821 L 1746.7904822439841 831.1626748576241 L 1751 843"/></g><g transform="translate(-918,-286) scale(1,1)"><path fill="none" stroke="#000000" d="M 1755.2095177560159 831.1626748576241 L 1751 821 L 1746.7904822439841 831.1626748576241 L 1751 843 L 1755.2095177560159 831.1626748576241" stroke-miterlimit="10"/></g><g transform="translate(-918,-286) scale(1,1)"><rect fill="#C0C0C0" stroke="none" x="1079" y="1055" width="57.40087890625" height="44" opacity="0.2"/></g><g transform="translate(-918,-286) scale(1,1)"><rect fill="#ffffff" stroke="none" x="1072" y="1048" width="57.40087890625" height="44"/></g><g transform="translate(-918,-286) scale(1,1)"><path fill="none" stroke="#000000" d="M 1072 1048 L 1129.40087890625 1048 L 1129.40087890625 1092 L 1072 1092 L 1072 1048 Z Z" stroke-miterlimit="10"/></g><g transform="translate(-918,-286) scale(1,1)"><path fill="none" stroke="#000000" d="M 1072 1073 L 1129.40087890625 1073" stroke-miterlimit="10"/></g><g transform="translate(-918,-286) scale(1,1)"><path fill="none" stroke="#000000" d="M 1072 1083 L 1129.40087890625 1083" stroke-miterlimit="10"/></g><g transform="translate(-918,-286) scale(1,1)"><g><path fill="none" stroke="none"/><text fill="#000000" stroke="none" font-family="Arial" font-size="13px" font-style="normal" font-weight="bold" text-decoration="none" x="1077.937744140625" y="1067.5">Cenario</text></g></g><g transform="translate(-918,-286) scale(1,1)"><path fill="none" stroke="#000000" d="M 981 1057 L 1071 1067" stroke-miterlimit="10"/></g><g transform="translate(-918,-286) scale(1,1)"><path fill="#FFFFFF" stroke="none" d="M 1049.8692385767897 1073.1229830699883 L 1071 1067 L 1051.7286924561336 1056.3878981558921"/></g><g transform="translate(-918,-286) scale(1,1)"><path fill="none" stroke="#000000" d="M 1049.8692385767897 1073.1229830699883 L 1071 1067 L 1051.7286924561336 1056.3878981558921 L 1049.8692385767897 1073.1229830699883" stroke-miterlimit="10"/></g><g transform="translate(-918,-286) scale(1,1)"><path fill="none" stroke="#000000" d="M 1042 1159 L 1085 1093" stroke-miterlimit="10"/></g><g transform="translate(-918,-286) scale(1,1)"><path fill="#FFFFFF" stroke="none" d="M 1080.9587872367194 1114.6256467973076 L 1085 1093 L 1066.8507895529453 1105.434072548788"/></g><g transform="translate(-918,-286) scale(1,1)"><path fill="none" stroke="#000000" d="M 1080.9587872367194 1114.6256467973076 L 1085 1093 L 1066.8507895529453 1105.434072548788 L 1080.9587872367194 1114.6256467973076" stroke-miterlimit="10"/></g><g transform="translate(-918,-286) scale(1,1)"><path fill="none" stroke="#000000" d="M 1161 1159 L 1116 1093" stroke-miterlimit="10"/></g><g transform="translate(-918,-286) scale(1,1)"><path fill="#FFFFFF" stroke="none" d="M 1134.4060553084248 1105.0506069549715 L 1116 1093 L 1120.4939806282077 1114.536112418756"/></g><g transform="translate(-918,-286) scale(1,1)"><path fill="none" stroke="#000000" d="M 1134.4060553084248 1105.0506069549715 L 1116 1093 L 1120.4939806282077 1114.536112418756 L 1134.4060553084248 1105.0506069549715" stroke-miterlimit="10"/></g><g transform="translate(-918,-286) scale(1,1)"><path fill="none" stroke="#000000" d="M 1130 1057 L 1725 809" stroke-miterlimit="10"/></g><g transform="translate(-918,-286) scale(1,1)"><path fill="#000000" stroke="none" d="M 1717.2390448311141 816.7953559807455 L 1725 809 L 1714.000026895848 809.0243250473443 L 1704.6933175670185 817.4639617535788"/></g><g transform="translate(-918,-286) scale(1,1)"><path fill="none" stroke="#000000" d="M 1717.2390448311141 816.7953559807455 L 1725 809 L 1714.000026895848 809.0243250473443 L 1704.6933175670185 817.4639617535788 L 1717.2390448311141 816.7953559807455" stroke-miterlimit="10"/></g><g transform="translate(-918,-286) scale(1,1)"><path fill="none" stroke="#000000" d="M 2319 808 L 2032 888 L 1778 1031" stroke-miterlimit="10"/></g><g transform="translate(-918,-286) scale(1,1)"><path fill="none" stroke="#000000" d="M 1784.790541411701 1022.3461830770477 L 1778 1031 L 1788.9208105095083 1029.6824652507753" stroke-miterlimit="10"/></g><g transform="translate(-918,-286) scale(1,1)"><g><path fill="none" stroke="none"/><text fill="#000000" stroke="none" font-family="Arial" font-size="13px" font-style="normal" font-weight="normal" text-decoration="none" x="2043" y="898">+Defende</text></g></g><g transform="translate(-918,-286) scale(1,1)"><path fill="none" stroke="#000000" d="M 1778 1024 L 1960 872 L 2319 804" stroke-miterlimit="10"/></g><g transform="translate(-918,-286) scale(1,1)"><path fill="none" stroke="#000000" d="M 2309.7982863162747 810.0273099540959 L 2319 804 L 2308.2314541148467 801.7553575965552" stroke-miterlimit="10"/></g><g transform="translate(-918,-286) scale(1,1)"><g><path fill="none" stroke="none"/><text fill="#000000" stroke="none" font-family="Arial" font-size="13px" font-style="normal" font-weight="normal" text-decoration="none" x="1906" y="855">+Ataca</text></g></g><g transform="translate(-918,-286) scale(1,1)"><path fill="none" stroke="#000000" d="M 1005 801 L 1092 1047" stroke-miterlimit="10"/></g><g transform="translate(-918,-286) scale(1,1)"><path fill="none" stroke="#000000" d="M 1251 594 L 1448 680 L 1725 788" stroke-miterlimit="10"/></g><g transform="translate(-918,-286) scale(1,1)"><path fill="#FFFFFF" stroke="none" d="M 1703.0048217690583 788.4605807085684 L 1725 788 L 1709.121380577182 772.7727400618068"/></g><g transform="translate(-918,-286) scale(1,1)"><path fill="none" stroke="#000000" d="M 1703.0048217690583 788.4605807085684 L 1725 788 L 1709.121380577182 772.7727400618068 L 1703.0048217690583 788.4605807085684" stroke-miterlimit="10"/></g><g transform="translate(-918,-286) scale(1,1)"><path fill="none" stroke="#000000" d="M 1049 767 L 1725 797" stroke-miterlimit="10" stroke-dasharray="3"/></g><g transform="translate(-918,-286) scale(1,1)"><path fill="none" stroke="#000000" d="M 1714.6606886919226 800.7548157977006 L 1725 797 L 1715.0339471485993 792.3440585739202" stroke-miterlimit="10"/></g><g transform="translate(-918,-286) scale(1,1)"><g><path fill="none" stroke="none"/><text fill="#000000" stroke="none" font-family="Arial" font-size="13px" font-style="normal" font-weight="normal" text-decoration="none" x="1372" y="774">+Cria</text></g></g><g transform="translate(-918,-286) scale(1,1)"><path fill="#ffffff" stroke="none" d="M 1088 376 L 1269 376 L 1279 386 L 1279 439 L 1088 439 L 1088 376"/></g><g transform="translate(-918,-286) scale(1,1)"><path fill="none" stroke="#000000" d="M 1088 376 L 1269 376 L 1279 386 L 1279 439 L 1088 439 L 1088 376 L 1088 376" stroke-miterlimit="10"/></g><g transform="translate(-918,-286) scale(1,1)"><path fill="none" stroke="#000000" d="M 1269 376 L 1269 386 L 1279 386 L 1269 376" stroke-miterlimit="10"/></g><g transform="translate(-918,-286) scale(1,1)"><g><path fill="none" stroke="none"/><text fill="#000000" stroke="none" font-family="Arial" font-size="13px" font-style="normal" font-weight="normal" text-decoration="none" x="1093" y="394">Suelen Maia - 31386271</text></g></g><g transform="translate(-918,-286) scale(1,1)"><g><path fill="none" stroke="none"/></g></g><g transform="translate(-918,-286) scale(1,1)"><g><path fill="none" stroke="none"/><text fill="#000000" stroke="none" font-family="Arial" font-size="13px" font-style="normal" font-weight="normal" text-decoration="none" x="1093" y="411">Gabriel Correia - 31371477</text></g></g><g transform="translate(-918,-286) scale(1,1)"><g><path fill="none" stroke="none"/></g></g><g transform="translate(-918,-286) scale(1,1)"><g><path fill="none" stroke="none"/><text fill="#000000" stroke="none" font-family="Arial" font-size="13px" font-style="normal" font-weight="normal" text-decoration="none" x="1093" y="428">Vitor Kawai Sala - 31410669</text></g></g><g transform="translate(-918,-286) scale(1,1)"><rect fill="#C0C0C0" stroke="none" x="2391" y="623" width="66.79541015625" height="44" opacity="0.2"/></g><g transform="translate(-918,-286) scale(1,1)"><rect fill="#ffffff" stroke="none" x="2384" y="616" width="66.79541015625" height="44"/></g><g transform="translate(-918,-286) scale(1,1)"><path fill="none" stroke="#000000" d="M 2384 616 L 2450.79541015625 616 L 2450.79541015625 660 L 2384 660 L 2384 616 Z Z" stroke-miterlimit="10"/></g><g transform="translate(-918,-286) scale(1,1)"><path fill="none" stroke="#000000" d="M 2384 641 L 2450.79541015625 641" stroke-miterlimit="10"/></g><g transform="translate(-918,-286) scale(1,1)"><path fill="none" stroke="#000000" d="M 2384 651 L 2450.79541015625 651" stroke-miterlimit="10"/></g><g transform="translate(-918,-286) scale(1,1)"><g><path fill="none" stroke="none"/><text fill="#000000" stroke="none" font-family="Arial" font-size="13px" font-style="normal" font-weight="bold" text-decoration="none" x="2389.92822265625" y="635.5">Vajandao</text></g></g><g transform="translate(-918,-286) scale(1,1)"><rect fill="#C0C0C0" stroke="none" x="2383" y="543" width="74.736328125" height="44" opacity="0.2"/></g><g transform="translate(-918,-286) scale(1,1)"><rect fill="#ffffff" stroke="none" x="2376" y="536" width="74.736328125" height="44"/></g><g transform="translate(-918,-286) scale(1,1)"><path fill="none" stroke="#000000" d="M 2376 536 L 2450.736328125 536 L 2450.736328125 580 L 2376 580 L 2376 536 Z Z" stroke-miterlimit="10"/></g><g transform="translate(-918,-286) scale(1,1)"><path fill="none" stroke="#000000" d="M 2376 561 L 2450.736328125 561" stroke-miterlimit="10"/></g><g transform="translate(-918,-286) scale(1,1)"><path fill="none" stroke="#000000" d="M 2376 571 L 2450.736328125 571" stroke-miterlimit="10"/></g><g transform="translate(-918,-286) scale(1,1)"><g><path fill="none" stroke="none"/><text fill="#000000" stroke="none" font-family="Arial" font-size="13px" font-style="normal" font-weight="bold" text-decoration="none" x="2382.28369140625" y="555.5">Vajandona</text></g></g><g transform="translate(-918,-286) scale(1,1)"><path fill="none" stroke="#000000" d="M 2409 661 L 2374 767" stroke-miterlimit="10"/></g><g transform="translate(-918,-286) scale(1,1)"><path fill="#FFFFFF" stroke="none" d="M 2372.3782819105622 745.0598534544914 L 2374 767 L 2388.3672985443413 750.3392457392299"/></g><g transform="translate(-918,-286) scale(1,1)"><path fill="none" stroke="#000000" d="M 2372.3782819105622 745.0598534544914 L 2374 767 L 2388.3672985443413 750.3392457392299 L 2372.3782819105622 745.0598534544914" stroke-miterlimit="10"/></g><g transform="translate(-918,-286) scale(1,1)"><path fill="none" stroke="#000000" d="M 2408 581 L 2370 767" stroke-miterlimit="10"/></g><g transform="translate(-918,-286) scale(1,1)"><path fill="#FFFFFF" stroke="none" d="M 2365.819801990513 745.4007883337961 L 2370 767 L 2382.3171026782456 748.7712046033329"/></g><g transform="translate(-918,-286) scale(1,1)"><path fill="none" stroke="#000000" d="M 2365.819801990513 745.4007883337961 L 2370 767 L 2382.3171026782456 748.7712046033329 L 2365.819801990513 745.4007883337961" stroke-miterlimit="10"/></g><g transform="translate(-918,-286) scale(1,1)"><rect fill="#C0C0C0" stroke="none" x="2111" y="911" width="71.86083984375" height="44" opacity="0.2"/></g><g transform="translate(-918,-286) scale(1,1)"><rect fill="#ffffff" stroke="none" x="2104" y="904" width="71.86083984375" height="44"/></g><g transform="translate(-918,-286) scale(1,1)"><path fill="none" stroke="#000000" d="M 2104 904 L 2175.86083984375 904 L 2175.86083984375 948 L 2104 948 L 2104 904 Z Z" stroke-miterlimit="10"/></g><g transform="translate(-918,-286) scale(1,1)"><path fill="none" stroke="#000000" d="M 2104 929 L 2175.86083984375 929" stroke-miterlimit="10"/></g><g transform="translate(-918,-286) scale(1,1)"><path fill="none" stroke="#000000" d="M 2104 939 L 2175.86083984375 939" stroke-miterlimit="10"/></g><g transform="translate(-918,-286) scale(1,1)"><g><path fill="none" stroke="none"/><text fill="#000000" stroke="none" font-family="Arial" font-size="13px" font-style="italic" font-weight="bold" text-decoration="none" x="2111.391357421875" y="923.5">Acessorio</text></g></g><g transform="translate(-918,-286) scale(1,1)"><path fill="none" stroke="#000000" d="M 2177 904 L 2319 822" stroke-miterlimit="10"/></g><g transform="translate(-918,-286) scale(1,1)"><path fill="#FFFFFF" stroke="none" d="M 2312.304373817741 830.7274618319102 L 2319 822 L 2308.094229878344 823.436724766125 L 2299.9483859263873 833.0016362960299"/></g><g transform="translate(-918,-286) scale(1,1)"><path fill="none" stroke="#000000" d="M 2312.304373817741 830.7274618319102 L 2319 822 L 2308.094229878344 823.436724766125 L 2299.9483859263873 833.0016362960299 L 2312.304373817741 830.7274618319102" stroke-miterlimit="10"/></g><g transform="translate(-918,-286) scale(1,1)"><rect fill="#C0C0C0" stroke="none" x="2255" y="887" width="86.99365234375" height="44" opacity="0.2"/></g><g transform="translate(-918,-286) scale(1,1)"><rect fill="#ffffff" stroke="none" x="2248" y="880" width="86.99365234375" height="44"/></g><g transform="translate(-918,-286) scale(1,1)"><path fill="none" stroke="#000000" d="M 2248 880 L 2334.99365234375 880 L 2334.99365234375 924 L 2248 924 L 2248 880 Z Z" stroke-miterlimit="10"/></g><g transform="translate(-918,-286) scale(1,1)"><path fill="none" stroke="#000000" d="M 2248 905 L 2334.99365234375 905" stroke-miterlimit="10"/></g><g transform="translate(-918,-286) scale(1,1)"><path fill="none" stroke="#000000" d="M 2248 915 L 2334.99365234375 915" stroke-miterlimit="10"/></g><g transform="translate(-918,-286) scale(1,1)"><g><path fill="none" stroke="none"/><text fill="#000000" stroke="none" font-family="Arial" font-size="13px" font-style="normal" font-weight="bold" text-decoration="none" x="2255.369140625" y="899.5">CintoMagico</text></g></g><g transform="translate(-918,-286) scale(1,1)"><path fill="none" stroke="#000000" d="M 2247 909 L 2177 920" stroke-miterlimit="10"/></g><g transform="translate(-918,-286) scale(1,1)"><path fill="#FFFFFF" stroke="none" d="M 2195.77199521235 908.5277641347678 L 2177 920 L 2198.385900886731 925.1617093353767"/></g><g transform="translate(-918,-286) scale(1,1)"><path fill="none" stroke="#000000" d="M 2195.77199521235 908.5277641347678 L 2177 920 L 2198.385900886731 925.1617093353767 L 2195.77199521235 908.5277641347678" stroke-miterlimit="10"/></g><g transform="translate(-918,-286) scale(1,1)"><rect fill="#C0C0C0" stroke="none" x="2255" y="999" width="105.05908203125" height="44" opacity="0.2"/></g><g transform="translate(-918,-286) scale(1,1)"><rect fill="#ffffff" stroke="none" x="2248" y="992" width="105.05908203125" height="44"/></g><g transform="translate(-918,-286) scale(1,1)"><path fill="none" stroke="#000000" d="M 2248 992 L 2353.05908203125 992 L 2353.05908203125 1036 L 2248 1036 L 2248 992 Z Z" stroke-miterlimit="10"/></g><g transform="translate(-918,-286) scale(1,1)"><path fill="none" stroke="#000000" d="M 2248 1017 L 2353.05908203125 1017" stroke-miterlimit="10"/></g><g transform="translate(-918,-286) scale(1,1)"><path fill="none" stroke="#000000" d="M 2248 1027 L 2353.05908203125 1027" stroke-miterlimit="10"/></g><g transform="translate(-918,-286) scale(1,1)"><g><path fill="none" stroke="none"/><text fill="#000000" stroke="none" font-family="Arial" font-size="13px" font-style="normal" font-weight="bold" text-decoration="none" x="2256.095947265625" y="1011.5">Compartimento</text></g></g><g transform="translate(-918,-286) scale(1,1)"><path fill="none" stroke="#000000" d="M 2300 992 L 2300 972 L 2382 972 L 2382 1014 L 2353 1014" stroke-miterlimit="10"/></g><g transform="translate(-918,-286) scale(1,1)"><path fill="#FFFFFF" stroke="none" d="M 2363.162674857624 1009.790482243984 L 2353 1014 L 2363.162674857624 1018.209517756016 L 2375 1014"/></g><g transform="translate(-918,-286) scale(1,1)"><path fill="none" stroke="#000000" d="M 2363.162674857624 1009.790482243984 L 2353 1014 L 2363.162674857624 1018.209517756016 L 2375 1014 L 2363.162674857624 1009.790482243984" stroke-miterlimit="10"/></g><g transform="translate(-918,-286) scale(1,1)"><path fill="none" stroke="#000000" d="M 2298 991 L 2293 925" stroke-miterlimit="10"/></g><g transform="translate(-918,-286) scale(1,1)"><path fill="#000000" stroke="none" d="M 2297.965189617587 934.8156452697418 L 2293 925 L 2289.570209916517 935.451628580429 L 2294.6619044800464 946.9371391366149"/></g><g transform="translate(-918,-286) scale(1,1)"><path fill="none" stroke="#000000" d="M 2297.965189617587 934.8156452697418 L 2293 925 L 2289.570209916517 935.451628580429 L 2294.6619044800464 946.9371391366149 L 2297.965189617587 934.8156452697418" stroke-miterlimit="10"/></g><g transform="translate(-918,-286) scale(1,1)"><g><path fill="none" stroke="none"/><text fill="#000000" stroke="none" font-family="Arial" font-size="13px" font-style="normal" font-weight="normal" text-decoration="none" x="2306" y="975">*</text></g></g><g transform="translate(-918,-286) scale(1,1)"><rect fill="#C0C0C0" stroke="none" x="2087" y="1095" width="63.1962890625" height="44" opacity="0.2"/></g><g transform="translate(-918,-286) scale(1,1)"><rect fill="#ffffff" stroke="none" x="2080" y="1088" width="63.1962890625" height="44"/></g><g transform="translate(-918,-286) scale(1,1)"><path fill="none" stroke="#000000" d="M 2080 1088 L 2143.1962890625 1088 L 2143.1962890625 1132 L 2080 1132 L 2080 1088 Z Z" stroke-miterlimit="10"/></g><g transform="translate(-918,-286) scale(1,1)"><path fill="none" stroke="#000000" d="M 2080 1113 L 2143.1962890625 1113" stroke-miterlimit="10"/></g><g transform="translate(-918,-286) scale(1,1)"><path fill="none" stroke="#000000" d="M 2080 1123 L 2143.1962890625 1123" stroke-miterlimit="10"/></g><g transform="translate(-918,-286) scale(1,1)"><g><path fill="none" stroke="none"/><text fill="#000000" stroke="none" font-family="Arial" font-size="13px" font-style="normal" font-weight="bold" text-decoration="none" x="2086.674072265625" y="1107.5">Mascara</text></g></g><g transform="translate(-918,-286) scale(1,1)"><rect fill="#C0C0C0" stroke="none" x="2018" y="1095" width="53.0654296875" height="44" opacity="0.2"/></g><g transform="translate(-918,-286) scale(1,1)"><rect fill="#ffffff" stroke="none" x="2011" y="1088" width="53.0654296875" height="44"/></g><g transform="translate(-918,-286) scale(1,1)"><path fill="none" stroke="#000000" d="M 2011 1088 L 2064.0654296875 1088 L 2064.0654296875 1132 L 2011 1132 L 2011 1088 Z Z" stroke-miterlimit="10"/></g><g transform="translate(-918,-286) scale(1,1)"><path fill="none" stroke="#000000" d="M 2011 1113 L 2064.0654296875 1113" stroke-miterlimit="10"/></g><g transform="translate(-918,-286) scale(1,1)"><path fill="none" stroke="#000000" d="M 2011 1123 L 2064.0654296875 1123" stroke-miterlimit="10"/></g><g transform="translate(-918,-286) scale(1,1)"><g><path fill="none" stroke="none"/><text fill="#000000" stroke="none" font-family="Arial" font-size="13px" font-style="normal" font-weight="bold" text-decoration="none" x="2017.302734375" y="1107.5">Oculos</text></g></g><g transform="translate(-918,-286) scale(1,1)"><rect fill="#C0C0C0" stroke="none" x="2271" y="1159" width="50.919921875" height="44" opacity="0.2"/></g><g transform="translate(-918,-286) scale(1,1)"><rect fill="#ffffff" stroke="none" x="2264" y="1152" width="50.919921875" height="44"/></g><g transform="translate(-918,-286) scale(1,1)"><path fill="none" stroke="#000000" d="M 2264 1152 L 2314.919921875 1152 L 2314.919921875 1196 L 2264 1196 L 2264 1152 Z Z" stroke-miterlimit="10"/></g><g transform="translate(-918,-286) scale(1,1)"><path fill="none" stroke="#000000" d="M 2264 1177 L 2314.919921875 1177" stroke-miterlimit="10"/></g><g transform="translate(-918,-286) scale(1,1)"><path fill="none" stroke="#000000" d="M 2264 1187 L 2314.919921875 1187" stroke-miterlimit="10"/></g><g transform="translate(-918,-286) scale(1,1)"><g><path fill="none" stroke="none"/><text fill="#000000" stroke="none" font-family="Arial" font-size="13px" font-style="normal" font-weight="bold" text-decoration="none" x="2275.364990234375" y="1171.5">Luva</text></g></g><g transform="translate(-918,-286) scale(1,1)"><rect fill="#C0C0C0" stroke="none" x="2166" y="1095" width="50.919921875" height="44" opacity="0.2"/></g><g transform="translate(-918,-286) scale(1,1)"><rect fill="#ffffff" stroke="none" x="2159" y="1088" width="50.919921875" height="44"/></g><g transform="translate(-918,-286) scale(1,1)"><path fill="none" stroke="#000000" d="M 2159 1088 L 2209.919921875 1088 L 2209.919921875 1132 L 2159 1132 L 2159 1088 Z Z" stroke-miterlimit="10"/></g><g transform="translate(-918,-286) scale(1,1)"><path fill="none" stroke="#000000" d="M 2159 1113 L 2209.919921875 1113" stroke-miterlimit="10"/></g><g transform="translate(-918,-286) scale(1,1)"><path fill="none" stroke="#000000" d="M 2159 1123 L 2209.919921875 1123" stroke-miterlimit="10"/></g><g transform="translate(-918,-286) scale(1,1)"><g><path fill="none" stroke="none"/><text fill="#000000" stroke="none" font-family="Arial" font-size="13px" font-style="normal" font-weight="bold" text-decoration="none" x="2168.9208984375" y="1107.5">Capa</text></g></g><g transform="translate(-918,-286) scale(1,1)"><path fill="none" stroke="#000000" d="M 2275 1151 L 2153 949" stroke-miterlimit="10"/></g><g transform="translate(-918,-286) scale(1,1)"><path fill="#FFFFFF" stroke="none" d="M 2170.7145682050505 962.0458450591987 L 2153 949 L 2156.3012857959143 970.7508968112511"/></g><g transform="translate(-918,-286) scale(1,1)"><path fill="none" stroke="#000000" d="M 2170.7145682050505 962.0458450591987 L 2153 949 L 2156.3012857959143 970.7508968112511 L 2170.7145682050505 962.0458450591987" stroke-miterlimit="10"/></g><g transform="translate(-918,-286) scale(1,1)"><path fill="none" stroke="#000000" d="M 2050 1087 L 2126 949" stroke-miterlimit="10"/></g><g transform="translate(-918,-286) scale(1,1)"><path fill="#FFFFFF" stroke="none" d="M 2123.5695644320363 970.8653374762425 L 2126 949 L 2108.8202941262725 962.7425509310393"/></g><g transform="translate(-918,-286) scale(1,1)"><path fill="none" stroke="#000000" d="M 2123.5695644320363 970.8653374762425 L 2126 949 L 2108.8202941262725 962.7425509310393 L 2123.5695644320363 970.8653374762425" stroke-miterlimit="10"/></g><g transform="translate(-918,-286) scale(1,1)"><path fill="none" stroke="#000000" d="M 2115 1087 L 2136 949" stroke-miterlimit="10"/></g><g transform="translate(-918,-286) scale(1,1)"><path fill="#FFFFFF" stroke="none" d="M 2141.265430898816 970.3606001191398 L 2136 949 L 2124.6189966999636 967.8274470888798"/></g><g transform="translate(-918,-286) scale(1,1)"><path fill="none" stroke="#000000" d="M 2141.265430898816 970.3606001191398 L 2136 949 L 2124.6189966999636 967.8274470888798 L 2141.265430898816 970.3606001191398" stroke-miterlimit="10"/></g><g transform="translate(-918,-286) scale(1,1)"><path fill="none" stroke="#000000" d="M 2178 1087 L 2145 949" stroke-miterlimit="10"/></g><g transform="translate(-918,-286) scale(1,1)"><path fill="#FFFFFF" stroke="none" d="M 2157.9153081202217 966.8099639572837 L 2145 949 L 2141.538955666039 970.7260482398056"/></g><g transform="translate(-918,-286) scale(1,1)"><path fill="none" stroke="#000000" d="M 2157.9153081202217 966.8099639572837 L 2145 949 L 2141.538955666039 970.7260482398056 L 2157.9153081202217 966.8099639572837" stroke-miterlimit="10"/></g><g transform="translate(-918,-286) scale(1,1)"><rect fill="#C0C0C0" stroke="none" x="2511" y="903" width="50.919921875" height="44" opacity="0.2"/></g><g transform="translate(-918,-286) scale(1,1)"><rect fill="#ffffff" stroke="none" x="2504" y="896" width="50.919921875" height="44"/></g><g transform="translate(-918,-286) scale(1,1)"><path fill="none" stroke="#000000" d="M 2504 896 L 2554.919921875 896 L 2554.919921875 940 L 2504 940 L 2504 896 Z Z" stroke-miterlimit="10"/></g><g transform="translate(-918,-286) scale(1,1)"><path fill="none" stroke="#000000" d="M 2504 921 L 2554.919921875 921" stroke-miterlimit="10"/></g><g transform="translate(-918,-286) scale(1,1)"><path fill="none" stroke="#000000" d="M 2504 931 L 2554.919921875 931" stroke-miterlimit="10"/></g><g transform="translate(-918,-286) scale(1,1)"><g><path fill="none" stroke="none"/><text fill="#000000" stroke="none" font-family="Arial" font-size="13px" font-style="italic" font-weight="bold" text-decoration="none" x="2516.094970703125" y="915.5">Objs</text></g></g><g transform="translate(-918,-286) scale(1,1)"><rect fill="#C0C0C0" stroke="none" x="2471" y="1047" width="61.0126953125" height="44" opacity="0.2"/></g><g transform="translate(-918,-286) scale(1,1)"><rect fill="#ffffff" stroke="none" x="2464" y="1040" width="61.0126953125" height="44"/></g><g transform="translate(-918,-286) scale(1,1)"><path fill="none" stroke="#000000" d="M 2464 1040 L 2525.0126953125 1040 L 2525.0126953125 1084 L 2464 1084 L 2464 1040 Z Z" stroke-miterlimit="10"/></g><g transform="translate(-918,-286) scale(1,1)"><path fill="none" stroke="#000000" d="M 2464 1065 L 2525.0126953125 1065" stroke-miterlimit="10"/></g><g transform="translate(-918,-286) scale(1,1)"><path fill="none" stroke="#000000" d="M 2464 1075 L 2525.0126953125 1075" stroke-miterlimit="10"/></g><g transform="translate(-918,-286) scale(1,1)"><g><path fill="none" stroke="none"/><text fill="#000000" stroke="none" font-family="Arial" font-size="13px" font-style="normal" font-weight="bold" text-decoration="none" x="2470.302734375" y="1059.5">Magicos</text></g></g><g transform="translate(-918,-286) scale(1,1)"><path fill="none" stroke="#000000" d="M 2500 1039 L 2523 941" stroke-miterlimit="10"/></g><g transform="translate(-918,-286) scale(1,1)"><path fill="#FFFFFF" stroke="none" d="M 2526.552279734371 962.7113175254008 L 2523 941 L 2510.15962123814 958.8640609395507"/></g><g transform="translate(-918,-286) scale(1,1)"><path fill="none" stroke="#000000" d="M 2526.552279734371 962.7113175254008 L 2523 941 L 2510.15962123814 958.8640609395507 L 2526.552279734371 962.7113175254008" stroke-miterlimit="10"/></g><g transform="translate(-918,-286) scale(1,1)"><rect fill="#C0C0C0" stroke="none" x="2559" y="1047" width="61.01904296875" height="44" opacity="0.2"/></g><g transform="translate(-918,-286) scale(1,1)"><rect fill="#ffffff" stroke="none" x="2552" y="1040" width="61.01904296875" height="44"/></g><g transform="translate(-918,-286) scale(1,1)"><path fill="none" stroke="#000000" d="M 2552 1040 L 2613.01904296875 1040 L 2613.01904296875 1084 L 2552 1084 L 2552 1040 Z Z" stroke-miterlimit="10"/></g><g transform="translate(-918,-286) scale(1,1)"><path fill="none" stroke="#000000" d="M 2552 1065 L 2613.01904296875 1065" stroke-miterlimit="10"/></g><g transform="translate(-918,-286) scale(1,1)"><path fill="none" stroke="#000000" d="M 2552 1075 L 2613.01904296875 1075" stroke-miterlimit="10"/></g><g transform="translate(-918,-286) scale(1,1)"><g><path fill="none" stroke="none"/><text fill="#000000" stroke="none" font-family="Arial" font-size="13px" font-style="normal" font-weight="bold" text-decoration="none" x="2558.312255859375" y="1059.5">Normais</text></g></g><g transform="translate(-918,-286) scale(1,1)"><path fill="none" stroke="#000000" d="M 2574 1039 L 2537 941" stroke-miterlimit="10"/></g><g transform="translate(-918,-286) scale(1,1)"><path fill="#FFFFFF" stroke="none" d="M 2552.0555797547195 957.0414936414686 L 2537 941 L 2536.3028536050138 962.9889514735005"/></g><g transform="translate(-918,-286) scale(1,1)"><path fill="none" stroke="#000000" d="M 2552.0555797547195 957.0414936414686 L 2537 941 L 2536.3028536050138 962.9889514735005 L 2552.0555797547195 957.0414936414686" stroke-miterlimit="10"/></g><g transform="translate(-918,-286) scale(1,1)"><rect fill="#C0C0C0" stroke="none" x="2247" y="471" width="71.1435546875" height="44" opacity="0.2"/></g><g transform="translate(-918,-286) scale(1,1)"><rect fill="#ffffff" stroke="none" x="2240" y="464" width="71.1435546875" height="44"/></g><g transform="translate(-918,-286) scale(1,1)"><path fill="none" stroke="#000000" d="M 2240 464 L 2311.1435546875 464 L 2311.1435546875 508 L 2240 508 L 2240 464 Z Z" stroke-miterlimit="10"/></g><g transform="translate(-918,-286) scale(1,1)"><path fill="none" stroke="#000000" d="M 2240 489 L 2311.1435546875 489" stroke-miterlimit="10"/></g><g transform="translate(-918,-286) scale(1,1)"><path fill="none" stroke="#000000" d="M 2240 499 L 2311.1435546875 499" stroke-miterlimit="10"/></g><g transform="translate(-918,-286) scale(1,1)"><g><path fill="none" stroke="none"/><text fill="#000000" stroke="none" font-family="Arial" font-size="13px" font-style="normal" font-weight="bold" text-decoration="none" x="2247.0390625" y="483.5">Emissario</text></g></g><g transform="translate(-918,-286) scale(1,1)"><rect fill="#C0C0C0" stroke="none" x="1983" y="479" width="126.75537109375" height="44" opacity="0.2"/></g><g transform="translate(-918,-286) scale(1,1)"><rect fill="#ffffff" stroke="none" x="1976" y="472" width="126.75537109375" height="44"/></g><g transform="translate(-918,-286) scale(1,1)"><path fill="none" stroke="#000000" d="M 1976 472 L 2102.75537109375 472 L 2102.75537109375 516 L 1976 516 L 1976 472 Z Z" stroke-miterlimit="10"/></g><g transform="translate(-918,-286) scale(1,1)"><path fill="none" stroke="#000000" d="M 1976 497 L 2102.75537109375 497" stroke-miterlimit="10"/></g><g transform="translate(-918,-286) scale(1,1)"><path fill="none" stroke="#000000" d="M 1976 507 L 2102.75537109375 507" stroke-miterlimit="10"/></g><g transform="translate(-918,-286) scale(1,1)"><g><path fill="none" stroke="none"/><text fill="#000000" stroke="none" font-family="Arial" font-size="13px" font-style="normal" font-weight="bold" text-decoration="none" x="1985.549560546875" y="491.5">EmissarioAquatico</text></g></g><g transform="translate(-918,-286) scale(1,1)"><rect fill="#C0C0C0" stroke="none" x="2071" y="543" width="131.83984375" height="44" opacity="0.2"/></g><g transform="translate(-918,-286) scale(1,1)"><rect fill="#ffffff" stroke="none" x="2064" y="536" width="131.83984375" height="44"/></g><g transform="translate(-918,-286) scale(1,1)"><path fill="none" stroke="#000000" d="M 2064 536 L 2195.83984375 536 L 2195.83984375 580 L 2064 580 L 2064 536 Z Z" stroke-miterlimit="10"/></g><g transform="translate(-918,-286) scale(1,1)"><path fill="none" stroke="#000000" d="M 2064 561 L 2195.83984375 561" stroke-miterlimit="10"/></g><g transform="translate(-918,-286) scale(1,1)"><path fill="none" stroke="#000000" d="M 2064 571 L 2195.83984375 571" stroke-miterlimit="10"/></g><g transform="translate(-918,-286) scale(1,1)"><g><path fill="none" stroke="none"/><text fill="#000000" stroke="none" font-family="Arial" font-size="13px" font-style="normal" font-weight="bold" text-decoration="none" x="2078.272216796875" y="555.5">EmisarioTerrestre</text></g></g><g transform="translate(-918,-286) scale(1,1)"><path fill="none" stroke="#000000" d="M 2176 535 L 2239 504" stroke-miterlimit="10"/></g><g transform="translate(-918,-286) scale(1,1)"><path fill="#FFFFFF" stroke="none" d="M 2224.4799964325657 520.5278400404194 L 2239 504 L 2217.045859243667 505.41975478556134"/></g><g transform="translate(-918,-286) scale(1,1)"><path fill="none" stroke="#000000" d="M 2224.4799964325657 520.5278400404194 L 2239 504 L 2217.045859243667 505.41975478556134 L 2224.4799964325657 520.5278400404194" stroke-miterlimit="10"/></g><g transform="translate(-918,-286) scale(1,1)"><path fill="none" stroke="#000000" d="M 2104 492 L 2239 487" stroke-miterlimit="10"/></g><g transform="translate(-918,-286) scale(1,1)"><path fill="#FFFFFF" stroke="none" d="M 2219.0001790122474 496.1655420165881 L 2239 487 L 2218.3769740438634 479.33900787022264"/></g><g transform="translate(-918,-286) scale(1,1)"><path fill="none" stroke="#000000" d="M 2219.0001790122474 496.1655420165881 L 2239 487 L 2218.3769740438634 479.33900787022264 L 2219.0001790122474 496.1655420165881" stroke-miterlimit="10"/></g><g transform="translate(-918,-286) scale(1,1)"><path fill="none" stroke="#000000" d="M 2093 581 L 1778 781" stroke-miterlimit="10"/></g><g transform="translate(-918,-286) scale(1,1)"><path fill="none" stroke="#000000" d="M 1784.3231245833415 771.998994750388 L 1778 781 L 1788.8357961206646 779.1064524216717" stroke-miterlimit="10"/></g><g transform="translate(-918,-286) scale(1,1)"><g><path fill="none" stroke="none"/><text fill="#000000" stroke="none" font-family="Arial" font-size="13px" font-style="normal" font-weight="normal" text-decoration="none" x="1918" y="700">+Explora</text></g></g><g transform="translate(-918,-286) scale(1,1)"><path fill="none" stroke="#000000" d="M 2017 517 L 1773 775" stroke-miterlimit="10"/></g><g transform="translate(-918,-286) scale(1,1)"><path fill="none" stroke="#000000" d="M 1776.9245706437962 764.7239236446077 L 1773 775 L 1783.0413737903625 770.5088072405853" stroke-miterlimit="10"/></g><g transform="translate(-918,-286) scale(1,1)"><g><path fill="none" stroke="none"/><text fill="#000000" stroke="none" font-family="Arial" font-size="13px" font-style="normal" font-weight="normal" text-decoration="none" x="1891" y="658">+Explora</text></g></g><g transform="translate(-918,-286) scale(1,1)"><rect fill="#C0C0C0" stroke="none" x="2079" y="671" width="117.38623046875" height="44" opacity="0.2"/></g><g transform="translate(-918,-286) scale(1,1)"><rect fill="#ffffff" stroke="none" x="2072" y="664" width="117.38623046875" height="44"/></g><g transform="translate(-918,-286) scale(1,1)"><path fill="none" stroke="#000000" d="M 2072 664 L 2189.38623046875 664 L 2189.38623046875 708 L 2072 708 L 2072 664 Z Z" stroke-miterlimit="10"/></g><g transform="translate(-918,-286) scale(1,1)"><path fill="none" stroke="#000000" d="M 2072 689 L 2189.38623046875 689" stroke-miterlimit="10"/></g><g transform="translate(-918,-286) scale(1,1)"><path fill="none" stroke="#000000" d="M 2072 699 L 2189.38623046875 699" stroke-miterlimit="10"/></g><g transform="translate(-918,-286) scale(1,1)"><g><path fill="none" stroke="none"/><text fill="#000000" stroke="none" font-family="Arial" font-size="13px" font-style="normal" font-weight="bold" text-decoration="none" x="2080.486328125" y="683.5">FabricaEmissario</text></g></g><g transform="translate(-918,-286) scale(1,1)"><path fill="none" stroke="#000000" d="M 2130 663 L 2129 581" stroke-miterlimit="10" stroke-dasharray="3"/></g><g transform="translate(-918,-286) scale(1,1)"><path fill="none" stroke="#000000" d="M 2133.333130613477 591.1105874748479 L 2129 581 L 2124.9147210753117 591.2132510058011" stroke-miterlimit="10"/></g><g transform="translate(-918,-286) scale(1,1)"><g><path fill="none" stroke="none"/><text fill="#000000" stroke="none" font-family="Arial" font-size="13px" font-style="normal" font-weight="normal" text-decoration="none" x="2131" y="659">+cria</text></g></g><g transform="translate(-918,-286) scale(1,1)"><path fill="none" stroke="#000000" d="M 2095 663 L 2000 600 L 2031 517" stroke-miterlimit="10" stroke-dasharray="3"/></g><g transform="translate(-918,-286) scale(1,1)"><path fill="none" stroke="#000000" d="M 2031.3876632692377 527.9931668408009 L 2031 517 L 2023.5007765066493 525.0474621463402" stroke-miterlimit="10"/></g><g transform="translate(-918,-286) scale(1,1)"><g><path fill="none" stroke="none"/><text fill="#000000" stroke="none" font-family="Arial" font-size="13px" font-style="normal" font-weight="normal" text-decoration="none" x="1971" y="601">+cria</text></g></g><g transform="translate(-918,-286) scale(1,1)"><path fill="none" stroke="#000000" d="M 2356 767 L 2282 509" stroke-miterlimit="10"/></g><g transform="translate(-918,-286) scale(1,1)"><path fill="#FFFFFF" stroke="none" d="M 2288.8482680689094 517.60820680841 L 2282 509 L 2280.755535382826 519.929378198992 L 2288.06551314813 530.1473296245616"/></g><g transform="translate(-918,-286) scale(1,1)"><path fill="none" stroke="#000000" d="M 2288.8482680689094 517.60820680841 L 2282 509 L 2280.755535382826 519.929378198992 L 2288.06551314813 530.1473296245616 L 2288.8482680689094 517.60820680841" stroke-miterlimit="10"/></g></g></svg>