<svg version="1.1" xmlns="http://www.w3.org/2000/svg" xmlns:xlink="http://www.w3.org/1999/xlink" width="504.32080078125" height="304"><defs/><g><g transform="translate(-1061,-574) scale(1,1)"><rect fill="#C0C0C0" stroke="none" x="1078" y="597" width="93.50634765625" height="62" opacity="0.2"/></g><g transform="translate(-1061,-574) scale(1,1)"><rect fill="#ffffff" stroke="none" x="1071" y="590" width="93.50634765625" height="62"/></g><g transform="translate(-1061,-574) scale(1,1)"><path fill="none" stroke="#000000" d="M 1071 590 L 1164.50634765625 590 L 1164.50634765625 652 L 1071 652 L 1071 590 Z Z" stroke-miterlimit="10"/></g><g transform="translate(-1061,-574) scale(1,1)"><path fill="none" stroke="#000000" d="M 1071 643 L 1164.50634765625 643" stroke-miterlimit="10"/></g><g transform="translate(-1061,-574) scale(1,1)"><g><path fill="none" stroke="none"/><text fill="#000000" stroke="none" font-family="Arial" font-size="13px" font-style="normal" font-weight="normal" text-decoration="none" x="1087.40185546875" y="607.5">«abstract»</text></g></g><g transform="translate(-1061,-574) scale(1,1)"><g><path fill="none" stroke="none"/><text fill="#000000" stroke="none" font-family="Arial" font-size="13px" font-style="italic" font-weight="bold" text-decoration="none" x="1094.990478515625" y="622.5">Cenario</text></g></g><g transform="translate(-1061,-574) scale(1,1)"><g><path fill="none" stroke="none"/><text fill="#000000" stroke="none" font-family="Arial" font-size="13px" font-style="normal" font-weight="normal" text-decoration="none" x="1075.5" y="637.5">(from Classes)</text></g></g><g transform="translate(-1061,-574) scale(1,1)"><rect fill="#C0C0C0" stroke="none" x="1460" y="591" width="93.50634765625" height="75" opacity="0.2"/></g><g transform="translate(-1061,-574) scale(1,1)"><rect fill="#ffffff" stroke="none" x="1453" y="584" width="93.50634765625" height="75"/></g><g transform="translate(-1061,-574) scale(1,1)"><path fill="none" stroke="#000000" d="M 1453 584 L 1546.50634765625 584 L 1546.50634765625 659 L 1453 659 L 1453 584 Z Z" stroke-miterlimit="10"/></g><g transform="translate(-1061,-574) scale(1,1)"><path fill="none" stroke="#000000" d="M 1453 637 L 1546.50634765625 637" stroke-miterlimit="10"/></g><g transform="translate(-1061,-574) scale(1,1)"><g><path fill="none" stroke="none"/><text fill="#000000" stroke="none" font-family="Arial" font-size="13px" font-style="normal" font-weight="normal" text-decoration="none" x="1469.40185546875" y="601.5">«abstract»</text></g></g><g transform="translate(-1061,-574) scale(1,1)"><g><path fill="none" stroke="none"/><text fill="#000000" stroke="none" font-family="Arial" font-size="13px" font-style="italic" font-weight="bold" text-decoration="none" x="1478.0791015625" y="616.5">Fabrica</text></g></g><g transform="translate(-1061,-574) scale(1,1)"><g><path fill="none" stroke="none"/><text fill="#000000" stroke="none" font-family="Arial" font-size="13px" font-style="normal" font-weight="normal" text-decoration="none" x="1457.5" y="631.5">(from Classes)</text></g></g><g transform="translate(-1061,-574) scale(1,1)"><g><path fill="none" stroke="none"/><text fill="#000000" stroke="none" font-family="Arial" font-size="13px" font-style="normal" font-weight="normal" text-decoration="none" x="1458" y="654.5">+getMapa()</text></g></g><g transform="translate(-1061,-574) scale(1,1)"><path fill="none" stroke="#000000" d="M 1452 621 L 1166 621" stroke-miterlimit="10" stroke-dasharray="3"/></g><g transform="translate(-1061,-574) scale(1,1)"><path fill="none" stroke="#000000" d="M 1176.162674857624 616.790482243984 L 1166 621 L 1176.162674857624 625.209517756016" stroke-miterlimit="10"/></g><g transform="translate(-1061,-574) scale(1,1)"><g><path fill="none" stroke="none"/><text fill="#000000" stroke="none" font-family="Arial" font-size="13px" font-style="normal" font-weight="normal" text-decoration="none" x="1291" y="658">«use»</text></g></g><g transform="translate(-1061,-574) scale(1,1)"><rect fill="#C0C0C0" stroke="none" x="1078" y="815" width="93.50634765625" height="49" opacity="0.2"/></g><g transform="translate(-1061,-574) scale(1,1)"><rect fill="#ffffff" stroke="none" x="1071" y="808" width="93.50634765625" height="49"/></g><g transform="translate(-1061,-574) scale(1,1)"><path fill="none" stroke="#000000" d="M 1071 808 L 1164.50634765625 808 L 1164.50634765625 857 L 1071 857 L 1071 808 Z Z" stroke-miterlimit="10"/></g><g transform="translate(-1061,-574) scale(1,1)"><path fill="none" stroke="#000000" d="M 1071 848 L 1164.50634765625 848" stroke-miterlimit="10"/></g><g transform="translate(-1061,-574) scale(1,1)"><g><path fill="none" stroke="none"/><text fill="#000000" stroke="none" font-family="Arial" font-size="13px" font-style="normal" font-weight="bold" text-decoration="none" x="1101.49365234375" y="827.5">Mapa</text></g></g><g transform="translate(-1061,-574) scale(1,1)"><g><path fill="none" stroke="none"/><text fill="#000000" stroke="none" font-family="Arial" font-size="13px" font-style="normal" font-weight="normal" text-decoration="none" x="1075.5" y="842.5">(from Classes)</text></g></g><g transform="translate(-1061,-574) scale(1,1)"><path fill="none" stroke="#000000" d="M 1117 807 L 1117 653" stroke-miterlimit="10"/></g><g transform="translate(-1061,-574) scale(1,1)"><path fill="#FFFFFF" stroke="none" d="M 1125.419035512032 673.3253497152483 L 1117 653 L 1108.580964487968 673.3253497152483"/></g><g transform="translate(-1061,-574) scale(1,1)"><path fill="none" stroke="#000000" d="M 1125.419035512032 673.3253497152483 L 1117 653 L 1108.580964487968 673.3253497152483 L 1125.419035512032 673.3253497152483" stroke-miterlimit="10"/></g><g transform="translate(-1061,-574) scale(1,1)"><rect fill="#C0C0C0" stroke="none" x="1450" y="808" width="112.32080078125" height="62" opacity="0.2"/></g><g transform="translate(-1061,-574) scale(1,1)"><rect fill="#ffffff" stroke="none" x="1443" y="801" width="112.32080078125" height="62"/></g><g transform="translate(-1061,-574) scale(1,1)"><path fill="none" stroke="#000000" d="M 1443 801 L 1555.32080078125 801 L 1555.32080078125 863 L 1443 863 L 1443 801 Z Z" stroke-miterlimit="10"/></g><g transform="translate(-1061,-574) scale(1,1)"><path fill="none" stroke="#000000" d="M 1443 841 L 1555.32080078125 841" stroke-miterlimit="10"/></g><g transform="translate(-1061,-574) scale(1,1)"><g><path fill="none" stroke="none"/><text fill="#000000" stroke="none" font-family="Arial" font-size="13px" font-style="normal" font-weight="bold" text-decoration="none" x="1449.667724609375" y="820.5">FabricaDeMapas</text></g></g><g transform="translate(-1061,-574) scale(1,1)"><g><path fill="none" stroke="none"/><text fill="#000000" stroke="none" font-family="Arial" font-size="13px" font-style="normal" font-weight="normal" text-decoration="none" x="1456.9072265625" y="835.5">(from Classes)</text></g></g><g transform="translate(-1061,-574) scale(1,1)"><g><path fill="none" stroke="none"/><text fill="#000000" stroke="none" font-family="Arial" font-size="13px" font-style="normal" font-weight="normal" text-decoration="none" x="1448" y="858.5">+getMapa()</text></g></g><g transform="translate(-1061,-574) scale(1,1)"><path fill="none" stroke="#000000" d="M 1442 832 L 1166 832" stroke-miterlimit="10" stroke-dasharray="3"/></g><g transform="translate(-1061,-574) scale(1,1)"><path fill="none" stroke="#000000" d="M 1176.162674857624 827.790482243984 L 1166 832 L 1176.162674857624 836.209517756016" stroke-miterlimit="10"/></g><g transform="translate(-1061,-574) scale(1,1)"><g><path fill="none" stroke="none"/><text fill="#000000" stroke="none" font-family="Arial" font-size="13px" font-style="normal" font-weight="normal" text-decoration="none" x="1278" y="869">«create»</text></g></g><g transform="translate(-1061,-574) scale(1,1)"><path fill="none" stroke="#000000" d="M 1499 800 L 1499 660" stroke-miterlimit="10"/></g><g transform="translate(-1061,-574) scale(1,1)"><path fill="#FFFFFF" stroke="none" d="M 1507.419035512032 680.3253497152483 L 1499 660 L 1490.580964487968 680.3253497152483"/></g><g transform="translate(-1061,-574) scale(1,1)"><path fill="none" stroke="#000000" d="M 1507.419035512032 680.3253497152483 L 1499 660 L 1490.580964487968 680.3253497152483 L 1507.419035512032 680.3253497152483" stroke-miterlimit="10"/></g></g></svg>