<svg version="1.1" xmlns="http://www.w3.org/2000/svg" xmlns:xlink="http://www.w3.org/1999/xlink" width="603.50634765625" height="566"><defs/><g><g transform="translate(-998,-638) scale(1,1)"><rect fill="#C0C0C0" stroke="none" x="1283" y="655" width="93.50634765625" height="75" opacity="0.2"/></g><g transform="translate(-998,-638) scale(1,1)"><rect fill="#ffffff" stroke="none" x="1276" y="648" width="93.50634765625" height="75"/></g><g transform="translate(-998,-638) scale(1,1)"><path fill="none" stroke="#000000" d="M 1276 648 L 1369.50634765625 648 L 1369.50634765625 723 L 1276 723 L 1276 648 Z Z" stroke-miterlimit="10"/></g><g transform="translate(-998,-638) scale(1,1)"><path fill="none" stroke="#000000" d="M 1276 701 L 1369.50634765625 701" stroke-miterlimit="10"/></g><g transform="translate(-998,-638) scale(1,1)"><g><path fill="none" stroke="none"/><text fill="#000000" stroke="none" font-family="Arial" font-size="13px" font-style="normal" font-weight="normal" text-decoration="none" x="1292.40185546875" y="665.5">«abstract»</text></g></g><g transform="translate(-998,-638) scale(1,1)"><g><path fill="none" stroke="none"/><text fill="#000000" stroke="none" font-family="Arial" font-size="13px" font-style="italic" font-weight="bold" text-decoration="none" x="1293.852294921875" y="680.5">GElement</text></g></g><g transform="translate(-998,-638) scale(1,1)"><g><path fill="none" stroke="none"/><text fill="#000000" stroke="none" font-family="Arial" font-size="13px" font-style="normal" font-weight="normal" text-decoration="none" x="1280.5" y="695.5">(from Classes)</text></g></g><g transform="translate(-998,-638) scale(1,1)"><g><path fill="none" stroke="none"/><text fill="#000000" stroke="none" font-family="Arial" font-size="13px" font-style="normal" font-weight="normal" text-decoration="none" x="1281" y="718.5">+operation()</text></g></g><g transform="translate(-998,-638) scale(1,1)"><rect fill="#C0C0C0" stroke="none" x="1015" y="661" width="93.50634765625" height="62" opacity="0.2"/></g><g transform="translate(-998,-638) scale(1,1)"><rect fill="#ffffff" stroke="none" x="1008" y="654" width="93.50634765625" height="62"/></g><g transform="translate(-998,-638) scale(1,1)"><path fill="none" stroke="#000000" d="M 1008 654 L 1101.50634765625 654 L 1101.50634765625 716 L 1008 716 L 1008 654 Z Z" stroke-miterlimit="10"/></g><g transform="translate(-998,-638) scale(1,1)"><path fill="none" stroke="#000000" d="M 1008 694 L 1101.50634765625 694" stroke-miterlimit="10"/></g><g transform="translate(-998,-638) scale(1,1)"><g><path fill="none" stroke="none"/><text fill="#000000" stroke="none" font-family="Arial" font-size="13px" font-style="normal" font-weight="bold" text-decoration="none" x="1035.59912109375" y="673.5">Janela</text></g></g><g transform="translate(-998,-638) scale(1,1)"><g><path fill="none" stroke="none"/><text fill="#000000" stroke="none" font-family="Arial" font-size="13px" font-style="normal" font-weight="normal" text-decoration="none" x="1012.5" y="688.5">(from Classes)</text></g></g><g transform="translate(-998,-638) scale(1,1)"><g><path fill="none" stroke="none"/><text fill="#000000" stroke="none" font-family="Arial" font-size="13px" font-style="normal" font-weight="normal" text-decoration="none" x="1013" y="711.5">+operation()</text></g></g><g transform="translate(-998,-638) scale(1,1)"><path fill="none" stroke="#000000" d="M 1103 685 L 1275 685" stroke-miterlimit="10"/></g><g transform="translate(-998,-638) scale(1,1)"><path fill="#FFFFFF" stroke="none" d="M 1254.6746502847518 693.419035512032 L 1275 685 L 1254.6746502847516 676.580964487968"/></g><g transform="translate(-998,-638) scale(1,1)"><path fill="none" stroke="#000000" d="M 1254.6746502847518 693.419035512032 L 1275 685 L 1254.6746502847516 676.580964487968 L 1254.6746502847518 693.419035512032" stroke-miterlimit="10"/></g><g transform="translate(-998,-638) scale(1,1)"><rect fill="#C0C0C0" stroke="none" x="1283" y="919" width="93.50634765625" height="98" opacity="0.2"/></g><g transform="translate(-998,-638) scale(1,1)"><rect fill="#ffffff" stroke="none" x="1276" y="912" width="93.50634765625" height="98"/></g><g transform="translate(-998,-638) scale(1,1)"><path fill="none" stroke="#000000" d="M 1276 912 L 1369.50634765625 912 L 1369.50634765625 1010 L 1276 1010 L 1276 912 Z Z" stroke-miterlimit="10"/></g><g transform="translate(-998,-638) scale(1,1)"><path fill="none" stroke="#000000" d="M 1276 965 L 1369.50634765625 965" stroke-miterlimit="10"/></g><g transform="translate(-998,-638) scale(1,1)"><path fill="none" stroke="#000000" d="M 1276 988 L 1369.50634765625 988" stroke-miterlimit="10"/></g><g transform="translate(-998,-638) scale(1,1)"><g><path fill="none" stroke="none"/><text fill="#000000" stroke="none" font-family="Arial" font-size="13px" font-style="normal" font-weight="normal" text-decoration="none" x="1292.40185546875" y="929.5">«abstract»</text></g></g><g transform="translate(-998,-638) scale(1,1)"><g><path fill="none" stroke="none"/><text fill="#000000" stroke="none" font-family="Arial" font-size="13px" font-style="italic" font-weight="bold" text-decoration="none" x="1286.260498046875" y="944.5">JanelaComp</text></g></g><g transform="translate(-998,-638) scale(1,1)"><g><path fill="none" stroke="none"/><text fill="#000000" stroke="none" font-family="Arial" font-size="13px" font-style="normal" font-weight="normal" text-decoration="none" x="1280.5" y="959.5">(from Classes)</text></g></g><g transform="translate(-998,-638) scale(1,1)"><g><path fill="none" stroke="none"/><text fill="#000000" stroke="none" font-family="Arial" font-size="13px" font-style="normal" font-weight="normal" text-decoration="none" x="1281" y="982.5">-GElement</text></g></g><g transform="translate(-998,-638) scale(1,1)"><g><path fill="none" stroke="none"/><text fill="#000000" stroke="none" font-family="Arial" font-size="13px" font-style="normal" font-weight="normal" text-decoration="none" x="1281" y="1005.5">+operation()</text></g></g><g transform="translate(-998,-638) scale(1,1)"><path fill="none" stroke="#000000" d="M 1322 911 L 1322 724" stroke-miterlimit="10"/></g><g transform="translate(-998,-638) scale(1,1)"><path fill="#FFFFFF" stroke="none" d="M 1330.419035512032 744.3253497152483 L 1322 724 L 1313.580964487968 744.3253497152483"/></g><g transform="translate(-998,-638) scale(1,1)"><path fill="none" stroke="#000000" d="M 1330.419035512032 744.3253497152483 L 1322 724 L 1313.580964487968 744.3253497152483 L 1330.419035512032 744.3253497152483" stroke-miterlimit="10"/></g><g transform="translate(-998,-638) scale(1,1)"><path fill="none" stroke="#000000" d="M 1370 696 L 1448 696 L 1448 952 L 1370 952" stroke-miterlimit="10"/></g><g transform="translate(-998,-638) scale(1,1)"><path fill="#FFFFFF" stroke="none" d="M 1380.162674857624 947.790482243984 L 1370 952 L 1380.162674857624 956.209517756016 L 1392 952"/></g><g transform="translate(-998,-638) scale(1,1)"><path fill="none" stroke="#000000" d="M 1380.162674857624 947.790482243984 L 1370 952 L 1380.162674857624 956.209517756016 L 1392 952 L 1380.162674857624 947.790482243984" stroke-miterlimit="10"/></g><g transform="translate(-998,-638) scale(1,1)"><g><path fill="none" stroke="none"/><text fill="#000000" stroke="none" font-family="Arial" font-size="13px" font-style="normal" font-weight="normal" text-decoration="none" x="1382" y="715">0..*</text></g></g><g transform="translate(-998,-638) scale(1,1)"><rect fill="#C0C0C0" stroke="none" x="1127" y="1139" width="93.50634765625" height="62" opacity="0.2"/></g><g transform="translate(-998,-638) scale(1,1)"><rect fill="#ffffff" stroke="none" x="1120" y="1132" width="93.50634765625" height="62"/></g><g transform="translate(-998,-638) scale(1,1)"><path fill="none" stroke="#000000" d="M 1120 1132 L 1213.50634765625 1132 L 1213.50634765625 1194 L 1120 1194 L 1120 1132 Z Z" stroke-miterlimit="10"/></g><g transform="translate(-998,-638) scale(1,1)"><path fill="none" stroke="#000000" d="M 1120 1172 L 1213.50634765625 1172" stroke-miterlimit="10"/></g><g transform="translate(-998,-638) scale(1,1)"><g><path fill="none" stroke="none"/><text fill="#000000" stroke="none" font-family="Arial" font-size="13px" font-style="normal" font-weight="bold" text-decoration="none" x="1149.766845703125" y="1151.5">Botao</text></g></g><g transform="translate(-998,-638) scale(1,1)"><g><path fill="none" stroke="none"/><text fill="#000000" stroke="none" font-family="Arial" font-size="13px" font-style="normal" font-weight="normal" text-decoration="none" x="1124.5" y="1166.5">(from Classes)</text></g></g><g transform="translate(-998,-638) scale(1,1)"><g><path fill="none" stroke="none"/><text fill="#000000" stroke="none" font-family="Arial" font-size="13px" font-style="normal" font-weight="normal" text-decoration="none" x="1125" y="1189.5">+operation()</text></g></g><g transform="translate(-998,-638) scale(1,1)"><path fill="none" stroke="#000000" d="M 1191 1131 L 1283 1011" stroke-miterlimit="10"/></g><g transform="translate(-998,-638) scale(1,1)"><path fill="#FFFFFF" stroke="none" d="M 1277.3148162356715 1032.2527336021938 L 1283 1011 L 1263.9520159590893 1022.007920056814"/></g><g transform="translate(-998,-638) scale(1,1)"><path fill="none" stroke="#000000" d="M 1277.3148162356715 1032.2527336021938 L 1283 1011 L 1263.9520159590893 1022.007920056814 L 1277.3148162356715 1032.2527336021938" stroke-miterlimit="10"/></g><g transform="translate(-998,-638) scale(1,1)"><rect fill="#C0C0C0" stroke="none" x="1253" y="1139" width="93.50634765625" height="62" opacity="0.2"/></g><g transform="translate(-998,-638) scale(1,1)"><rect fill="#ffffff" stroke="none" x="1246" y="1132" width="93.50634765625" height="62"/></g><g transform="translate(-998,-638) scale(1,1)"><path fill="none" stroke="#000000" d="M 1246 1132 L 1339.50634765625 1132 L 1339.50634765625 1194 L 1246 1194 L 1246 1132 Z Z" stroke-miterlimit="10"/></g><g transform="translate(-998,-638) scale(1,1)"><path fill="none" stroke="#000000" d="M 1246 1172 L 1339.50634765625 1172" stroke-miterlimit="10"/></g><g transform="translate(-998,-638) scale(1,1)"><g><path fill="none" stroke="none"/><text fill="#000000" stroke="none" font-family="Arial" font-size="13px" font-style="normal" font-weight="bold" text-decoration="none" x="1266.013671875" y="1151.5">Contador</text></g></g><g transform="translate(-998,-638) scale(1,1)"><g><path fill="none" stroke="none"/><text fill="#000000" stroke="none" font-family="Arial" font-size="13px" font-style="normal" font-weight="normal" text-decoration="none" x="1250.5" y="1166.5">(from Classes)</text></g></g><g transform="translate(-998,-638) scale(1,1)"><g><path fill="none" stroke="none"/><text fill="#000000" stroke="none" font-family="Arial" font-size="13px" font-style="normal" font-weight="normal" text-decoration="none" x="1251" y="1189.5">+operation()</text></g></g><g transform="translate(-998,-638) scale(1,1)"><path fill="none" stroke="#000000" d="M 1297 1131 L 1315 1011" stroke-miterlimit="10"/></g><g transform="translate(-998,-638) scale(1,1)"><path fill="#FFFFFF" stroke="none" d="M 1320.310818691212 1032.349360759261 L 1315 1011 L 1303.6590381433368 1029.8515936770798"/></g><g transform="translate(-998,-638) scale(1,1)"><path fill="none" stroke="#000000" d="M 1320.310818691212 1032.349360759261 L 1315 1011 L 1303.6590381433368 1029.8515936770798 L 1320.310818691212 1032.349360759261" stroke-miterlimit="10"/></g><g transform="translate(-998,-638) scale(1,1)"><rect fill="#C0C0C0" stroke="none" x="1379" y="1139" width="93.50634765625" height="62" opacity="0.2"/></g><g transform="translate(-998,-638) scale(1,1)"><rect fill="#ffffff" stroke="none" x="1372" y="1132" width="93.50634765625" height="62"/></g><g transform="translate(-998,-638) scale(1,1)"><path fill="none" stroke="#000000" d="M 1372 1132 L 1465.50634765625 1132 L 1465.50634765625 1194 L 1372 1194 L 1372 1132 Z Z" stroke-miterlimit="10"/></g><g transform="translate(-998,-638) scale(1,1)"><path fill="none" stroke="#000000" d="M 1372 1172 L 1465.50634765625 1172" stroke-miterlimit="10"/></g><g transform="translate(-998,-638) scale(1,1)"><g><path fill="none" stroke="none"/><text fill="#000000" stroke="none" font-family="Arial" font-size="13px" font-style="normal" font-weight="bold" text-decoration="none" x="1392.3818359375" y="1151.5">TextArea</text></g></g><g transform="translate(-998,-638) scale(1,1)"><g><path fill="none" stroke="none"/><text fill="#000000" stroke="none" font-family="Arial" font-size="13px" font-style="normal" font-weight="normal" text-decoration="none" x="1376.5" y="1166.5">(from Classes)</text></g></g><g transform="translate(-998,-638) scale(1,1)"><g><path fill="none" stroke="none"/><text fill="#000000" stroke="none" font-family="Arial" font-size="13px" font-style="normal" font-weight="normal" text-decoration="none" x="1377" y="1189.5">+operation()</text></g></g><g transform="translate(-998,-638) scale(1,1)"><path fill="none" stroke="#000000" d="M 1403 1131 L 1346 1011" stroke-miterlimit="10"/></g><g transform="translate(-998,-638) scale(1,1)"><path fill="#FFFFFF" stroke="none" d="M 1362.3254551901894 1025.747186607388 L 1346 1011 L 1347.1160044174326 1032.9716757244473"/></g><g transform="translate(-998,-638) scale(1,1)"><path fill="none" stroke="#000000" d="M 1362.3254551901894 1025.747186607388 L 1346 1011 L 1347.1160044174326 1032.9716757244473 L 1362.3254551901894 1025.747186607388" stroke-miterlimit="10"/></g><g transform="translate(-998,-638) scale(1,1)"><rect fill="#C0C0C0" stroke="none" x="1505" y="1139" width="93.50634765625" height="62" opacity="0.2"/></g><g transform="translate(-998,-638) scale(1,1)"><rect fill="#ffffff" stroke="none" x="1498" y="1132" width="93.50634765625" height="62"/></g><g transform="translate(-998,-638) scale(1,1)"><path fill="none" stroke="#000000" d="M 1498 1132 L 1591.50634765625 1132 L 1591.50634765625 1194 L 1498 1194 L 1498 1132 Z Z" stroke-miterlimit="10"/></g><g transform="translate(-998,-638) scale(1,1)"><path fill="none" stroke="#000000" d="M 1498 1172 L 1591.50634765625 1172" stroke-miterlimit="10"/></g><g transform="translate(-998,-638) scale(1,1)"><g><path fill="none" stroke="none"/><text fill="#000000" stroke="none" font-family="Arial" font-size="13px" font-style="normal" font-weight="bold" text-decoration="none" x="1536.447265625" y="1151.5">Gif</text></g></g><g transform="translate(-998,-638) scale(1,1)"><g><path fill="none" stroke="none"/><text fill="#000000" stroke="none" font-family="Arial" font-size="13px" font-style="normal" font-weight="normal" text-decoration="none" x="1502.5" y="1166.5">(from Classes)</text></g></g><g transform="translate(-998,-638) scale(1,1)"><g><path fill="none" stroke="none"/><text fill="#000000" stroke="none" font-family="Arial" font-size="13px" font-style="normal" font-weight="normal" text-decoration="none" x="1503" y="1189.5">+operation()</text></g></g><g transform="translate(-998,-638) scale(1,1)"><path fill="none" stroke="#000000" d="M 1509 1131 L 1371 1005" stroke-miterlimit="10"/></g><g transform="translate(-998,-638) scale(1,1)"><path fill="#FFFFFF" stroke="none" d="M 1391.686673644098 1012.4874250275103 L 1371 1005 L 1380.3332782033563 1024.922096224513"/></g><g transform="translate(-998,-638) scale(1,1)"><path fill="none" stroke="#000000" d="M 1391.686673644098 1012.4874250275103 L 1371 1005 L 1380.3332782033563 1024.922096224513 L 1391.686673644098 1012.4874250275103" stroke-miterlimit="10"/></g></g></svg>