<svg version="1.1" xmlns="http://www.w3.org/2000/svg" xmlns:xlink="http://www.w3.org/1999/xlink" width="680.484375" height="341"><defs/><g><g transform="translate(-1019,-542) scale(1,1)"><rect fill="#C0C0C0" stroke="none" x="1036" y="685" width="128.58984375" height="77" opacity="0.2"/></g><g transform="translate(-1019,-542) scale(1,1)"><rect fill="#ffffff" stroke="none" x="1029" y="678" width="128.58984375" height="77"/></g><g transform="translate(-1019,-542) scale(1,1)"><path fill="none" stroke="#000000" d="M 1029 678 L 1157.58984375 678 L 1157.58984375 755 L 1029 755 L 1029 678 Z Z" stroke-miterlimit="10"/></g><g transform="translate(-1019,-542) scale(1,1)"><path fill="none" stroke="#000000" d="M 1029 718 L 1157.58984375 718" stroke-miterlimit="10"/></g><g transform="translate(-1019,-542) scale(1,1)"><g><path fill="none" stroke="none"/><text fill="#000000" stroke="none" font-family="Arial" font-size="13px" font-style="normal" font-weight="bold" text-decoration="none" x="1079.199951171875" y="697.5">Jogo</text></g></g><g transform="translate(-1019,-542) scale(1,1)"><g><path fill="none" stroke="none"/><text fill="#000000" stroke="none" font-family="Arial" font-size="13px" font-style="normal" font-weight="normal" text-decoration="none" x="1051.041748046875" y="712.5">(from Classes)</text></g></g><g transform="translate(-1019,-542) scale(1,1)"><g><path fill="none" stroke="none"/><text fill="#000000" stroke="none" font-family="Arial" font-size="13px" font-style="normal" font-weight="normal" text-decoration="none" x="1034" y="735.5">+getInstance(): Fase</text><path fill="none" stroke="#000000" d="M 1034 735.5 L 1153.58984375 735.5" stroke-miterlimit="10"/></g></g><g transform="translate(-1019,-542) scale(1,1)"><g><path fill="none" stroke="none"/><text fill="#000000" stroke="none" font-family="Arial" font-size="13px" font-style="normal" font-weight="normal" text-decoration="none" x="1034" y="750.5">-Jogo()</text></g></g><g transform="translate(-1019,-542) scale(1,1)"><rect fill="#C0C0C0" stroke="none" x="1327" y="692" width="93.50634765625" height="62" opacity="0.2"/></g><g transform="translate(-1019,-542) scale(1,1)"><rect fill="#ffffff" stroke="none" x="1320" y="685" width="93.50634765625" height="62"/></g><g transform="translate(-1019,-542) scale(1,1)"><path fill="none" stroke="#000000" d="M 1320 685 L 1413.50634765625 685 L 1413.50634765625 747 L 1320 747 L 1320 685 Z Z" stroke-miterlimit="10"/></g><g transform="translate(-1019,-542) scale(1,1)"><path fill="none" stroke="#000000" d="M 1320 725 L 1413.50634765625 725" stroke-miterlimit="10"/></g><g transform="translate(-1019,-542) scale(1,1)"><g><path fill="none" stroke="none"/><text fill="#000000" stroke="none" font-family="Arial" font-size="13px" font-style="normal" font-weight="bold" text-decoration="none" x="1333.516845703125" y="704.5">GUIFacade</text></g></g><g transform="translate(-1019,-542) scale(1,1)"><g><path fill="none" stroke="none"/><text fill="#000000" stroke="none" font-family="Arial" font-size="13px" font-style="normal" font-weight="normal" text-decoration="none" x="1324.5" y="719.5">(from Classes)</text></g></g><g transform="translate(-1019,-542) scale(1,1)"><g><path fill="none" stroke="none"/><text fill="#000000" stroke="none" font-family="Arial" font-size="13px" font-style="normal" font-weight="normal" text-decoration="none" x="1325" y="742.5">+doGUI()</text></g></g><g transform="translate(-1019,-542) scale(1,1)"><path fill="none" stroke="#000000" d="M 1319 716 L 1159 716" stroke-miterlimit="10"/></g><g transform="translate(-1019,-542) scale(1,1)"><path fill="#000000" stroke="none" d="M 1169.162674857624 711.790482243984 L 1159 716 L 1169.162674857624 720.209517756016 L 1181 716"/></g><g transform="translate(-1019,-542) scale(1,1)"><path fill="none" stroke="#000000" d="M 1169.162674857624 711.790482243984 L 1159 716 L 1169.162674857624 720.209517756016 L 1181 716 L 1169.162674857624 711.790482243984" stroke-miterlimit="10"/></g><g transform="translate(-1019,-542) scale(1,1)"><path fill="none" stroke="#000000" d="M 1159 716 L 1319 716" stroke-miterlimit="10"/></g><g transform="translate(-1019,-542) scale(1,1)"><path fill="none" stroke="#000000" d="M 1308.837325142376 720.209517756016 L 1319 716 L 1308.837325142376 711.790482243984" stroke-miterlimit="10"/></g><g transform="translate(-1019,-542) scale(1,1)"><rect fill="#C0C0C0" stroke="none" x="1526" y="775" width="170.484375" height="105" opacity="0.2"/></g><g transform="translate(-1019,-542) scale(1,1)"><rect fill="#ffffff" stroke="none" x="1519" y="768" width="170.484375" height="105"/></g><g transform="translate(-1019,-542) scale(1,1)"><path fill="none" stroke="#000000" d="M 1519 768 L 1689.484375 768 L 1689.484375 873 L 1519 873 L 1519 768 Z Z" stroke-miterlimit="10"/></g><g transform="translate(-1019,-542) scale(1,1)"><path fill="none" stroke="#000000" d="M 1519 821 L 1689.484375 821" stroke-miterlimit="10"/></g><g transform="translate(-1019,-542) scale(1,1)"><g><path fill="none" stroke="none"/><text fill="#000000" stroke="none" font-family="Arial" font-size="13px" font-style="normal" font-weight="normal" text-decoration="none" x="1570.9931640625" y="785.5">«singleton»</text></g></g><g transform="translate(-1019,-542) scale(1,1)"><g><path fill="none" stroke="none"/><text fill="#000000" stroke="none" font-family="Arial" font-size="13px" font-style="normal" font-weight="bold" text-decoration="none" x="1589.791748046875" y="800.5">Fase</text></g></g><g transform="translate(-1019,-542) scale(1,1)"><g><path fill="none" stroke="none"/><text fill="#000000" stroke="none" font-family="Arial" font-size="13px" font-style="normal" font-weight="normal" text-decoration="none" x="1561.989013671875" y="815.5">(from Classes)</text></g></g><g transform="translate(-1019,-542) scale(1,1)"><g><path fill="none" stroke="none"/><text fill="#000000" stroke="none" font-family="Arial" font-size="13px" font-style="normal" font-weight="normal" text-decoration="none" x="1524" y="838.5">+CreateMemento()</text></g></g><g transform="translate(-1019,-542) scale(1,1)"><g><path fill="none" stroke="none"/><text fill="#000000" stroke="none" font-family="Arial" font-size="13px" font-style="normal" font-weight="normal" text-decoration="none" x="1524" y="853.5">+SetMemento(in: Memento)</text></g></g><g transform="translate(-1019,-542) scale(1,1)"><g><path fill="none" stroke="none"/><text fill="#000000" stroke="none" font-family="Arial" font-size="13px" font-style="normal" font-weight="normal" text-decoration="none" x="1524" y="868.5">+getInstance()</text></g></g><g transform="translate(-1019,-542) scale(1,1)"><path fill="none" stroke="#000000" d="M 1415 737 L 1518 782" stroke-miterlimit="10" stroke-dasharray="3"/></g><g transform="translate(-1019,-542) scale(1,1)"><path fill="none" stroke="#000000" d="M 1507.002027866508 781.7887916882988 L 1518 782 L 1510.372606154554 774.0739124956602" stroke-miterlimit="10"/></g><g transform="translate(-1019,-542) scale(1,1)"><rect fill="#C0C0C0" stroke="none" x="1565" y="559" width="93.50634765625" height="75" opacity="0.2"/></g><g transform="translate(-1019,-542) scale(1,1)"><rect fill="#ffffff" stroke="none" x="1558" y="552" width="93.50634765625" height="75"/></g><g transform="translate(-1019,-542) scale(1,1)"><path fill="none" stroke="#000000" d="M 1558 552 L 1651.50634765625 552 L 1651.50634765625 627 L 1558 627 L 1558 552 Z Z" stroke-miterlimit="10"/></g><g transform="translate(-1019,-542) scale(1,1)"><path fill="none" stroke="#000000" d="M 1558 605 L 1651.50634765625 605" stroke-miterlimit="10"/></g><g transform="translate(-1019,-542) scale(1,1)"><g><path fill="none" stroke="none"/><text fill="#000000" stroke="none" font-family="Arial" font-size="13px" font-style="normal" font-weight="normal" text-decoration="none" x="1574.40185546875" y="569.5">«abstract»</text></g></g><g transform="translate(-1019,-542) scale(1,1)"><g><path fill="none" stroke="none"/><text fill="#000000" stroke="none" font-family="Arial" font-size="13px" font-style="italic" font-weight="bold" text-decoration="none" x="1575.852294921875" y="584.5">GElement</text></g></g><g transform="translate(-1019,-542) scale(1,1)"><g><path fill="none" stroke="none"/><text fill="#000000" stroke="none" font-family="Arial" font-size="13px" font-style="normal" font-weight="normal" text-decoration="none" x="1562.5" y="599.5">(from Classes)</text></g></g><g transform="translate(-1019,-542) scale(1,1)"><g><path fill="none" stroke="none"/><text fill="#000000" stroke="none" font-family="Arial" font-size="13px" font-style="normal" font-weight="normal" text-decoration="none" x="1563" y="622.5">+operation()</text></g></g><g transform="translate(-1019,-542) scale(1,1)"><path fill="none" stroke="#000000" d="M 1415 690 L 1557 614" stroke-miterlimit="10" stroke-dasharray="3"/></g><g transform="translate(-1019,-542) scale(1,1)"><path fill="none" stroke="#000000" d="M 1550.026303948315 622.506912681973 L 1557 614 L 1546.0535565875348 615.0841478763047" stroke-miterlimit="10"/></g></g></svg>