<svg version="1.1" xmlns="http://www.w3.org/2000/svg" xmlns:xlink="http://www.w3.org/1999/xlink" width="539.50634765625" height="238"><defs/><g><g transform="translate(-966,-247) scale(1,1)"><rect fill="#C0C0C0" stroke="none" x="983" y="264" width="132.9189453125" height="77" opacity="0.2"/></g><g transform="translate(-966,-247) scale(1,1)"><rect fill="#ffffff" stroke="none" x="976" y="257" width="132.9189453125" height="77"/></g><g transform="translate(-966,-247) scale(1,1)"><path fill="none" stroke="#000000" d="M 976 257 L 1108.9189453125 257 L 1108.9189453125 334 L 976 334 L 976 257 Z Z" stroke-miterlimit="10"/></g><g transform="translate(-966,-247) scale(1,1)"><path fill="none" stroke="#000000" d="M 976 297 L 1108.9189453125 297" stroke-miterlimit="10"/></g><g transform="translate(-966,-247) scale(1,1)"><g><path fill="none" stroke="none"/><text fill="#000000" stroke="none" font-family="Arial" font-size="13px" font-style="normal" font-weight="bold" text-decoration="none" x="1025.84130859375" y="276.5">Caixa</text></g></g><g transform="translate(-966,-247) scale(1,1)"><g><path fill="none" stroke="none"/><text fill="#000000" stroke="none" font-family="Arial" font-size="13px" font-style="normal" font-weight="normal" text-decoration="none" x="1000.206298828125" y="291.5">(from Classes)</text></g></g><g transform="translate(-966,-247) scale(1,1)"><g><path fill="none" stroke="none"/><text fill="#000000" stroke="none" font-family="Arial" font-size="13px" font-style="normal" font-weight="normal" text-decoration="none" x="981" y="314.5">+doComportamento()</text></g></g><g transform="translate(-966,-247) scale(1,1)"><g><path fill="none" stroke="none"/><text fill="#000000" stroke="none" font-family="Arial" font-size="13px" font-style="normal" font-weight="normal" text-decoration="none" x="981" y="329.5">+requestState()</text></g></g><g transform="translate(-966,-247) scale(1,1)"><rect fill="#C0C0C0" stroke="none" x="1295" y="265" width="93.50634765625" height="75" opacity="0.2"/></g><g transform="translate(-966,-247) scale(1,1)"><rect fill="#ffffff" stroke="none" x="1288" y="258" width="93.50634765625" height="75"/></g><g transform="translate(-966,-247) scale(1,1)"><path fill="none" stroke="#000000" d="M 1288 258 L 1381.50634765625 258 L 1381.50634765625 333 L 1288 333 L 1288 258 Z Z" stroke-miterlimit="10"/></g><g transform="translate(-966,-247) scale(1,1)"><path fill="none" stroke="#000000" d="M 1288 311 L 1381.50634765625 311" stroke-miterlimit="10"/></g><g transform="translate(-966,-247) scale(1,1)"><g><path fill="none" stroke="none"/><text fill="#000000" stroke="none" font-family="Arial" font-size="13px" font-style="normal" font-weight="normal" text-decoration="none" x="1304.40185546875" y="275.5">«abstract»</text></g></g><g transform="translate(-966,-247) scale(1,1)"><g><path fill="none" stroke="none"/><text fill="#000000" stroke="none" font-family="Arial" font-size="13px" font-style="italic" font-weight="bold" text-decoration="none" x="1308.74365234375" y="290.5">CaixaEst</text></g></g><g transform="translate(-966,-247) scale(1,1)"><g><path fill="none" stroke="none"/><text fill="#000000" stroke="none" font-family="Arial" font-size="13px" font-style="normal" font-weight="normal" text-decoration="none" x="1292.5" y="305.5">(from Classes)</text></g></g><g transform="translate(-966,-247) scale(1,1)"><g><path fill="none" stroke="none"/><text fill="#000000" stroke="none" font-family="Arial" font-size="13px" font-style="normal" font-weight="normal" text-decoration="none" x="1293" y="328.5">+handle()</text></g></g><g transform="translate(-966,-247) scale(1,1)"><path fill="none" stroke="#000000" d="M 1287 295 L 1110 295" stroke-miterlimit="10"/></g><g transform="translate(-966,-247) scale(1,1)"><path fill="#FFFFFF" stroke="none" d="M 1120.162674857624 290.790482243984 L 1110 295 L 1120.162674857624 299.209517756016 L 1132 295"/></g><g transform="translate(-966,-247) scale(1,1)"><path fill="none" stroke="#000000" d="M 1120.162674857624 290.790482243984 L 1110 295 L 1120.162674857624 299.209517756016 L 1132 295 L 1120.162674857624 290.790482243984" stroke-miterlimit="10"/></g><g transform="translate(-966,-247) scale(1,1)"><rect fill="#C0C0C0" stroke="none" x="1409" y="420" width="93.50634765625" height="62" opacity="0.2"/></g><g transform="translate(-966,-247) scale(1,1)"><rect fill="#ffffff" stroke="none" x="1402" y="413" width="93.50634765625" height="62"/></g><g transform="translate(-966,-247) scale(1,1)"><path fill="none" stroke="#000000" d="M 1402 413 L 1495.50634765625 413 L 1495.50634765625 475 L 1402 475 L 1402 413 Z Z" stroke-miterlimit="10"/></g><g transform="translate(-966,-247) scale(1,1)"><path fill="none" stroke="#000000" d="M 1402 453 L 1495.50634765625 453" stroke-miterlimit="10"/></g><g transform="translate(-966,-247) scale(1,1)"><g><path fill="none" stroke="none"/><text fill="#000000" stroke="none" font-family="Arial" font-size="13px" font-style="normal" font-weight="bold" text-decoration="none" x="1424.905029296875" y="432.5">NoChao</text></g></g><g transform="translate(-966,-247) scale(1,1)"><g><path fill="none" stroke="none"/><text fill="#000000" stroke="none" font-family="Arial" font-size="13px" font-style="normal" font-weight="normal" text-decoration="none" x="1406.5" y="447.5">(from Classes)</text></g></g><g transform="translate(-966,-247) scale(1,1)"><g><path fill="none" stroke="none"/><text fill="#000000" stroke="none" font-family="Arial" font-size="13px" font-style="normal" font-weight="normal" text-decoration="none" x="1407" y="470.5">+handle()</text></g></g><g transform="translate(-966,-247) scale(1,1)"><path fill="none" stroke="#000000" d="M 1424 412 L 1364 334" stroke-miterlimit="10"/></g><g transform="translate(-966,-247) scale(1,1)"><path fill="#FFFFFF" stroke="none" d="M 1383.0657139513803 344.9771832235846 L 1364 334 L 1369.71945492746 355.2435363189078"/></g><g transform="translate(-966,-247) scale(1,1)"><path fill="none" stroke="#000000" d="M 1383.0657139513803 344.9771832235846 L 1364 334 L 1369.71945492746 355.2435363189078 L 1383.0657139513803 344.9771832235846" stroke-miterlimit="10"/></g><g transform="translate(-966,-247) scale(1,1)"><rect fill="#C0C0C0" stroke="none" x="1175" y="420" width="93.50634765625" height="62" opacity="0.2"/></g><g transform="translate(-966,-247) scale(1,1)"><rect fill="#ffffff" stroke="none" x="1168" y="413" width="93.50634765625" height="62"/></g><g transform="translate(-966,-247) scale(1,1)"><path fill="none" stroke="#000000" d="M 1168 413 L 1261.50634765625 413 L 1261.50634765625 475 L 1168 475 L 1168 413 Z Z" stroke-miterlimit="10"/></g><g transform="translate(-966,-247) scale(1,1)"><path fill="none" stroke="#000000" d="M 1168 453 L 1261.50634765625 453" stroke-miterlimit="10"/></g><g transform="translate(-966,-247) scale(1,1)"><g><path fill="none" stroke="none"/><text fill="#000000" stroke="none" font-family="Arial" font-size="13px" font-style="normal" font-weight="bold" text-decoration="none" x="1191.263671875" y="432.5">NaAgua</text></g></g><g transform="translate(-966,-247) scale(1,1)"><g><path fill="none" stroke="none"/><text fill="#000000" stroke="none" font-family="Arial" font-size="13px" font-style="normal" font-weight="normal" text-decoration="none" x="1172.5" y="447.5">(from Classes)</text></g></g><g transform="translate(-966,-247) scale(1,1)"><g><path fill="none" stroke="none"/><text fill="#000000" stroke="none" font-family="Arial" font-size="13px" font-style="normal" font-weight="normal" text-decoration="none" x="1173" y="470.5">+handle()</text></g></g><g transform="translate(-966,-247) scale(1,1)"><path fill="none" stroke="#000000" d="M 1240 412 L 1303 334" stroke-miterlimit="10"/></g><g transform="translate(-966,-247) scale(1,1)"><path fill="#FFFFFF" stroke="none" d="M 1296.778342981784 355.10191896363176 L 1303 334 L 1283.6793141369694 344.52193412743554"/></g><g transform="translate(-966,-247) scale(1,1)"><path fill="none" stroke="#000000" d="M 1296.778342981784 355.10191896363176 L 1303 334 L 1283.6793141369694 344.52193412743554 L 1296.778342981784 355.10191896363176" stroke-miterlimit="10"/></g></g></svg>