<svg version="1.1" xmlns="http://www.w3.org/2000/svg" xmlns:xlink="http://www.w3.org/1999/xlink" width="1343.57177734375" height="1084"><defs/><g><g transform="translate(-590,-214) scale(1,1)"><path fill="none" stroke="#000000" d="M 729 967 L 764 865" stroke-miterlimit="10"/></g><g transform="translate(-590,-214) scale(1,1)"><path fill="none" stroke="#000000" d="M 764.6832220513695 875.9787616618871 L 764 865 L 756.7199541254283 873.2462677657309" stroke-miterlimit="10"/></g><g transform="translate(-590,-214) scale(1,1)"><path fill="none" stroke="#000000" d="M 1487 249 L 1743 243" stroke-miterlimit="10"/></g><g transform="translate(-590,-214) scale(1,1)"><path fill="none" stroke="#000000" d="M 1732.938748740583 247.4464843522581 L 1743 243 L 1732.741481769323 239.029760245166" stroke-miterlimit="10"/></g><g transform="translate(-590,-214) scale(1,1)"><rect fill="#C0C0C0" stroke="none" x="719" y="655" width="75.498046875" height="37" opacity="0.2"/></g><g transform="translate(-590,-214) scale(1,1)"><rect fill="#9bff38" stroke="none" x="712" y="648" width="75.498046875" height="37"/></g><g transform="translate(-590,-214) scale(1,1)"><path fill="none" stroke="#000000" d="M 712 648 L 787.498046875 648 L 787.498046875 685 L 712 685 L 712 648 Z Z" stroke-miterlimit="10"/></g><g transform="translate(-590,-214) scale(1,1)"><g><path fill="none" stroke="none"/><text fill="#000000" stroke="none" font-family="Arial" font-size="13px" font-style="normal" font-weight="normal" text-decoration="none" x="716.5" y="665.5">«singleton»</text></g></g><g transform="translate(-590,-214) scale(1,1)"><g><path fill="none" stroke="none"/><text fill="#000000" stroke="none" font-family="Arial" font-size="13px" font-style="normal" font-weight="bold" text-decoration="none" x="735.298583984375" y="680.5">Fase</text></g></g><g transform="translate(-590,-214) scale(1,1)"><rect fill="#C0C0C0" stroke="none" x="655" y="271" width="69.70263671875" height="37" opacity="0.2"/></g><g transform="translate(-590,-214) scale(1,1)"><rect fill="#a3e0ff" stroke="none" x="648" y="264" width="69.70263671875" height="37"/></g><g transform="translate(-590,-214) scale(1,1)"><path fill="none" stroke="#000000" d="M 648 264 L 717.70263671875 264 L 717.70263671875 301 L 648 301 L 648 264 Z Z" stroke-miterlimit="10"/></g><g transform="translate(-590,-214) scale(1,1)"><g><path fill="none" stroke="none"/><text fill="#000000" stroke="none" font-family="Arial" font-size="13px" font-style="normal" font-weight="normal" text-decoration="none" x="652.5" y="281.5">«abstract»</text></g></g><g transform="translate(-590,-214) scale(1,1)"><g><path fill="none" stroke="none"/><text fill="#000000" stroke="none" font-family="Arial" font-size="13px" font-style="italic" font-weight="bold" text-decoration="none" x="672.377685546875" y="296.5">Tile</text></g></g><g transform="translate(-590,-214) scale(1,1)"><rect fill="#C0C0C0" stroke="none" x="847" y="527" width="66.80810546875" height="24" opacity="0.2"/></g><g transform="translate(-590,-214) scale(1,1)"><rect fill="#d8e5ff" stroke="none" x="840" y="520" width="66.80810546875" height="24"/></g><g transform="translate(-590,-214) scale(1,1)"><path fill="none" stroke="#000000" d="M 840 520 L 906.80810546875 520 L 906.80810546875 544 L 840 544 L 840 520 Z Z" stroke-miterlimit="10"/></g><g transform="translate(-590,-214) scale(1,1)"><g><path fill="none" stroke="none"/><text fill="#000000" stroke="none" font-family="Arial" font-size="13px" font-style="normal" font-weight="bold" text-decoration="none" x="845.220458984375" y="539.5">Camada0</text></g></g><g transform="translate(-590,-214) scale(1,1)"><rect fill="#C0C0C0" stroke="none" x="1063" y="535" width="66.80810546875" height="24" opacity="0.2"/></g><g transform="translate(-590,-214) scale(1,1)"><rect fill="#d8e5ff" stroke="none" x="1056" y="528" width="66.80810546875" height="24"/></g><g transform="translate(-590,-214) scale(1,1)"><path fill="none" stroke="#000000" d="M 1056 528 L 1122.80810546875 528 L 1122.80810546875 552 L 1056 552 L 1056 528 Z Z" stroke-miterlimit="10"/></g><g transform="translate(-590,-214) scale(1,1)"><g><path fill="none" stroke="none"/><text fill="#000000" stroke="none" font-family="Arial" font-size="13px" font-style="normal" font-weight="bold" text-decoration="none" x="1061.220458984375" y="547.5">Camada1</text></g></g><g transform="translate(-590,-214) scale(1,1)"><rect fill="#C0C0C0" stroke="none" x="1199" y="487" width="66.80810546875" height="24" opacity="0.2"/></g><g transform="translate(-590,-214) scale(1,1)"><rect fill="#d8e5ff" stroke="none" x="1192" y="480" width="66.80810546875" height="24"/></g><g transform="translate(-590,-214) scale(1,1)"><path fill="none" stroke="#000000" d="M 1192 480 L 1258.80810546875 480 L 1258.80810546875 504 L 1192 504 L 1192 480 Z Z" stroke-miterlimit="10"/></g><g transform="translate(-590,-214) scale(1,1)"><g><path fill="none" stroke="none"/><text fill="#000000" stroke="none" font-family="Arial" font-size="13px" font-style="normal" font-weight="bold" text-decoration="none" x="1197.220458984375" y="499.5">Camada2</text></g></g><g transform="translate(-590,-214) scale(1,1)"><rect fill="#C0C0C0" stroke="none" x="1039" y="279" width="69.70263671875" height="37" opacity="0.2"/></g><g transform="translate(-590,-214) scale(1,1)"><rect fill="#d8e5ff" stroke="none" x="1032" y="272" width="69.70263671875" height="37"/></g><g transform="translate(-590,-214) scale(1,1)"><path fill="none" stroke="#000000" d="M 1032 272 L 1101.70263671875 272 L 1101.70263671875 309 L 1032 309 L 1032 272 Z Z" stroke-miterlimit="10"/></g><g transform="translate(-590,-214) scale(1,1)"><g><path fill="none" stroke="none"/><text fill="#000000" stroke="none" font-family="Arial" font-size="13px" font-style="normal" font-weight="normal" text-decoration="none" x="1036.5" y="289.5">«abstract»</text></g></g><g transform="translate(-590,-214) scale(1,1)"><g><path fill="none" stroke="none"/><text fill="#000000" stroke="none" font-family="Arial" font-size="13px" font-style="italic" font-weight="bold" text-decoration="none" x="1042.28271484375" y="304.5">Camada</text></g></g><g transform="translate(-590,-214) scale(1,1)"><path fill="none" stroke="#000000" d="M 883 519 L 1050 310" stroke-miterlimit="10"/></g><g transform="translate(-590,-214) scale(1,1)"><path fill="#FFFFFF" stroke="none" d="M 1043.8893535003751 331.13433224297904 L 1050 310 L 1030.7348907778214 320.62335006754137"/></g><g transform="translate(-590,-214) scale(1,1)"><path fill="none" stroke="#000000" d="M 1043.8893535003751 331.13433224297904 L 1050 310 L 1030.7348907778214 320.62335006754137 L 1043.8893535003751 331.13433224297904" stroke-miterlimit="10"/></g><g transform="translate(-590,-214) scale(1,1)"><path fill="none" stroke="#000000" d="M 1088 527 L 1068 310" stroke-miterlimit="10"/></g><g transform="translate(-590,-214) scale(1,1)"><path fill="#FFFFFF" stroke="none" d="M 1078.2489017655557 329.4668952994562 L 1068 310 L 1061.4818942632453 331.0122416130332"/></g><g transform="translate(-590,-214) scale(1,1)"><path fill="none" stroke="#000000" d="M 1078.2489017655557 329.4668952994562 L 1068 310 L 1061.4818942632453 331.0122416130332 L 1078.2489017655557 329.4668952994562" stroke-miterlimit="10"/></g><g transform="translate(-590,-214) scale(1,1)"><path fill="none" stroke="#000000" d="M 1215 479 L 1082 310" stroke-miterlimit="10"/></g><g transform="translate(-590,-214) scale(1,1)"><path fill="#FFFFFF" stroke="none" d="M 1101.1859218784455 320.76570488515216 L 1082 310 L 1087.95399253502 331.1789983921083"/></g><g transform="translate(-590,-214) scale(1,1)"><path fill="none" stroke="#000000" d="M 1101.1859218784455 320.76570488515216 L 1082 310 L 1087.95399253502 331.1789983921083 L 1101.1859218784455 320.76570488515216" stroke-miterlimit="10"/></g><g transform="translate(-590,-214) scale(1,1)"><rect fill="#C0C0C0" stroke="none" x="1055" y="623" width="69.70263671875" height="37" opacity="0.2"/></g><g transform="translate(-590,-214) scale(1,1)"><rect fill="#ffff91" stroke="none" x="1048" y="616" width="69.70263671875" height="37"/></g><g transform="translate(-590,-214) scale(1,1)"><path fill="none" stroke="#000000" d="M 1048 616 L 1117.70263671875 616 L 1117.70263671875 653 L 1048 653 L 1048 616 Z Z" stroke-miterlimit="10"/></g><g transform="translate(-590,-214) scale(1,1)"><g><path fill="none" stroke="none"/><text fill="#000000" stroke="none" font-family="Arial" font-size="13px" font-style="normal" font-weight="normal" text-decoration="none" x="1052.5" y="633.5">«abstract»</text></g></g><g transform="translate(-590,-214) scale(1,1)"><g><path fill="none" stroke="none"/><text fill="#000000" stroke="none" font-family="Arial" font-size="13px" font-style="italic" font-weight="bold" text-decoration="none" x="1060.088623046875" y="648.5">Cenario</text></g></g><g transform="translate(-590,-214) scale(1,1)"><rect fill="#C0C0C0" stroke="none" x="1063" y="783" width="42.22998046875" height="24" opacity="0.2"/></g><g transform="translate(-590,-214) scale(1,1)"><rect fill="#ffff91" stroke="none" x="1056" y="776" width="42.22998046875" height="24"/></g><g transform="translate(-590,-214) scale(1,1)"><path fill="none" stroke="#000000" d="M 1056 776 L 1098.22998046875 776 L 1098.22998046875 800 L 1056 800 L 1056 776 Z Z" stroke-miterlimit="10"/></g><g transform="translate(-590,-214) scale(1,1)"><g><path fill="none" stroke="none"/><text fill="#000000" stroke="none" font-family="Arial" font-size="13px" font-style="normal" font-weight="bold" text-decoration="none" x="1060.85546875" y="795.5">Mapa</text></g></g><g transform="translate(-590,-214) scale(1,1)"><path fill="none" stroke="#000000" d="M 1077 775 L 1081 654" stroke-miterlimit="10"/></g><g transform="translate(-590,-214) scale(1,1)"><path fill="#FFFFFF" stroke="none" d="M 1088.7428934796533 674.5924160933763 L 1081 654 L 1071.9140154248266 674.0360895461093"/></g><g transform="translate(-590,-214) scale(1,1)"><path fill="none" stroke="#000000" d="M 1088.7428934796533 674.5924160933763 L 1081 654 L 1071.9140154248266 674.0360895461093 L 1088.7428934796533 674.5924160933763" stroke-miterlimit="10"/></g><g transform="translate(-590,-214) scale(1,1)"><path fill="none" stroke="#000000" d="M 900 545 L 1047 617" stroke-miterlimit="10"/></g><g transform="translate(-590,-214) scale(1,1)"><path fill="#000000" stroke="none" d="M 1036.0216508609092 616.3101810525786 L 1047 617 L 1039.724910533028 608.7493592220027 L 1027.2426204242813 607.3229161261786"/></g><g transform="translate(-590,-214) scale(1,1)"><path fill="none" stroke="#000000" d="M 1036.0216508609092 616.3101810525786 L 1047 617 L 1039.724910533028 608.7493592220027 L 1027.2426204242813 607.3229161261786 L 1036.0216508609092 616.3101810525786" stroke-miterlimit="10"/></g><g transform="translate(-590,-214) scale(1,1)"><path fill="none" stroke="#000000" d="M 1088 553 L 1083 615" stroke-miterlimit="10"/></g><g transform="translate(-590,-214) scale(1,1)"><path fill="#000000" stroke="none" d="M 1079.6210228186746 604.5318333406426 L 1083 615 L 1088.0128139530327 605.2085906901876 L 1084.768452178247 593.0711929897394"/></g><g transform="translate(-590,-214) scale(1,1)"><path fill="none" stroke="#000000" d="M 1079.6210228186746 604.5318333406426 L 1083 615 L 1088.0128139530327 605.2085906901876 L 1084.768452178247 593.0711929897394 L 1079.6210228186746 604.5318333406426" stroke-miterlimit="10"/></g><g transform="translate(-590,-214) scale(1,1)"><path fill="none" stroke="#000000" d="M 1212 505 L 1101 615" stroke-miterlimit="10"/></g><g transform="translate(-590,-214) scale(1,1)"><path fill="#000000" stroke="none" d="M 1105.2554591459314 604.8564765757992 L 1101 615 L 1111.1816182175273 610.8365098207734 L 1116.6265799332255 599.514200066173"/></g><g transform="translate(-590,-214) scale(1,1)"><path fill="none" stroke="#000000" d="M 1105.2554591459314 604.8564765757992 L 1101 615 L 1111.1816182175273 610.8365098207734 L 1116.6265799332255 599.514200066173 L 1105.2554591459314 604.8564765757992" stroke-miterlimit="10"/></g><g transform="translate(-590,-214) scale(1,1)"><path fill="none" stroke="#000000" d="M 719 283 L 1031 289" stroke-miterlimit="10"/></g><g transform="translate(-590,-214) scale(1,1)"><path fill="#000000" stroke="none" d="M 1020.7582665144412 293.0133396580382 L 1031 289 L 1020.9201411138523 284.59586048865975 L 1009.0040669193434 288.57700128691044"/></g><g transform="translate(-590,-214) scale(1,1)"><path fill="none" stroke="#000000" d="M 1020.7582665144412 293.0133396580382 L 1031 289 L 1020.9201411138523 284.59586048865975 L 1009.0040669193434 288.57700128691044 L 1020.7582665144412 293.0133396580382" stroke-miterlimit="10"/></g><g transform="translate(-590,-214) scale(1,1)"><rect fill="#C0C0C0" stroke="none" x="607" y="503" width="41.5" height="24" opacity="0.2"/></g><g transform="translate(-590,-214) scale(1,1)"><rect fill="#a3e0ff" stroke="none" x="600" y="496" width="41.5" height="24"/></g><g transform="translate(-590,-214) scale(1,1)"><path fill="none" stroke="#000000" d="M 600 496 L 641.5 496 L 641.5 520 L 600 520 L 600 496 Z Z" stroke-miterlimit="10"/></g><g transform="translate(-590,-214) scale(1,1)"><g><path fill="none" stroke="none"/><text fill="#000000" stroke="none" font-family="Arial" font-size="13px" font-style="normal" font-weight="bold" text-decoration="none" x="605.569580078125" y="515.5">Agua</text></g></g><g transform="translate(-590,-214) scale(1,1)"><rect fill="#C0C0C0" stroke="none" x="751" y="415" width="41.5" height="24" opacity="0.2"/></g><g transform="translate(-590,-214) scale(1,1)"><rect fill="#a3e0ff" stroke="none" x="744" y="408" width="41.5" height="24"/></g><g transform="translate(-590,-214) scale(1,1)"><path fill="none" stroke="#000000" d="M 744 408 L 785.5 408 L 785.5 432 L 744 432 L 744 408 Z Z" stroke-miterlimit="10"/></g><g transform="translate(-590,-214) scale(1,1)"><g><path fill="none" stroke="none"/><text fill="#000000" stroke="none" font-family="Arial" font-size="13px" font-style="normal" font-weight="bold" text-decoration="none" x="749.2109375" y="427.5">Chao</text></g></g><g transform="translate(-590,-214) scale(1,1)"><rect fill="#C0C0C0" stroke="none" x="847" y="327" width="52.36083984375" height="24" opacity="0.2"/></g><g transform="translate(-590,-214) scale(1,1)"><rect fill="#a3e0ff" stroke="none" x="840" y="320" width="52.36083984375" height="24"/></g><g transform="translate(-590,-214) scale(1,1)"><path fill="none" stroke="#000000" d="M 840 320 L 892.36083984375 320 L 892.36083984375 344 L 840 344 L 840 320 Z Z" stroke-miterlimit="10"/></g><g transform="translate(-590,-214) scale(1,1)"><g><path fill="none" stroke="none"/><text fill="#000000" stroke="none" font-family="Arial" font-size="13px" font-style="normal" font-weight="bold" text-decoration="none" x="845.220458984375" y="339.5">Parede</text></g></g><g transform="translate(-590,-214) scale(1,1)"><path fill="none" stroke="#000000" d="M 624 495 L 677 302" stroke-miterlimit="10"/></g><g transform="translate(-590,-214) scale(1,1)"><path fill="#FFFFFF" stroke="none" d="M 679.7361685909201 323.8291864585482 L 677 302 L 663.4991975924843 319.3703291377342"/></g><g transform="translate(-590,-214) scale(1,1)"><path fill="none" stroke="#000000" d="M 679.7361685909201 323.8291864585482 L 677 302 L 663.4991975924843 319.3703291377342 L 679.7361685909201 323.8291864585482" stroke-miterlimit="10"/></g><g transform="translate(-590,-214) scale(1,1)"><path fill="none" stroke="#000000" d="M 839 325 L 719 292" stroke-miterlimit="10"/></g><g transform="translate(-590,-214) scale(1,1)"><path fill="#FFFFFF" stroke="none" d="M 740.830173652865 289.2717188037601 L 719 292 L 736.3654499592658 305.50707768957585"/></g><g transform="translate(-590,-214) scale(1,1)"><path fill="none" stroke="#000000" d="M 740.830173652865 289.2717188037601 L 719 292 L 736.3654499592658 305.50707768957585 L 740.830173652865 289.2717188037601" stroke-miterlimit="10"/></g><g transform="translate(-590,-214) scale(1,1)"><path fill="none" stroke="#000000" d="M 756 407 L 694 302" stroke-miterlimit="10"/></g><g transform="translate(-590,-214) scale(1,1)"><path fill="#FFFFFF" stroke="none" d="M 711.5840300742133 315.22126644271134 L 694 302 L 697.084939748549 323.7826340635797"/></g><g transform="translate(-590,-214) scale(1,1)"><path fill="none" stroke="#000000" d="M 711.5840300742133 315.22126644271134 L 694 302 L 697.084939748549 323.7826340635797 L 711.5840300742133 315.22126644271134" stroke-miterlimit="10"/></g><g transform="translate(-590,-214) scale(1,1)"><path fill="none" stroke="#000000" d="M 643 510 L 839 529" stroke-miterlimit="10"/></g><g transform="translate(-590,-214) scale(1,1)"><path fill="none" stroke="#000000" d="M 828.4785796076752 532.2093165826966 L 839 529 L 829.2909027742735 523.8295618114719" stroke-miterlimit="10"/></g><g transform="translate(-590,-214) scale(1,1)"><path fill="none" stroke="#000000" d="M 787 428 L 1055 527" stroke-miterlimit="10"/></g><g transform="translate(-590,-214) scale(1,1)"><path fill="none" stroke="#000000" d="M 1044.0082978329735 527.4271808415475 L 1055 527 L 1046.9256303910615 519.5297553307639" stroke-miterlimit="10"/></g><g transform="translate(-590,-214) scale(1,1)"><path fill="none" stroke="#000000" d="M 893 344 L 1196 479" stroke-miterlimit="10"/></g><g transform="translate(-590,-214) scale(1,1)"><path fill="none" stroke="#000000" d="M 1185.0038457048904 478.70915516483575 L 1196 479 L 1188.430203086172 471.01888637573666" stroke-miterlimit="10"/></g><g transform="translate(-590,-214) scale(1,1)"><rect fill="#C0C0C0" stroke="none" x="1423" y="239" width="69.70263671875" height="37" opacity="0.2"/></g><g transform="translate(-590,-214) scale(1,1)"><rect fill="#ebd8ff" stroke="none" x="1416" y="232" width="69.70263671875" height="37"/></g><g transform="translate(-590,-214) scale(1,1)"><path fill="none" stroke="#000000" d="M 1416 232 L 1485.70263671875 232 L 1485.70263671875 269 L 1416 269 L 1416 232 Z Z" stroke-miterlimit="10"/></g><g transform="translate(-590,-214) scale(1,1)"><g><path fill="none" stroke="none"/><text fill="#000000" stroke="none" font-family="Arial" font-size="13px" font-style="normal" font-weight="normal" text-decoration="none" x="1420.5" y="249.5">«abstract»</text></g></g><g transform="translate(-590,-214) scale(1,1)"><g><path fill="none" stroke="none"/><text fill="#000000" stroke="none" font-family="Arial" font-size="13px" font-style="italic" font-weight="bold" text-decoration="none" x="1431.700439453125" y="264.5">Objeto</text></g></g><g transform="translate(-590,-214) scale(1,1)"><rect fill="#C0C0C0" stroke="none" x="1439" y="455" width="55.21728515625" height="24" opacity="0.2"/></g><g transform="translate(-590,-214) scale(1,1)"><rect fill="#ebd8ff" stroke="none" x="1432" y="448" width="55.21728515625" height="24"/></g><g transform="translate(-590,-214) scale(1,1)"><path fill="none" stroke="#000000" d="M 1432 448 L 1487.21728515625 448 L 1487.21728515625 472 L 1432 472 L 1432 448 Z Z" stroke-miterlimit="10"/></g><g transform="translate(-590,-214) scale(1,1)"><g><path fill="none" stroke="none"/><text fill="#000000" stroke="none" font-family="Arial" font-size="13px" font-style="normal" font-weight="bold" text-decoration="none" x="1438.655029296875" y="467.5">Inimigo</text></g></g><g transform="translate(-590,-214) scale(1,1)"><path fill="none" stroke="#000000" d="M 1415 254 L 1103 286" stroke-miterlimit="10"/></g><g transform="translate(-590,-214) scale(1,1)"><path fill="#000000" stroke="none" d="M 1112.6801479940614 280.7755636846574 L 1103 286 L 1113.539132635946 289.15066394303415 L 1124.8851916494432 283.75536495903145"/></g><g transform="translate(-590,-214) scale(1,1)"><path fill="none" stroke="#000000" d="M 1112.6801479940614 280.7755636846574 L 1103 286 L 1113.539132635946 289.15066394303415 L 1124.8851916494432 283.75536495903145 L 1112.6801479940614 280.7755636846574" stroke-miterlimit="10"/></g><g transform="translate(-590,-214) scale(1,1)"><rect fill="#C0C0C0" stroke="none" x="1295" y="351" width="43.68994140625" height="24" opacity="0.2"/></g><g transform="translate(-590,-214) scale(1,1)"><rect fill="#ebd8ff" stroke="none" x="1288" y="344" width="43.68994140625" height="24"/></g><g transform="translate(-590,-214) scale(1,1)"><path fill="none" stroke="#000000" d="M 1288 344 L 1331.68994140625 344 L 1331.68994140625 368 L 1288 368 L 1288 344 Z Z" stroke-miterlimit="10"/></g><g transform="translate(-590,-214) scale(1,1)"><g><path fill="none" stroke="none"/><text fill="#000000" stroke="none" font-family="Arial" font-size="13px" font-style="normal" font-weight="bold" text-decoration="none" x="1293.226806640625" y="363.5">Caixa</text></g></g><g transform="translate(-590,-214) scale(1,1)"><path fill="none" stroke="#000000" d="M 1458 447 L 1451 270" stroke-miterlimit="10"/></g><g transform="translate(-590,-214) scale(1,1)"><path fill="#FFFFFF" stroke="none" d="M 1460.215658860053 289.9767773120472 L 1451 270 L 1443.3907401694432 290.64216957664763"/></g><g transform="translate(-590,-214) scale(1,1)"><path fill="none" stroke="#000000" d="M 1460.215658860053 289.9767773120472 L 1451 270 L 1443.3907401694432 290.64216957664763 L 1460.215658860053 289.9767773120472" stroke-miterlimit="10"/></g><g transform="translate(-590,-214) scale(1,1)"><path fill="none" stroke="#000000" d="M 1326 343 L 1423 270" stroke-miterlimit="10"/></g><g transform="translate(-590,-214) scale(1,1)"><path fill="#FFFFFF" stroke="none" d="M 1411.8223435869609 288.94887851858374 L 1423 270 L 1401.697322856196 275.4950838489374"/></g><g transform="translate(-590,-214) scale(1,1)"><path fill="none" stroke="#000000" d="M 1411.8223435869609 288.94887851858374 L 1423 270 L 1401.697322856196 275.4950838489374 L 1411.8223435869609 288.94887851858374" stroke-miterlimit="10"/></g><g transform="translate(-590,-214) scale(1,1)"><path fill="none" stroke="#000000" d="M 1431 464 L 1260 487" stroke-miterlimit="10"/></g><g transform="translate(-590,-214) scale(1,1)"><path fill="none" stroke="#000000" d="M 1269.5108375705731 481.47334018541267 L 1260 487 L 1270.633116373122 489.81723910871017" stroke-miterlimit="10"/></g><g transform="translate(-590,-214) scale(1,1)"><rect fill="#C0C0C0" stroke="none" x="1535" y="415" width="60.28271484375" height="24" opacity="0.2"/></g><g transform="translate(-590,-214) scale(1,1)"><rect fill="#ebd8ff" stroke="none" x="1528" y="408" width="60.28271484375" height="24"/></g><g transform="translate(-590,-214) scale(1,1)"><path fill="none" stroke="#000000" d="M 1528 408 L 1588.28271484375 408 L 1588.28271484375 432 L 1528 432 L 1528 408 Z Z" stroke-miterlimit="10"/></g><g transform="translate(-590,-214) scale(1,1)"><g><path fill="none" stroke="none"/><text fill="#000000" stroke="none" font-family="Arial" font-size="13px" font-style="normal" font-weight="bold" text-decoration="none" x="1534.65185546875" y="427.5">Jogador</text></g></g><g transform="translate(-590,-214) scale(1,1)"><path fill="none" stroke="#000000" d="M 1550 407 L 1463 270" stroke-miterlimit="10"/></g><g transform="translate(-590,-214) scale(1,1)"><path fill="#FFFFFF" stroke="none" d="M 1481.0030546331448 282.6447627054051 L 1463 270 L 1466.788884557682 291.67127946865526"/></g><g transform="translate(-590,-214) scale(1,1)"><path fill="none" stroke="#000000" d="M 1481.0030546331448 282.6447627054051 L 1463 270 L 1466.788884557682 291.67127946865526 L 1481.0030546331448 282.6447627054051" stroke-miterlimit="10"/></g><g transform="translate(-590,-214) scale(1,1)"><rect fill="#C0C0C0" stroke="none" x="1311" y="615" width="69.70263671875" height="37" opacity="0.2"/></g><g transform="translate(-590,-214) scale(1,1)"><rect fill="#ffff91" stroke="none" x="1304" y="608" width="69.70263671875" height="37"/></g><g transform="translate(-590,-214) scale(1,1)"><path fill="none" stroke="#000000" d="M 1304 608 L 1373.70263671875 608 L 1373.70263671875 645 L 1304 645 L 1304 608 Z Z" stroke-miterlimit="10"/></g><g transform="translate(-590,-214) scale(1,1)"><g><path fill="none" stroke="none"/><text fill="#000000" stroke="none" font-family="Arial" font-size="13px" font-style="normal" font-weight="normal" text-decoration="none" x="1308.5" y="625.5">«abstract»</text></g></g><g transform="translate(-590,-214) scale(1,1)"><g><path fill="none" stroke="none"/><text fill="#000000" stroke="none" font-family="Arial" font-size="13px" font-style="italic" font-weight="bold" text-decoration="none" x="1317.17724609375" y="640.5">Fabrica</text></g></g><g transform="translate(-590,-214) scale(1,1)"><path fill="none" stroke="#000000" d="M 1303 627 L 1119 633" stroke-miterlimit="10" stroke-dasharray="3"/></g><g transform="translate(-590,-214) scale(1,1)"><path fill="none" stroke="#000000" d="M 1129.0200820776233 628.4615029847217 L 1119 633 L 1129.2944700010314 636.8760659692351" stroke-miterlimit="10"/></g><g transform="translate(-590,-214) scale(1,1)"><g><path fill="none" stroke="none"/><text fill="#000000" stroke="none" font-family="Arial" font-size="13px" font-style="normal" font-weight="normal" text-decoration="none" x="1193" y="649">«use»</text></g></g><g transform="translate(-590,-214) scale(1,1)"><rect fill="#C0C0C0" stroke="none" x="1319" y="783" width="112.32080078125" height="24" opacity="0.2"/></g><g transform="translate(-590,-214) scale(1,1)"><rect fill="#ffff91" stroke="none" x="1312" y="776" width="112.32080078125" height="24"/></g><g transform="translate(-590,-214) scale(1,1)"><path fill="none" stroke="#000000" d="M 1312 776 L 1424.32080078125 776 L 1424.32080078125 800 L 1312 800 L 1312 776 Z Z" stroke-miterlimit="10"/></g><g transform="translate(-590,-214) scale(1,1)"><g><path fill="none" stroke="none"/><text fill="#000000" stroke="none" font-family="Arial" font-size="13px" font-style="normal" font-weight="bold" text-decoration="none" x="1318.667724609375" y="795.5">FabricaDeMapas</text></g></g><g transform="translate(-590,-214) scale(1,1)"><path fill="none" stroke="#000000" d="M 1311 788 L 1099 788" stroke-miterlimit="10" stroke-dasharray="3"/></g><g transform="translate(-590,-214) scale(1,1)"><path fill="none" stroke="#000000" d="M 1109.162674857624 783.790482243984 L 1099 788 L 1109.162674857624 792.209517756016" stroke-miterlimit="10"/></g><g transform="translate(-590,-214) scale(1,1)"><g><path fill="none" stroke="none"/><text fill="#000000" stroke="none" font-family="Arial" font-size="13px" font-style="normal" font-weight="normal" text-decoration="none" x="1183" y="808">«create»</text></g></g><g transform="translate(-590,-214) scale(1,1)"><path fill="none" stroke="#000000" d="M 1366 775 L 1342 646" stroke-miterlimit="10"/></g><g transform="translate(-590,-214) scale(1,1)"><path fill="#FFFFFF" stroke="none" d="M 1353.9946741616548 664.4425538295468 L 1342 646 L 1337.4406605625586 667.5223703130996"/></g><g transform="translate(-590,-214) scale(1,1)"><path fill="none" stroke="#000000" d="M 1353.9946741616548 664.4425538295468 L 1342 646 L 1337.4406605625586 667.5223703130996 L 1353.9946741616548 664.4425538295468" stroke-miterlimit="10"/></g><g transform="translate(-590,-214) scale(1,1)"><rect fill="#C0C0C0" stroke="none" x="1751" y="231" width="109.38818359375" height="37" opacity="0.2"/></g><g transform="translate(-590,-214) scale(1,1)"><rect fill="#ffd8ff" stroke="none" x="1744" y="224" width="109.38818359375" height="37"/></g><g transform="translate(-590,-214) scale(1,1)"><path fill="none" stroke="#000000" d="M 1744 224 L 1853.38818359375 224 L 1853.38818359375 261 L 1744 261 L 1744 224 Z Z" stroke-miterlimit="10"/></g><g transform="translate(-590,-214) scale(1,1)"><g><path fill="none" stroke="none"/><text fill="#000000" stroke="none" font-family="Arial" font-size="13px" font-style="normal" font-weight="normal" text-decoration="none" x="1768.3427734375" y="241.5">«abstract»</text></g></g><g transform="translate(-590,-214) scale(1,1)"><g><path fill="none" stroke="none"/><text fill="#000000" stroke="none" font-family="Arial" font-size="13px" font-style="italic" font-weight="bold" text-decoration="none" x="1752.089599609375" y="256.5">Comportamento</text></g></g><g transform="translate(-590,-214) scale(1,1)"><path fill="none" stroke="#000000" d="M 1743 243 L 1487 249" stroke-miterlimit="10"/></g><g transform="translate(-590,-214) scale(1,1)"><path fill="#FFFFFF" stroke="none" d="M 1497.061251259417 244.5535156477419 L 1487 249 L 1497.258518230677 252.970239754834 L 1508.9939600078176 248.48451656231677"/></g><g transform="translate(-590,-214) scale(1,1)"><path fill="none" stroke="#000000" d="M 1497.061251259417 244.5535156477419 L 1487 249 L 1497.258518230677 252.970239754834 L 1508.9939600078176 248.48451656231677 L 1497.061251259417 244.5535156477419" stroke-miterlimit="10"/></g><g transform="translate(-590,-214) scale(1,1)"><rect fill="#C0C0C0" stroke="none" x="1575" y="551" width="70.4072265625" height="24" opacity="0.2"/></g><g transform="translate(-590,-214) scale(1,1)"><rect fill="#ffd8ff" stroke="none" x="1568" y="544" width="70.4072265625" height="24"/></g><g transform="translate(-590,-214) scale(1,1)"><path fill="none" stroke="#000000" d="M 1568 544 L 1638.4072265625 544 L 1638.4072265625 568 L 1568 568 L 1568 544 Z Z" stroke-miterlimit="10"/></g><g transform="translate(-590,-214) scale(1,1)"><g><path fill="none" stroke="none"/><text fill="#000000" stroke="none" font-family="Arial" font-size="13px" font-style="normal" font-weight="bold" text-decoration="none" x="1575.385009765625" y="563.5">Explosivo</text></g></g><g transform="translate(-590,-214) scale(1,1)"><rect fill="#C0C0C0" stroke="none" x="1583" y="335" width="85.5908203125" height="24" opacity="0.2"/></g><g transform="translate(-590,-214) scale(1,1)"><rect fill="#ffd8ff" stroke="none" x="1576" y="328" width="85.5908203125" height="24"/></g><g transform="translate(-590,-214) scale(1,1)"><path fill="none" stroke="#000000" d="M 1576 328 L 1661.5908203125 328 L 1661.5908203125 352 L 1576 352 L 1576 328 Z Z" stroke-miterlimit="10"/></g><g transform="translate(-590,-214) scale(1,1)"><g><path fill="none" stroke="none"/><text fill="#000000" stroke="none" font-family="Arial" font-size="13px" font-style="normal" font-weight="bold" text-decoration="none" x="1583.397705078125" y="347.5">Empurrarvel</text></g></g><g transform="translate(-590,-214) scale(1,1)"><rect fill="#C0C0C0" stroke="none" x="1751" y="399" width="85.57177734375" height="24" opacity="0.2"/></g><g transform="translate(-590,-214) scale(1,1)"><rect fill="#ffd8ff" stroke="none" x="1744" y="392" width="85.57177734375" height="24"/></g><g transform="translate(-590,-214) scale(1,1)"><path fill="none" stroke="#000000" d="M 1744 392 L 1829.57177734375 392 L 1829.57177734375 416 L 1744 416 L 1744 392 Z Z" stroke-miterlimit="10"/></g><g transform="translate(-590,-214) scale(1,1)"><g><path fill="none" stroke="none"/><text fill="#000000" stroke="none" font-family="Arial" font-size="13px" font-style="normal" font-weight="bold" text-decoration="none" x="1751.74365234375" y="411.5">Controlarvel</text></g></g><g transform="translate(-590,-214) scale(1,1)"><path fill="none" stroke="#000000" d="M 1611 543 L 1786 262" stroke-miterlimit="10"/></g><g transform="translate(-590,-214) scale(1,1)"><path fill="#FFFFFF" stroke="none" d="M 1782.4016575831588 283.7037308279282 L 1786 262 L 1768.108732430545 274.80244292149604"/></g><g transform="translate(-590,-214) scale(1,1)"><path fill="none" stroke="#000000" d="M 1782.4016575831588 283.7037308279282 L 1786 262 L 1768.108732430545 274.80244292149604 L 1782.4016575831588 283.7037308279282" stroke-miterlimit="10"/></g><g transform="translate(-590,-214) scale(1,1)"><path fill="none" stroke="#000000" d="M 1642 327 L 1761 262" stroke-miterlimit="10"/></g><g transform="translate(-590,-214) scale(1,1)"><path fill="#FFFFFF" stroke="none" d="M 1747.1980197449657 279.13199757878937 L 1761 262 L 1739.126374504629 264.3546778310959"/></g><g transform="translate(-590,-214) scale(1,1)"><path fill="none" stroke="#000000" d="M 1747.1980197449657 279.13199757878937 L 1761 262 L 1739.126374504629 264.3546778310959 L 1747.1980197449657 279.13199757878937" stroke-miterlimit="10"/></g><g transform="translate(-590,-214) scale(1,1)"><path fill="none" stroke="#000000" d="M 1787 391 L 1797 262" stroke-miterlimit="10"/></g><g transform="translate(-590,-214) scale(1,1)"><path fill="#FFFFFF" stroke="none" d="M 1803.8229572703835 282.91523975685004 L 1797 262 L 1787.035251491423 281.61386721584535"/></g><g transform="translate(-590,-214) scale(1,1)"><path fill="none" stroke="#000000" d="M 1803.8229572703835 282.91523975685004 L 1797 262 L 1787.035251491423 281.61386721584535 L 1803.8229572703835 282.91523975685004" stroke-miterlimit="10"/></g><g transform="translate(-590,-214) scale(1,1)"><rect fill="#C0C0C0" stroke="none" x="1871" y="487" width="59.57177734375" height="24" opacity="0.2"/></g><g transform="translate(-590,-214) scale(1,1)"><rect fill="#ffd8ff" stroke="none" x="1864" y="480" width="59.57177734375" height="24"/></g><g transform="translate(-590,-214) scale(1,1)"><path fill="none" stroke="#000000" d="M 1864 480 L 1923.57177734375 480 L 1923.57177734375 504 L 1864 504 L 1864 480 Z Z" stroke-miterlimit="10"/></g><g transform="translate(-590,-214) scale(1,1)"><g><path fill="none" stroke="none"/><text fill="#000000" stroke="none" font-family="Arial" font-size="13px" font-style="normal" font-weight="bold" text-decoration="none" x="1869.569580078125" y="499.5">Vagante</text></g></g><g transform="translate(-590,-214) scale(1,1)"><path fill="none" stroke="#000000" d="M 1888 479 L 1806 262" stroke-miterlimit="10"/></g><g transform="translate(-590,-214) scale(1,1)"><path fill="#FFFFFF" stroke="none" d="M 1821.060200136256 278.03715597778836 L 1806 262 L 1805.3091878995326 283.98915138521375"/></g><g transform="translate(-590,-214) scale(1,1)"><path fill="none" stroke="#000000" d="M 1821.060200136256 278.03715597778836 L 1806 262 L 1805.3091878995326 283.98915138521375 L 1821.060200136256 278.03715597778836" stroke-miterlimit="10"/></g><g transform="translate(-590,-214) scale(1,1)"><path fill="none" stroke="#000000" d="M 1584 543 L 1479 473" stroke-miterlimit="10"/></g><g transform="translate(-590,-214) scale(1,1)"><path fill="none" stroke="#000000" d="M 1489.7908769318217 475.13470724978384 L 1479 473 L 1485.1208362812704 482.1397682256108" stroke-miterlimit="10"/></g><g transform="translate(-590,-214) scale(1,1)"><path fill="none" stroke="#000000" d="M 1863 490 L 1488 462" stroke-miterlimit="10"/></g><g transform="translate(-590,-214) scale(1,1)"><path fill="none" stroke="#000000" d="M 1498.4479018895559 458.55887429665563 L 1488 462 L 1497.8210255950266 466.9545389555265" stroke-miterlimit="10"/></g><g transform="translate(-590,-214) scale(1,1)"><path fill="none" stroke="#000000" d="M 1743 407 L 1589 418" stroke-miterlimit="10"/></g><g transform="translate(-590,-214) scale(1,1)"><path fill="none" stroke="#000000" d="M 1598.8369327283003 413.0771192885779 L 1589 418 L 1599.436764172276 421.4747595042381" stroke-miterlimit="10"/></g><g transform="translate(-590,-214) scale(1,1)"><path fill="none" stroke="#000000" d="M 1575 342 L 1333 355" stroke-miterlimit="10"/></g><g transform="translate(-590,-214) scale(1,1)"><path fill="none" stroke="#000000" d="M 1342.9222375934708 350.2514000864765 L 1333 355 L 1343.3738486868815 358.65831428689296" stroke-miterlimit="10"/></g><g transform="translate(-590,-214) scale(1,1)"><path fill="none" stroke="#000000" d="M 1103 286 L 1415 254" stroke-miterlimit="10"/></g><g transform="translate(-590,-214) scale(1,1)"><path fill="none" stroke="#000000" d="M 1405.3198520059386 259.2244363153426 L 1415 254 L 1404.460867364054 250.84933605696588" stroke-miterlimit="10"/></g><g transform="translate(-590,-214) scale(1,1)"><path fill="none" stroke="#000000" d="M 1031 289 L 719 283" stroke-miterlimit="10"/></g><g transform="translate(-590,-214) scale(1,1)"><path fill="none" stroke="#000000" d="M 729.2417334855588 278.9866603419618 L 719 283 L 729.0798588861477 287.4041395113403" stroke-miterlimit="10"/></g><g transform="translate(-590,-214) scale(1,1)"><path fill="none" stroke="#000000" d="M 1047 637 L 788 662" stroke-miterlimit="10"/></g><g transform="translate(-590,-214) scale(1,1)"><path fill="#000000" stroke="none" d="M 797.7112154835199 656.8335414612482 L 788 662 L 798.5201041894313 665.2136284544902 L 809.8982226156246 659.8862719482988"/></g><g transform="translate(-590,-214) scale(1,1)"><path fill="none" stroke="#000000" d="M 797.7112154835199 656.8335414612482 L 788 662 L 798.5201041894313 665.2136284544902 L 809.8982226156246 659.8862719482988 L 797.7112154835199 656.8335414612482" stroke-miterlimit="10"/></g><g transform="translate(-590,-214) scale(1,1)"><rect fill="#C0C0C0" stroke="none" x="1167" y="319" width="69.70263671875" height="37" opacity="0.2"/></g><g transform="translate(-590,-214) scale(1,1)"><rect fill="#ffadad" stroke="none" x="1160" y="312" width="69.70263671875" height="37"/></g><g transform="translate(-590,-214) scale(1,1)"><path fill="none" stroke="#000000" d="M 1160 312 L 1229.70263671875 312 L 1229.70263671875 349 L 1160 349 L 1160 312 Z Z" stroke-miterlimit="10"/></g><g transform="translate(-590,-214) scale(1,1)"><g><path fill="none" stroke="none"/><text fill="#000000" stroke="none" font-family="Arial" font-size="13px" font-style="normal" font-weight="normal" text-decoration="none" x="1164.5" y="329.5">«abstract»</text></g></g><g transform="translate(-590,-214) scale(1,1)"><g><path fill="none" stroke="none"/><text fill="#000000" stroke="none" font-family="Arial" font-size="13px" font-style="italic" font-weight="bold" text-decoration="none" x="1168.841796875" y="344.5">CaixaEst</text></g></g><g transform="translate(-590,-214) scale(1,1)"><path fill="none" stroke="#000000" d="M 1231 338 L 1287 351" stroke-miterlimit="10"/></g><g transform="translate(-590,-214) scale(1,1)"><path fill="#FFFFFF" stroke="none" d="M 1276.1486698565864 352.80239677059313 L 1287 351 L 1278.0524638918232 344.6014378495734 L 1265.5698615946462 346.0251464416143"/></g><g transform="translate(-590,-214) scale(1,1)"><path fill="none" stroke="#000000" d="M 1276.1486698565864 352.80239677059313 L 1287 351 L 1278.0524638918232 344.6014378495734 L 1265.5698615946462 346.0251464416143 L 1276.1486698565864 352.80239677059313" stroke-miterlimit="10"/></g><g transform="translate(-590,-214) scale(1,1)"><rect fill="#C0C0C0" stroke="none" x="1223" y="415" width="58.8291015625" height="24" opacity="0.2"/></g><g transform="translate(-590,-214) scale(1,1)"><rect fill="#ffadad" stroke="none" x="1216" y="408" width="58.8291015625" height="24"/></g><g transform="translate(-590,-214) scale(1,1)"><path fill="none" stroke="#000000" d="M 1216 408 L 1274.8291015625 408 L 1274.8291015625 432 L 1216 432 L 1216 408 Z Z" stroke-miterlimit="10"/></g><g transform="translate(-590,-214) scale(1,1)"><g><path fill="none" stroke="none"/><text fill="#000000" stroke="none" font-family="Arial" font-size="13px" font-style="normal" font-weight="bold" text-decoration="none" x="1221.56640625" y="427.5">NoChao</text></g></g><g transform="translate(-590,-214) scale(1,1)"><rect fill="#C0C0C0" stroke="none" x="975" y="439" width="58.1181640625" height="24" opacity="0.2"/></g><g transform="translate(-590,-214) scale(1,1)"><rect fill="#ffadad" stroke="none" x="968" y="432" width="58.1181640625" height="24"/></g><g transform="translate(-590,-214) scale(1,1)"><path fill="none" stroke="#000000" d="M 968 432 L 1026.1181640625 432 L 1026.1181640625 456 L 968 456 L 968 432 Z Z" stroke-miterlimit="10"/></g><g transform="translate(-590,-214) scale(1,1)"><g><path fill="none" stroke="none"/><text fill="#000000" stroke="none" font-family="Arial" font-size="13px" font-style="normal" font-weight="bold" text-decoration="none" x="973.569580078125" y="451.5">NaAgua</text></g></g><g transform="translate(-590,-214) scale(1,1)"><path fill="none" stroke="#000000" d="M 1019 431 L 1159 350" stroke-miterlimit="10"/></g><g transform="translate(-590,-214) scale(1,1)"><path fill="#FFFFFF" stroke="none" d="M 1145.6232310973976 367.4660256992359 L 1159 350 L 1137.1908507862963 352.8915412109127"/></g><g transform="translate(-590,-214) scale(1,1)"><path fill="none" stroke="#000000" d="M 1145.6232310973976 367.4660256992359 L 1159 350 L 1137.1908507862963 352.8915412109127 L 1145.6232310973976 367.4660256992359" stroke-miterlimit="10"/></g><g transform="translate(-590,-214) scale(1,1)"><path fill="none" stroke="#000000" d="M 1238 407 L 1205 350" stroke-miterlimit="10"/></g><g transform="translate(-590,-214) scale(1,1)"><path fill="#FFFFFF" stroke="none" d="M 1222.4697920492954 363.37184975066555 L 1205 350 L 1207.8976827882723 371.8083340596789"/></g><g transform="translate(-590,-214) scale(1,1)"><path fill="none" stroke="#000000" d="M 1222.4697920492954 363.37184975066555 L 1205 350 L 1207.8976827882723 371.8083340596789 L 1222.4697920492954 363.37184975066555" stroke-miterlimit="10"/></g><g transform="translate(-590,-214) scale(1,1)"><path fill="none" stroke="#000000" d="M 1009 457 L 1077 527" stroke-miterlimit="10"/></g><g transform="translate(-590,-214) scale(1,1)"><path fill="none" stroke="#000000" d="M 1066.8993933556344 522.6436545802936 L 1077 527 L 1072.9381939351365 516.7773911602059" stroke-miterlimit="10"/></g><g transform="translate(-590,-214) scale(1,1)"><path fill="none" stroke="#000000" d="M 1241 433 L 1229 479" stroke-miterlimit="10"/></g><g transform="translate(-590,-214) scale(1,1)"><path fill="none" stroke="#000000" d="M 1227.4920795784674 468.1038458159622 L 1229 479 L 1235.6384837568319 470.2289947320573" stroke-miterlimit="10"/></g><g transform="translate(-590,-214) scale(1,1)"><rect fill="#C0C0C0" stroke="none" x="743" y="847" width="66.05908203125" height="24" opacity="0.2"/></g><g transform="translate(-590,-214) scale(1,1)"><rect fill="#d1ffa3" stroke="none" x="736" y="840" width="66.05908203125" height="24"/></g><g transform="translate(-590,-214) scale(1,1)"><path fill="none" stroke="#000000" d="M 736 840 L 802.05908203125 840 L 802.05908203125 864 L 736 864 L 736 840 Z Z" stroke-miterlimit="10"/></g><g transform="translate(-590,-214) scale(1,1)"><g><path fill="none" stroke="none"/><text fill="#000000" stroke="none" font-family="Arial" font-size="13px" font-style="normal" font-weight="bold" text-decoration="none" x="741.9345703125" y="859.5">Memento</text></g></g><g transform="translate(-590,-214) scale(1,1)"><rect fill="#C0C0C0" stroke="none" x="711" y="975" width="40.052734375" height="24" opacity="0.2"/></g><g transform="translate(-590,-214) scale(1,1)"><rect fill="#ffffff" stroke="none" x="704" y="968" width="40.052734375" height="24"/></g><g transform="translate(-590,-214) scale(1,1)"><path fill="none" stroke="#000000" d="M 704 968 L 744.052734375 968 L 744.052734375 992 L 704 992 L 704 968 Z Z" stroke-miterlimit="10"/></g><g transform="translate(-590,-214) scale(1,1)"><g><path fill="none" stroke="none"/><text fill="#000000" stroke="none" font-family="Arial" font-size="13px" font-style="normal" font-weight="bold" text-decoration="none" x="709.931396484375" y="987.5">Jogo</text></g></g><g transform="translate(-590,-214) scale(1,1)"><path fill="none" stroke="#000000" d="M 764 865 L 729 967" stroke-miterlimit="10"/></g><g transform="translate(-590,-214) scale(1,1)"><path fill="#FFFFFF" stroke="none" d="M 728.3167779486305 956.0212383381129 L 729 967 L 736.2800458745717 958.7537322342691 L 736.1403506529372 946.1909780971546"/></g><g transform="translate(-590,-214) scale(1,1)"><path fill="none" stroke="#000000" d="M 728.3167779486305 956.0212383381129 L 729 967 L 736.2800458745717 958.7537322342691 L 736.1403506529372 946.1909780971546 L 728.3167779486305 956.0212383381129" stroke-miterlimit="10"/></g><g transform="translate(-590,-214) scale(1,1)"><path fill="none" stroke="#000000" d="M 751 686 L 768 839" stroke-miterlimit="10" stroke-dasharray="3"/></g><g transform="translate(-590,-214) scale(1,1)"><path fill="none" stroke="#000000" d="M 762.6939490779461 829.3643462280668 L 768 839 L 771.0614915349942 828.4346192883949" stroke-miterlimit="10"/></g><g transform="translate(-590,-214) scale(1,1)"><rect fill="#C0C0C0" stroke="none" x="1119" y="1023" width="69.70263671875" height="37" opacity="0.2"/></g><g transform="translate(-590,-214) scale(1,1)"><rect fill="#91ffec" stroke="none" x="1112" y="1016" width="69.70263671875" height="37"/></g><g transform="translate(-590,-214) scale(1,1)"><path fill="none" stroke="#000000" d="M 1112 1016 L 1181.70263671875 1016 L 1181.70263671875 1053 L 1112 1053 L 1112 1016 Z Z" stroke-miterlimit="10"/></g><g transform="translate(-590,-214) scale(1,1)"><g><path fill="none" stroke="none"/><text fill="#000000" stroke="none" font-family="Arial" font-size="13px" font-style="normal" font-weight="normal" text-decoration="none" x="1116.5" y="1033.5">«abstract»</text></g></g><g transform="translate(-590,-214) scale(1,1)"><g><path fill="none" stroke="none"/><text fill="#000000" stroke="none" font-family="Arial" font-size="13px" font-style="italic" font-weight="bold" text-decoration="none" x="1117.950439453125" y="1048.5">GElement</text></g></g><g transform="translate(-590,-214) scale(1,1)"><rect fill="#C0C0C0" stroke="none" x="991" y="1111" width="49.47265625" height="24" opacity="0.2"/></g><g transform="translate(-590,-214) scale(1,1)"><rect fill="#91ffec" stroke="none" x="984" y="1104" width="49.47265625" height="24"/></g><g transform="translate(-590,-214) scale(1,1)"><path fill="none" stroke="#000000" d="M 984 1104 L 1033.47265625 1104 L 1033.47265625 1128 L 984 1128 L 984 1104 Z Z" stroke-miterlimit="10"/></g><g transform="translate(-590,-214) scale(1,1)"><g><path fill="none" stroke="none"/><text fill="#000000" stroke="none" font-family="Arial" font-size="13px" font-style="normal" font-weight="bold" text-decoration="none" x="989.582275390625" y="1123.5">Janela</text></g></g><g transform="translate(-590,-214) scale(1,1)"><rect fill="#C0C0C0" stroke="none" x="1175" y="1119" width="86.3017578125" height="37" opacity="0.2"/></g><g transform="translate(-590,-214) scale(1,1)"><rect fill="#91ffec" stroke="none" x="1168" y="1112" width="86.3017578125" height="37"/></g><g transform="translate(-590,-214) scale(1,1)"><path fill="none" stroke="#000000" d="M 1168 1112 L 1254.3017578125 1112 L 1254.3017578125 1149 L 1168 1149 L 1168 1112 Z Z" stroke-miterlimit="10"/></g><g transform="translate(-590,-214) scale(1,1)"><g><path fill="none" stroke="none"/><text fill="#000000" stroke="none" font-family="Arial" font-size="13px" font-style="normal" font-weight="normal" text-decoration="none" x="1180.799560546875" y="1129.5">«abstract»</text></g></g><g transform="translate(-590,-214) scale(1,1)"><g><path fill="none" stroke="none"/><text fill="#000000" stroke="none" font-family="Arial" font-size="13px" font-style="italic" font-weight="bold" text-decoration="none" x="1174.658203125" y="1144.5">JanelaComp</text></g></g><g transform="translate(-590,-214) scale(1,1)"><path fill="none" stroke="#000000" d="M 1030 1103 L 1112 1054" stroke-miterlimit="10"/></g><g transform="translate(-590,-214) scale(1,1)"><path fill="#FFFFFF" stroke="none" d="M 1098.8710002876953 1071.6530271215536 L 1112 1054 L 1090.2338200871127 1057.1989704593539"/></g><g transform="translate(-590,-214) scale(1,1)"><path fill="none" stroke="#000000" d="M 1098.8710002876953 1071.6530271215536 L 1112 1054 L 1090.2338200871127 1057.1989704593539 L 1098.8710002876953 1071.6530271215536" stroke-miterlimit="10"/></g><g transform="translate(-590,-214) scale(1,1)"><path fill="none" stroke="#000000" d="M 1198 1111 L 1160 1054" stroke-miterlimit="10"/></g><g transform="translate(-590,-214) scale(1,1)"><path fill="#FFFFFF" stroke="none" d="M 1178.2795364512217 1066.2416725625405 L 1160 1054 L 1164.2694144995676 1075.5817538636434"/></g><g transform="translate(-590,-214) scale(1,1)"><path fill="none" stroke="#000000" d="M 1178.2795364512217 1066.2416725625405 L 1160 1054 L 1164.2694144995676 1075.5817538636434 L 1178.2795364512217 1066.2416725625405" stroke-miterlimit="10"/></g><g transform="translate(-590,-214) scale(1,1)"><rect fill="#C0C0C0" stroke="none" x="1055" y="1207" width="45.8291015625" height="24" opacity="0.2"/></g><g transform="translate(-590,-214) scale(1,1)"><rect fill="#91ffec" stroke="none" x="1048" y="1200" width="45.8291015625" height="24"/></g><g transform="translate(-590,-214) scale(1,1)"><path fill="none" stroke="#000000" d="M 1048 1200 L 1093.8291015625 1200 L 1093.8291015625 1224 L 1048 1224 L 1048 1200 Z Z" stroke-miterlimit="10"/></g><g transform="translate(-590,-214) scale(1,1)"><g><path fill="none" stroke="none"/><text fill="#000000" stroke="none" font-family="Arial" font-size="13px" font-style="normal" font-weight="bold" text-decoration="none" x="1053.92822265625" y="1219.5">Botao</text></g></g><g transform="translate(-590,-214) scale(1,1)"><rect fill="#C0C0C0" stroke="none" x="1295" y="1247" width="64.63720703125" height="24" opacity="0.2"/></g><g transform="translate(-590,-214) scale(1,1)"><rect fill="#91ffec" stroke="none" x="1288" y="1240" width="64.63720703125" height="24"/></g><g transform="translate(-590,-214) scale(1,1)"><path fill="none" stroke="#000000" d="M 1288 1240 L 1352.63720703125 1240 L 1352.63720703125 1264 L 1288 1264 L 1288 1240 Z Z" stroke-miterlimit="10"/></g><g transform="translate(-590,-214) scale(1,1)"><g><path fill="none" stroke="none"/><text fill="#000000" stroke="none" font-family="Arial" font-size="13px" font-style="normal" font-weight="bold" text-decoration="none" x="1293.947265625" y="1259.5">TextArea</text></g></g><g transform="translate(-590,-214) scale(1,1)"><rect fill="#C0C0C0" stroke="none" x="1183" y="1271" width="66.77001953125" height="24" opacity="0.2"/></g><g transform="translate(-590,-214) scale(1,1)"><rect fill="#91ffec" stroke="none" x="1176" y="1264" width="66.77001953125" height="24"/></g><g transform="translate(-590,-214) scale(1,1)"><path fill="none" stroke="#000000" d="M 1176 1264 L 1242.77001953125 1264 L 1242.77001953125 1288 L 1176 1288 L 1176 1264 Z Z" stroke-miterlimit="10"/></g><g transform="translate(-590,-214) scale(1,1)"><g><path fill="none" stroke="none"/><text fill="#000000" stroke="none" font-family="Arial" font-size="13px" font-style="normal" font-weight="bold" text-decoration="none" x="1182.6455078125" y="1283.5">Contador</text></g></g><g transform="translate(-590,-214) scale(1,1)"><rect fill="#C0C0C0" stroke="none" x="1383" y="1167" width="27.052734375" height="24" opacity="0.2"/></g><g transform="translate(-590,-214) scale(1,1)"><rect fill="#91ffec" stroke="none" x="1376" y="1160" width="27.052734375" height="24"/></g><g transform="translate(-590,-214) scale(1,1)"><path fill="none" stroke="#000000" d="M 1376 1160 L 1403.052734375 1160 L 1403.052734375 1184 L 1376 1184 L 1376 1160 Z Z" stroke-miterlimit="10"/></g><g transform="translate(-590,-214) scale(1,1)"><g><path fill="none" stroke="none"/><text fill="#000000" stroke="none" font-family="Arial" font-size="13px" font-style="normal" font-weight="bold" text-decoration="none" x="1381.220458984375" y="1179.5">Gif</text></g></g><g transform="translate(-590,-214) scale(1,1)"><path fill="none" stroke="#000000" d="M 1183 1039 L 1248 1048 L 1220 1111" stroke-miterlimit="10"/></g><g transform="translate(-590,-214) scale(1,1)"><path fill="#FFFFFF" stroke="none" d="M 1220.280747238106 1100.0035832659773 L 1220 1111 L 1227.9741591172449 1103.4228774344833 L 1228.9350462531759 1090.8961459303544"/></g><g transform="translate(-590,-214) scale(1,1)"><path fill="none" stroke="#000000" d="M 1220.280747238106 1100.0035832659773 L 1220 1111 L 1227.9741591172449 1103.4228774344833 L 1228.9350462531759 1090.8961459303544 L 1220.280747238106 1100.0035832659773" stroke-miterlimit="10"/></g><g transform="translate(-590,-214) scale(1,1)"><g><path fill="none" stroke="none"/><text fill="#000000" stroke="none" font-family="Arial" font-size="13px" font-style="normal" font-weight="normal" text-decoration="none" x="1187" y="1054">0..*</text></g></g><g transform="translate(-590,-214) scale(1,1)"><path fill="none" stroke="#000000" d="M 1092 1199 L 1177 1150" stroke-miterlimit="10"/></g><g transform="translate(-590,-214) scale(1,1)"><path fill="#FFFFFF" stroke="none" d="M 1163.5957317792722 1167.4449303084532 L 1177 1150 L 1155.1863225258462 1152.857179562714"/></g><g transform="translate(-590,-214) scale(1,1)"><path fill="none" stroke="#000000" d="M 1163.5957317792722 1167.4449303084532 L 1177 1150 L 1155.1863225258462 1152.857179562714 L 1163.5957317792722 1167.4449303084532" stroke-miterlimit="10"/></g><g transform="translate(-590,-214) scale(1,1)"><path fill="none" stroke="#000000" d="M 1209 1263 L 1211 1150" stroke-miterlimit="10"/></g><g transform="translate(-590,-214) scale(1,1)"><path fill="#FFFFFF" stroke="none" d="M 1219.0580327836049 1170.47115306128 L 1211 1150 L 1202.2225984759716 1170.1731807726492"/></g><g transform="translate(-590,-214) scale(1,1)"><path fill="none" stroke="#000000" d="M 1219.0580327836049 1170.47115306128 L 1211 1150 L 1202.2225984759716 1170.1731807726492 L 1219.0580327836049 1170.47115306128" stroke-miterlimit="10"/></g><g transform="translate(-590,-214) scale(1,1)"><path fill="none" stroke="#000000" d="M 1308 1239 L 1229 1150" stroke-miterlimit="10"/></g><g transform="translate(-590,-214) scale(1,1)"><path fill="#FFFFFF" stroke="none" d="M 1248.789190266261 1159.6118649910266 L 1229 1150 L 1236.1964557164595 1170.7896855464685"/></g><g transform="translate(-590,-214) scale(1,1)"><path fill="none" stroke="#000000" d="M 1248.789190266261 1159.6118649910266 L 1229 1150 L 1236.1964557164595 1170.7896855464685 L 1248.789190266261 1159.6118649910266" stroke-miterlimit="10"/></g><g transform="translate(-590,-214) scale(1,1)"><path fill="none" stroke="#000000" d="M 1375 1169 L 1255 1140" stroke-miterlimit="10"/></g><g transform="translate(-590,-214) scale(1,1)"><path fill="#FFFFFF" stroke="none" d="M 1276.7342842116473 1136.5910573769365 L 1255 1140 L 1272.7789461957354 1152.9579733048477"/></g><g transform="translate(-590,-214) scale(1,1)"><path fill="none" stroke="#000000" d="M 1276.7342842116473 1136.5910573769365 L 1255 1140 L 1272.7789461957354 1152.9579733048477 L 1276.7342842116473 1136.5910573769365" stroke-miterlimit="10"/></g><g transform="translate(-590,-214) scale(1,1)"><rect fill="#C0C0C0" stroke="none" x="967" y="967" width="76.91357421875" height="24" opacity="0.2"/></g><g transform="translate(-590,-214) scale(1,1)"><rect fill="#ffadad" stroke="none" x="960" y="960" width="76.91357421875" height="24"/></g><g transform="translate(-590,-214) scale(1,1)"><path fill="none" stroke="#000000" d="M 960 960 L 1036.91357421875 960 L 1036.91357421875 984 L 960 984 L 960 960 Z Z" stroke-miterlimit="10"/></g><g transform="translate(-590,-214) scale(1,1)"><g><path fill="none" stroke="none"/><text fill="#000000" stroke="none" font-family="Arial" font-size="13px" font-style="normal" font-weight="bold" text-decoration="none" x="965.220458984375" y="979.5">GUIFacade</text></g></g><g transform="translate(-590,-214) scale(1,1)"><path fill="none" stroke="#000000" d="M 959 973 L 745 979" stroke-miterlimit="10"/></g><g transform="translate(-590,-214) scale(1,1)"><path fill="#000000" stroke="none" d="M 755.0407052971873 974.5073129270963 L 745 979 L 755.2766602985361 982.9230413085376 L 766.9913580513 978.3834198677206"/></g><g transform="translate(-590,-214) scale(1,1)"><path fill="none" stroke="#000000" d="M 755.0407052971873 974.5073129270963 L 745 979 L 755.2766602985361 982.9230413085376 L 766.9913580513 978.3834198677206 L 755.0407052971873 974.5073129270963" stroke-miterlimit="10"/></g><g transform="translate(-590,-214) scale(1,1)"><path fill="none" stroke="#000000" d="M 745 979 L 959 973" stroke-miterlimit="10"/></g><g transform="translate(-590,-214) scale(1,1)"><path fill="none" stroke="#000000" d="M 948.9592947028127 977.4926870729037 L 959 973 L 948.7233397014639 969.0769586914624" stroke-miterlimit="10"/></g><g transform="translate(-590,-214) scale(1,1)"><path fill="none" stroke="#000000" d="M 987 959 L 765 686" stroke-miterlimit="10" stroke-dasharray="3"/></g><g transform="translate(-590,-214) scale(1,1)"><path fill="none" stroke="#000000" d="M 774.6777367983323 691.2289014584525 L 765 686 L 768.1458016372113 696.5405849960673" stroke-miterlimit="10"/></g><g transform="translate(-590,-214) scale(1,1)"><path fill="none" stroke="#000000" d="M 1029 985 L 1111 1019" stroke-miterlimit="10" stroke-dasharray="3"/></g><g transform="translate(-590,-214) scale(1,1)"><path fill="none" stroke="#000000" d="M 1100.0000007085987 1018.9960516877695 L 1111 1019 L 1103.2246177863553 1011.2190340296504" stroke-miterlimit="10"/></g></g></svg>