<svg version="1.1" xmlns="http://www.w3.org/2000/svg" xmlns:xlink="http://www.w3.org/1999/xlink" width="1065.50634765625" height="274"><defs/><g><g transform="translate(-558,-161) scale(1,1)"><rect fill="#C0C0C0" stroke="none" x="774" y="184" width="93.50634765625" height="62" opacity="0.2"/></g><g transform="translate(-558,-161) scale(1,1)"><rect fill="#ffffff" stroke="none" x="767" y="177" width="93.50634765625" height="62"/></g><g transform="translate(-558,-161) scale(1,1)"><path fill="none" stroke="#000000" d="M 767 177 L 860.50634765625 177 L 860.50634765625 239 L 767 239 L 767 177 Z Z" stroke-miterlimit="10"/></g><g transform="translate(-558,-161) scale(1,1)"><path fill="none" stroke="#000000" d="M 767 230 L 860.50634765625 230" stroke-miterlimit="10"/></g><g transform="translate(-558,-161) scale(1,1)"><g><path fill="none" stroke="none"/><text fill="#000000" stroke="none" font-family="Arial" font-size="13px" font-style="normal" font-weight="normal" text-decoration="none" x="783.40185546875" y="194.5">«abstract»</text></g></g><g transform="translate(-558,-161) scale(1,1)"><g><path fill="none" stroke="none"/><text fill="#000000" stroke="none" font-family="Arial" font-size="13px" font-style="italic" font-weight="bold" text-decoration="none" x="803.279541015625" y="209.5">Tile</text></g></g><g transform="translate(-558,-161) scale(1,1)"><g><path fill="none" stroke="none"/><text fill="#000000" stroke="none" font-family="Arial" font-size="13px" font-style="normal" font-weight="normal" text-decoration="none" x="771.5" y="224.5">(from Classes)</text></g></g><g transform="translate(-558,-161) scale(1,1)"><rect fill="#C0C0C0" stroke="none" x="855" y="369" width="93.50634765625" height="49" opacity="0.2"/></g><g transform="translate(-558,-161) scale(1,1)"><rect fill="#ffffff" stroke="none" x="848" y="362" width="93.50634765625" height="49"/></g><g transform="translate(-558,-161) scale(1,1)"><path fill="none" stroke="#000000" d="M 848 362 L 941.50634765625 362 L 941.50634765625 411 L 848 411 L 848 362 Z Z" stroke-miterlimit="10"/></g><g transform="translate(-558,-161) scale(1,1)"><path fill="none" stroke="#000000" d="M 848 402 L 941.50634765625 402" stroke-miterlimit="10"/></g><g transform="translate(-558,-161) scale(1,1)"><g><path fill="none" stroke="none"/><text fill="#000000" stroke="none" font-family="Arial" font-size="13px" font-style="normal" font-weight="bold" text-decoration="none" x="873.793212890625" y="381.5">Parede</text></g></g><g transform="translate(-558,-161) scale(1,1)"><g><path fill="none" stroke="none"/><text fill="#000000" stroke="none" font-family="Arial" font-size="13px" font-style="normal" font-weight="normal" text-decoration="none" x="852.5" y="396.5">(from Classes)</text></g></g><g transform="translate(-558,-161) scale(1,1)"><path fill="none" stroke="#000000" d="M 883 361 L 828 240" stroke-miterlimit="10"/></g><g transform="translate(-558,-161) scale(1,1)"><path fill="#FFFFFF" stroke="none" d="M 844.0750972588421 255.0196953404111 L 828 240 L 828.7462818533999 261.9873387065212"/></g><g transform="translate(-558,-161) scale(1,1)"><path fill="none" stroke="#000000" d="M 844.0750972588421 255.0196953404111 L 828 240 L 828.7462818533999 261.9873387065212 L 844.0750972588421 255.0196953404111" stroke-miterlimit="10"/></g><g transform="translate(-558,-161) scale(1,1)"><rect fill="#C0C0C0" stroke="none" x="715" y="369" width="93.50634765625" height="49" opacity="0.2"/></g><g transform="translate(-558,-161) scale(1,1)"><rect fill="#ffffff" stroke="none" x="708" y="362" width="93.50634765625" height="49"/></g><g transform="translate(-558,-161) scale(1,1)"><path fill="none" stroke="#000000" d="M 708 362 L 801.50634765625 362 L 801.50634765625 411 L 708 411 L 708 362 Z Z" stroke-miterlimit="10"/></g><g transform="translate(-558,-161) scale(1,1)"><path fill="none" stroke="#000000" d="M 708 402 L 801.50634765625 402" stroke-miterlimit="10"/></g><g transform="translate(-558,-161) scale(1,1)"><g><path fill="none" stroke="none"/><text fill="#000000" stroke="none" font-family="Arial" font-size="13px" font-style="normal" font-weight="bold" text-decoration="none" x="739.214111328125" y="381.5">Chao</text></g></g><g transform="translate(-558,-161) scale(1,1)"><g><path fill="none" stroke="none"/><text fill="#000000" stroke="none" font-family="Arial" font-size="13px" font-style="normal" font-weight="normal" text-decoration="none" x="712.5" y="396.5">(from Classes)</text></g></g><g transform="translate(-558,-161) scale(1,1)"><path fill="none" stroke="#000000" d="M 762 361 L 802 240" stroke-miterlimit="10"/></g><g transform="translate(-558,-161) scale(1,1)"><path fill="#FFFFFF" stroke="none" d="M 803.6140067052884 261.94071517419803 L 802 240 L 787.6268466024319 256.655703569948"/></g><g transform="translate(-558,-161) scale(1,1)"><path fill="none" stroke="#000000" d="M 803.6140067052884 261.94071517419803 L 802 240 L 787.6268466024319 256.655703569948 L 803.6140067052884 261.94071517419803" stroke-miterlimit="10"/></g><g transform="translate(-558,-161) scale(1,1)"><rect fill="#C0C0C0" stroke="none" x="575" y="369" width="93.50634765625" height="49" opacity="0.2"/></g><g transform="translate(-558,-161) scale(1,1)"><rect fill="#ffffff" stroke="none" x="568" y="362" width="93.50634765625" height="49"/></g><g transform="translate(-558,-161) scale(1,1)"><path fill="none" stroke="#000000" d="M 568 362 L 661.50634765625 362 L 661.50634765625 411 L 568 411 L 568 362 Z Z" stroke-miterlimit="10"/></g><g transform="translate(-558,-161) scale(1,1)"><path fill="none" stroke="#000000" d="M 568 402 L 661.50634765625 402" stroke-miterlimit="10"/></g><g transform="translate(-558,-161) scale(1,1)"><g><path fill="none" stroke="none"/><text fill="#000000" stroke="none" font-family="Arial" font-size="13px" font-style="normal" font-weight="bold" text-decoration="none" x="599.57275390625" y="381.5">Agua</text></g></g><g transform="translate(-558,-161) scale(1,1)"><g><path fill="none" stroke="none"/><text fill="#000000" stroke="none" font-family="Arial" font-size="13px" font-style="normal" font-weight="normal" text-decoration="none" x="572.5" y="396.5">(from Classes)</text></g></g><g transform="translate(-558,-161) scale(1,1)"><path fill="none" stroke="#000000" d="M 642 361 L 777 240" stroke-miterlimit="10"/></g><g transform="translate(-558,-161) scale(1,1)"><path fill="#FFFFFF" stroke="none" d="M 767.4836416956983 259.83529492153184 L 777 240 L 756.2452469649771 247.29659005667762"/></g><g transform="translate(-558,-161) scale(1,1)"><path fill="none" stroke="#000000" d="M 767.4836416956983 259.83529492153184 L 777 240 L 756.2452469649771 247.29659005667762 L 767.4836416956983 259.83529492153184" stroke-miterlimit="10"/></g><g transform="translate(-558,-161) scale(1,1)"><rect fill="#C0C0C0" stroke="none" x="1065" y="184" width="93.50634765625" height="62" opacity="0.2"/></g><g transform="translate(-558,-161) scale(1,1)"><rect fill="#ffffff" stroke="none" x="1058" y="177" width="93.50634765625" height="62"/></g><g transform="translate(-558,-161) scale(1,1)"><path fill="none" stroke="#000000" d="M 1058 177 L 1151.50634765625 177 L 1151.50634765625 239 L 1058 239 L 1058 177 Z Z" stroke-miterlimit="10"/></g><g transform="translate(-558,-161) scale(1,1)"><path fill="none" stroke="#000000" d="M 1058 230 L 1151.50634765625 230" stroke-miterlimit="10"/></g><g transform="translate(-558,-161) scale(1,1)"><g><path fill="none" stroke="none"/><text fill="#000000" stroke="none" font-family="Arial" font-size="13px" font-style="normal" font-weight="normal" text-decoration="none" x="1074.40185546875" y="194.5">«abstract»</text></g></g><g transform="translate(-558,-161) scale(1,1)"><g><path fill="none" stroke="none"/><text fill="#000000" stroke="none" font-family="Arial" font-size="13px" font-style="italic" font-weight="bold" text-decoration="none" x="1080.1845703125" y="209.5">Camada</text></g></g><g transform="translate(-558,-161) scale(1,1)"><g><path fill="none" stroke="none"/><text fill="#000000" stroke="none" font-family="Arial" font-size="13px" font-style="normal" font-weight="normal" text-decoration="none" x="1062.5" y="224.5">(from Classes)</text></g></g><g transform="translate(-558,-161) scale(1,1)"><path fill="none" stroke="#000000" d="M 862 208 L 1057 208" stroke-miterlimit="10"/></g><g transform="translate(-558,-161) scale(1,1)"><path fill="#000000" stroke="none" d="M 1046.837325142376 212.209517756016 L 1057 208 L 1046.837325142376 203.790482243984 L 1035 208"/></g><g transform="translate(-558,-161) scale(1,1)"><path fill="none" stroke="#000000" d="M 1046.837325142376 212.209517756016 L 1057 208 L 1046.837325142376 203.790482243984 L 1035 208 L 1046.837325142376 212.209517756016" stroke-miterlimit="10"/></g><g transform="translate(-558,-161) scale(1,1)"><path fill="none" stroke="#000000" d="M 1057 208 L 862 208" stroke-miterlimit="10"/></g><g transform="translate(-558,-161) scale(1,1)"><path fill="none" stroke="#000000" d="M 872.1626748576241 203.790482243984 L 862 208 L 872.1626748576241 212.209517756016" stroke-miterlimit="10"/></g><g transform="translate(-558,-161) scale(1,1)"><rect fill="#C0C0C0" stroke="none" x="1356" y="178" width="132.9189453125" height="75" opacity="0.2"/></g><g transform="translate(-558,-161) scale(1,1)"><rect fill="#ffffff" stroke="none" x="1349" y="171" width="132.9189453125" height="75"/></g><g transform="translate(-558,-161) scale(1,1)"><path fill="none" stroke="#000000" d="M 1349 171 L 1481.9189453125 171 L 1481.9189453125 246 L 1349 246 L 1349 171 Z Z" stroke-miterlimit="10"/></g><g transform="translate(-558,-161) scale(1,1)"><path fill="none" stroke="#000000" d="M 1349 224 L 1481.9189453125 224" stroke-miterlimit="10"/></g><g transform="translate(-558,-161) scale(1,1)"><g><path fill="none" stroke="none"/><text fill="#000000" stroke="none" font-family="Arial" font-size="13px" font-style="normal" font-weight="normal" text-decoration="none" x="1385.108154296875" y="188.5">«abstract»</text></g></g><g transform="translate(-558,-161) scale(1,1)"><g><path fill="none" stroke="none"/><text fill="#000000" stroke="none" font-family="Arial" font-size="13px" font-style="italic" font-weight="bold" text-decoration="none" x="1396.30859375" y="203.5">Objeto</text></g></g><g transform="translate(-558,-161) scale(1,1)"><g><path fill="none" stroke="none"/><text fill="#000000" stroke="none" font-family="Arial" font-size="13px" font-style="normal" font-weight="normal" text-decoration="none" x="1373.206298828125" y="218.5">(from Classes)</text></g></g><g transform="translate(-558,-161) scale(1,1)"><g><path fill="none" stroke="none"/><text fill="#000000" stroke="none" font-family="Arial" font-size="13px" font-style="normal" font-weight="normal" text-decoration="none" x="1354" y="241.5">+doComportamento()</text></g></g><g transform="translate(-558,-161) scale(1,1)"><path fill="none" stroke="#000000" d="M 1348 208 L 1153 208" stroke-miterlimit="10"/></g><g transform="translate(-558,-161) scale(1,1)"><path fill="#000000" stroke="none" d="M 1163.162674857624 203.790482243984 L 1153 208 L 1163.162674857624 212.209517756016 L 1175 208"/></g><g transform="translate(-558,-161) scale(1,1)"><path fill="none" stroke="#000000" d="M 1163.162674857624 203.790482243984 L 1153 208 L 1163.162674857624 212.209517756016 L 1175 208 L 1163.162674857624 203.790482243984" stroke-miterlimit="10"/></g><g transform="translate(-558,-161) scale(1,1)"><path fill="none" stroke="#000000" d="M 1153 208 L 1348 208" stroke-miterlimit="10"/></g><g transform="translate(-558,-161) scale(1,1)"><path fill="none" stroke="#000000" d="M 1337.837325142376 212.209517756016 L 1348 208 L 1337.837325142376 203.790482243984" stroke-miterlimit="10"/></g><g transform="translate(-558,-161) scale(1,1)"><rect fill="#C0C0C0" stroke="none" x="1375" y="355" width="132.9189453125" height="77" opacity="0.2"/></g><g transform="translate(-558,-161) scale(1,1)"><rect fill="#ffffff" stroke="none" x="1368" y="348" width="132.9189453125" height="77"/></g><g transform="translate(-558,-161) scale(1,1)"><path fill="none" stroke="#000000" d="M 1368 348 L 1500.9189453125 348 L 1500.9189453125 425 L 1368 425 L 1368 348 Z Z" stroke-miterlimit="10"/></g><g transform="translate(-558,-161) scale(1,1)"><path fill="none" stroke="#000000" d="M 1368 388 L 1500.9189453125 388" stroke-miterlimit="10"/></g><g transform="translate(-558,-161) scale(1,1)"><g><path fill="none" stroke="none"/><text fill="#000000" stroke="none" font-family="Arial" font-size="13px" font-style="normal" font-weight="bold" text-decoration="none" x="1417.84130859375" y="367.5">Caixa</text></g></g><g transform="translate(-558,-161) scale(1,1)"><g><path fill="none" stroke="none"/><text fill="#000000" stroke="none" font-family="Arial" font-size="13px" font-style="normal" font-weight="normal" text-decoration="none" x="1392.206298828125" y="382.5">(from Classes)</text></g></g><g transform="translate(-558,-161) scale(1,1)"><g><path fill="none" stroke="none"/><text fill="#000000" stroke="none" font-family="Arial" font-size="13px" font-style="normal" font-weight="normal" text-decoration="none" x="1373" y="405.5">+doComportamento()</text></g></g><g transform="translate(-558,-161) scale(1,1)"><g><path fill="none" stroke="none"/><text fill="#000000" stroke="none" font-family="Arial" font-size="13px" font-style="normal" font-weight="normal" text-decoration="none" x="1373" y="420.5">+requestState()</text></g></g><g transform="translate(-558,-161) scale(1,1)"><path fill="none" stroke="#000000" d="M 1430 347 L 1419 247" stroke-miterlimit="10"/></g><g transform="translate(-558,-161) scale(1,1)"><path fill="#FFFFFF" stroke="none" d="M 1429.5909414485504 266.282944775977 L 1419 247 L 1412.8538255050805 268.1240275297587"/></g><g transform="translate(-558,-161) scale(1,1)"><path fill="none" stroke="#000000" d="M 1429.5909414485504 266.282944775977 L 1419 247 L 1412.8538255050805 268.1240275297587 L 1429.5909414485504 266.282944775977" stroke-miterlimit="10"/></g><g transform="translate(-558,-161) scale(1,1)"><rect fill="#C0C0C0" stroke="none" x="1231" y="369" width="93.50634765625" height="49" opacity="0.2"/></g><g transform="translate(-558,-161) scale(1,1)"><rect fill="#ffffff" stroke="none" x="1224" y="362" width="93.50634765625" height="49"/></g><g transform="translate(-558,-161) scale(1,1)"><path fill="none" stroke="#000000" d="M 1224 362 L 1317.50634765625 362 L 1317.50634765625 411 L 1224 411 L 1224 362 Z Z" stroke-miterlimit="10"/></g><g transform="translate(-558,-161) scale(1,1)"><path fill="none" stroke="#000000" d="M 1224 402 L 1317.50634765625 402" stroke-miterlimit="10"/></g><g transform="translate(-558,-161) scale(1,1)"><g><path fill="none" stroke="none"/><text fill="#000000" stroke="none" font-family="Arial" font-size="13px" font-style="normal" font-weight="bold" text-decoration="none" x="1249.799560546875" y="381.5">Inimigo</text></g></g><g transform="translate(-558,-161) scale(1,1)"><g><path fill="none" stroke="none"/><text fill="#000000" stroke="none" font-family="Arial" font-size="13px" font-style="normal" font-weight="normal" text-decoration="none" x="1228.5" y="396.5">(from Classes)</text></g></g><g transform="translate(-558,-161) scale(1,1)"><path fill="none" stroke="#000000" d="M 1290 361 L 1383 247" stroke-miterlimit="10"/></g><g transform="translate(-558,-161) scale(1,1)"><path fill="#FFFFFF" stroke="none" d="M 1376.6754193266902 268.0712998959911 L 1383 247 L 1363.6281870728706 257.42750516261196"/></g><g transform="translate(-558,-161) scale(1,1)"><path fill="none" stroke="#000000" d="M 1376.6754193266902 268.0712998959911 L 1383 247 L 1363.6281870728706 257.42750516261196 L 1376.6754193266902 268.0712998959911" stroke-miterlimit="10"/></g><g transform="translate(-558,-161) scale(1,1)"><rect fill="#C0C0C0" stroke="none" x="1527" y="369" width="93.50634765625" height="49" opacity="0.2"/></g><g transform="translate(-558,-161) scale(1,1)"><rect fill="#ffffff" stroke="none" x="1520" y="362" width="93.50634765625" height="49"/></g><g transform="translate(-558,-161) scale(1,1)"><path fill="none" stroke="#000000" d="M 1520 362 L 1613.50634765625 362 L 1613.50634765625 411 L 1520 411 L 1520 362 Z Z" stroke-miterlimit="10"/></g><g transform="translate(-558,-161) scale(1,1)"><path fill="none" stroke="#000000" d="M 1520 402 L 1613.50634765625 402" stroke-miterlimit="10"/></g><g transform="translate(-558,-161) scale(1,1)"><g><path fill="none" stroke="none"/><text fill="#000000" stroke="none" font-family="Arial" font-size="13px" font-style="normal" font-weight="bold" text-decoration="none" x="1543.263671875" y="381.5">Jogador</text></g></g><g transform="translate(-558,-161) scale(1,1)"><g><path fill="none" stroke="none"/><text fill="#000000" stroke="none" font-family="Arial" font-size="13px" font-style="normal" font-weight="normal" text-decoration="none" x="1524.5" y="396.5">(from Classes)</text></g></g><g transform="translate(-558,-161) scale(1,1)"><path fill="none" stroke="#000000" d="M 1545 361 L 1448 247" stroke-miterlimit="10"/></g><g transform="translate(-558,-161) scale(1,1)"><path fill="#FFFFFF" stroke="none" d="M 1467.5835799839633 257.024140612128 L 1448 247 L 1454.7595444041663 267.9358200089727"/></g><g transform="translate(-558,-161) scale(1,1)"><path fill="none" stroke="#000000" d="M 1467.5835799839633 257.024140612128 L 1448 247 L 1454.7595444041663 267.9358200089727 L 1467.5835799839633 257.024140612128" stroke-miterlimit="10"/></g></g></svg>