<svg version="1.1" xmlns="http://www.w3.org/2000/svg" xmlns:xlink="http://www.w3.org/1999/xlink" width="190.484375" height="208"><defs/><g><g transform="translate(-1044,-586) scale(1,1)"><rect fill="#C0C0C0" stroke="none" x="1061" y="603" width="170.484375" height="188" opacity="0.2"/></g><g transform="translate(-1044,-586) scale(1,1)"><rect fill="#ffffff" stroke="none" x="1054" y="596" width="170.484375" height="188"/></g><g transform="translate(-1044,-586) scale(1,1)"><path fill="none" stroke="#000000" d="M 1054 596 L 1224.484375 596 L 1224.484375 784 L 1054 784 L 1054 596 Z Z" stroke-miterlimit="10"/></g><g transform="translate(-1044,-586) scale(1,1)"><path fill="none" stroke="#000000" d="M 1054 649 L 1224.484375 649" stroke-miterlimit="10"/></g><g transform="translate(-1044,-586) scale(1,1)"><path fill="none" stroke="#000000" d="M 1054 732 L 1224.484375 732" stroke-miterlimit="10"/></g><g transform="translate(-1044,-586) scale(1,1)"><g><path fill="none" stroke="none"/><text fill="#000000" stroke="none" font-family="Arial" font-size="13px" font-style="normal" font-weight="normal" text-decoration="none" x="1105.9931640625" y="613.5">«singleton»</text></g></g><g transform="translate(-1044,-586) scale(1,1)"><g><path fill="none" stroke="none"/><text fill="#000000" stroke="none" font-family="Arial" font-size="13px" font-style="normal" font-weight="bold" text-decoration="none" x="1124.791748046875" y="628.5">Fase</text></g></g><g transform="translate(-1044,-586) scale(1,1)"><g><path fill="none" stroke="none"/><text fill="#000000" stroke="none" font-family="Arial" font-size="13px" font-style="normal" font-weight="normal" text-decoration="none" x="1096.989013671875" y="643.5">(from Classes)</text></g></g><g transform="translate(-1044,-586) scale(1,1)"><g><path fill="none" stroke="none"/><text fill="#000000" stroke="none" font-family="Arial" font-size="13px" font-style="normal" font-weight="normal" text-decoration="none" x="1059" y="666.5">+Score</text></g></g><g transform="translate(-1044,-586) scale(1,1)"><g><path fill="none" stroke="none"/><text fill="#000000" stroke="none" font-family="Arial" font-size="13px" font-style="normal" font-weight="normal" text-decoration="none" x="1059" y="681.5">+Level</text></g></g><g transform="translate(-1044,-586) scale(1,1)"><g><path fill="none" stroke="none"/><text fill="#000000" stroke="none" font-family="Arial" font-size="13px" font-style="normal" font-weight="normal" text-decoration="none" x="1059" y="696.5">+Time</text></g></g><g transform="translate(-1044,-586) scale(1,1)"><g><path fill="none" stroke="none"/><text fill="#000000" stroke="none" font-family="Arial" font-size="13px" font-style="normal" font-weight="normal" text-decoration="none" x="1059" y="711.5">-state</text></g></g><g transform="translate(-1044,-586) scale(1,1)"><g><path fill="none" stroke="none"/><text fill="#000000" stroke="none" font-family="Arial" font-size="13px" font-style="normal" font-weight="normal" text-decoration="none" x="1059" y="726.5">-instance: Fase</text></g></g><g transform="translate(-1044,-586) scale(1,1)"><g><path fill="none" stroke="none"/><text fill="#000000" stroke="none" font-family="Arial" font-size="13px" font-style="normal" font-weight="normal" text-decoration="none" x="1059" y="749.5">+CreateMemento()</text></g></g><g transform="translate(-1044,-586) scale(1,1)"><g><path fill="none" stroke="none"/><text fill="#000000" stroke="none" font-family="Arial" font-size="13px" font-style="normal" font-weight="normal" text-decoration="none" x="1059" y="764.5">+SetMemento(in: Memento)</text></g></g><g transform="translate(-1044,-586) scale(1,1)"><g><path fill="none" stroke="none"/><text fill="#000000" stroke="none" font-family="Arial" font-size="13px" font-style="normal" font-weight="normal" text-decoration="none" x="1059" y="779.5">+getInstance()</text></g></g></g></svg>