<svg version="1.1" xmlns="http://www.w3.org/2000/svg" xmlns:xlink="http://www.w3.org/1999/xlink" width="767.50634765625" height="274"><defs/><g><g transform="translate(-1358,-249) scale(1,1)"><path fill="none" stroke="#000000" d="M 1502 296 L 1833 296" stroke-miterlimit="10"/></g><g transform="translate(-1358,-249) scale(1,1)"><path fill="none" stroke="#000000" d="M 1822.837325142376 300.209517756016 L 1833 296 L 1822.837325142376 291.790482243984" stroke-miterlimit="10"/></g><g transform="translate(-1358,-249) scale(1,1)"><rect fill="#C0C0C0" stroke="none" x="1841" y="266" width="109.38818359375" height="75" opacity="0.2"/></g><g transform="translate(-1358,-249) scale(1,1)"><rect fill="#ffffff" stroke="none" x="1834" y="259" width="109.38818359375" height="75"/></g><g transform="translate(-1358,-249) scale(1,1)"><path fill="none" stroke="#000000" d="M 1834 259 L 1943.38818359375 259 L 1943.38818359375 334 L 1834 334 L 1834 259 Z Z" stroke-miterlimit="10"/></g><g transform="translate(-1358,-249) scale(1,1)"><path fill="none" stroke="#000000" d="M 1834 312 L 1943.38818359375 312" stroke-miterlimit="10"/></g><g transform="translate(-1358,-249) scale(1,1)"><g><path fill="none" stroke="none"/><text fill="#000000" stroke="none" font-family="Arial" font-size="13px" font-style="normal" font-weight="normal" text-decoration="none" x="1858.3427734375" y="276.5">«abstract»</text></g></g><g transform="translate(-1358,-249) scale(1,1)"><g><path fill="none" stroke="none"/><text fill="#000000" stroke="none" font-family="Arial" font-size="13px" font-style="italic" font-weight="bold" text-decoration="none" x="1842.089599609375" y="291.5">Comportamento</text></g></g><g transform="translate(-1358,-249) scale(1,1)"><g><path fill="none" stroke="none"/><text fill="#000000" stroke="none" font-family="Arial" font-size="13px" font-style="normal" font-weight="normal" text-decoration="none" x="1846.44091796875" y="306.5">(from Classes)</text></g></g><g transform="translate(-1358,-249) scale(1,1)"><g><path fill="none" stroke="none"/><text fill="#000000" stroke="none" font-family="Arial" font-size="13px" font-style="normal" font-weight="normal" text-decoration="none" x="1839" y="329.5">+executar()</text></g></g><g transform="translate(-1358,-249) scale(1,1)"><rect fill="#C0C0C0" stroke="none" x="1849" y="458" width="93.50634765625" height="62" opacity="0.2"/></g><g transform="translate(-1358,-249) scale(1,1)"><rect fill="#ffffff" stroke="none" x="1842" y="451" width="93.50634765625" height="62"/></g><g transform="translate(-1358,-249) scale(1,1)"><path fill="none" stroke="#000000" d="M 1842 451 L 1935.50634765625 451 L 1935.50634765625 513 L 1842 513 L 1842 451 Z Z" stroke-miterlimit="10"/></g><g transform="translate(-1358,-249) scale(1,1)"><path fill="none" stroke="#000000" d="M 1842 491 L 1935.50634765625 491" stroke-miterlimit="10"/></g><g transform="translate(-1358,-249) scale(1,1)"><g><path fill="none" stroke="none"/><text fill="#000000" stroke="none" font-family="Arial" font-size="13px" font-style="normal" font-weight="bold" text-decoration="none" x="1853.35546875" y="470.5">Empurrarvel</text></g></g><g transform="translate(-1358,-249) scale(1,1)"><g><path fill="none" stroke="none"/><text fill="#000000" stroke="none" font-family="Arial" font-size="13px" font-style="normal" font-weight="normal" text-decoration="none" x="1846.5" y="485.5">(from Classes)</text></g></g><g transform="translate(-1358,-249) scale(1,1)"><g><path fill="none" stroke="none"/><text fill="#000000" stroke="none" font-family="Arial" font-size="13px" font-style="normal" font-weight="normal" text-decoration="none" x="1847" y="508.5">+executar()</text></g></g><g transform="translate(-1358,-249) scale(1,1)"><path fill="none" stroke="#000000" d="M 1888 450 L 1888 335" stroke-miterlimit="10"/></g><g transform="translate(-1358,-249) scale(1,1)"><path fill="#FFFFFF" stroke="none" d="M 1896.419035512032 355.3253497152483 L 1888 335 L 1879.580964487968 355.3253497152483"/></g><g transform="translate(-1358,-249) scale(1,1)"><path fill="none" stroke="#000000" d="M 1896.419035512032 355.3253497152483 L 1888 335 L 1879.580964487968 355.3253497152483 L 1896.419035512032 355.3253497152483" stroke-miterlimit="10"/></g><g transform="translate(-1358,-249) scale(1,1)"><rect fill="#C0C0C0" stroke="none" x="2029" y="458" width="93.50634765625" height="62" opacity="0.2"/></g><g transform="translate(-1358,-249) scale(1,1)"><rect fill="#ffffff" stroke="none" x="2022" y="451" width="93.50634765625" height="62"/></g><g transform="translate(-1358,-249) scale(1,1)"><path fill="none" stroke="#000000" d="M 2022 451 L 2115.50634765625 451 L 2115.50634765625 513 L 2022 513 L 2022 451 Z Z" stroke-miterlimit="10"/></g><g transform="translate(-1358,-249) scale(1,1)"><path fill="none" stroke="#000000" d="M 2022 491 L 2115.50634765625 491" stroke-miterlimit="10"/></g><g transform="translate(-1358,-249) scale(1,1)"><g><path fill="none" stroke="none"/><text fill="#000000" stroke="none" font-family="Arial" font-size="13px" font-style="normal" font-weight="bold" text-decoration="none" x="2033.7109375" y="470.5">Controlarvel</text></g></g><g transform="translate(-1358,-249) scale(1,1)"><g><path fill="none" stroke="none"/><text fill="#000000" stroke="none" font-family="Arial" font-size="13px" font-style="normal" font-weight="normal" text-decoration="none" x="2026.5" y="485.5">(from Classes)</text></g></g><g transform="translate(-1358,-249) scale(1,1)"><g><path fill="none" stroke="none"/><text fill="#000000" stroke="none" font-family="Arial" font-size="13px" font-style="normal" font-weight="normal" text-decoration="none" x="2027" y="508.5">+executar()</text></g></g><g transform="translate(-1358,-249) scale(1,1)"><path fill="none" stroke="#000000" d="M 2037 450 L 1926 335" stroke-miterlimit="10"/></g><g transform="translate(-1358,-249) scale(1,1)"><path fill="#FFFFFF" stroke="none" d="M 1946.1731807726492 343.77740152402833 L 1926 335 L 1934.0580327836049 355.47115306127995"/></g><g transform="translate(-1358,-249) scale(1,1)"><path fill="none" stroke="#000000" d="M 1946.1731807726492 343.77740152402833 L 1926 335 L 1934.0580327836049 355.47115306127995 L 1946.1731807726492 343.77740152402833" stroke-miterlimit="10"/></g><g transform="translate(-1358,-249) scale(1,1)"><rect fill="#C0C0C0" stroke="none" x="1647" y="458" width="93.50634765625" height="62" opacity="0.2"/></g><g transform="translate(-1358,-249) scale(1,1)"><rect fill="#ffffff" stroke="none" x="1640" y="451" width="93.50634765625" height="62"/></g><g transform="translate(-1358,-249) scale(1,1)"><path fill="none" stroke="#000000" d="M 1640 451 L 1733.50634765625 451 L 1733.50634765625 513 L 1640 513 L 1640 451 Z Z" stroke-miterlimit="10"/></g><g transform="translate(-1358,-249) scale(1,1)"><path fill="none" stroke="#000000" d="M 1640 491 L 1733.50634765625 491" stroke-miterlimit="10"/></g><g transform="translate(-1358,-249) scale(1,1)"><g><path fill="none" stroke="none"/><text fill="#000000" stroke="none" font-family="Arial" font-size="13px" font-style="normal" font-weight="bold" text-decoration="none" x="1662.536865234375" y="470.5">Vagante</text></g></g><g transform="translate(-1358,-249) scale(1,1)"><g><path fill="none" stroke="none"/><text fill="#000000" stroke="none" font-family="Arial" font-size="13px" font-style="normal" font-weight="normal" text-decoration="none" x="1644.5" y="485.5">(from Classes)</text></g></g><g transform="translate(-1358,-249) scale(1,1)"><g><path fill="none" stroke="none"/><text fill="#000000" stroke="none" font-family="Arial" font-size="13px" font-style="normal" font-weight="normal" text-decoration="none" x="1645" y="508.5">+executar()</text></g></g><g transform="translate(-1358,-249) scale(1,1)"><path fill="none" stroke="#000000" d="M 1721 450 L 1846 335" stroke-miterlimit="10"/></g><g transform="translate(-1358,-249) scale(1,1)"><path fill="#FFFFFF" stroke="none" d="M 1836.7421077962786 354.9572400883557 L 1846 335 L 1825.34178184301 342.5655814434988"/></g><g transform="translate(-1358,-249) scale(1,1)"><path fill="none" stroke="#000000" d="M 1836.7421077962786 354.9572400883557 L 1846 335 L 1825.34178184301 342.5655814434988 L 1836.7421077962786 354.9572400883557" stroke-miterlimit="10"/></g><g transform="translate(-1358,-249) scale(1,1)"><rect fill="#C0C0C0" stroke="none" x="1375" y="266" width="132.9189453125" height="75" opacity="0.2"/></g><g transform="translate(-1358,-249) scale(1,1)"><rect fill="#ffffff" stroke="none" x="1368" y="259" width="132.9189453125" height="75"/></g><g transform="translate(-1358,-249) scale(1,1)"><path fill="none" stroke="#000000" d="M 1368 259 L 1500.9189453125 259 L 1500.9189453125 334 L 1368 334 L 1368 259 Z Z" stroke-miterlimit="10"/></g><g transform="translate(-1358,-249) scale(1,1)"><path fill="none" stroke="#000000" d="M 1368 312 L 1500.9189453125 312" stroke-miterlimit="10"/></g><g transform="translate(-1358,-249) scale(1,1)"><g><path fill="none" stroke="none"/><text fill="#000000" stroke="none" font-family="Arial" font-size="13px" font-style="normal" font-weight="normal" text-decoration="none" x="1404.108154296875" y="276.5">«abstract»</text></g></g><g transform="translate(-1358,-249) scale(1,1)"><g><path fill="none" stroke="none"/><text fill="#000000" stroke="none" font-family="Arial" font-size="13px" font-style="italic" font-weight="bold" text-decoration="none" x="1415.30859375" y="291.5">Objeto</text></g></g><g transform="translate(-1358,-249) scale(1,1)"><g><path fill="none" stroke="none"/><text fill="#000000" stroke="none" font-family="Arial" font-size="13px" font-style="normal" font-weight="normal" text-decoration="none" x="1392.206298828125" y="306.5">(from Classes)</text></g></g><g transform="translate(-1358,-249) scale(1,1)"><g><path fill="none" stroke="none"/><text fill="#000000" stroke="none" font-family="Arial" font-size="13px" font-style="normal" font-weight="normal" text-decoration="none" x="1373" y="329.5">+doComportamento()</text></g></g><g transform="translate(-1358,-249) scale(1,1)"><path fill="none" stroke="#000000" d="M 1833 296 L 1502 296" stroke-miterlimit="10"/></g><g transform="translate(-1358,-249) scale(1,1)"><path fill="#FFFFFF" stroke="none" d="M 1512.162674857624 291.790482243984 L 1502 296 L 1512.162674857624 300.209517756016 L 1524 296"/></g><g transform="translate(-1358,-249) scale(1,1)"><path fill="none" stroke="#000000" d="M 1512.162674857624 291.790482243984 L 1502 296 L 1512.162674857624 300.209517756016 L 1524 296 L 1512.162674857624 291.790482243984" stroke-miterlimit="10"/></g></g></svg>