<svg version="1.1" xmlns="http://www.w3.org/2000/svg" xmlns:xlink="http://www.w3.org/1999/xlink" width="626.50634765625" height="125"><defs/><g><g transform="translate(-869,-648) scale(1,1)"><path fill="none" stroke="#000000" d="M 1391 710 L 1255 710" stroke-miterlimit="10"/></g><g transform="translate(-869,-648) scale(1,1)"><path fill="none" stroke="#000000" d="M 1265.162674857624 705.790482243984 L 1255 710 L 1265.162674857624 714.209517756016" stroke-miterlimit="10"/></g><g transform="translate(-869,-648) scale(1,1)"><rect fill="#C0C0C0" stroke="none" x="886" y="665" width="170.484375" height="105" opacity="0.2"/></g><g transform="translate(-869,-648) scale(1,1)"><rect fill="#ffffff" stroke="none" x="879" y="658" width="170.484375" height="105"/></g><g transform="translate(-869,-648) scale(1,1)"><path fill="none" stroke="#000000" d="M 879 658 L 1049.484375 658 L 1049.484375 763 L 879 763 L 879 658 Z Z" stroke-miterlimit="10"/></g><g transform="translate(-869,-648) scale(1,1)"><path fill="none" stroke="#000000" d="M 879 711 L 1049.484375 711" stroke-miterlimit="10"/></g><g transform="translate(-869,-648) scale(1,1)"><g><path fill="none" stroke="none"/><text fill="#000000" stroke="none" font-family="Arial" font-size="13px" font-style="normal" font-weight="normal" text-decoration="none" x="930.9931640625" y="675.5">«singleton»</text></g></g><g transform="translate(-869,-648) scale(1,1)"><g><path fill="none" stroke="none"/><text fill="#000000" stroke="none" font-family="Arial" font-size="13px" font-style="normal" font-weight="bold" text-decoration="none" x="949.791748046875" y="690.5">Fase</text></g></g><g transform="translate(-869,-648) scale(1,1)"><g><path fill="none" stroke="none"/><text fill="#000000" stroke="none" font-family="Arial" font-size="13px" font-style="normal" font-weight="normal" text-decoration="none" x="921.989013671875" y="705.5">(from Classes)</text></g></g><g transform="translate(-869,-648) scale(1,1)"><g><path fill="none" stroke="none"/><text fill="#000000" stroke="none" font-family="Arial" font-size="13px" font-style="normal" font-weight="normal" text-decoration="none" x="884" y="728.5">+CreateMemento()</text></g></g><g transform="translate(-869,-648) scale(1,1)"><g><path fill="none" stroke="none"/><text fill="#000000" stroke="none" font-family="Arial" font-size="13px" font-style="normal" font-weight="normal" text-decoration="none" x="884" y="743.5">+SetMemento(in: Memento)</text></g></g><g transform="translate(-869,-648) scale(1,1)"><g><path fill="none" stroke="none"/><text fill="#000000" stroke="none" font-family="Arial" font-size="13px" font-style="normal" font-weight="normal" text-decoration="none" x="884" y="758.5">+getInstance()</text></g></g><g transform="translate(-869,-648) scale(1,1)"><rect fill="#C0C0C0" stroke="none" x="1167" y="679" width="93.50634765625" height="77" opacity="0.2"/></g><g transform="translate(-869,-648) scale(1,1)"><rect fill="#ffffff" stroke="none" x="1160" y="672" width="93.50634765625" height="77"/></g><g transform="translate(-869,-648) scale(1,1)"><path fill="none" stroke="#000000" d="M 1160 672 L 1253.50634765625 672 L 1253.50634765625 749 L 1160 749 L 1160 672 Z Z" stroke-miterlimit="10"/></g><g transform="translate(-869,-648) scale(1,1)"><path fill="none" stroke="#000000" d="M 1160 712 L 1253.50634765625 712" stroke-miterlimit="10"/></g><g transform="translate(-869,-648) scale(1,1)"><g><path fill="none" stroke="none"/><text fill="#000000" stroke="none" font-family="Arial" font-size="13px" font-style="normal" font-weight="bold" text-decoration="none" x="1179.658203125" y="691.5">Memento</text></g></g><g transform="translate(-869,-648) scale(1,1)"><g><path fill="none" stroke="none"/><text fill="#000000" stroke="none" font-family="Arial" font-size="13px" font-style="normal" font-weight="normal" text-decoration="none" x="1164.5" y="706.5">(from Classes)</text></g></g><g transform="translate(-869,-648) scale(1,1)"><g><path fill="none" stroke="none"/><text fill="#000000" stroke="none" font-family="Arial" font-size="13px" font-style="normal" font-weight="normal" text-decoration="none" x="1165" y="729.5">+getState()</text></g></g><g transform="translate(-869,-648) scale(1,1)"><g><path fill="none" stroke="none"/><text fill="#000000" stroke="none" font-family="Arial" font-size="13px" font-style="normal" font-weight="normal" text-decoration="none" x="1165" y="744.5">+setState()</text></g></g><g transform="translate(-869,-648) scale(1,1)"><path fill="none" stroke="#000000" d="M 1050 710 L 1159 710" stroke-miterlimit="10" stroke-dasharray="3"/></g><g transform="translate(-869,-648) scale(1,1)"><path fill="none" stroke="#000000" d="M 1148.837325142376 714.209517756016 L 1159 710 L 1148.837325142376 705.790482243984" stroke-miterlimit="10"/></g><g transform="translate(-869,-648) scale(1,1)"><rect fill="#C0C0C0" stroke="none" x="1399" y="698" width="93.50634765625" height="39" opacity="0.2"/></g><g transform="translate(-869,-648) scale(1,1)"><rect fill="#ffffff" stroke="none" x="1392" y="691" width="93.50634765625" height="39"/></g><g transform="translate(-869,-648) scale(1,1)"><path fill="none" stroke="#000000" d="M 1392 691 L 1485.50634765625 691 L 1485.50634765625 730 L 1392 730 L 1392 691 Z Z" stroke-miterlimit="10"/></g><g transform="translate(-869,-648) scale(1,1)"><g><path fill="none" stroke="none"/><text fill="#000000" stroke="none" font-family="Arial" font-size="13px" font-style="normal" font-weight="bold" text-decoration="none" x="1424.658203125" y="710.5">Jogo</text></g></g><g transform="translate(-869,-648) scale(1,1)"><g><path fill="none" stroke="none"/><text fill="#000000" stroke="none" font-family="Arial" font-size="13px" font-style="normal" font-weight="normal" text-decoration="none" x="1396.5" y="725.5">(from Classes)</text></g></g><g transform="translate(-869,-648) scale(1,1)"><path fill="none" stroke="#000000" d="M 1255 710 L 1391 710" stroke-miterlimit="10"/></g><g transform="translate(-869,-648) scale(1,1)"><path fill="#FFFFFF" stroke="none" d="M 1380.837325142376 714.209517756016 L 1391 710 L 1380.837325142376 705.790482243984 L 1369 710"/></g><g transform="translate(-869,-648) scale(1,1)"><path fill="none" stroke="#000000" d="M 1380.837325142376 714.209517756016 L 1391 710 L 1380.837325142376 705.790482243984 L 1369 710 L 1380.837325142376 714.209517756016" stroke-miterlimit="10"/></g></g></svg>